<?xml version="1.0" encoding="UTF-8"?>
<svg version="1.1" xmlns="http://www.w3.org/2000/svg" width="500" height="500">
<path d="M0 0 C4.29 7.59 8.58 15.18 13 23 C13.33 15.41 13.66 7.82 14 0 C41.06 0 68.12 0 96 0 C96.33 7.59 96.66 15.18 97 23 C101.29 15.41 105.58 7.82 110 0 C122.37266994 0 122.37266994 0 127.28515625 2.97265625 C128.38053711 3.61807373 129.47591797 4.26349121 130.60449219 4.9284668 C131.75738066 5.63945588 132.91004479 6.35080885 134.0625 7.0625 C135.27753677 7.78862013 136.49403742 8.51229573 137.71191406 9.23364258 C140.22542055 10.72561669 142.73148371 12.22907807 145.23291016 13.74121094 C148.90242521 15.9519108 152.60590769 18.09918063 156.32421875 20.2265625 C156.91119034 20.56253952 157.49816193 20.89851654 158.10292053 21.24467468 C159.81843727 22.22592495 161.53421594 23.20671723 163.25 24.1875 C169.91086857 28.01064985 176.5166467 31.88198492 183 36 C181.60582632 39.70897259 179.92181521 43.07838312 177.9609375 46.51953125 C177.09082031 48.0519043 177.09082031 48.0519043 176.203125 49.61523438 C175.29820312 51.19788086 175.29820312 51.19788086 174.375 52.8125 C173.76398438 53.88693359 173.15296875 54.96136719 172.5234375 56.06835938 C171.01844115 58.71386076 169.51054209 61.3576625 168 64 C171.17142897 62.94285701 173.6610414 61.53240426 176.54296875 59.83984375 C177.61611328 59.21142578 178.68925781 58.58300781 179.79492188 57.93554688 C180.91447266 57.27619141 182.03402344 56.61683594 183.1875 55.9375 C184.31865234 55.27427734 185.44980469 54.61105469 186.61523438 53.92773438 C189.41163414 52.28765181 192.20647857 50.64497881 195 49 C197.46409125 51.34889868 199.48500806 53.4762645 201.0859375 56.484375 C201.45178955 57.15944092 201.8176416 57.83450684 202.19458008 58.5300293 C202.58411865 59.26261963 202.97365723 59.99520996 203.375 60.75 C207.39116611 68.14202972 211.55251663 75.43334681 215.8125 82.6875 C217.59875796 85.74363529 219.3831737 88.8008387 221.16699219 91.85839844 C222.41374813 93.99521988 223.66184569 96.13125898 224.91113281 98.26660156 C226.76397568 101.44249744 228.60244194 104.62630259 230.4375 107.8125 C231.29855347 109.28046021 231.29855347 109.28046021 232.17700195 110.77807617 C232.69480225 111.68275635 233.21260254 112.58743652 233.74609375 113.51953125 C234.43723267 114.71219604 234.43723267 114.71219604 235.14233398 115.92895508 C236 118 236 118 235 121 C232.69921875 122.51464844 232.69921875 122.51464844 229.6875 124.109375 C228.07488281 124.99496094 228.07488281 124.99496094 226.4296875 125.8984375 C224.14972875 127.12930361 221.86324246 128.34815716 219.5703125 129.5546875 C213.18507217 132.83063832 213.18507217 132.83063832 209.625 138.703125 C210.03924118 142.68418463 210.03924118 142.68418463 212 146 C228.44738865 154.34552683 247.89114711 152.90783781 265.82263184 152.87554932 C269.91313837 152.87462363 274.0033726 152.90767343 278.09375 152.9375 C286.06260671 152.99078361 294.0309693 153.00761526 302 153 C303.67374624 165.86089534 302.17363821 175.21577301 296.1640625 186.75317383 C277.31674312 223.69875794 272.30175237 257.2295113 272.25 298.63671875 C272.24729033 300.51321035 272.24729033 300.51321035 272.24452591 302.42761087 C272.24308091 317.89740216 272.46883348 333.36052596 272.7795248 348.82684052 C272.96380203 358.1477429 273.08925738 367.46755041 273.17041016 376.78979492 C273.1762129 377.45385008 273.18201565 378.11790524 273.18799424 378.80208328 C273.23933544 384.76548899 273.28501663 390.72893751 273.33104324 396.69238627 C273.3609892 400.54711179 273.39164214 404.40183053 273.42285156 408.25654602 C273.43787374 410.12995304 273.43787374 410.12995304 273.45319939 412.04120666 C273.51655098 419.40381721 273.61213153 426.76511645 273.73915577 434.12690103 C273.81718349 438.66904874 273.88473487 443.21132777 273.95180321 447.75364876 C273.98605808 449.85118873 274.02583532 451.9486471 274.07161903 454.0459671 C274.13401502 456.91180394 274.17749266 459.77737084 274.21704102 462.64360046 C274.24030582 463.46591886 274.26357063 464.28823725 274.28754044 465.13547438 C274.35535551 472.4611754 272.84280624 479.7325641 267.8125 485.3125 C267.28269531 485.92738281 266.75289063 486.54226563 266.20703125 487.17578125 C259.14293559 493.01460014 252.92202498 493.57968268 244.06690979 493.50793457 C242.87967172 493.51417453 241.69243365 493.5204145 240.46921867 493.52684355 C237.19065032 493.53999654 233.91267885 493.53531892 230.63412583 493.52289867 C227.09127267 493.51382417 223.54849835 493.52783036 220.00566101 493.53881836 C213.0693817 493.55658763 206.13327572 493.55276931 199.19698966 493.5411678 C193.55324233 493.53212091 187.90954345 493.53091492 182.26579094 493.53526306 C181.46137767 493.53587599 180.65696439 493.53648893 179.82817496 493.53712043 C178.19372065 493.53839941 176.55926635 493.53969626 174.92481207 493.5410108 C159.60165224 493.55241363 144.27858815 493.53931098 128.95544403 493.51780933 C115.83654022 493.49996928 102.71777815 493.50301745 89.59887695 493.52148438 C74.34314914 493.54294937 59.08750545 493.55128281 43.83176464 493.53903532 C42.20069342 493.53776123 40.56962219 493.53650375 38.93855095 493.53526306 C37.73499866 493.53433741 37.73499866 493.53433741 36.50713219 493.53339306 C30.88143354 493.52995469 25.25578866 493.5357363 19.63009834 493.54518127 C12.75727749 493.55646674 5.88463908 493.55322636 -0.9881612 493.5320583 C-4.48806028 493.52163026 -7.98765661 493.51728215 -11.48755264 493.53065491 C-29.21028393 493.58199923 -45.0576865 492.80059994 -61.5625 485.75 C-62.20123047 485.481875 -62.83996094 485.21375 -63.49804688 484.9375 C-65.00374474 484.30352195 -66.50280193 483.65379828 -68 483 C-68.2784375 483.77859375 -68.556875 484.5571875 -68.84375 485.359375 C-70.52383305 489.19632142 -73.30486051 491.15243025 -77 493 C-78.58387134 493.09260448 -80.17163391 493.1219246 -81.75820923 493.12025452 C-82.76015131 493.12163201 -83.76209339 493.12300951 -84.79439735 493.12442875 C-85.90203627 493.12083064 -87.00967518 493.11723253 -88.15087891 493.11352539 C-89.33067007 493.11364593 -90.51046124 493.11376646 -91.72600365 493.11389065 C-95.55954219 493.11314197 -99.39303261 493.10551575 -103.2265625 493.09765625 C-105.58748349 493.09618669 -107.9484048 493.09516607 -110.30932617 493.09460449 C-119.0812224 493.08935322 -127.85311167 493.07539212 -136.625 493.0625 C-156.21875 493.041875 -175.8125 493.02125 -196 493 C-196 450.1 -196 407.2 -196 363 C-180.16 363 -164.32 363 -148 363 C-147.23235974 344.61928056 -146.56143881 326.26472762 -146.25 307.875 C-146.23836948 307.19620018 -146.22673897 306.51740035 -146.21475601 305.81803083 C-145.45530334 259.70405837 -150.64043601 221.41067671 -172.71484375 180.29150391 C-184 159.16018653 -184 159.16018653 -184 153 C-183.2654509 153.00079559 -182.53090179 153.00159119 -181.77409363 153.00241089 C-174.76004489 153.00464342 -167.74681201 152.97756716 -160.73304272 152.9197216 C-157.12939317 152.89097667 -153.52637843 152.87252627 -149.92260742 152.87988281 C-133.37750685 152.90602393 -118.56093807 152.19417127 -103 146 C-102.34 146 -101.68 146 -101 146 C-99.74509459 139.87024253 -99.74509459 139.87024253 -101 134 C-102.65610696 133.30751753 -104.32478625 132.64488846 -106 132 C-109.30737419 130.30973625 -112.52308721 128.46342108 -115.75 126.625 C-116.62527344 126.14289063 -117.50054687 125.66078125 -118.40234375 125.1640625 C-119.23378906 124.6896875 -120.06523438 124.2153125 -120.921875 123.7265625 C-121.68081055 123.29939941 -122.43974609 122.87223633 -123.22167969 122.43212891 C-125 121 -125 121 -125.90722656 119.125 C-126.03516846 116.19445707 -125.07789114 114.7743249 -123.5625 112.2734375 C-123.0046582 111.33701416 -122.44681641 110.40059082 -121.87207031 109.43579102 C-121.25428711 108.42572998 -120.63650391 107.41566895 -120 106.375 C-118.70219931 104.20498043 -117.40535731 102.03438728 -116.109375 99.86328125 C-115.09327148 98.17259521 -115.09327148 98.17259521 -114.05664062 96.44775391 C-110.71252863 90.86310268 -107.4899733 85.20793321 -104.25 79.5625 C-103.00046458 77.39947114 -101.75047515 75.23670448 -100.5 73.07421875 C-98.29333096 69.25401312 -96.10565369 65.42421125 -93.9375 61.58203125 C-93.04178272 60.01295458 -92.14595799 58.44393924 -91.25 56.875 C-90.85586914 56.1641626 -90.46173828 55.4533252 -90.05566406 54.72094727 C-88.953125 52.8046875 -88.953125 52.8046875 -87 50 C-83.22413115 50 -81.51436153 51.1999569 -78.23828125 53.0625 C-77.12001953 53.69414063 -76.00175781 54.32578125 -74.84960938 54.9765625 C-73.67049432 55.65090425 -72.49145887 56.32538522 -71.3125 57 C-70.12207637 57.67506421 -68.93132479 58.34955047 -67.74023438 59.0234375 C-64.82354102 60.67662402 -61.91034937 62.33567853 -59 64 C-60.02076003 60.93771991 -61.34306099 58.56114451 -62.9765625 55.78125 C-63.564375 54.76675781 -64.1521875 53.75226562 -64.7578125 52.70703125 C-66.00458661 50.56560542 -67.25721859 48.42757962 -68.515625 46.29296875 C-69.10085937 45.27847656 -69.68609375 44.26398437 -70.2890625 43.21875 C-70.83256348 42.28998047 -71.37606445 41.36121094 -71.93603516 40.40429688 C-73 38 -73 38 -72 35 C-70.15600586 33.68823242 -70.15600586 33.68823242 -67.71484375 32.35546875 C-66.803396 31.85039795 -65.89194824 31.34532715 -64.95288086 30.82495117 C-63.95780518 30.28459229 -62.96272949 29.7442334 -61.9375 29.1875 C-59.83244318 28.02244023 -57.72830546 26.85571857 -55.625 25.6875 C-54.53316406 25.08292969 -53.44132813 24.47835938 -52.31640625 23.85546875 C-46.9816269 20.8707571 -41.71085977 17.77899669 -36.4375 14.6875 C-34.92494629 13.80880249 -34.92494629 13.80880249 -33.38183594 12.91235352 C-29.13803987 10.44497324 -24.91200053 7.96824131 -20.765625 5.33984375 C-20.1476001 4.95803955 -19.5295752 4.57623535 -18.89282227 4.18286133 C-17.34874662 3.225026 -15.81987817 2.24278241 -14.29296875 1.2578125 C-11 0 -11 0 0 0 Z M23.875 151.3125 C21.8092728 153.72722037 21.8092728 153.72722037 22 156 C22.9075 156.598125 23.815 157.19625 24.75 157.8125 C30.84256887 161.91326751 33.21127818 167.18323947 35.9375 173.75 C36.30866943 174.62873779 36.67983887 175.50747559 37.06225586 176.4128418 C42.95683146 190.50587974 48.45402569 204.76709405 54 219 C54.66 219 55.32 219 56 219 C56.24754532 218.35377686 56.49509064 217.70755371 56.75013733 217.04174805 C59.10030544 210.91567567 61.46687652 204.7962224 63.85149479 198.68347168 C65.07653245 195.54152895 66.29537045 192.39748177 67.49975586 189.24755859 C68.89154157 185.61700052 70.30495777 181.99550533 71.72265625 178.375 C72.14587662 177.25697998 72.56909698 176.13895996 73.00514221 174.98706055 C76.1509486 167.04217452 79.84229043 159.61031767 88 156 C86.62934037 150.34602903 82.51071146 147.28530151 78 144 C59.94396498 133.11495357 38.31179288 134.81906903 23.875 151.3125 Z " fill="#050302" transform="translate(198,0)"/>
<path d="M0 0 C64.02 0 128.04 0 194 0 C194.20151517 55.21963499 194.20151517 55.21963499 194.24414062 78.31445312 C194.25395908 83.59187901 194.26403254 88.86930421 194.2746582 94.14672852 C194.27663632 95.13889735 194.27663632 95.13889735 194.2786544 96.15110999 C194.29905326 106.16794395 194.33427457 116.18465502 194.37719727 126.20141602 C194.42698325 137.8253698 194.45927944 149.44921699 194.47044247 161.07327443 C194.4769693 167.23000074 194.4923427 173.38642206 194.52865028 179.54305077 C194.5625335 185.33539522 194.57306832 191.12730844 194.56553841 196.91974258 C194.56691637 199.0478544 194.57689418 201.17598032 194.59602737 203.30400658 C194.62084509 206.20610836 194.61494611 209.10657444 194.60127258 212.00871277 C194.61583679 212.85404813 194.630401 213.6993835 194.64540654 214.57033509 C194.59214018 218.74264389 194.33158128 220.53689557 191.83455658 224.02437592 C188.56363781 226.30413492 186.99528239 226.618857 183.04582214 226.60127258 C181.8525531 226.6081459 180.65928406 226.61501923 179.42985535 226.62210083 C178.12937759 226.60412445 176.82889984 226.58614807 175.48901367 226.56762695 C174.09913179 226.56621586 172.70924618 226.56700966 171.31936646 226.56983948 C167.552926 226.57127271 163.78728347 226.54189923 160.02102828 226.50696969 C156.08260769 226.47569002 152.14416834 226.4727742 148.2056427 226.46684265 C140.75057188 226.45130886 133.29586815 226.41028696 125.84095889 226.3600952 C117.35254368 226.30418706 108.86411083 226.27671158 100.3755573 226.25161803 C82.91682595 226.19937047 65.4584518 226.11143753 48 226 C48.00580078 225.24871826 48.01160156 224.49743652 48.01757812 223.72338867 C48.02208984 222.7357251 48.02660156 221.74806152 48.03125 220.73046875 C48.03705078 219.75231201 48.04285156 218.77415527 48.04882812 217.76635742 C47.99582528 214.76348123 47.63461854 211.93511074 47 209 C47.66386719 208.64808594 48.32773437 208.29617188 49.01171875 207.93359375 C56.06130857 203.99199827 59.91642339 200.46480702 63.3125 193.1875 C64.54425396 187.47664073 64.62374954 181.63765841 63 176 C63.66386719 175.72027344 64.32773437 175.44054687 65.01171875 175.15234375 C72.45753253 171.7718356 75.89416114 168.51251184 79.3125 161.1875 C80.99169499 153.4021414 80.51647097 147.30975937 76.62890625 140.265625 C73.1250845 135.39220386 68.32697258 132.5626416 63 130 C63.15855469 129.42507813 63.31710937 128.85015625 63.48046875 128.2578125 C65.25604632 120.5413927 63.69750644 113.91009399 60 107 C55.75001852 101.56946811 49.70363084 98.41206218 43 97 C41.29037689 96.88809508 39.57728231 96.82435885 37.86425781 96.79467773 C36.84350159 96.77473251 35.82274536 96.75478729 34.77105713 96.73423767 C33.67613953 96.71752518 32.58122192 96.70081268 31.453125 96.68359375 C30.3267865 96.66281265 29.200448 96.64203156 28.03997803 96.62062073 C24.44338051 96.55525667 20.84671023 96.49630115 17.25 96.4375 C14.8111904 96.3943023 12.37238816 96.3506876 9.93359375 96.30664062 C3.955806 96.1995887 -2.02205407 96.09779783 -8 96 C-6.76585638 92.87711088 -5.47670831 89.85977657 -3.9375 86.875 C9.34617622 61.10968083 -0.36232247 28.98579735 0 0 Z " fill="#D29F6B" transform="translate(261,251)"/>
<path d="M0 0 C3.40332076 1.99062158 5.17990855 3.34579843 6.9140625 6.84375 C7.92167268 10.87419071 7.32365828 13.3559693 5.4609375 17.0625 C3.59137215 20.11099761 1.53744388 23.02298332 -0.54101562 25.93164062 C-2.70286643 28.99643314 -4.76076051 32.12791575 -6.8293457 35.25610352 C-8.81278861 38.25490539 -10.81309776 41.24222168 -12.81420898 44.22924805 C-13.87820263 45.81811894 -14.93929005 47.40893508 -16 49 C-14.45357819 48.98667633 -14.45357819 48.98667633 -12.87591553 48.9730835 C-3.16456802 48.8920291 6.54671095 48.83204974 16.25831985 48.79275131 C21.25129534 48.77186838 26.24399797 48.74353778 31.23681641 48.69824219 C36.05436641 48.65480972 40.8716538 48.63086822 45.68938446 48.62049103 C47.52823776 48.61309498 49.36707654 48.59865231 51.20581818 48.57707977 C53.7797817 48.54807998 56.35265745 48.5440425 58.92675781 48.54589844 C59.68848801 48.53151733 60.4502182 48.51713623 61.23503113 48.50231934 C64.75744506 48.52983642 66.64118605 48.72365185 69.47137451 50.90338135 C71.12739961 53.17473763 71.54338968 54.22306059 71.5 57 C71.51546875 57.99 71.51546875 57.99 71.53125 59 C70.75160723 61.93512573 69.33908977 63.09688449 67 65 C64.2411499 65.48101807 64.2411499 65.48101807 61.03808594 65.45410156 C59.83714294 65.45379944 58.63619995 65.45349731 57.39886475 65.45318604 C56.10708313 65.43254089 54.81530151 65.41189575 53.484375 65.390625 C52.14488571 65.38316071 50.80538548 65.37746866 49.46588135 65.37347412 C45.94748564 65.35823213 42.42975485 65.31896418 38.91162109 65.2746582 C35.31877639 65.23367364 31.7258238 65.2154564 28.1328125 65.1953125 C21.08824433 65.15246729 14.04423564 65.0821301 7 65 C7 70.28 7 75.56 7 81 C9.24578857 80.97905273 11.49157715 80.95810547 13.80541992 80.93652344 C21.22930172 80.87021516 28.65319667 80.82604936 36.07729626 80.79275131 C40.57813888 80.77188529 45.07867784 80.74358588 49.5793457 80.69824219 C53.92358188 80.65474892 58.26752616 80.63085548 62.61196327 80.62049103 C64.26857409 80.61310587 65.92516911 80.5986842 67.5816555 80.57707977 C69.90398935 80.54799848 72.22512049 80.54404581 74.54760742 80.54589844 C75.23093643 80.53151733 75.91426544 80.51713623 76.61830139 80.50231934 C80.07153597 80.53208437 81.94331641 80.96449692 84.89546204 82.8135376 C87 85 87 85 88.125 88.4375 C88 92 88 92 85.9178009 94.68717957 C82.35643131 97.51013036 80.68606931 97.60933274 76.19018555 97.56762695 C75.52621262 97.56835709 74.86223969 97.56908722 74.17814636 97.56983948 C71.99682148 97.56637286 69.81766759 97.52756313 67.63671875 97.48828125 C66.11929999 97.47894965 64.60186612 97.47183517 63.08442688 97.46684265 C59.10067775 97.44779966 55.11784774 97.39872383 51.13446045 97.34332275 C47.06567823 97.29207098 42.99674672 97.26931606 38.92773438 97.24414062 C30.9513552 97.19060067 22.97589801 97.10268854 15 97 C15 102.61 15 108.22 15 114 C16.55428711 113.98428955 18.10857422 113.9685791 19.70996094 113.95239258 C25.47227809 113.89812428 31.23457261 113.86366092 36.99707031 113.83520508 C39.49190061 113.82011145 41.98670435 113.79963452 44.48144531 113.77368164 C48.06582186 113.7373246 51.64984782 113.72027922 55.234375 113.70703125 C56.35116638 113.69154739 57.46795776 113.67606354 58.61859131 113.66011047 C59.65936829 113.65988388 60.70014526 113.65965729 61.77246094 113.65942383 C62.68735291 113.65276199 63.60224487 113.64610016 64.54486084 113.63923645 C67.51821676 114.07614791 68.85760456 114.91453749 71 117 C72 120.375 72 120.375 72 124 C70.23358828 126.80189446 68.96950178 128.51524911 66 130 C64.12080452 130.09110781 62.23833208 130.11752837 60.35693359 130.11352539 C59.17586029 130.11344986 57.99478699 130.11337433 56.77792358 130.11329651 C55.49769318 130.10813522 54.21746277 130.10297394 52.8984375 130.09765625 C51.59170074 130.0962413 50.28496399 130.09482635 48.93862915 130.09336853 C45.46323742 130.08954894 41.98788743 130.07972342 38.51251221 130.06866455 C34.96668055 130.05843843 31.42084215 130.05386833 27.875 130.04882812 C20.91664778 130.03810066 13.95833019 130.02050836 7 130 C7 135.28 7 140.56 7 146 C8.27641357 145.97905273 9.55282715 145.95810547 10.86791992 145.93652344 C15.61080677 145.86403569 20.3536448 145.81816813 25.09692383 145.78027344 C27.14843993 145.76017801 29.19989889 145.73289676 31.2512207 145.69824219 C34.20278025 145.64963331 37.15358148 145.62701048 40.10546875 145.609375 C41.02023483 145.58872986 41.93500092 145.56808472 42.87748718 145.54681396 C47.12541711 145.54532253 49.38865134 145.62260632 53.0769043 147.89941406 C55.13815458 150.15090542 55.6836937 150.99488277 55.625 154 C55.63789063 154.66 55.65078125 155.32 55.6640625 156 C54.56191042 159.31942273 53.00539331 160.19952666 50 162 C46.13569302 162.60544914 42.30001736 162.54613793 38.39526367 162.51757812 C36.63318573 162.52809204 36.63318573 162.52809204 34.83551025 162.53881836 C31.61766942 162.55339813 28.40048781 162.54998771 25.182657 162.53730202 C21.79886655 162.52713729 18.41511858 162.53657969 15.03132629 162.54284668 C9.33761769 162.550124 3.64411653 162.54054481 -2.04956055 162.52148438 C-8.59273856 162.49983021 -15.13541571 162.50668225 -21.67858106 162.52879 C-27.32139106 162.54708013 -32.96405213 162.54943322 -38.60688227 162.53903532 C-41.96540496 162.53285939 -45.3235096 162.53341058 -48.68204689 162.54518127 C-67.6154493 162.59692808 -83.71489475 161.44402538 -101 153 C-102.29492622 152.4602932 -102.29492622 152.4602932 -103.61601257 151.90968323 C-106 150 -106 150 -106.65510559 146.55552673 C-106.69400108 145.10380404 -106.70505687 143.65118047 -106.69458008 142.19897461 C-106.70816055 141.4050531 -106.72174103 140.61113159 -106.73573303 139.79315186 C-106.77309627 137.16242138 -106.77305987 134.53331643 -106.76953125 131.90234375 C-106.78052104 130.06970077 -106.79255494 128.23706379 -106.80558777 126.4044342 C-106.82652118 122.5566349 -106.82776287 118.70940684 -106.81665039 114.86157227 C-106.80500607 109.95050233 -106.85230183 105.04204003 -106.91611195 100.13144588 C-106.95689099 96.34184138 -106.96045715 92.55285424 -106.95371056 88.76306343 C-106.95590612 86.95427034 -106.97067877 85.14544426 -106.99866676 83.33686638 C-107.21611373 67.45451749 -107.21611373 67.45451749 -102.08081055 60.9909668 C-100.74982486 59.63134575 -99.39342494 58.29555364 -98 57 C-97.2575 56.04867187 -96.515 55.09734375 -95.75 54.1171875 C-83.31345067 38.18285867 -70.23670916 31.27621788 -51.2109375 25.67041016 C-35.23508385 20.82614181 -22.9953496 11.99621681 -9.72070312 2.21166992 C-6.35519769 -0.15822274 -4.11804048 -0.47515852 0 0 Z " fill="#EDCFB3" transform="translate(238,315)"/>
<path d="M0 0 C58.74 0 117.48 0 178 0 C178 16.5 178 33 178 50 C176.35 49.67 174.7 49.34 173 49 C163.16498075 47.77256474 155.95111012 50.53892504 148.06933594 56.44726562 C145.95472958 58.10059508 143.85121956 59.76719646 141.75 61.4375 C130.31244118 70.47123721 118.91512519 74.66938259 104.87573242 78.09448242 C84.35853506 83.29996208 69.97072379 98.37399473 58 115 C55.03 114.505 55.03 114.505 52 114 C34.84 113.67 17.68 113.34 0 113 C0 75.71 0 38.42 0 0 Z " fill="#D29F6B" transform="translate(67,251)"/>
<path d="M0 0 C1.16765733 -0.00256327 1.16765733 -0.00256327 2.35890371 -0.00517833 C4.97538991 -0.00848071 7.59162141 0.0025427 10.20808411 0.01345825 C12.08042393 0.0140222 13.95276419 0.01370612 15.82510376 0.01257324 C20.91571139 0.01199811 26.00622526 0.02377843 31.09681106 0.03772116 C36.413952 0.05020173 41.73109496 0.0513969 47.04824829 0.05377197 C57.12047027 0.05999461 67.19264897 0.07641603 77.26485187 0.09647095 C88.73023533 0.11880558 100.19562084 0.12981725 111.66102064 0.13986182 C135.24940501 0.16078158 158.83775092 0.19597277 182.42610168 0.24050903 C181.69036828 4.16501414 180.59544887 7.60100993 179.09016418 11.30691528 C178.60781311 12.50227905 178.12546204 13.69764282 177.62849426 14.92922974 C177.10274004 16.22050713 176.57694151 17.51176649 176.05110168 18.80300903 C174.96189035 21.49492239 173.87564486 24.1880294 172.78938293 26.88113403 C172.37316933 27.91129387 172.37316933 27.91129387 171.94854736 28.96226501 C170.00990068 33.76786765 168.1037606 38.58538111 166.21907043 43.41238403 C165.96580994 44.06065659 165.71254944 44.70892914 165.45161438 45.37684631 C164.23674334 48.48902964 163.02543761 51.60254177 161.81721497 54.71731567 C161.3852179 55.82453979 160.95322083 56.93176392 160.50813293 58.07254028 C160.12890686 59.04940796 159.74968079 60.02627563 159.35896301 61.03274536 C158.42610168 63.24050903 158.42610168 63.24050903 157.42610168 64.24050903 C154.93457448 64.33823215 152.47079661 64.37046721 149.9788208 64.36076355 C148.79535076 64.36204519 148.79535076 64.36204519 147.58797222 64.36335272 C144.92388541 64.36500992 142.2598605 64.35948224 139.59577942 64.35403442 C137.69417828 64.35375258 135.79257703 64.35391023 133.89097595 64.35447693 C128.71143884 64.35476501 123.53192467 64.34886666 118.35239291 64.34190297 C112.94581641 64.33567109 107.53923945 64.33506577 102.13265991 64.33387756 C91.88684878 64.33076376 81.64104825 64.3225497 71.3952418 64.31252807 C59.73401506 64.30136847 48.07278782 64.29585687 36.41155708 64.29083264 C12.41639939 64.28036713 -11.57874887 64.26276674 -35.57389832 64.24050903 C-34.61574472 61.68160229 -33.6572508 59.12282389 -32.69856262 56.56411743 C-32.42910356 55.84437618 -32.15964449 55.12463493 -31.88202 54.38308334 C-29.91030378 49.12177662 -27.90400138 43.87550317 -25.84733582 38.64675903 C-25.53237152 37.84492188 -25.21740723 37.04308472 -24.89289856 36.21694946 C-24.24008424 34.55687626 -23.58655584 32.89708368 -22.93229675 31.23757935 C-21.93944828 28.71651327 -20.95198211 26.19337773 -19.96452332 23.67019653 C-19.32162204 22.0372549 -18.6784044 20.40443778 -18.03483582 18.77175903 C-17.74619659 18.03203857 -17.45755737 17.29231812 -17.16017151 16.53018188 C-10.57938837 -0.08436502 -10.57938837 -0.08436502 0 0 Z " fill="#B17846" transform="translate(300.5738983154297,169.75949096679688)"/>
<path d="M0 0 C22.60036567 -0.11675773 45.20068166 -0.20495117 67.80128765 -0.25906086 C78.29495508 -0.28485179 88.78843521 -0.32001939 99.28198242 -0.37719727 C108.42726398 -0.42700491 117.57240991 -0.45928454 126.71782333 -0.47044247 C131.56113937 -0.4769657 136.40406737 -0.4923156 141.24725914 -0.52865028 C145.80518756 -0.56256807 150.36256779 -0.57306152 154.92061043 -0.56553841 C156.59398756 -0.56691485 158.26738287 -0.57687269 159.94065094 -0.59602737 C162.22544634 -0.62090127 164.50817139 -0.61492814 166.79301453 -0.60127258 C168.0715414 -0.60588155 169.35006826 -0.61049051 170.66733837 -0.61523914 C174.89359398 0.16496544 176.32763048 1.70938222 179 5 C180.47444153 7.79644775 180.47444153 7.79644775 181.67895508 10.87597656 C182.36910454 12.61237396 182.36910454 12.61237396 183.07319641 14.3838501 C183.55564081 15.63598023 184.03774454 16.88824166 184.51953125 18.140625 C185.0269567 19.43188798 185.53549394 20.72271456 186.04508972 22.01312256 C187.37687067 25.39479498 188.69258581 28.7825004 190.00524902 32.17163086 C191.08340447 34.94747761 192.17267622 37.71889502 193.26257801 40.49014664 C195.50920922 46.20281079 197.74717958 51.91885971 199.96801758 57.64160156 C200.55828484 59.16119476 200.55828484 59.16119476 201.16047668 60.71148682 C202 63 202 63 202 64 C143.59 64 85.18 64 25 64 C10.91794525 29.96836768 10.91794525 29.96836768 6.54052734 18.82299805 C5.70981858 16.71030915 4.8725224 14.60029247 4.03515625 12.49023438 C3.49701595 11.12514969 2.95923824 9.75992201 2.421875 8.39453125 C1.95362305 7.20706299 1.48537109 6.01959473 1.00292969 4.79614258 C0 2 0 2 0 0 Z " fill="#B17846" transform="translate(39,170)"/>
<path d="M0 0 C32.01 0 64.02 0 97 0 C97 32.01 97 64.02 97 97 C64.99 97 32.98 97 0 97 C0 64.99 0 32.98 0 0 Z " fill="#E5E8ED" transform="translate(18,380)"/>
<path d="M0 0 C15.84 0 31.68 0 48 0 C48.33 7.26 48.66 14.52 49 22 C49.99 23.98 50.98 25.96 52 28 C52 28.66 52 29.32 52 30 C53.32338632 30.68620031 54.65949948 31.34786461 56 32 C56.721875 32.391875 57.44375 32.78375 58.1875 33.1875 C63.15297711 34.62197117 67.8949527 33.78327341 72.6875 32 C76.29039698 28.88398099 78.53917842 25.04586205 81 21 C81.56589844 20.071875 82.13179687 19.14375 82.71484375 18.1875 C84.15660071 15.79927201 85.58471208 13.40398197 87 11 C90.98304805 11.58691424 93.79716917 12.82403517 97.24609375 14.87890625 C98.24253906 15.46720215 99.23898437 16.05549805 100.265625 16.66162109 C101.31234375 17.28891113 102.3590625 17.91620117 103.4375 18.5625 C105.59217715 19.8376972 107.74712412 21.11243862 109.90234375 22.38671875 C110.94503418 23.00595215 111.98772461 23.62518555 113.06201172 24.26318359 C116.85363371 26.50463273 120.67009221 28.6997936 124.5 30.875 C126.12421875 31.79925781 126.12421875 31.79925781 127.78125 32.7421875 C128.5134375 33.15726563 129.245625 33.57234375 130 34 C128.89592815 37.11809303 127.52099879 39.90906248 125.8359375 42.7421875 C125.23652344 43.75345703 125.23652344 43.75345703 124.625 44.78515625 C123.79303157 46.17610347 122.95187855 47.56159892 122.1015625 48.94140625 C119.44513134 53.46941391 118.38539205 56.61085872 119 62 C120.21130685 66.41637963 122.32803583 69.95993404 126.1875 72.5 C130.48206871 74.51990308 134.35255797 74.96104511 139 74 C145.41708547 71.43647359 151.40257854 68.04258216 157 64 C160.75443603 65.4589098 162.01591459 67.20166018 163.91796875 70.69921875 C164.44632324 71.65473633 164.97467773 72.61025391 165.51904297 73.59472656 C166.3449292 75.12564941 166.3449292 75.12564941 167.1875 76.6875 C168.33791834 78.78100711 169.4902686 80.87345375 170.64453125 82.96484375 C171.49265381 84.50567627 171.49265381 84.50567627 172.35791016 86.07763672 C174.93655392 90.66674849 177.69573077 95.14491254 180.54760742 99.5690918 C181.5859375 101.234375 181.5859375 101.234375 183 104 C181.65861903 108.0241429 179.94350455 108.35314088 176.25 110.3125 C169.52073027 114.10870323 165.48235774 117.48816962 163 125 C162.40558438 131.90571089 162.57360731 138.47906964 165 145 C163.02 145 161.04 145 159 145 C158.84031738 144.38294189 158.68063477 143.76588379 158.51611328 143.13012695 C151.14669897 115.14962441 139.6107113 91.50041987 119 71 C118.10539063 70.10539062 117.21078125 69.21078125 116.2890625 68.2890625 C109.46748814 61.78756201 102.09254821 56.7459895 94 52 C93.40171387 51.64663574 92.80342773 51.29327148 92.18701172 50.92919922 C62.93645365 33.88538117 26.62486657 27.57054934 -6.43359375 35.7421875 C-7.95812137 36.15267477 -9.48031116 36.57194617 -11 37 C-11.76844238 37.21430664 -12.53688477 37.42861328 -13.32861328 37.64941406 C-35.85703163 44.13193695 -55.2735769 55.66087468 -72 72 C-72.77730469 72.71542969 -73.55460937 73.43085937 -74.35546875 74.16796875 C-93.8485042 92.55697388 -106.32062487 118.84711005 -111 145 C-112.98 145 -114.96 145 -117 145 C-116.67 144.0925 -116.34 143.185 -116 142.25 C-113.70867987 133.9711426 -113.99631275 125.80333848 -118.2421875 118.2578125 C-121.43449364 114.15747261 -125.56810627 111.6106624 -130 109 C-130.928125 108.44183594 -131.85625 107.88367188 -132.8125 107.30859375 C-133.534375 106.87675781 -134.25625 106.44492188 -135 106 C-133.66516575 102.4746988 -132.10730361 99.24671553 -130.2421875 95.97265625 C-129.70231201 95.02140869 -129.16243652 94.07016113 -128.60620117 93.09008789 C-128.03490479 92.09098389 -127.4636084 91.09187988 -126.875 90.0625 C-126.29403564 89.0408374 -125.71307129 88.0191748 -125.11450195 86.96655273 C-123.41286068 83.97586801 -121.70699711 80.98763021 -120 78 C-119.12097898 76.45839877 -118.24205916 74.91673983 -117.36328125 73.375 C-115.57945637 70.24773921 -113.7914676 67.12289065 -112 64 C-109.10221213 64.60413667 -106.95490327 65.48323541 -104.4609375 67.06640625 C-95.00813295 73.23320072 -95.00813295 73.23320072 -84.11328125 74.55078125 C-79.63573149 73.38380433 -76.46937377 72.01003355 -73.68359375 68.19921875 C-71.16547034 63.68063493 -70.40639875 60.23209595 -71 55 C-72.5525593 51.35373281 -74.49818469 47.97837403 -76.5 44.5625 C-77.02464844 43.64017578 -77.54929688 42.71785156 -78.08984375 41.76757812 C-79.38011321 39.50374171 -80.6835692 37.24869043 -82 35 C-78.62252909 32.17604306 -75.24853844 29.880516 -71.39453125 27.7578125 C-69.79448242 26.87029297 -69.79448242 26.87029297 -68.16210938 25.96484375 C-67.05673828 25.35769531 -65.95136719 24.75054687 -64.8125 24.125 C-62.63067298 22.92078687 -60.44967293 21.71507414 -58.26953125 20.5078125 C-57.21588379 19.92547852 -56.16223633 19.34314453 -55.07666016 18.74316406 C-51.32810809 16.61932168 -47.66945393 14.36714403 -44.0300293 12.06201172 C-42 11 -42 11 -39 11 C-37.83666992 12.48120117 -37.83666992 12.48120117 -36.73046875 14.54296875 C-36.31603516 15.28740234 -35.90160156 16.03183594 -35.47460938 16.79882812 C-34.6273293 18.37124623 -33.78095094 19.9441506 -32.93554688 21.51757812 C-29.87853377 27.00512862 -26.89747107 31.62830121 -20.69140625 33.8125 C-15.34953477 34.28297675 -11.74628237 33.82951449 -7 31 C2.09034566 22.56905765 -0.604092 12.68593204 0 0 Z " fill="#FCC62B" transform="translate(229,8)"/>
<path d="M0 0 C22.36428896 18.95976676 36.869674 41.59686671 43.78125 70.26171875 C43.78125 70.59171875 43.78125 70.92171875 43.78125 71.26171875 C38.17125 71.26171875 32.56125 71.26171875 26.78125 71.26171875 C26.1625 69.46541016 26.1625 69.46541016 25.53125 67.6328125 C20.48552727 53.28625933 14.84370789 39.87908184 4.78125 28.26171875 C4.16636719 27.51535156 3.55148437 26.76898438 2.91796875 26 C-13.41222715 6.72447819 -38.43644478 -5.51391305 -63.40625 -8.55078125 C-65.0088248 -8.64570728 -66.61372951 -8.70413188 -68.21875 -8.73828125 C-69.43820312 -8.77695313 -70.65765625 -8.815625 -71.9140625 -8.85546875 C-101.09703575 -9.50179363 -127.49732227 0.9710017 -148.90185547 20.90454102 C-163.15048219 34.7104138 -171.80963014 52.32979925 -177.21875 71.26171875 C-182.82875 71.26171875 -188.43875 71.26171875 -194.21875 71.26171875 C-192.28365236 60.33410853 -189.05430539 51.18676971 -184.21875 41.26171875 C-183.73277344 40.26011719 -183.24679688 39.25851563 -182.74609375 38.2265625 C-168.4618972 10.5733129 -141.99247333 -11.00269928 -112.46875 -20.55078125 C-74.3440573 -32.06663104 -31.18305836 -25.31128687 0 0 Z " fill="#F7D471" transform="translate(328.21875,81.73828125)"/>
<path d="M0 0 C0.71142654 -0.00175232 1.42285309 -0.00350464 2.15583801 -0.00531006 C4.48298657 -0.00967492 6.81005784 -0.00681156 9.13720703 -0.00341797 C10.76148493 -0.0040921 12.38576273 -0.00506304 14.01004028 -0.00631714 C17.40074634 -0.00778644 20.79142594 -0.0056626 24.18212891 -0.00097656 C28.53694679 0.00474768 32.8917034 0.00141995 37.24651909 -0.00454903 C40.59382596 -0.00815211 43.94111815 -0.0070177 47.28842545 -0.00442123 C48.89526502 -0.00375267 50.50210591 -0.00457793 52.10894394 -0.00690079 C54.34480108 -0.0094261 56.58055672 -0.00558974 58.81640625 0 C60.08990936 0.00079559 61.36341248 0.00159119 62.67550659 0.00241089 C65.52001953 0.12939453 65.52001953 0.12939453 66.52001953 1.12939453 C66.59321575 3.82594307 66.6124449 6.49630911 66.58251953 9.19189453 C66.57800781 9.95050781 66.57349609 10.70912109 66.56884766 11.49072266 C66.55702633 13.37031324 66.53909031 15.24986352 66.52001953 17.12939453 C65.12726555 17.13819389 65.12726555 17.13819389 63.70637512 17.14717102 C54.95165685 17.20509964 46.19719365 17.27717746 37.44272327 17.36510944 C32.94205837 17.40981716 28.44148408 17.44907237 23.94067383 17.47583008 C19.59627983 17.50185911 15.25223441 17.54225856 10.90805626 17.5925808 C9.25153632 17.60925224 7.59495609 17.6207648 5.93836403 17.62700844 C3.61600925 17.6366467 1.2945468 17.6647013 -1.02758789 17.69702148 C-1.7109169 17.6955864 -2.39424591 17.69415131 -3.09828186 17.69267273 C-7.36234008 17.7764797 -10.08565253 18.51993514 -13.47998047 21.12939453 C-14.22599609 23.05469402 -14.22599609 23.05469402 -14.04248047 25.12939453 C-14.04376953 25.81001953 -14.04505859 26.49064453 -14.04638672 27.19189453 C-13.23469421 29.96844269 -11.92885609 30.64507868 -9.47998047 32.12939453 C-6.81135427 32.56660111 -6.81135427 32.56660111 -3.90185547 32.50048828 C-2.82291016 32.51789062 -1.74396484 32.53529297 -0.63232422 32.55322266 C1.62026778 32.5622744 3.87287847 32.56753647 6.12548828 32.56884766 C14.48514295 32.71297963 19.73537056 33.9468488 26.27001953 39.44189453 C31.61424214 45.82527154 33.95896148 51.82077101 33.85986328 60.14501953 C33.11203826 66.71212665 29.98775051 72.12863544 25.14501953 76.56689453 C19.48098232 80.89105197 13.59657851 82.48414237 6.65673828 83.50439453 C4.14907835 83.9893735 4.14907835 83.9893735 2.52001953 87.12939453 C2.03582499 91.32995702 2.03582499 91.32995702 3.89501953 94.94189453 C7.1074985 97.28947531 9.46136078 97.31186729 13.40283203 97.44580078 C14.56943359 97.48769531 15.73603516 97.52958984 16.93798828 97.57275391 C18.16130859 97.61207031 19.38462891 97.65138672 20.64501953 97.69189453 C21.87607422 97.73507813 23.10712891 97.77826172 24.37548828 97.82275391 C27.42352466 97.92908076 30.47175692 98.02976425 33.52001953 98.12939453 C33.52001953 103.40939453 33.52001953 108.68939453 33.52001953 114.12939453 C29.39363302 114.19868087 25.26874948 114.25828464 21.14208984 114.29418945 C19.74162922 114.30917367 18.3412147 114.32956832 16.94091797 114.35571289 C0.71348403 114.65086237 0.71348403 114.65086237 -6.65185547 109.65673828 C-12.26329085 104.00363383 -15.58392793 97.56524743 -15.91748047 89.50439453 C-15.53166536 82.43526609 -13.00856071 76.83079771 -8.19091797 71.66064453 C-2.45239143 66.5247943 4.46946756 65.28277436 11.85986328 63.84033203 C12.73771484 63.60572266 13.61556641 63.37111328 14.52001953 63.12939453 C16.04493951 60.07955457 15.75564501 57.48705763 15.52001953 54.12939453 C14.58404638 52.10988392 14.58404638 52.10988392 12.52001953 51.12939453 C7.6475447 50.23801471 3.0855123 50.09903312 -1.85498047 50.25439453 C-10.5918471 50.306143 -17.6676079 48.8820647 -24.47998047 43.12939453 C-30.56230946 35.3908445 -32.60340894 28.9920515 -31.47998047 19.12939453 C-29.19173902 11.65518531 -25.1491303 7.05398369 -18.47998047 3.12939453 C-17.88314453 2.76845703 -17.28630859 2.40751953 -16.67138672 2.03564453 C-11.41953281 -0.13624514 -5.60195134 0.00348663 0 0 Z " fill="#000000" transform="translate(33.47998046875,22.87060546875)"/>
<path d="M0 0 C0.69770004 -0.00335861 1.39540009 -0.00671722 2.11424255 -0.01017761 C4.43555455 -0.01972346 6.75679456 -0.02163326 9.078125 -0.02270508 C10.69181346 -0.02591776 12.30550162 -0.02928184 13.91918945 -0.03279114 C17.31218133 -0.0387933 20.70514771 -0.04063019 24.09814453 -0.04003906 C28.42773154 -0.03993797 32.75715259 -0.05352988 37.08670044 -0.07081127 C40.42576839 -0.0819865 43.76479711 -0.0839565 47.10388184 -0.08342934 C48.69853278 -0.08460346 50.29318493 -0.08899312 51.88781738 -0.0967617 C73.36192169 -0.19148896 73.36192169 -0.19148896 81.328125 6.14526367 C82.19695312 6.72663086 83.06578125 7.30799805 83.9609375 7.90698242 C87.57437852 11.57646148 86.9861773 16.4408265 87.01171875 21.29370117 C86.98271484 23.20022461 86.98271484 23.20022461 86.953125 25.14526367 C86.97246094 26.4162793 86.99179687 27.68729492 87.01171875 28.99682617 C86.9629496 38.26296508 86.9629496 38.26296508 84.0234375 42.34838867 C83.13398438 42.94135742 82.24453125 43.53432617 81.328125 44.14526367 C80.37679687 44.9109668 80.37679687 44.9109668 79.40625 45.69213867 C72.83789003 50.01490549 67.07606022 50.20303652 59.390625 50.08276367 C54.27451935 50.02663085 49.21103848 50.54721926 44.328125 52.14526367 C42.80320502 55.19510363 43.09249952 57.78760057 43.328125 61.14526367 C45.04047635 63.6252208 46.20800482 64.11381947 49.1484375 64.88354492 C50.23898437 65.07303711 51.32953125 65.2625293 52.453125 65.45776367 C59.67716447 67.02645821 65.51006108 69.24332901 69.953125 75.39526367 C73.9103185 82.23041609 75.63960537 88.80745504 73.71484375 96.64135742 C71.01480598 104.45600419 66.51267397 109.08116797 59.13769531 112.71899414 C55.39554605 114.28989905 52.15808101 114.49071375 48.08203125 114.43823242 C47.42605453 114.43398758 46.77007782 114.42974274 46.09422302 114.42536926 C44.02591589 114.40875146 41.95863099 114.37113606 39.890625 114.33276367 C38.47722775 114.31769478 37.06381502 114.30401026 35.65039062 114.29174805 C32.20893737 114.26147133 28.76965738 114.20272896 25.328125 114.14526367 C25.328125 108.86526367 25.328125 103.58526367 25.328125 98.14526367 C27.15859375 98.0962793 28.9890625 98.04729492 30.875 97.99682617 C33.27605696 97.92179314 35.67709788 97.84624554 38.078125 97.77026367 C39.2846875 97.73932617 40.49125 97.70838867 41.734375 97.67651367 C42.89453125 97.6378418 44.0546875 97.59916992 45.25 97.55932617 C46.31831055 97.52790527 47.38662109 97.49648437 48.48730469 97.46411133 C51.28658557 97.14992597 52.98401149 96.67648814 55.328125 95.14526367 C56.74854321 92.30442726 56.64264772 90.2904909 56.328125 87.14526367 C54.2259636 84.43471203 52.97004113 83.29015331 49.59375 82.52807617 C48.59859375 82.44299805 47.6034375 82.35791992 46.578125 82.27026367 C38.35325645 81.10957663 33.94222851 77.42134992 28.890625 71.02026367 C24.49464497 65.05514635 24.56647406 58.33666559 25.328125 51.14526367 C27.54020697 43.74409221 31.62544998 38.90282391 38.328125 35.14526367 C42.06526474 33.40819247 45.03390892 32.88755796 49.14453125 32.83666992 C50.23830078 32.8115332 51.33207031 32.78639648 52.45898438 32.76049805 C54.75059354 32.72528265 57.04226722 32.69404587 59.33398438 32.66674805 C60.97270508 32.62710938 60.97270508 32.62710938 62.64453125 32.58666992 C63.63912354 32.57321533 64.63371582 32.55976074 65.65844727 32.54589844 C68.7462272 32.08251966 70.14348076 31.35996156 72.328125 29.14526367 C72.79725589 24.76670872 72.79756029 22.8494166 70.328125 19.14526367 C66.85511775 17.98759459 63.71727553 17.97006811 60.1027832 17.93994141 C59.37082733 17.93004181 58.63887146 17.92014221 57.88473511 17.90994263 C55.46615835 17.87836356 53.04756196 17.85358444 50.62890625 17.82885742 C48.95167023 17.80828479 47.27443936 17.78728823 45.59721375 17.7658844 C41.18317841 17.71069566 36.76909654 17.66127228 32.35498047 17.61303711 C27.85054381 17.56279874 23.34617472 17.50712487 18.84179688 17.4519043 C10.00396398 17.34436184 1.16607241 17.24290816 -7.671875 17.14526367 C-7.69872179 14.49936353 -7.71863857 11.85373272 -7.734375 9.20776367 C-7.74275391 8.45301758 -7.75113281 7.69827148 -7.75976562 6.9206543 C-7.76839941 4.99532054 -7.72411833 3.06990786 -7.671875 1.14526367 C-5.78465683 -0.7419545 -2.50844417 0.00754391 0 0 Z " fill="#000000" transform="translate(413.671875,22.854736328125)"/>
<path d="M0 0 C0 10.89 0 21.78 0 33 C-3.96 33.99 -7.92 34.98 -12 36 C-18.96882089 39.0193454 -25.46150258 42.77798814 -31 48 C-35.25784443 46.26727919 -38.40102032 43.24188592 -41.8125 40.25 C-42.40353516 39.73695313 -42.99457031 39.22390625 -43.60351562 38.6953125 C-44.79506982 37.66098629 -45.98534391 36.6251835 -47.17431641 35.58789062 C-50.10175849 33.04174415 -53.05068393 30.52074446 -56 28 C-49.80851811 14.97560681 -31.83822393 7.59876678 -19 3 C-12.19129131 0.73347684 -7.37968339 0 0 0 Z " fill="#FAE7A6" transform="translate(245,89)"/>
<path d="M0 0 C21.16486955 0 41.30786157 11.36782948 56 26 C54.66144858 29.042125 53.26267869 30.91361125 50.734375 33.05859375 C50.09113281 33.60966797 49.44789063 34.16074219 48.78515625 34.72851562 C47.77775391 35.57446289 47.77775391 35.57446289 46.75 36.4375 C46.09386719 36.99759766 45.43773437 37.55769531 44.76171875 38.13476562 C40.86630529 41.45322421 36.93616091 44.73005266 33 48 C29.74183255 46.46585122 26.81489477 44.60926667 23.8125 42.625 C15.77929841 37.49356578 9.43422894 35.09649532 0 33 C0 22.11 0 11.22 0 0 Z " fill="#FBE8A7" transform="translate(261,89)"/>
<path d="M0 0 C64.02 0 128.04 0 194 0 C194.1209091 55.30024106 194.1209091 55.30024106 194.14648438 78.41210938 C194.1523756 83.69360379 194.15841974 88.97509795 194.16479492 94.2565918 C194.16558617 94.91856518 194.16637741 95.58053857 194.16719264 96.26257175 C194.17943798 106.29250291 194.20057507 116.32238996 194.22631836 126.35229492 C194.25617075 137.98868077 194.27556311 149.62502835 194.28226548 161.26145142 C194.2861848 167.42585275 194.29542958 173.59014457 194.31719017 179.75451088 C194.33748961 185.55170086 194.34384708 191.3487358 194.33932304 197.14595795 C194.34015118 199.2781197 194.34615558 201.41028642 194.35761642 203.54241753 C194.37245813 206.44487869 194.36898411 209.34674804 194.36076355 212.2492218 C194.36950207 213.10038285 194.3782406 213.9515439 194.38724393 214.82849771 C194.34274028 220.60871689 194.34274028 220.60871689 192.47692853 222.7387864 C191.98954212 223.15498689 191.5021557 223.57118738 191 224 C191 221 191 221 192 220 C192.11032691 217.18086415 192.15497028 214.38570214 192.15821838 211.56565857 C192.16315636 210.67050618 192.16809434 209.77535379 192.17318195 208.85307556 C192.18863727 205.82970535 192.19693919 202.80635649 192.20532227 199.78295898 C192.21489449 197.62520151 192.22490417 195.46744594 192.23532104 193.30969238 C192.26244729 187.43185199 192.28341492 181.5540035 192.30332303 175.67613482 C192.32513515 169.54083438 192.35254711 163.4055591 192.37937927 157.27027893 C192.42937094 145.64326391 192.47428566 134.01623497 192.51740164 122.38919264 C192.57593186 106.68391404 192.64225336 90.97866843 192.70815182 75.27341938 C192.81182773 50.51563517 192.90504956 25.75782277 193 1 C129.97 1 66.94 1 2 1 C2 25.42 2 49.84 2 75 C1.01 75.495 1.01 75.495 0 76 C0 50.92 0 25.84 0 0 Z " fill="#C7A179" transform="translate(261,251)"/>
<path d="M0 0 C5.5225119 3.94465136 10.72001448 8.21707816 15.875 12.625 C16.87478882 13.46840942 16.87478882 13.46840942 17.89477539 14.32885742 C18.52504639 14.8726001 19.15531738 15.41634277 19.8046875 15.9765625 C20.37171387 16.46205566 20.93874023 16.94754883 21.52294922 17.44775391 C23.15822279 19.16627777 24.04548038 20.83995529 25 23 C24 24 24 24 20.76538086 24.11352539 C19.33185874 24.11336631 17.89833088 24.10767407 16.46484375 24.09765625 C15.33496788 24.09553383 15.33496788 24.09553383 14.18226624 24.09336853 C11.7673044 24.08775376 9.35243399 24.07519883 6.9375 24.0625 C5.30403779 24.0574869 3.67057414 24.05292366 2.03710938 24.04882812 C-1.97529585 24.03777954 -5.98763241 24.02050506 -10 24 C-8.89966837 17.65977528 -7.05496478 12.51648415 -3.875 6.9375 C-3.50246094 6.26267578 -3.12992188 5.58785156 -2.74609375 4.89257812 C-1.84080906 3.25610196 -0.92186279 1.62719502 0 0 Z " fill="#F9E7A7" transform="translate(178,129)"/>
<path d="M0 0 C3.09260269 3.60244608 5.21167803 7.12523047 7.1875 11.4375 C7.95126953 13.07525391 7.95126953 13.07525391 8.73046875 14.74609375 C10 18 10 18 11 24 C-0.22 24 -11.44 24 -23 24 C-23 20 -23 20 -20.76171875 17.51953125 C-19.74764555 16.60521675 -18.72210509 15.70351502 -17.6875 14.8125 C-17.1522168 14.33707764 -16.61693359 13.86165527 -16.06542969 13.37182617 C-10.83653959 8.76392435 -5.44910131 4.34426384 0 0 Z " fill="#F9E7A8" transform="translate(327,129)"/>
<path d="M0 0 C58.74 0 117.48 0 178 0 C178 16.5 178 33 178 50 C177.34 49.67 176.68 49.34 176 49 C176.01571045 47.02422974 176.01571045 47.02422974 176.03173828 45.00854492 C176.06790283 40.12771313 176.09088759 35.24689321 176.10986328 30.3659668 C176.11992894 28.25233978 176.13358257 26.1387267 176.15087891 24.02514648 C176.1751023 20.98938558 176.18647738 17.95380857 176.1953125 14.91796875 C176.20563507 13.97100632 176.21595764 13.02404388 176.22659302 12.04838562 C176.22681961 10.72735588 176.22681961 10.72735588 176.22705078 9.37963867 C176.231492 8.60464523 176.23593323 7.82965179 176.24050903 7.03117371 C176.11843265 4.68688455 176.11843265 4.68688455 174 2 C170.94316719 1.53386139 170.94316719 1.53386139 167.26766968 1.60127258 C166.21767522 1.59130234 166.21767522 1.59130234 165.14646876 1.58113068 C162.78939463 1.56240526 160.43282386 1.56511226 158.07568359 1.56762695 C156.3906736 1.55861558 154.70567019 1.54828991 153.02067566 1.53674316 C148.43621244 1.50907351 143.85187325 1.49987519 139.26733732 1.49388909 C134.47998317 1.48453124 129.69272262 1.45833008 124.90542603 1.43388367 C115.83548189 1.39014347 106.76555583 1.36164277 97.69553816 1.33856028 C87.37157171 1.31154883 77.04769906 1.2676349 66.72379947 1.22227156 C45.48258338 1.12931762 24.24133921 1.0576862 3 1 C2.16818452 3.91247989 1.86663602 6.51801527 1.84178162 9.54315186 C1.8319928 10.448965 1.82220398 11.35477814 1.81211853 12.28804016 C1.80636307 13.27418808 1.8006076 14.260336 1.79467773 15.27636719 C1.78477814 16.32058334 1.77487854 17.3647995 1.76467896 18.44065857 C1.73308752 21.89270764 1.70831572 25.34477046 1.68359375 28.796875 C1.6630222 31.19012815 1.64202567 33.58337769 1.62062073 35.97662354 C1.56542089 42.27631705 1.51600233 48.57604323 1.46777344 54.87579346 C1.41754323 61.30394398 1.36186508 67.73204704 1.30664062 74.16015625 C1.19908456 86.77339668 1.09744889 99.38667764 1 112 C0.67 112 0.34 112 0 112 C0 75.04 0 38.08 0 0 Z " fill="#C59F79" transform="translate(67,251)"/>
<path d="M0 0 C5.28 0 10.56 0 16 0 C16 5.28 16 10.56 16 16 C10.72 16 5.44 16 0 16 C0 10.72 0 5.44 0 0 Z " fill="#040001" transform="translate(407,445)"/>
<path d="M0 0 C5.28 0 10.56 0 16 0 C16 5.28 16 10.56 16 16 C10.72 16 5.44 16 0 16 C0 10.72 0 5.44 0 0 Z " fill="#050000" transform="translate(342,445)"/>
<path d="M0 0 C4.95 0 9.9 0 15 0 C15 5.28 15 10.56 15 16 C10.05 16 5.1 16 0 16 C0 10.72 0 5.44 0 0 Z " fill="#040000" transform="translate(375,445)"/>
<path d="M0 0 C15.84 0 31.68 0 48 0 C48.33 7.26 48.66 14.52 49 22 C49.99 23.98 50.98 25.96 52 28 C52 28.66 52 29.32 52 30 C51.01 30 50.02 30 49 30 C47 23 47 23 47 1 C32.15 1 17.3 1 2 1 C2 6.94 2 12.88 2 19 C-0.25 28 -0.25 28 -3 32 C-1.35 32.33 0.3 32.66 2 33 C-1.49129191 35.32752794 -4.78455691 35.96095648 -8.8125 36.8125 C-16.82062859 38.58729773 -24.35154054 41.04243406 -32 44 C-32 43.01 -32 42.02 -32 41 C-30.35 41 -28.7 41 -27 41 C-27 40.34 -27 39.68 -27 39 C-24.36 38.01 -21.72 37.02 -19 36 C-19 35.67 -19 35.34 -19 35 C-17.91332031 34.79697266 -17.91332031 34.79697266 -16.8046875 34.58984375 C-10.6628877 33.22226966 -6.91485458 31.84375722 -3.0234375 26.81640625 C1.2337893 19.26064114 -0.32116224 6.74440714 0 0 Z " fill="#F5C646" transform="translate(229,8)"/>
<path d="M0 0 C0.7775838 -0.00085442 1.5551676 -0.00170885 2.35631454 -0.00258917 C4.97583715 -0.00424332 7.59529647 0.00127635 10.21481323 0.00672913 C12.0870056 0.00701104 13.95919808 0.00685319 15.83139038 0.00628662 C20.92616041 0.0059988 26.02090706 0.01189303 31.11567163 0.01886058 C36.43549132 0.02509669 41.7553115 0.02569812 47.07513428 0.02688599 C57.15445715 0.02999854 67.23376923 0.03821091 77.31308734 0.04823548 C88.78570722 0.05939896 100.2583276 0.06490766 111.73095155 0.06993091 C135.33609243 0.08039358 158.94122371 0.09799156 182.5463562 0.12025452 C181.7963562 4.87025452 181.7963562 4.87025452 179.5463562 7.12025452 C179.5463562 5.14025452 179.5463562 3.16025452 179.5463562 1.12025452 C156.77148248 1.22760326 133.9966414 1.34038411 111.22182655 1.45959377 C100.64658308 1.5148215 90.07133622 1.56828603 79.49606323 1.61756897 C70.27636902 1.66053914 61.05669859 1.70684892 51.83704126 1.75713307 C46.957415 1.78363095 42.07779314 1.80848083 37.19813919 1.82932854 C32.60009337 1.84902595 28.0020924 1.87320733 23.40408707 1.90074539 C21.72156088 1.91004689 20.03902491 1.91774638 18.35648346 1.92367363 C5.85130129 1.57976631 5.85130129 1.57976631 -6.4536438 3.12025452 C-6.7836438 3.78025452 -7.1136438 4.44025452 -7.4536438 5.12025452 C-10.0161438 5.74525452 -10.0161438 5.74525452 -12.4536438 6.12025452 C-8.98945012 -0.0208161 -6.74345196 -0.02678095 0 0 Z " fill="#AA794F" transform="translate(300.4536437988281,169.87974548339844)"/>
<path d="M0 0 C0.33 0 0.66 0 1 0 C1.54372951 3.05847848 2 5.88772805 2 9 C63.38 9.33 124.76 9.66 188 10 C188.33 9.01 188.66 8.02 189 7 C189.33 7.99 189.66 8.98 190 10 C188.28456066 11.71543934 186.10702249 11.12232668 183.81950754 11.12908131 C183.07146736 11.12616847 182.32342718 11.12325563 181.55271912 11.12025452 C180.36924907 11.12153615 180.36924907 11.12153615 179.16187054 11.12284368 C176.49778373 11.12450089 173.83375882 11.11897321 171.16967773 11.11352539 C169.26807659 11.11324354 167.36647534 11.1134012 165.46487427 11.1139679 C160.28533716 11.11425597 155.10582299 11.10835763 149.92629123 11.10139394 C144.51971473 11.09516206 139.11313776 11.09455673 133.70655823 11.09336853 C123.46074709 11.09025472 113.21494657 11.08204067 102.96914011 11.07201904 C91.30791337 11.06085943 79.64668614 11.05534784 67.98545539 11.05032361 C43.9902977 11.0398581 19.99514944 11.0222577 -4 11 C-2.68 7.37 -1.36 3.74 0 0 Z " fill="#A77B4F" transform="translate(269,223)"/>
<path d="M0 0 C1 2 1 2 0.1875 4.9375 C-1.21733346 8.56049156 -2.41094829 10.56898655 -5.5625 12.875 C-8.15470909 14.78139491 -8.15470909 14.78139491 -8.875 17.5 C-8.99744624 19.94892485 -8.64438988 21.66036906 -8 24 C-8.55236328 23.83395264 -9.10472656 23.66790527 -9.67382812 23.49682617 C-12.28012664 22.71866144 -14.88999188 21.95312652 -17.5 21.1875 C-18.36753906 20.92646484 -19.23507812 20.66542969 -20.12890625 20.39648438 C-34.76591407 16.13174468 -48.31694102 14.56055819 -63.5 14.8125 C-65.11326849 14.82760308 -66.72655096 14.84128135 -68.33984375 14.85351562 C-72.22691919 14.88600986 -76.11329661 14.93746641 -80 15 C-79.67 14.34 -79.34 13.68 -79 13 C-73.32169922 12.97535295 -67.64342931 12.95716538 -61.96508789 12.94506836 C-60.03181415 12.94002744 -58.09854424 12.93319481 -56.1652832 12.92456055 C-53.39273128 12.91248435 -50.62022959 12.90676943 -47.84765625 12.90234375 C-46.54297142 12.89460182 -46.54297142 12.89460182 -45.21192932 12.88670349 C-43.14094186 12.88650815 -41.07005676 12.93791832 -39 13 C-38.505 13.495 -38.505 13.495 -38 14 C-35.66702567 14.04092937 -33.33294775 14.04241723 -31 14 C-31 13.34 -31 12.68 -31 12 C-30.443125 12.28875 -29.88625 12.5775 -29.3125 12.875 C-28.549375 13.24625 -27.78625 13.6175 -27 14 C-26.278125 14.391875 -25.55625 14.78375 -24.8125 15.1875 C-19.84702289 16.62197117 -15.1050473 15.78327341 -10.3125 14 C-6.72811128 10.89998814 -4.4744581 7.0055744 -2 3 C-1.34 2.01 -0.68 1.02 0 0 Z " fill="#EABF46" transform="translate(312,26)"/>
<path d="M0 0 C0.66 0.66 1.32 1.32 2 2 C1.505 2.845625 1.01 3.69125 0.5 4.5625 C-1.45687526 9.04700581 -1.83152488 12.36188831 -0.34375 17.08203125 C1.54204087 21.46324366 3.66893883 24.3050231 8.0234375 26.37109375 C14.15704451 28.32269598 18.76756918 27.36764513 24.4375 24.5 C25.26121094 24.0359375 26.08492188 23.571875 26.93359375 23.09375 C29 22 29 22 31 22 C31 22.66 31 23.32 31 24 C23.93179365 27.91083499 18.13695602 30.72876813 10 31 C10.33 31.99 10.66 32.98 11 34 C8 34 8 34 6.421875 32.49609375 C5.59429687 31.47708984 5.59429687 31.47708984 4.75 30.4375 C1.36369161 26.39393344 -2.23317098 22.68630299 -6 19 C-6.98040065 18.02206887 -7.95971147 17.04304287 -8.9375 16.0625 C-9.618125 15.381875 -10.29875 14.70125 -11 14 C-9.02 14 -7.04 14 -5 14 C-4.80664062 13.07316406 -4.61328125 12.14632812 -4.4140625 11.19140625 C-4.15367187 9.99386719 -3.89328125 8.79632813 -3.625 7.5625 C-3.36976563 6.36753906 -3.11453125 5.17257813 -2.8515625 3.94140625 C-2.57054687 2.97074219 -2.28953125 2.00007813 -2 1 C-1.34 0.67 -0.68 0.34 0 0 Z " fill="#E3BA46" transform="translate(349,55)"/>
<path d="M0 0 C0.33 0.99 0.66 1.98 1 3 C1.66 3.33 2.32 3.66 3 4 C1.83984375 5.12535156 1.83984375 5.12535156 0.65625 6.2734375 C-5.7170151 12.5155486 -11.62434262 18.85353783 -17 26 C-18 24 -18 24 -18 21 C-18.33 20.01 -18.66 19.02 -19 18 C-15.98968256 17.06576355 -15.13349732 16.95550089 -12 18 C-12 17.34 -12 16.68 -12 16 C-12.66 15.67 -13.32 15.34 -14 15 C-13.01 14.34 -12.02 13.68 -11 13 C-15.455 12.01 -15.455 12.01 -20 11 C-20 10.67 -20 10.34 -20 10 C-19.03900391 9.96132812 -19.03900391 9.96132812 -18.05859375 9.921875 C-11.94761884 9.52115533 -7.96716275 8.64934406 -3 5 C-1.06305417 2.41796279 -1.06305417 2.41796279 0 0 Z " fill="#F0BF38" transform="translate(157,73)"/>
<path d="M0 0 C0.66 0 1.32 0 2 0 C1.48964169 4.3890815 0.47785723 7.33708062 -2 11 C0.475 11.495 0.475 11.495 3 12 C-0.49129191 14.32752794 -3.78455691 14.96095648 -7.8125 15.8125 C-15.82062859 17.58729773 -23.35154054 20.04243406 -31 23 C-31 22.01 -31 21.02 -31 20 C-29.35 20 -27.7 20 -26 20 C-26 19.34 -26 18.68 -26 18 C-22.04 16.515 -22.04 16.515 -18 15 C-18 14.67 -18 14.34 -18 14 C-17.27554688 13.86464844 -16.55109375 13.72929688 -15.8046875 13.58984375 C-9.6628877 12.22226966 -5.91485458 10.84375722 -2.0234375 5.81640625 C-0.9374469 3.88898019 -0.42775687 2.1625486 0 0 Z " fill="#E4BB42" transform="translate(228,29)"/>
<path d="M0 0 C1.32 0 2.64 0 4 0 C6.45183619 7.28624767 7.60685241 13.39720757 6 21 C5.67 21.66 5.34 22.32 5 23 C6.0828125 23.0928125 6.0828125 23.0928125 7.1875 23.1875 C10.87836123 24.2537488 12.41141021 26.21228792 15 29 C15.763125 29.495 16.52625 29.99 17.3125 30.5 C19 32 19 32 19.25 34.6875 C19.1675 35.450625 19.085 36.21375 19 37 C18.2575 35.948125 18.2575 35.948125 17.5 34.875 C13.43434576 30.19949762 8.60604449 26.64034685 3 24 C3.15855469 23.42378906 3.31710937 22.84757812 3.48046875 22.25390625 C5.35322035 14.12926209 3.14915466 7.5214185 0 0 Z " fill="#BC9872" transform="translate(321,357)"/>
<path d="M0 0 C0.33 0.99 0.66 1.98 1 3 C0.67 3.66 0.34 4.32 0 5 C-0.41770071 11.94548862 -0.44067583 18.4406837 2 25 C0.02 25 -1.96 25 -4 25 C-4.53293835 23.25364835 -5.05090663 21.50272348 -5.5625 19.75 C-5.85253906 18.77546875 -6.14257812 17.8009375 -6.44140625 16.796875 C-6.99249836 14.03756068 -6.93789609 12.6087176 -6 10 C-5.34 11.98 -4.68 13.96 -4 16 C-3.87882812 15.18015625 -3.75765625 14.3603125 -3.6328125 13.515625 C-3.46523438 12.43796875 -3.29765625 11.3603125 -3.125 10.25 C-2.96257812 9.18265625 -2.80015625 8.1153125 -2.6328125 7.015625 C-2.06776118 4.32291129 -1.36577086 2.36427561 0 0 Z " fill="#E6BD44" transform="translate(392,128)"/>
<path d="M0 0 C0.99 0 1.98 0 3 0 C3 10.23 3 20.46 3 31 C4.98 31.33 6.96 31.66 9 32 C9 32.33 9 32.66 9 33 C6.03 33 3.06 33 0 33 C0 22.11 0 11.22 0 0 Z " fill="#EEE1B1" transform="translate(261,89)"/>
<path d="M0 0 C1 2 1 2 0.1875 4.9375 C-1.21733346 8.56049156 -2.41094829 10.56898655 -5.5625 12.875 C-8.15470909 14.78139491 -8.15470909 14.78139491 -8.875 17.5 C-8.99744624 19.94892485 -8.64438988 21.66036906 -8 24 C-9.27445454 23.57316368 -10.54445882 23.13302798 -11.8125 22.6875 C-12.52019531 22.44386719 -13.22789062 22.20023438 -13.95703125 21.94921875 C-16.14472373 20.93275742 -17.40896718 19.79179406 -19 18 C-17.205625 17.7525 -17.205625 17.7525 -15.375 17.5 C-9.89033003 16.12641422 -7.85581852 12.61757698 -5 8 C-4.51144531 7.23945312 -4.02289063 6.47890625 -3.51953125 5.6953125 C-2.32211641 3.8103065 -1.15039923 1.91393854 0 0 Z " fill="#F2C133" transform="translate(312,26)"/>
<path d="M0 0 C0.66 0.33 1.32 0.66 2 1 C2 1.66 2 2.32 2 3 C1.34 3.66 0.68 4.32 0 5 C0.99 5.33 1.98 5.66 3 6 C3 6.99 3 7.98 3 9 C2.34 9 1.68 9 1 9 C1.2784375 9.928125 1.2784375 9.928125 1.5625 10.875 C2 13 2 13 1 15 C-3.75 13.125 -3.75 13.125 -6 12 C-4.43358249 7.69235185 -2.31663844 3.93828536 0 0 Z " fill="#F3C132" transform="translate(100,102)"/>
<path d="M0 0 C0.66 0.66 1.32 1.32 2 2 C1.525625 2.7425 1.05125 3.485 0.5625 4.25 C-1.92343086 9.10460084 -1.7491725 14.65477938 -2 20 C-6.24925258 19.21007484 -8.08910865 17.15346563 -11 14 C-9.02 14 -7.04 14 -5 14 C-4.80664062 13.07316406 -4.61328125 12.14632812 -4.4140625 11.19140625 C-4.15367187 9.99386719 -3.89328125 8.79632813 -3.625 7.5625 C-3.36976563 6.36753906 -3.11453125 5.17257813 -2.8515625 3.94140625 C-2.57054687 2.97074219 -2.28953125 2.00007813 -2 1 C-1.34 0.67 -0.68 0.34 0 0 Z " fill="#EFC039" transform="translate(349,55)"/>
<path d="M0 0 C0.33 0.99 0.66 1.98 1 3 C0.01 3.99 -0.98 4.98 -2 6 C7.57 6 17.14 6 27 6 C27.33 5.01 27.66 4.02 28 3 C28.495 4.98 28.495 4.98 29 7 C17.78 7 6.56 7 -5 7 C-5 3 -5 3 -3.625 1.25 C-2 0 -2 0 0 0 Z " fill="#F4E7B7" transform="translate(309,146)"/>
<path d="M0 0 C2.95296424 0.62333973 5.27546792 1.56901792 7.890625 3.06640625 C8.59960938 3.46923828 9.30859375 3.87207031 10.0390625 4.28710938 C10.76867187 4.70798828 11.49828125 5.12886719 12.25 5.5625 C12.99507812 5.98724609 13.74015625 6.41199219 14.5078125 6.84960938 C16.34098961 7.89546042 18.17082677 8.94716192 20 10 C20 10.33 20 10.66 20 11 C17.69 11 15.38 11 13 11 C12.67 10.01 12.34 9.02 12 8 C8.48809191 6.77030122 8.48809191 6.77030122 5 6 C5 5.01 5 4.02 5 3 C3.35 3.33 1.7 3.66 0 4 C0 4.66 0 5.32 0 6 C-0.66 6 -1.32 6 -2 6 C-1.34 4.02 -0.68 2.04 0 0 Z " fill="#EEC33C" transform="translate(117,72)"/>
<path d="M0 0 C0.66 0 1.32 0 2 0 C1.86722656 0.65226563 1.73445313 1.30453125 1.59765625 1.9765625 C0.65517178 6.6408287 -0.25768703 11.29868454 -1 16 C-2.98 16 -4.96 16 -7 16 C-6.40138258 13.64828869 -5.73075648 11.3140622 -5 9 C-4.34 8.67 -3.68 8.34 -3 8 C-2.09656316 6.11736119 -2.09656316 6.11736119 -1.375 3.9375 C-0.98441406 2.83728516 -0.98441406 2.83728516 -0.5859375 1.71484375 C-0.39257812 1.14894531 -0.19921875 0.58304688 0 0 Z " fill="#EEC141" transform="translate(119,137)"/>
<path d="M0 0 C0.24492187 0.85207031 0.48984375 1.70414062 0.7421875 2.58203125 C2.34263169 6.93106437 4.73126591 10.5631406 7.25390625 14.40820312 C10 18.69834592 10 18.69834592 10 22 C10.99 22.33 11.98 22.66 13 23 C12.34 24.32 11.68 25.64 11 27 C10.50371094 26.03320312 10.00742187 25.06640625 9.49609375 24.0703125 C5.4701425 16.32234939 1.2677314 8.99620576 -4 2 C-1 0 -1 0 0 0 Z " fill="#E7BD40" transform="translate(365,91)"/>
<path d="M0 0 C0.66 0 1.32 0 2 0 C2.33 1.98 2.66 3.96 3 6 C7.29 6 11.58 6 16 6 C16 4.35 16 2.7 16 1 C18 3 18 3 19 8 C13.39 8 7.78 8 2 8 C1.34 5.36 0.68 2.72 0 0 Z " fill="#EBD083" transform="translate(353,145)"/>
<path d="M0 0 C0 0.66 0 1.32 0 2 C-7.06820635 5.91083499 -12.86304398 8.72876813 -21 9 C-20.67 9.99 -20.34 10.98 -20 12 C-20.99 12 -21.98 12 -23 12 C-25 9 -25 9 -25 6 C-24.38253906 6.04640625 -23.76507813 6.0928125 -23.12890625 6.140625 C-16.42228133 6.42644768 -11.88039359 5.13468452 -6 2 C-2.23448276 0 -2.23448276 0 0 0 Z " fill="#ECC13F" transform="translate(380,77)"/>
<path d="M0 0 C0.33 0.99 0.66 1.98 1 3 C1.66 3.33 2.32 3.66 3 4 C0.36 6.64 -2.28 9.28 -5 12 C-5.33 11.34 -5.66 10.68 -6 10 C-6.99 10.495 -6.99 10.495 -8 11 C-10.6723621 11.13415472 -13.32250488 11.04318541 -16 11 C-16 10.67 -16 10.34 -16 10 C-14.1746875 9.5978125 -14.1746875 9.5978125 -12.3125 9.1875 C-7.41970473 7.9426899 -4.09229266 6.61960635 -1.1875 2.3125 C-0.795625 1.549375 -0.40375 0.78625 0 0 Z " fill="#D1AD3F" transform="translate(157,73)"/>
<path d="M0 0 C4.06225548 0.57823096 6.84762346 1.89117737 10.3125 4.0625 C11.19550781 4.61035156 12.07851563 5.15820312 12.98828125 5.72265625 C13.65214844 6.14417969 14.31601562 6.56570312 15 7 C14.01 7.33 13.02 7.66 12 8 C11.67 7.67 11.34 7.34 11 7 C10.67 7.66 10.34 8.32 10 9 C9.01 8.67 8.02 8.34 7 8 C6.690625 7.34 6.38125 6.68 6.0625 6 C5.17972859 3.79394438 5.17972859 3.79394438 2.875 3.25 C1.946875 3.12625 1.946875 3.12625 1 3 C0.67 3.99 0.34 4.98 0 6 C-0.99 6.33 -1.98 6.66 -3 7 C-1.125 2.25 -1.125 2.25 0 0 Z " fill="#E8C044" transform="translate(316,19)"/>
<path d="M0 0 C1.32 0.66 2.64 1.32 4 2 C4 3.32 4 4.64 4 6 C-7.22 6 -18.44 6 -30 6 C-30 5.34 -30 4.68 -30 4 C-14.16 4.495 -14.16 4.495 2 5 C2 4.01 2 3.02 2 2 C1.34 2 0.68 2 0 2 C0 1.34 0 0.68 0 0 Z " fill="#F5E9B8" transform="translate(198,147)"/>
<path d="M0 0 C0.66 0 1.32 0 2 0 C2.02712066 1.43739513 2.04645067 2.87493863 2.0625 4.3125 C2.07410156 5.11300781 2.08570313 5.91351563 2.09765625 6.73828125 C2 9 2 9 1 12 C1.66 12 2.32 12 3 12 C3 10.35 3 8.7 3 7 C3.804375 6.87625 4.60875 6.7525 5.4375 6.625 C6.283125 6.41875 7.12875 6.2125 8 6 C8.33 5.34 8.66 4.68 9 4 C9.99 4.66 10.98 5.32 12 6 C10.57084149 7.34227046 9.13137328 8.67357096 7.6875 10 C6.48673828 11.11375 6.48673828 11.11375 5.26171875 12.25 C3 14 3 14 0 14 C0 9.38 0 4.76 0 0 Z " fill="#F0C03E" transform="translate(158,62)"/>
<path d="M0 0 C0.53625 0.721875 1.0725 1.44375 1.625 2.1875 C4.97237858 6.15150095 8.67217898 9.11478598 13 12 C11.1746875 11.9071875 11.1746875 11.9071875 9.3125 11.8125 C5.42249954 11.79177176 3.16367751 12.62724186 0 15 C0.144375 14.443125 0.28875 13.88625 0.4375 13.3125 C0.623125 12.549375 0.80875 11.78625 1 11 C1.226875 10.13375 1.45375 9.2675 1.6875 8.375 C1.790625 7.59125 1.89375 6.8075 2 6 C1.34 5.34 0.68 4.68 0 4 C0 2.68 0 1.36 0 0 Z " fill="#F1C236" transform="translate(196,31)"/>
<path d="M0 0 C0.66 0 1.32 0 2 0 C2 5.28 2 10.56 2 16 C-2.29 16 -6.58 16 -11 16 C-11 15.67 -11 15.34 -11 15 C-7.7 15 -4.4 15 -1 15 C-0.67 10.05 -0.34 5.1 0 0 Z " fill="#170500" transform="translate(421,445)"/>
<path d="M0 0 C0.33 0 0.66 0 1 0 C0.83023462 7.39251061 -0.54600352 14.54600352 -6 20 C-7.66617115 20.04063832 -9.33388095 20.042721 -11 20 C-10.61328125 19.59910156 -10.2265625 19.19820313 -9.828125 18.78515625 C-4.75473619 13.2471254 -1.67166993 7.33217604 0 0 Z " fill="#C09B6F" transform="translate(326,437)"/>
<path d="M0 0 C0.33 0 0.66 0 1 0 C1.02712066 1.43739513 1.04645067 2.87493863 1.0625 4.3125 C1.07410156 5.11300781 1.08570313 5.91351563 1.09765625 6.73828125 C1 9 1 9 0 12 C-2.0625 12.6875 -2.0625 12.6875 -4 13 C-4 13.66 -4 14.32 -4 15 C-3.34 15.33 -2.68 15.66 -2 16 C-3.65 16 -5.3 16 -7 16 C-5.55377814 12.14340838 -3.78682503 8.52237006 -1.90234375 4.8671875 C-0.87997124 2.85335678 -0.87997124 2.85335678 0 0 Z " fill="#C09A73" transform="translate(260,331)"/>
<path d="M0 0 C1.65 0 3.3 0 5 0 C5.01458252 0.63502441 5.02916504 1.27004883 5.04418945 1.92431641 C5.11905089 4.82513081 5.21558426 7.72484206 5.3125 10.625 C5.33505859 11.62402344 5.35761719 12.62304688 5.38085938 13.65234375 C5.58327779 19.20964919 6.05964408 23.1283111 9 28 C9 28.66 9 29.32 9 30 C8.01 30 7.02 30 6 30 C3.79028997 23.79715256 3.76434381 18.10398302 3.875 11.5625 C3.88402344 10.54478516 3.89304687 9.52707031 3.90234375 8.47851562 C3.92575302 5.98542844 3.958543 3.49284141 4 1 C2.68 0.67 1.36 0.34 0 0 Z " fill="#EFC754" transform="translate(272,8)"/>
<path d="M0 0 C4.04420651 1.77945087 7.46078487 4.39529673 11 7 C10.01 8.485 10.01 8.485 9 10 C9 9.34 9 8.68 9 8 C7.35 7.67 5.7 7.34 4 7 C4 7.66 4 8.32 4 9 C3.34 9 2.68 9 2 9 C2.33 7.35 2.66 5.7 3 4 C2.34 4 1.68 4 1 4 C0.67 2.68 0.34 1.36 0 0 Z " fill="#EECF74" transform="translate(320,77)"/>
<path d="M0 0 C0.66 0 1.32 0 2 0 C2 10.56 2 21.12 2 32 C1.67 32 1.34 32 1 32 C0.97494385 31.19780029 0.9498877 30.39560059 0.92407227 29.5690918 C0.80817957 25.94172926 0.68542249 22.31463083 0.5625 18.6875 C0.52318359 17.42486328 0.48386719 16.16222656 0.44335938 14.86132812 C0.40146484 13.65283203 0.35957031 12.44433594 0.31640625 11.19921875 C0.27974854 10.08377686 0.24309082 8.96833496 0.20532227 7.8190918 C0.11068791 4.92126429 0.11068791 4.92126429 -1 2 C-0.67 1.34 -0.34 0.68 0 0 Z " fill="#F8EBB3" transform="translate(242,89)"/>
<path d="M0 0 C0.66 0.33 1.32 0.66 2 1 C1.79375 2.03125 1.5875 3.0625 1.375 4.125 C0.98805597 8.1234216 1.48116924 10.33693757 3 14 C2.01 14.495 2.01 14.495 1 15 C0.27273948 13.4252706 -0.43120422 11.83975721 -1.125 10.25 C-1.51945312 9.36828125 -1.91390625 8.4865625 -2.3203125 7.578125 C-3 5 -3 5 -2.1796875 2.734375 C-1 1 -1 1 0 0 Z " fill="#A4764D" transform="translate(52,192)"/>
<path d="M0 0 C0.66 0.99 1.32 1.98 2 3 C1.360625 3.20625 0.72125 3.4125 0.0625 3.625 C-2.31822281 4.87998897 -2.31822281 4.87998897 -2.75 7.9375 C-3.040681 10.98622778 -3.040681 10.98622778 -3 14 C-6 14 -6 14 -8 13 C-6.85605098 11.01974361 -5.70978896 9.04082322 -4.5625 7.0625 C-3.92441406 5.96035156 -3.28632813 4.85820313 -2.62890625 3.72265625 C-1 1 -1 1 0 0 Z " fill="#F0D079" transform="translate(153,108)"/>
<path d="M0 0 C3.64757321 1.43715947 4.97325575 3.07711644 6.8125 6.5 C7.25207031 7.2940625 7.69164062 8.088125 8.14453125 8.90625 C8.56798828 9.94265625 8.56798828 9.94265625 9 11 C8.67 11.66 8.34 12.32 8 13 C7.54625 12.195625 7.0925 11.39125 6.625 10.5625 C5.25274335 7.91143428 5.25274335 7.91143428 3 7 C3 5.68 3 4.36 3 3 C0.36 3.33 -2.28 3.66 -5 4 C-3.35 2.68 -1.7 1.36 0 0 Z " fill="#E4BB43" transform="translate(386,72)"/>
<path d="M0 0 C3.29078593 2.79716804 5.06305458 6.19528578 7 10 C6.67 10.66 6.34 11.32 6 12 C5.67 11.01 5.34 10.02 5 9 C3.68 9.33 2.36 9.66 1 10 C1.33 8.35 1.66 6.7 2 5 C1.01 5.33 0.02 5.66 -1 6 C-1.625 4.125 -1.625 4.125 -2 2 C-1.34 1.34 -0.68 0.68 0 0 Z " fill="#EDC13C" transform="translate(395,85)"/>
<path d="M0 0 C1.2065625 0.0309375 1.2065625 0.0309375 2.4375 0.0625 C0.01271995 2.48728005 -2.42540029 3.60819748 -5.5 5.125 C-7.09134766 5.91583984 -7.09134766 5.91583984 -8.71484375 6.72265625 C-11.5625 8.0625 -11.5625 8.0625 -14.5625 9.0625 C-14.5625 8.4025 -14.5625 7.7425 -14.5625 7.0625 C-13.923125 6.959375 -13.28375 6.85625 -12.625 6.75 C-11.944375 6.523125 -11.26375 6.29625 -10.5625 6.0625 C-10.2325 5.0725 -9.9025 4.0825 -9.5625 3.0625 C-6.5625 1.9375 -6.5625 1.9375 -3.5625 1.0625 C-2.5625 0.0625 -2.5625 0.0625 0 0 Z " fill="#E1C978" transform="translate(211.5625,78.9375)"/>
<path d="M0 0 C1.32 0.33 2.64 0.66 4 1 C2.21190303 2.17213045 0.41940875 3.33755526 -1.375 4.5 C-2.37273437 5.1496875 -3.37046875 5.799375 -4.3984375 6.46875 C-7 8 -7 8 -9 8 C-9 7.34 -9 6.68 -9 6 C-8.34 6 -7.68 6 -7 6 C-6.896875 5.360625 -6.79375 4.72125 -6.6875 4.0625 C-6.460625 3.381875 -6.23375 2.70125 -6 2 C-3 1 -3 1 0 2 C0 1.34 0 0.68 0 0 Z " fill="#EBBC3E" transform="translate(185,55)"/>
<path d="M0 0 C7.16216216 1.75675676 7.16216216 1.75675676 10 5 C12.09989652 6.17574711 12.09989652 6.17574711 14 7 C13.01 7.99 12.02 8.98 11 10 C10.319375 9.236875 9.63875 8.47375 8.9375 7.6875 C5.64101475 4.67156669 3.13693165 3.54120983 -1 2 C-0.67 1.34 -0.34 0.68 0 0 Z " fill="#BF996D" transform="translate(309,347)"/>
<path d="M0 0 C0 3.15548393 -0.5690573 4.76554751 -1.8125 7.625 C-2.14894531 8.42164062 -2.48539063 9.21828125 -2.83203125 10.0390625 C-4 12 -4 12 -7 13 C-7.66 12.34 -8.32 11.68 -9 11 C-6.03 7.37 -3.06 3.74 0 0 Z " fill="#E4C775" transform="translate(163,95)"/>
<path d="M0 0 C0.66 0.33 1.32 0.66 2 1 C1.4359146 4.94859783 0.2568294 7.70879046 -2 11 C-2.33 11 -2.66 11 -3 11 C-3.75 8.3125 -3.75 8.3125 -4 5 C-2.0625 2.125 -2.0625 2.125 0 0 Z " fill="#F3C332" transform="translate(136,98)"/>
<path d="M0 0 C4.62 0 9.24 0 14 0 C12.92643531 4.29425875 12.4915227 4.74740471 9 7 C8.67 6.01 8.34 5.02 8 4 C8.33 3.67 8.66 3.34 9 3 C4.545 2.01 4.545 2.01 0 1 C0 0.67 0 0.34 0 0 Z " fill="#F5C540" transform="translate(137,83)"/>
<path d="M0 0 C0 0.66 0 1.32 0 2 C-1.45537568 2.83848804 -2.91440373 3.67063934 -4.375 4.5 C-5.59316406 5.19609375 -5.59316406 5.19609375 -6.8359375 5.90625 C-9 7 -9 7 -11 7 C-11 5 -11 5 -9 3 C-8.67 2.34 -8.34 1.68 -8 1 C-5.2303041 0.27113266 -2.87137415 0 0 0 Z " fill="#C0996D" transform="translate(203,315)"/>
<path d="M0 0 C0.66 0.99 1.32 1.98 2 3 C0.07119658 6.40755272 -1.8276509 9.74147635 -4 13 C-4.66 13 -5.32 13 -6 13 C-4.58707905 8.1725201 -2.57025846 4.2837641 0 0 Z " fill="#1A0D00" transform="translate(134,108)"/>
<path d="M0 0 C0.33 1.32 0.66 2.64 1 4 C0.34 4 -0.32 4 -1 4 C-1 4.99 -1 5.98 -1 7 C-1.66 7 -2.32 7 -3 7 C-3.2475 8.27875 -3.495 9.5575 -3.75 10.875 C-4.70496485 14.79173989 -4.70496485 14.79173989 -7.125 16.5 C-8.053125 16.7475 -8.053125 16.7475 -9 17 C-7.51481201 12.95698825 -5.57122002 9.38853744 -3.375 5.6875 C-2.74335937 4.61886719 -2.11171875 3.55023438 -1.4609375 2.44921875 C-0.97882813 1.64097656 -0.49671875 0.83273438 0 0 Z " fill="#E6BB42" transform="translate(110,85)"/>
<path d="M0 0 C0 0.99 0 1.98 0 3 C-0.66 3 -1.32 3 -2 3 C-1.34 5.31 -0.68 7.62 0 10 C-0.66 10 -1.32 10 -2 10 C-3.65 6.7 -5.3 3.4 -7 0 C-3 -1 -3 -1 0 0 Z " fill="#EDBE3A" transform="translate(159,51)"/>
<path d="M0 0 C1 2 1 2 0.1875 4.9375 C-1.64664622 9.66766656 -4.03412679 11.97341255 -8 15 C-8.66 14.67 -9.32 14.34 -10 14 C-9.61328125 13.57589844 -9.2265625 13.15179688 -8.828125 12.71484375 C-5.2605903 8.69695194 -2.51826571 4.74596229 0 0 Z " fill="#DEB841" transform="translate(312,26)"/>
<path d="M0 0 C0.8638129 1.45264038 1.71580454 2.9123163 2.5625 4.375 C3.27599609 5.59316406 3.27599609 5.59316406 4.00390625 6.8359375 C4.33261719 7.55007812 4.66132813 8.26421875 5 9 C4.67 9.66 4.34 10.32 4 11 C1.525 7.04 1.525 7.04 -1 3 C-3.31 3.33 -5.62 3.66 -8 4 C-5.29881977 1.17603885 -4.05589853 0 0 0 Z " fill="#DEB743" transform="translate(190,19)"/>
<path d="M0 0 C0.33 0 0.66 0 1 0 C1.54372951 3.05847848 2 5.88772805 2 9 C0.35 9.33 -1.3 9.66 -3 10 C-2.39009109 6.44219804 -1.4216319 3.3171411 0 0 Z " fill="#A37448" transform="translate(269,223)"/>
<path d="M0 0 C0.66 0.66 1.32 1.32 2 2 C0.02 6.95 -1.96 11.9 -4 17 C-4.33 17 -4.66 17 -5 17 C-5.37183099 9.43943662 -5.37183099 9.43943662 -3.625 7.375 C-3.08875 6.92125 -2.5525 6.4675 -2 6 C-0.79950593 2.89992799 -0.79950593 2.89992799 0 0 Z " fill="#9D7451" transform="translate(464,213)"/>
<path d="M0 0 C2.32472205 2.85306797 3.7508258 5.54074837 5 9 C2.6875 10.5625 2.6875 10.5625 0 12 C-0.99 11.67 -1.98 11.34 -3 11 C-2.67 10.34 -2.34 9.68 -2 9 C-0.35 9 1.3 9 3 9 C2.505 8.2575 2.01 7.515 1.5 6.75 C0 4 0 4 0 0 Z " fill="#DEBA42" transform="translate(407,105)"/>
<path d="M0 0 C0.33 0.99 0.66 1.98 1 3 C2.32303717 3.3721042 3.65737935 3.70630173 5 4 C5.33 4.66 5.66 5.32 6 6 C5.67 6.66 5.34 7.32 5 8 C0.25 6.125 0.25 6.125 -2 5 C-1.34 3.35 -0.68 1.7 0 0 Z " fill="#E9BF3C" transform="translate(96,109)"/>
<path d="M0 0 C1.32 0.66 2.64 1.32 4 2 C4 3.32 4 4.64 4 6 C-0.29 5.34 -4.58 4.68 -9 4 C-9 3.67 -9 3.34 -9 3 C-4.545 2.505 -4.545 2.505 0 2 C0 1.34 0 0.68 0 0 Z " fill="#D4AA3E" transform="translate(281,38)"/>
<path d="M0 0 C8.6309795 3.85421412 8.6309795 3.85421412 11 8 C5.95575532 7.55491959 3.55556591 5.39019075 0 2 C0 1.34 0 0.68 0 0 Z " fill="#1B0B05" transform="translate(325,381)"/>
<path d="M0 0 C0.66 0.33 1.32 0.66 2 1 C1.34 2.98 0.68 4.96 0 7 C-0.66 7 -1.32 7 -2 7 C-2.33 9.31 -2.66 11.62 -3 14 C-3.66 13.67 -4.32 13.34 -5 13 C-4.54554036 11.58208592 -4.08625056 10.16571954 -3.625 8.75 C-3.24214844 7.56664062 -3.24214844 7.56664062 -2.8515625 6.359375 C-2.04826333 4.13372042 -1.10288338 2.09068328 0 0 Z " fill="#9B744C" transform="translate(275,209)"/>
<path d="M0 0 C4.08378283 0.74250597 8.01939223 1.82923301 12 3 C12 3.99 12 4.98 12 6 C12.66 6 13.32 6 14 6 C13.67 6.66 13.34 7.32 13 8 C8.71 5.69 4.42 3.38 0 1 C0 0.67 0 0.34 0 0 Z " fill="#D9C275" transform="translate(296,81)"/>
<path d="M0 0 C1.67542976 0.28604898 3.34385343 0.61781233 5 1 C3.70700306 3.88437779 2.34058637 5.87219421 0 8 C-0.38063221 5.6739143 -0.71269945 3.33944736 -1 1 C-0.67 0.67 -0.34 0.34 0 0 Z " fill="#EFD177" transform="translate(164,112)"/>
<path d="M0 0 C1.65 0 3.3 0 5 0 C4.01 0.495 4.01 0.495 3 1 C3.99 4.3 4.98 7.6 6 11 C5.01 11.495 5.01 11.495 4 12 C3.3291288 10.3767313 2.66342971 8.75132422 2 7.125 C1.62875 6.22007812 1.2575 5.31515625 0.875 4.3828125 C0 2 0 2 0 0 Z " fill="#A07754" transform="translate(39,170)"/>
<path d="M0 0 C0.33 0.99 0.66 1.98 1 3 C1.66 3.33 2.32 3.66 3 4 C1.25 6.0625 1.25 6.0625 -1 8 C-2.32 7.67 -3.64 7.34 -5 7 C-3.35 4.69 -1.7 2.38 0 0 Z " fill="#D9B641" transform="translate(157,73)"/>
<path d="M0 0 C4.6875 0.78125 4.6875 0.78125 9.375 1.5625 C10.674375 1.7790625 10.674375 1.7790625 12 2 C12 2.99 12 3.98 12 5 C12.99 5.33 13.98 5.66 15 6 C14.01 6.495 14.01 6.495 13 7 C10.75689987 6.10333658 8.55245679 5.10853317 6.375 4.0625 C5.18648438 3.49660156 3.99796875 2.93070313 2.7734375 2.34765625 C1.85820312 1.90292969 0.94296875 1.45820312 0 1 C0 0.67 0 0.34 0 0 Z " fill="#DCB33F" transform="translate(305,50)"/>
<path d="M0 0 C-5.66748157 2.83374078 -10.69732561 3.63223832 -17 4 C-14.23719462 2.15812975 -12.19292174 1.27751723 -9.0625 0.3125 C-7.78052734 -0.09548828 -7.78052734 -0.09548828 -6.47265625 -0.51171875 C-3.89489426 -1.02075548 -2.45550663 -0.84888744 0 0 Z " fill="#291802" transform="translate(222,45)"/>
<path d="M0 0 C0.66 0.99 1.32 1.98 2 3 C1.67 3.99 1.34 4.98 1 6 C-1.0625 6.6875 -1.0625 6.6875 -3 7 C-3.33 8.32 -3.66 9.64 -4 11 C-4.66 10.67 -5.32 10.34 -6 10 C-4.02 6.7 -2.04 3.4 0 0 Z " fill="#1A0A01" transform="translate(358,44)"/>
<path d="M0 0 C4.05281712 1.22527029 7.44360764 2.69880494 11 5 C10.34 6.65 9.68 8.3 9 10 C8.67 10 8.34 10 8 10 C8 8.35 8 6.7 8 5 C5.34771188 3.92474806 2.71631546 2.90543849 0 2 C0 1.34 0 0.68 0 0 Z " fill="#D8B642" transform="translate(348,37)"/>
<path d="M0 0 C0.99 0.33 1.98 0.66 3 1 C2.01 1.495 2.01 1.495 1 2 C1.33 2.66 1.66 3.32 2 4 C2.06996014 5.70702735 2.08440154 7.41668003 2.0625 9.125 C2.05347656 10.03507812 2.04445313 10.94515625 2.03515625 11.8828125 C2.02355469 12.58148438 2.01195312 13.28015625 2 14 C1.01 14.495 1.01 14.495 0 15 C0.020625 13.80375 0.04125 12.6075 0.0625 11.375 C0.07514354 7.81584403 -0.40078348 4.50969676 -1 1 C-0.67 0.67 -0.34 0.34 0 0 Z " fill="#B99570" transform="translate(309,459)"/>
<path d="M0 0 C3.465 1.485 3.465 1.485 7 3 C6.67 4.32 6.34 5.64 6 7 C4.125 6.875 4.125 6.875 2 6 C0.75 2.9375 0.75 2.9375 0 0 Z " fill="#EDDEA2" transform="translate(289,96)"/>
<path d="M0 0 C3.35595828 0.59927826 5.37801226 1.84622436 8 4 C7.01 4.33 6.02 4.66 5 5 C5 4.34 5 3.68 5 3 C3.35 3.33 1.7 3.66 0 4 C0 4.66 0 5.32 0 6 C-0.66 6 -1.32 6 -2 6 C-1.34 4.02 -0.68 2.04 0 0 Z " fill="#E1BB3E" transform="translate(117,72)"/>
<path d="M0 0 C2.31 1.98 4.62 3.96 7 6 C6.01 6.495 6.01 6.495 5 7 C2.96855359 6.06553465 0.96466413 5.06775224 -1 4 C-0.67 2.68 -0.34 1.36 0 0 Z " fill="#140901" transform="translate(348,79)"/>
<path d="M0 0 C5.53846154 0.61538462 5.53846154 0.61538462 7.875 2.5625 C8.431875 3.2740625 8.431875 3.2740625 9 4 C7.68 3.67 6.36 3.34 5 3 C4.67 3.66 4.34 4.32 4 5 C3.01 4.67 2.02 4.34 1 4 C0.3125 1.9375 0.3125 1.9375 0 0 Z " fill="#EFC037" transform="translate(322,23)"/>
<path d="M0 0 C2.0625 0.4375 2.0625 0.4375 4 1 C3.01 2.485 3.01 2.485 2 4 C1.34 4 0.68 4 0 4 C-0.33 4.66 -0.66 5.32 -1 6 C-1.66 5.67 -2.32 5.34 -3 5 C-1.125 1.125 -1.125 1.125 0 0 Z " fill="#DEC7B2" transform="translate(148,362)"/>
<path d="M0 0 C0.66 0 1.32 0 2 0 C1.54803755 1.60597325 1.08817673 3.20972508 0.625 4.8125 C0.36976562 5.70582031 0.11453125 6.59914063 -0.1484375 7.51953125 C-1 10 -1 10 -3 13 C-2.88490339 11.58249437 -2.75746342 10.16598831 -2.625 8.75 C-2.55539063 7.96109375 -2.48578125 7.1721875 -2.4140625 6.359375 C-1.98492887 3.914123 -1.21399362 2.15163097 0 0 Z " fill="#E3BA45" transform="translate(125,121)"/>
<path d="M0 0 C-4.95 2.97 -4.95 2.97 -10 6 C-10 5.01 -10 4.02 -10 3 C-3.375 -1.125 -3.375 -1.125 0 0 Z " fill="#251803" transform="translate(386,73)"/>
<path d="M0 0 C0.66 0.33 1.32 0.66 2 1 C1.04956626 2.33897583 0.08940853 3.67105427 -0.875 5 C-1.40867187 5.7425 -1.94234375 6.485 -2.4921875 7.25 C-3.23855469 8.11625 -3.23855469 8.11625 -4 9 C-4.66 9 -5.32 9 -6 9 C-5.52797514 4.75177626 -3.03344482 2.80010291 0 0 Z " fill="#C09A72" transform="translate(337,418)"/>
<path d="M0 0 C3.56311466 1.78155733 5.35645475 3.16763009 8 6 C7.01 7.485 7.01 7.485 6 9 C4.02 6.03 2.04 3.06 0 0 Z " fill="#ECD280" transform="translate(334,110)"/>
<path d="M0 0 C3.7910119 1.44950455 7.3874638 3.15172566 11 5 C9.02 5.99 9.02 5.99 7 7 C6.401875 6.360625 5.80375 5.72125 5.1875 5.0625 C3.09189663 2.79689611 3.09189663 2.79689611 0 2 C0 1.34 0 0.68 0 0 Z " fill="#E7BF40" transform="translate(336,30)"/>
<path d="M0 0 C0.433125 0.45375 0.86625 0.9075 1.3125 1.375 C3.10798342 3.20024334 3.10798342 3.20024334 6 5 C4.02 5.99 4.02 5.99 2 7 C0.4375 4.625 0.4375 4.625 -1 2 C-0.67 1.34 -0.34 0.68 0 0 Z " fill="#F0E0A9" transform="translate(290,130)"/>
<path d="M0 0 C3 1 3 1 4.75 3.8125 C6.05483179 7.13982105 6.02866653 7.79584277 5 11 C4.16151196 9.54462432 3.32936066 8.08559627 2.5 6.625 C1.80390625 5.40683594 1.80390625 5.40683594 1.09375 4.1640625 C0 2 0 2 0 0 Z " fill="#231103" transform="translate(190,19)"/>
<path d="M0 0 C0.33 0.66 0.66 1.32 1 2 C-2.47307692 7.82980769 -2.47307692 7.82980769 -5.140625 8.69140625 C-5.75421875 8.79324219 -6.3678125 8.89507812 -7 9 C-6.02180976 7.68677212 -5.0424189 6.37443848 -4.0625 5.0625 C-3.51722656 4.33160156 -2.97195312 3.60070312 -2.41015625 2.84765625 C-1 1 -1 1 0 0 Z " fill="#1E0D05" transform="translate(132,356)"/>
<path d="M0 0 C-1 3 -1 3 -4 5 C-6.1875 4.625 -6.1875 4.625 -8 4 C-2.7826087 0 -2.7826087 0 0 0 Z " fill="#DFC7B3" transform="translate(174,345)"/>
<path d="M0 0 C0.66 0 1.32 0 2 0 C4 3 4 3 3.625 5.6875 C3.41875 6.450625 3.2125 7.21375 3 8 C2.896875 7.360625 2.79375 6.72125 2.6875 6.0625 C2.460625 5.381875 2.23375 4.70125 2 4 C1.01 3.67 0.02 3.34 -1 3 C-0.67 2.01 -0.34 1.02 0 0 Z " fill="#AB7A50" transform="translate(475,176)"/>
<path d="M0 0 C2.31 0 4.62 0 7 0 C7 0.99 7 1.98 7 3 C7.66 3 8.32 3 9 3 C8.67 3.66 8.34 4.32 8 5 C5.36 3.68 2.72 2.36 0 1 C0 0.67 0 0.34 0 0 Z " fill="#E3D5A5" transform="translate(273,124)"/>
<path d="M0 0 C0.99 0.66 1.98 1.32 3 2 C-2.41538462 5.07692308 -2.41538462 5.07692308 -5.375 4.6875 C-5.91125 4.460625 -6.4475 4.23375 -7 4 C-4.69 2.68 -2.38 1.36 0 0 Z " fill="#E5D6A2" transform="translate(210,99)"/>
<path d="M0 0 C0.33 0.66 0.66 1.32 1 2 C0.67 2.99 0.34 3.98 0 5 C-1.65 5.33 -3.3 5.66 -5 6 C-3.63016497 2.83884224 -3.0109362 2.0072908 0 0 Z " fill="#EDD07C" transform="translate(183,78)"/>
<path d="M0 0 C0.66 0.66 1.32 1.32 2 2 C1.625 4.125 1.625 4.125 1 6 C-0.32 6.33 -1.64 6.66 -3 7 C-1.125 1.125 -1.125 1.125 0 0 Z " fill="#F0C03E" transform="translate(114,78)"/>
<path d="M0 0 C0.99 0.33 1.98 0.66 3 1 C2.34 1.66 1.68 2.32 1 3 C1.66 4.65 2.32 6.3 3 8 C2.01 8 1.02 8 0 8 C-0.38063221 5.6739143 -0.71269945 3.33944736 -1 1 C-0.67 0.67 -0.34 0.34 0 0 Z " fill="#1E0C02" transform="translate(147,40)"/>
<path d="M0 0 C1.32 0 2.64 0 4 0 C4.33 2.31 4.66 4.62 5 7 C4.34 7 3.68 7 3 7 C2.01 4.69 1.02 2.38 0 0 Z " fill="#C1966D" transform="translate(321,357)"/>
<path d="M0 0 C3.465 1.98 3.465 1.98 7 4 C6.67 4.66 6.34 5.32 6 6 C5.01 6 4.02 6 3 6 C0 2.66666667 0 2.66666667 0 0 Z " fill="#1F0E07" transform="translate(312,350)"/>
<path d="M0 0 C0.66 0.33 1.32 0.66 2 1 C0.515 4.465 0.515 4.465 -1 8 C-1.33 8 -1.66 8 -2 8 C-2.33 6.02 -2.66 4.04 -3 2 C-2.01 2 -1.02 2 0 2 C0 1.34 0 0.68 0 0 Z " fill="#A0734C" transform="translate(470,199)"/>
<path d="M0 0 C1.32 0.99 2.64 1.98 4 3 C3.01 4.485 3.01 4.485 2 6 C1.34 6 0.68 6 0 6 C0 5.34 0 4.68 0 4 C-0.66 3.67 -1.32 3.34 -2 3 C-1.34 2.01 -0.68 1.02 0 0 Z " fill="#F5C438" transform="translate(392,122)"/>
<path d="M0 0 C-0.66 1.32 -1.32 2.64 -2 4 C-3.65 4 -5.3 4 -7 4 C-7 3.34 -7 2.68 -7 2 C-4.35261084 0.5393715 -3.10551666 0 0 0 Z " fill="#E7C975" transform="translate(211,64)"/>
<path d="M0 0 C2.97 0.33 5.94 0.66 9 1 C9 1.99 9 2.98 9 4 C6.03 3.01 3.06 2.02 0 1 C0 0.67 0 0.34 0 0 Z " fill="#E8D17D" transform="translate(276,59)"/>
<path d="M0 0 C3.10551666 3.10551666 3.81323934 4.89198233 5 9 C4.01 9 3.02 9 2 9 C1.34 6.03 0.68 3.06 0 0 Z " fill="#E0B742" transform="translate(276,29)"/>
<path d="M0 0 C3.34373475 0.55728913 6.03312999 1.35173889 9 3 C9 3.66 9 4.32 9 5 C5.22454612 3.90931332 2.52956528 3.0916909 0 0 Z " fill="#2A1503" transform="translate(331,26)"/>
<path d="M0 0 C1.134375 0.020625 2.26875 0.04125 3.4375 0.0625 C1.05176621 1.95463369 -0.63425348 3.08641783 -3.5625 4.0625 C-3.8925 3.0725 -4.2225 2.0825 -4.5625 1.0625 C-3.5625 0.0625 -3.5625 0.0625 0 0 Z " fill="#BF9A73" transform="translate(157.5625,331.9375)"/>
<path d="M0 0 C2.5 1.8125 2.5 1.8125 5 4 C5 4.99 5 5.98 5 7 C3 7 3 7 1.375 5.75 C0 4 0 4 0 0 Z " fill="#D3C0AF" transform="translate(239,316)"/>
<path d="M0 0 C0.66 0.99 1.32 1.98 2 3 C1.360625 3.268125 0.72125 3.53625 0.0625 3.8125 C-2.33131686 4.88667752 -2.33131686 4.88667752 -3 8 C-3.66 7.67 -4.32 7.34 -5 7 C-3.35 4.69 -1.7 2.38 0 0 Z " fill="#E7C97D" transform="translate(153,108)"/>
<path d="M0 0 C1.16945792 0.80847729 2.33550461 1.62189112 3.5 2.4375 C4.47453125 3.11619141 4.47453125 3.11619141 5.46875 3.80859375 C5.9740625 4.20175781 6.479375 4.59492187 7 5 C7 5.33 7 5.66 7 6 C5.35 6 3.7 6 2 6 C1.34 4.02 0.68 2.04 0 0 Z " fill="#E8DCA8" transform="translate(305,105)"/>
<path d="M0 0 C0.66 0.66 1.32 1.32 2 2 C-0.3125 4.5 -0.3125 4.5 -3 7 C-3.99 7 -4.98 7 -6 7 C-4.02 4.69 -2.04 2.38 0 0 Z " fill="#1E0D00" transform="translate(151,85)"/>
<path d="M0 0 C1.98 1.65 3.96 3.3 6 5 C4.68 5.33 3.36 5.66 2 6 C0 2.25 0 2.25 0 0 Z " fill="#1E1500" transform="translate(342,73)"/>
<path d="M0 0 C3.73487777 0.4979837 5.81237635 0.87491756 9 3 C9 3.66 9 4.32 9 5 C5.54074837 3.7508258 2.85306797 2.32472205 0 0 Z " fill="#2A1704" transform="translate(121,73)"/>
<path d="M0 0 C2.64 0.99 5.28 1.98 8 3 C6.02 3.99 6.02 3.99 4 5 C2 3.625 2 3.625 0 2 C0 1.34 0 0.68 0 0 Z " fill="#E6CC78" transform="translate(296,64)"/>
<path d="M0 0 C0.6875 1.625 0.6875 1.625 1 4 C-0.4375 7.25 -0.4375 7.25 -2 10 C-2.6875 8.375 -2.6875 8.375 -3 6 C-1.5625 2.75 -1.5625 2.75 0 0 Z " fill="#1C0B00" transform="translate(351,55)"/>
<path d="M0 0 C3.96 1.98 3.96 1.98 8 4 C8 4.33 8 4.66 8 5 C5.03 4.67 2.06 4.34 -1 4 C-0.67 2.68 -0.34 1.36 0 0 Z " fill="#EBC042" transform="translate(201,38)"/>
</svg>
