<?xml version="1.0" encoding="UTF-8"?>
<svg version="1.1" xmlns="http://www.w3.org/2000/svg" width="314" height="254">
<path d="M0 0 C103.62 0 207.24 0 314 0 C314 83.82 314 167.64 314 254 C210.38 254 106.76 254 0 254 C0 170.18 0 86.36 0 0 Z " fill="#FEFEFE" transform="translate(0,0)"/>
<path d="M0 0 C3.458176 -0.0868329 6.91607344 -0.14033282 10.375 -0.1875 C11.35984375 -0.21263672 12.3446875 -0.23777344 13.359375 -0.26367188 C14.77089844 -0.27817383 14.77089844 -0.27817383 16.2109375 -0.29296875 C17.08024902 -0.3086792 17.94956055 -0.32438965 18.84521484 -0.34057617 C19.55629395 -0.22818604 20.26737305 -0.1157959 21 0 C21.66 0.99 22.32 1.98 23 3 C23.74668945 2.92998779 24.49337891 2.85997559 25.26269531 2.7878418 C35.75546534 1.9139594 46.20901816 1.81383929 56.73291016 1.81469727 C59.75827776 1.81249397 62.78328945 1.79422235 65.80859375 1.77539062 C67.76301961 1.77245849 69.71744717 1.77047249 71.671875 1.76953125 C73.00505768 1.75875298 73.00505768 1.75875298 74.36517334 1.74775696 C83.3545008 1.78010448 92.38389955 2.86971011 100 8 C104.62351876 12.86686185 106.27061134 16.55187842 106.125 23.25 C106.10695313 24.32765625 106.08890625 25.4053125 106.0703125 26.515625 C106.04710937 27.33546875 106.02390625 28.1553125 106 29 C114.65010692 25.53045162 120.66128878 21.03219978 127.18994141 14.49536133 C131.61371702 10.10820424 135.20234197 7.73240231 141.625 7.625 C148.6056283 7.79195075 156.18590637 9.57886082 161.1875 14.75 C163.37382108 18.67029987 163.86559339 21.66354682 163 26 C157.79858589 39.37506487 140.80400763 48.93827161 128.375 54.8125 C106.70842866 63.89998239 85.15681374 65.39736483 61.9375 65.5625 C60.92489105 65.5771228 59.9122821 65.59174561 58.86898804 65.60681152 C46.01070752 65.76342471 35.0009242 64.78492391 23 60 C22.34 61.98 21.68 63.96 21 66 C17.68751813 66.02888146 14.37506833 66.04675799 11.0625 66.0625 C10.11697266 66.07087891 9.17144531 66.07925781 8.19726562 66.08789062 C6.84858398 66.09272461 6.84858398 66.09272461 5.47265625 66.09765625 C4.64000244 66.10289307 3.80734863 66.10812988 2.94946289 66.11352539 C1 66 1 66 0 65 C-0.09409479 62.97505769 -0.11743122 60.9468013 -0.11352539 58.91967773 C-0.11344986 57.61840439 -0.11337433 56.31713104 -0.11329651 54.97642517 C-0.10818909 53.54548098 -0.10297308 52.11453718 -0.09765625 50.68359375 C-0.09579203 49.2277074 -0.09436815 47.77182043 -0.09336853 46.31593323 C-0.08954365 42.47720621 -0.07971364 38.63851681 -0.06866455 34.79980469 C-0.05844978 30.88542184 -0.05387077 26.97103294 -0.04882812 23.05664062 C-0.03809134 15.37107657 -0.02101529 7.68554355 0 0 Z " fill="#1472FD" transform="translate(68,124)"/>
<path d="M0 0 C1.18480453 -0.00953201 2.36960907 -0.01906403 3.59031677 -0.02888489 C5.50446129 -0.02751778 5.50446129 -0.02751778 7.45727539 -0.02612305 C8.77151993 -0.03040817 10.08576447 -0.0346933 11.43983459 -0.03910828 C14.21969642 -0.04656151 16.99943123 -0.0462858 19.77929688 -0.04101562 C23.33471292 -0.03522223 26.8896078 -0.05215248 30.44493771 -0.0753603 C33.84490522 -0.09366895 37.24475886 -0.08991177 40.64477539 -0.08862305 C41.9188475 -0.09783279 43.19291962 -0.10704254 44.50559998 -0.11653137 C46.28753502 -0.10718819 46.28753502 -0.10718819 48.10546875 -0.09765625 C49.14819443 -0.09828568 50.1909201 -0.0989151 51.26524353 -0.0995636 C55.24665413 0.42281802 58.03969053 1.88985119 60.51586914 5.0715332 C62.89417586 9.82814664 63.64020405 12.94495476 62.11743164 18.2746582 C58.79044527 19.93815139 55.05313779 19.51843877 51.39086914 19.59106445 C50.52805328 19.61184555 49.66523743 19.63262665 48.77627563 19.65403748 C46.01507671 19.71951854 43.25378126 19.77841119 40.49243164 19.8371582 C38.62262992 19.8803448 36.75283802 19.92395913 34.88305664 19.96801758 C30.29461436 20.07519845 25.70607481 20.17646995 21.11743164 20.2746582 C21.11743164 21.9246582 21.11743164 23.5746582 21.11743164 25.2746582 C28.05502199 25.35115151 34.99250229 25.40344317 41.93041992 25.43945312 C44.2872321 25.45447599 46.64401662 25.47490017 49.00073242 25.50097656 C52.40168106 25.53764641 55.80225785 25.55445017 59.20336914 25.56762695 C60.24544525 25.58311081 61.28752136 25.59859467 62.36117554 25.61454773 C71.33828829 25.61658131 79.39534037 24.19005156 86.67993164 18.6496582 C87.59645508 17.95485352 88.51297852 17.26004883 89.45727539 16.54418945 C92.1006758 14.28895357 94.3958299 11.89597436 96.74243164 9.3371582 C100.27820026 5.69424508 102.77202302 4.01837436 107.90258789 3.91918945 C111.97049043 4.5720627 116.16397082 6.32119738 119.11743164 9.2746582 C119.46899414 11.5090332 119.46899414 11.5090332 119.11743164 14.2746582 C107.76015134 29.57221942 88.88013771 37.87496722 71.17993164 43.0871582 C70.5015625 43.294375 69.82319336 43.5015918 69.12426758 43.71508789 C55.94581212 47.35496869 41.36529243 46.51391235 27.79125977 46.56982422 C25.83480646 46.5814231 23.87838667 46.60199716 21.92211914 46.63134766 C0.55360968 46.95009459 0.55360968 46.95009459 -7.88256836 42.2746582 C-8.52919434 41.99404541 -9.17582031 41.71343262 -9.84204102 41.42431641 C-11.53100586 40.4621582 -11.53100586 40.4621582 -13.88256836 37.2746582 C-14.59641036 32.95112366 -14.66173422 28.7305312 -14.55493164 24.35473633 C-14.50768065 22.27958957 -14.51382003 20.20958239 -14.52709961 18.1340332 C-14.4044559 6.76161613 -14.4044559 6.76161613 -9.88256836 2.2746582 C-6.56200616 0.17416417 -3.89156965 0.01720843 0 0 Z " fill="#FAFCFE" transform="translate(103.882568359375,134.725341796875)"/>
<path d="M0 0 C3.20220235 1.84176454 6.14716955 4.0061404 9.125 6.1875 C10.90858646 7.46651924 12.6924487 8.74515396 14.4765625 10.0234375 C15.38825195 10.68182617 16.29994141 11.34021484 17.23925781 12.01855469 C20.78157498 14.56095353 24.36005795 17.04903346 27.94165039 19.53564453 C49.52817479 34.52817479 49.52817479 34.52817479 53 38 C53.3125 40.375 53.3125 40.375 53 43 C51.5 44.875 51.5 44.875 49 46 C47.00585938 45.89111328 47.00585938 45.89111328 44.84375 45.5703125 C42.94109375 45.28800781 42.94109375 45.28800781 41 45 C41.02331642 45.98812683 41.02331642 45.98812683 41.04710388 46.99621582 C41.20239454 53.87448453 41.30772083 60.75225262 41.38452148 67.63183594 C41.41964715 70.19649494 41.46735936 72.76101453 41.52807617 75.32519531 C41.61333416 79.01923056 41.65276997 82.7114078 41.68359375 86.40625 C41.71972275 87.5461438 41.75585175 88.6860376 41.79307556 89.86047363 C41.79644479 96.74601678 40.77611704 100.55525476 35.99549866 105.59509277 C33.67000871 107.23232647 31.79721716 107.63522836 29 108 C29.03117165 106.68360786 29.03117165 106.68360786 29.06297302 105.34062195 C29.24628243 97.02915112 29.3562755 88.72052482 29.38603115 80.40703106 C29.40385781 76.1334094 29.44899891 71.86387841 29.55883789 67.59155273 C31.12555126 48.42904915 31.12555126 48.42904915 24.80029297 31.4128418 C21.77621038 28.87464704 18.60104277 27.21887535 14.92892456 25.80924988 C11.72016699 24.46306625 9.07934793 22.45079825 6.25 20.4375 C4.50187856 19.28880271 2.75224602 18.14239569 1 17 C0.01 16.34 -0.98 15.68 -2 15 C-6.47021169 14.36913455 -8.67913317 15.75384681 -12.2734375 18.32421875 C-13.2634375 19.02353516 -14.2534375 19.72285156 -15.2734375 20.44335938 C-16.80871094 21.55420898 -16.80871094 21.55420898 -18.375 22.6875 C-19.39078125 23.40873047 -20.4065625 24.12996094 -21.453125 24.87304688 C-23.4234963 26.27405764 -25.38950216 27.68123301 -27.35058594 29.09521484 C-29.60716862 30.71757553 -31.88198681 32.30849447 -34.1640625 33.89453125 C-37.03596178 35.69562299 -37.03596178 35.69562299 -38 38 C-38.10927501 39.77622856 -38.15638865 41.55643385 -38.17358398 43.3359375 C-38.18707382 44.45049316 -38.20056366 45.56504883 -38.21446228 46.71337891 C-38.22490067 47.92171387 -38.23533905 49.13004883 -38.24609375 50.375 C-38.27902152 52.91146192 -38.31223334 55.44792017 -38.34570312 57.984375 C-38.39322254 62.00062721 -38.4380896 66.01685786 -38.47680664 70.03320312 C-38.51636666 73.89729295 -38.56794087 77.76107669 -38.62109375 81.625 C-38.6295079 82.83333496 -38.63792206 84.04166992 -38.64659119 85.28662109 C-38.66323318 86.40117676 -38.67987518 87.51573242 -38.69702148 88.6640625 C-38.71248268 90.14060303 -38.71248268 90.14060303 -38.72825623 91.64697266 C-39 94 -39 94 -41 96 C-43.71454956 96.32752234 -46.25230759 96.1308425 -49 96 C-50.59865963 94.40134037 -50.16483531 92.69543968 -50.20532227 90.48022461 C-50.22526749 89.51930405 -50.24521271 88.55838348 -50.26576233 87.56834412 C-50.28247482 86.523564 -50.29918732 85.47878387 -50.31640625 84.40234375 C-50.33718735 83.33834854 -50.35796844 82.27435333 -50.37937927 81.17811584 C-50.44499254 77.7646456 -50.50381423 74.35109571 -50.5625 70.9375 C-50.60567403 68.62954891 -50.64928794 66.321606 -50.69335938 64.01367188 C-50.80068584 58.34253318 -50.90242992 52.67131448 -51 47 C-52.11375 46.70738281 -53.2275 46.41476563 -54.375 46.11328125 C-58 45 -58 45 -60 43.1875 C-61.33104059 40.27584872 -61.01463202 39.01659654 -60 36 C-57.78515625 34.0859375 -57.78515625 34.0859375 -55.0625 32.375 C-51.84357696 30.32785758 -50.14320122 29.21480183 -48 26 C-47.6373883 24.07255631 -47.6373883 24.07255631 -47.5859375 21.98828125 C-47.52792969 20.85229492 -47.52792969 20.85229492 -47.46875 19.69335938 C-47.42234375 18.51483398 -47.42234375 18.51483398 -47.375 17.3125 C-47.31699219 16.11657227 -47.31699219 16.11657227 -47.2578125 14.89648438 C-47.16367506 12.93136525 -47.08075368 10.9657146 -47 9 C-44.68756208 8.97314588 -42.3750373 8.95367159 -40.0625 8.9375 C-38.77472656 8.92589844 -37.48695312 8.91429687 -36.16015625 8.90234375 C-33 9 -33 9 -32 10 C-31.95919217 11.99958364 -31.95745644 14.00045254 -32 16 C-26.44290113 12.96015651 -21.32739346 9.5080522 -16.1875 5.8125 C-14.68184248 4.73448485 -13.1753713 3.65760495 -11.66796875 2.58203125 C-11.01078857 2.10999268 -10.3536084 1.6379541 -9.67651367 1.15161133 C-6.03908533 -1.34696876 -4.29494398 -1.18330089 0 0 Z " fill="#1070FD" transform="translate(158,25)"/>
<path d="M0 0 C1.1034375 -0.00773438 2.206875 -0.01546875 3.34375 -0.0234375 C8.07085868 0.57330147 10.60428185 2.37975761 13.75 5.875 C17.31401017 10.9664431 17.08207592 16.37387925 16.5 22.375 C15.23251556 26.74963203 13.22595771 29.63042799 10.0625 32.875 C4.58132511 35.18286311 -0.64256012 35.11276915 -6.5 34.375 C-11.12891147 32.2201619 -13.30051565 29.92350872 -15.5 25.375 C-15.81540185 22.62731001 -15.96546861 20.17588151 -15.9375 17.4375 C-15.95748047 16.74720703 -15.97746094 16.05691406 -15.99804688 15.34570312 C-15.99316962 10.20020041 -14.8149888 7.26798684 -11.5 3.375 C-7.70423502 0.37634566 -4.78294077 -0.03352529 0 0 Z " fill="#5876FF" transform="translate(74.5,210.625)"/>
<path d="M0 0 C1.75 0.0625 1.75 0.0625 4 1 C5.25843571 2.48430879 6.51309127 3.97383206 7.6953125 5.51953125 C9.06703717 7.24258128 9.06703717 7.24258128 11.8125 8.5625 C12.534375 9.036875 13.25625 9.51125 14 10 C14.4375 12.5625 14.4375 12.5625 14 15 C13.34 15.66 12.68 16.32 12 17 C9.1796875 16.9765625 9.1796875 16.9765625 5.875 16.625 C4.77929688 16.51414062 3.68359375 16.40328125 2.5546875 16.2890625 C1.71164063 16.19367188 0.86859375 16.09828125 0 16 C-0.66 17.32 -1.32 18.64 -2 20 C-1.28070313 20.27070312 -0.56140625 20.54140625 0.1796875 20.8203125 C2.98152251 21.99227119 5.51091351 23.33212938 8.125 24.875 C8.97320312 25.36742188 9.82140625 25.85984375 10.6953125 26.3671875 C13.08350191 28.05915898 14.48469961 29.50677412 16 32 C16.6472227 36.90040041 15.91299832 40.16748667 13.27734375 44.37890625 C11.22381583 46.98506554 8.54559905 48.88769441 6 51 C4.13076797 54.14988873 4.13076797 54.14988873 3 57 C0.57628794 56.62241117 -0.66047495 56.41771221 -2.23828125 54.4765625 C-2.77001953 53.56003906 -2.77001953 53.56003906 -3.3125 52.625 C-5.96107379 48.59420177 -8.48159901 47.50613366 -13 46 C-12.67 43.69 -12.34 41.38 -12 39 C-6.72 39 -1.44 39 4 39 C4.33 37.35 4.66 35.7 5 34 C4.28070313 33.89300781 3.56140625 33.78601563 2.8203125 33.67578125 C-0.25432591 32.93906041 -2.42431405 31.81864824 -5.125 30.1875 C-5.97320312 29.68605469 -6.82140625 29.18460938 -7.6953125 28.66796875 C-11.26563951 26.08402022 -12.79020575 24.09093008 -13.625 19.75 C-12.74340659 14.46043956 -9.86187177 11.58227924 -6 8 C-5.34 7.67 -4.68 7.34 -4 7 C-2.96708324 5.01679982 -1.9662501 3.01652194 -1 1 C-0.67 0.67 -0.34 0.34 0 0 Z " fill="#5775FF" transform="translate(151,64)"/>
<path d="M0 0 C3.3 0 6.6 0 10 0 C13.15389365 7.54681695 15.68855099 15.15582728 18 23 C21.19198847 15.47845271 23.69138424 7.83455774 26 0 C29.63 0 33.26 0 37 0 C37 11.22 37 22.44 37 34 C34.69 34 32.38 34 30 34 C29.67 26.74 29.34 19.48 29 12 C26.7380475 18.86500943 26.7380475 18.86500943 24.48266602 25.73217773 C24.20092529 26.58239502 23.91918457 27.4326123 23.62890625 28.30859375 C23.34088135 29.18314209 23.05285645 30.05769043 22.75610352 30.95874023 C22 33 22 33 21 34 C18.69 34 16.38 34 14 34 C12.02 27.07 10.04 20.14 8 13 C7.67 19.93 7.34 26.86 7 34 C4.69 34 2.38 34 0 34 C0 22.78 0 11.56 0 0 Z " fill="#5B78FF" transform="translate(110,211)"/>
<path d="M0 0 C17.39285714 0 17.39285714 0 22 3 C23.84206713 5.32260638 23.99069232 6.93883526 24.4375 9.875 C23.82914063 14.22042409 21.99643739 15.85374074 19 19 C20.32038384 22.6150315 21.93170407 25.59250151 24.125 28.75 C27 32.90430622 27 32.90430622 27 34 C21.99940723 34.96502667 21.99940723 34.96502667 19 34 C15.96681631 30.54727315 12 25.77479909 12 21 C10.68 21 9.36 21 8 21 C8 25.29 8 29.58 8 34 C5.36 34 2.72 34 0 34 C0 22.78 0 11.56 0 0 Z " fill="#5B78FF" transform="translate(188,211)"/>
<path d="M0 0 C3.46679688 0.04882812 3.46679688 0.04882812 6.93359375 0.09765625 C9.82896706 7.21333816 12.55678244 14.37878961 15.18359375 21.59765625 C15.54710937 22.58507812 15.910625 23.5725 16.28515625 24.58984375 C16.62804687 25.53085938 16.9709375 26.471875 17.32421875 27.44140625 C17.78876465 28.71274414 17.78876465 28.71274414 18.26269531 30.00976562 C18.93359375 32.09765625 18.93359375 32.09765625 18.93359375 34.09765625 C16.29359375 34.09765625 13.65359375 34.09765625 10.93359375 34.09765625 C8.93359375 28.34765625 8.93359375 28.34765625 8.93359375 26.09765625 C4.64359375 26.09765625 0.35359375 26.09765625 -4.06640625 26.09765625 C-4.72640625 28.73765625 -5.38640625 31.37765625 -6.06640625 34.09765625 C-8.70640625 34.09765625 -11.34640625 34.09765625 -14.06640625 34.09765625 C-11.91116345 26.6634066 -9.49090162 19.34277577 -6.94140625 12.03515625 C-6.58175781 10.99166016 -6.22210938 9.94816406 -5.8515625 8.87304688 C-5.33529297 7.38901367 -5.33529297 7.38901367 -4.80859375 5.875 C-4.49776855 4.98031006 -4.18694336 4.08562012 -3.86669922 3.16381836 C-2.69049712 0.12715015 -2.69049712 0.12715015 0 0 Z " fill="#5876FF" transform="translate(165.06640625,210.90234375)"/>
<path d="M0 0 C2.64 0 5.28 0 8 0 C8.33 4.29 8.66 8.58 9 13 C9.6290625 12.0615625 10.258125 11.123125 10.90625 10.15625 C11.76944577 8.93651685 12.63410719 7.71782 13.5 6.5 C13.90992188 5.87996094 14.31984375 5.25992188 14.7421875 4.62109375 C17.94817653 0.20071494 17.94817653 0.20071494 21.12890625 -0.40625 C23.34375 -0.40625 23.34375 -0.40625 27 0 C25.43632643 3.52238047 23.30504111 6.27123994 20.875 9.25 C20.15054688 10.14203125 19.42609375 11.0340625 18.6796875 11.953125 C18.12539062 12.62859375 17.57109375 13.3040625 17 14 C18.57893091 18.54593296 20.98381181 22.27171028 23.625 26.25 C28 32.87960123 28 32.87960123 28 34 C24.7180893 34.88885081 22.24478649 35.11005854 19 34 C16.86795496 31.28548905 15.23368218 28.67382158 13.65234375 25.62426758 C12.83259249 24.04767319 11.92221144 22.51893649 11 21 C10.01 21 9.02 21 8 21 C8 25.29 8 29.58 8 34 C5.36 34 2.72 34 0 34 C0 22.78 0 11.56 0 0 Z " fill="#5C79FF" transform="translate(219,211)"/>
<path d="M0 0 C6.6 0 13.2 0 20 0 C20 1.98 20 3.96 20 6 C16.04 6 12.08 6 8 6 C8 8.31 8 10.62 8 13 C11.63 13 15.26 13 19 13 C19 14.98 19 16.96 19 19 C15.04 19 11.08 19 7 19 C7 21.97 7 24.94 7 28 C11.29 28 15.58 28 20 28 C20 29.98 20 31.96 20 34 C13.4 34 6.8 34 0 34 C0 22.78 0 11.56 0 0 Z " fill="#5976FF" transform="translate(251,211)"/>
<path d="M0 0 C6.6 0 13.2 0 20 0 C20 1.98 20 3.96 20 6 C15.71 6 11.42 6 7 6 C7 8.31 7 10.62 7 13 C10.96 13 14.92 13 19 13 C19 14.98 19 16.96 19 19 C15.04 19 11.08 19 7 19 C7 21.97 7 24.94 7 28 C11.29 28 15.58 28 20 28 C20 29.98 20 31.96 20 34 C13.4 34 6.8 34 0 34 C0 22.78 0 11.56 0 0 Z " fill="#5674FF" transform="translate(3,211)"/>
<path d="M0 0 C2.3671875 1.0234375 2.3671875 1.0234375 4 2 C3.34 3.98 2.68 5.96 2 8 C1.505 7.835 1.01 7.67 0.5 7.5 C-3.18005012 6.76398998 -6.23108935 6.70088011 -10 7 C-12.21860731 9.1632679 -12.93151722 10.54949072 -13.3984375 13.62109375 C-13.39070313 14.55050781 -13.38296875 15.47992188 -13.375 16.4375 C-13.38273437 17.36433594 -13.39046875 18.29117188 -13.3984375 19.24609375 C-12.91132758 22.61288292 -12.24588017 24.42534149 -10 27 C-6.80624623 27.60557942 -6.80624623 27.60557942 -3.3125 27.3125 C-2.13300781 27.26738281 -0.95351563 27.22226563 0.26171875 27.17578125 C1.16535156 27.11777344 2.06898437 27.05976563 3 27 C3 28.98 3 30.96 3 33 C-2.47194885 34.82398295 -9.67095604 35.39282702 -15.08203125 33.12890625 C-19.51050886 29.70944886 -21.59605844 25.05200291 -22.31640625 19.609375 C-22.60307189 13.58014928 -21.59479545 8.90610449 -18 4 C-12.92833498 -1.07166502 -6.77849345 -0.81190869 0 0 Z " fill="#5977FF" transform="translate(50,211)"/>
<path d="M0 0 C8.25 0 16.5 0 25 0 C25 1.98 25 3.96 25 6 C22.03 6 19.06 6 16 6 C16 15.24 16 24.48 16 34 C13.69 34 11.38 34 9 34 C9 24.76 9 15.52 9 6 C6.03 6 3.06 6 0 6 C0 4.02 0 2.04 0 0 Z " fill="#5271FF" transform="translate(275,211)"/>
<path d="M0 0 C3.21130064 0.2539414 4.36705292 0.59346426 7.0625 2.5 C9.19212203 7.22220537 9.1583406 11.58918789 8.5 16.6875 C7.32755696 19.23628922 6.43702622 20.75047378 4.5 22.6875 C-2.70570265 23.27813136 -2.70570265 23.27813136 -5.9375 20.875 C-9.07232478 16.48624531 -9.10106062 11.8849065 -8.5 6.6875 C-6.59061315 1.95554128 -5.02136843 0.31435255 0 0 Z " fill="#FBFCFF" transform="translate(74.5,216.3125)"/>
<path d="M0 0 C2.57146057 2.57146057 2.80117997 4.6050417 3.625 8.125 C3.88539063 9.22070312 4.14578125 10.31640625 4.4140625 11.4453125 C4.70410156 12.70988281 4.70410156 12.70988281 5 14 C2.03 14 -0.94 14 -4 14 C-3.52372025 12.04096255 -3.04388577 10.08278903 -2.5625 8.125 C-2.29566406 7.03445312 -2.02882812 5.94390625 -1.75390625 4.8203125 C-1 2 -1 2 0 0 Z " fill="#EEF1FF" transform="translate(167,217)"/>
<path d="M0 0 C6.875 0.875 6.875 0.875 8 2 C8.1875 4.4375 8.1875 4.4375 8 7 C6 9 6 9 2.875 9.125 C1.451875 9.063125 1.451875 9.063125 0 9 C0 6.03 0 3.06 0 0 Z " fill="#FCFDFF" transform="translate(196,217)"/>
<path d="M0 0 C3 0.125 3 0.125 4 1.125 C4.04080783 3.12458364 4.04254356 5.12545254 4 7.125 C1.6739143 7.50563221 -0.66055264 7.83769945 -3 8.125 C-4 7.125 -4 7.125 -4.125 4.125 C-3.96 0.165 -3.96 0.165 0 0 Z " fill="#EAF2FE" transform="translate(79,130.875)"/>
<path d="M0 0 C0.33 0 0.66 0 1 0 C1 8.25 1 16.5 1 25 C0.67 25 0.34 25 0 25 C-0.06058594 23.87980469 -0.12117187 22.75960937 -0.18359375 21.60546875 C-0.26801424 20.13280016 -0.35266149 18.66014456 -0.4375 17.1875 C-0.47681641 16.44951172 -0.51613281 15.71152344 -0.55664062 14.95117188 C-0.74381035 11.76928658 -0.98720793 9.03837622 -2 6 C-1.0625 2.8125 -1.0625 2.8125 0 0 Z " fill="#EFF2FF" transform="translate(139,220)"/>
</svg>
