<?xml version="1.0" encoding="UTF-8"?>
<svg version="1.1" xmlns="http://www.w3.org/2000/svg" width="500" height="500">
<path d="M0 0 C4.41175386 3.14337462 7.09456995 6.59100255 10 11.0625 C10.43570313 11.72644775 10.87140625 12.39039551 11.3203125 13.07446289 C20.48515328 27.31392266 24.45159438 41.89232775 21.3125 58.67578125 C19.34483381 65.65279762 16.43019478 71.29074636 12 77 C10.88625 78.546875 10.88625 78.546875 9.75 80.125 C4.46672548 85.64842336 -2.09287044 89.44502173 -8.5625 93.4375 C-18.10224312 99.49104804 -24.37518742 105.12556226 -28 116 C-26.83617829 115.99907821 -25.67235659 115.99815641 -24.47326756 115.99720669 C3.12519559 115.97557018 30.72365789 115.95907019 58.32212776 115.94893467 C61.71564703 115.9476839 65.1091663 115.94638958 68.50268555 115.94506836 C69.17830217 115.94480605 69.8539188 115.94454374 70.55000866 115.94427348 C81.50363169 115.93991675 92.45724949 115.93202919 103.41086941 115.9228472 C114.642067 115.91351073 125.87326197 115.9080193 137.10446364 115.90591151 C143.41631144 115.90460397 149.72814737 115.90151545 156.03999138 115.89426994 C161.9733874 115.88751365 167.90676659 115.88538224 173.84016609 115.88689232 C176.02476213 115.88661581 178.20935869 115.88460839 180.39395142 115.88079453 C183.36262588 115.87586338 186.33123573 115.87699956 189.2999115 115.87974548 C190.17635297 115.87683264 191.05279445 115.8739198 191.95579475 115.87091869 C197.88587879 115.88587879 197.88587879 115.88587879 199 117 C200.05560761 123.47699976 200.10080075 130.07726922 200.125 136.625 C200.12959229 137.33599854 200.13418457 138.04699707 200.13891602 138.77954102 C200.12343483 143.87656517 200.12343483 143.87656517 199 145 C196.34536879 145.45459858 193.67810862 145.70243238 191 146 C179.83280807 242.6039284 179.83280807 242.6039284 168.85440445 339.22943878 C168.49996842 342.37528025 168.14446207 345.52099912 167.78866577 348.66668701 C167.23761856 353.54017578 166.68939616 358.41397344 166.14362144 363.28805542 C165.9467062 365.043245 165.74890054 366.79833497 165.5501194 368.55331421 C165.28274467 370.91595461 165.01882311 373.27895503 164.75585938 375.64208984 C164.60870483 376.95269379 164.46155029 378.26329773 164.30993652 379.61361694 C164.05133536 382.43910711 163.93438855 385.16654327 164 388 C165.11375 388.474375 166.2275 388.94875 167.375 389.4375 C176.75366498 394.17671901 183.4577953 401.63076589 188 411 C188.33902344 411.67160156 188.67804688 412.34320313 189.02734375 413.03515625 C192.72864446 421.88757592 192.41529633 433.96815735 189.375 443 C183.64560173 456.26808021 175.26527368 464.42680448 162 470 C151.14870612 474.16132187 139.46993409 472.4513682 129 468 C117.29351012 461.6086208 111.53387382 453.1745224 106 441 C95.11 440.67 84.22 440.34 73 440 C72.67 443.63 72.34 447.26 72 451 C69.84665136 461.56993176 65.68461131 471.00072149 56.6875 477.375 C32.96761195 491.57493298 -2.79146672 491.57474251 -29.08984375 485.2578125 C-49.77481516 479.11483807 -64.50449962 466.33832754 -74.97265625 447.515625 C-82.72898561 432.69461348 -86.40220195 417.55696347 -86.3125 400.875 C-86.30512817 399.2353125 -86.30512817 399.2353125 -86.29760742 397.5625 C-86.1666577 388.4295964 -85.19594216 379.85573101 -83 371 C-82.75854248 369.98945557 -82.75854248 369.98945557 -82.51220703 368.95849609 C-76.44369181 344.22390427 -63.40856273 318.83028327 -45 301 C-45.60585937 300.85304688 -46.21171875 300.70609375 -46.8359375 300.5546875 C-56.58759061 297.94424498 -65.3206565 293.63110756 -71 285 C-72.29038465 282.65643376 -73.14628173 280.56115481 -74 278 C-73 276 -73 276 -70.125 274.8125 C-60.40846297 272.35862914 -51.71324965 275.8790739 -43 280 C-42.84779531 272.48455425 -43.31526749 265.11777506 -44.00976562 257.63720703 C-44.1170549 256.44248276 -44.22434418 255.24775848 -44.33488464 254.01683044 C-44.62716778 250.77109192 -44.92335095 247.52573821 -45.22122002 244.28050852 C-45.53294937 240.87277045 -45.83928041 237.46454734 -46.14611816 234.05636597 C-46.72706083 227.61190353 -47.31222868 221.16783294 -47.89920855 214.72391784 C-48.95156239 203.16998543 -49.99748966 191.61547106 -51.04063749 180.06070411 C-51.3466736 176.67246579 -51.65369741 173.28432208 -51.96284485 169.89636612 C-52.30677053 166.12651722 -52.64866723 162.35648899 -52.99023438 158.58642578 C-53.14452156 156.90635185 -53.14452156 156.90635185 -53.30192566 155.19233704 C-53.39448135 154.16634903 -53.48703705 153.14036102 -53.58239746 152.08328247 C-53.70407413 150.74772906 -53.70407413 150.74772906 -53.82820892 149.38519478 C-53.98116377 147.26152741 -54 145.12916845 -54 143 C-58.95 143 -63.9 143 -69 143 C-69.93825328 138.30873358 -69.92759102 134.38332585 -69.5625 129.6875 C-69.51029297 128.94693359 -69.45808594 128.20636719 -69.40429688 127.44335938 C-69.27549848 125.62847291 -69.13856738 123.81416675 -69 122 C-70.051875 121.9175 -71.10375 121.835 -72.1875 121.75 C-89.41652334 119.50537372 -105.48480468 110.9533768 -116.33007812 97.32910156 C-128.37482636 81.06409422 -131.53669488 62.49514172 -128.83203125 42.75390625 C-127.63090917 35.2831406 -125.43197624 28.14915553 -123 21 C-122.62230469 19.8553125 -122.24460937 18.710625 -121.85546875 17.53125 C-119.31906615 10.15953307 -119.31906615 10.15953307 -117 9 C-116.79375 10.27875 -116.5875 11.5575 -116.375 12.875 C-114.18240369 22.37625068 -109.27314389 28.72052505 -101.2421875 34.12890625 C-93.86624766 38.38562334 -85.96989017 41.49301418 -78.02734375 44.5234375 C-62.47505495 50.47612898 -51.6302742 57.32028531 -44.3515625 72.63671875 C-40.30694739 82.70149797 -37.87023467 93.39588167 -37.8125 104.25 C-37.79832031 105.47203125 -37.78414063 106.6940625 -37.76953125 107.953125 C-38 111 -38 111 -40 113 C-40.71285156 112.07058594 -41.42570312 111.14117187 -42.16015625 110.18359375 C-49.81280248 100.27347048 -57.58026339 92.12259408 -67.39306641 84.28613281 C-69.0945962 82.92428855 -70.78784812 81.55258573 -72.48046875 80.1796875 C-83.71839131 71.09230556 -95.21593858 62.36729103 -107 54 C-95.35348279 65.9353809 -95.35348279 65.9353809 -82.71875 76.7890625 C-78.86458571 79.92333978 -75.25980648 83.30366407 -71.63305664 86.69580078 C-68.72711036 89.41231403 -65.79249231 92.06035439 -62.75 94.625 C-56.95133591 99.65132616 -51.34370671 105.24330878 -47.875 112.125 C-46.87180002 113.91013177 -46.87180002 113.91013177 -45 115 C-39.93176165 115.59338129 -35.07656116 115.40229353 -30 115 C-30.04640625 114.3915625 -30.0928125 113.783125 -30.140625 113.15625 C-31.05102174 91.04661483 -18.95764491 70.9678563 -7.37915039 53.01489258 C-4.43874417 48.44778283 -1.96125716 44.0705673 0 39 C-10.94885072 53.79259619 -21.84898096 68.9621554 -29 86 C-29.60413604 87.39584659 -30.20829817 88.79168189 -30.8125 90.1875 C-31.204375 91.115625 -31.59625 92.04375 -32 93 C-38.25216794 85.97725674 -38.5458572 73.00376373 -38.28125 63.99609375 C-37.11323978 51.55354045 -30.94891216 43.26557075 -21.72265625 35.25 C-19.87642701 33.72427828 -18.00820027 32.22486208 -16.12109375 30.75 C-8.14898504 24.50246991 -1.87636458 18.3200052 0 8 C0.13317512 5.30796003 0.09469453 2.69879422 0 0 Z M2 34 C3 36 3 36 3 36 Z " fill="#55823C" transform="translate(204,12)"/>
<path d="M0 0 C24.07431033 -0.02360508 48.14861887 -0.04111216 72.22293854 -0.05181217 C83.40693046 -0.05691757 94.5909151 -0.063847 105.77490234 -0.07543945 C115.54942089 -0.08556593 125.32393416 -0.09189496 135.09845781 -0.09408849 C140.24982389 -0.09536594 145.40117489 -0.09825427 150.55253601 -0.10573006 C180.04737015 -0.14688906 209.51407772 0.27469522 239 1 C238.68113593 4.0395007 238.36198231 7.07897053 238.04266357 10.11842346 C237.90815701 11.40100721 237.90815701 11.40100721 237.77093315 12.70950174 C237.11557349 18.94452624 236.42873105 25.17508003 235.703125 31.40234375 C235.58909332 32.38819962 235.47506165 33.37405548 235.35757446 34.38978577 C235.1147721 36.48785328 234.87153154 38.58587014 234.62786865 40.68383789 C234.23812284 44.03976902 233.84963423 47.39584382 233.46142578 50.75195312 C232.77837513 56.65558388 232.0943583 62.55910219 231.41003418 68.46258545 C230.23015498 78.64154623 229.0514612 88.82064358 227.875 99 C227.74905457 100.0896405 227.62310913 101.17928101 227.49334717 102.30194092 C225.75713386 117.33279551 224.05468873 132.3669254 222.39575195 147.40649414 C221.23168483 157.95533976 220.03473963 168.50013277 218.81985474 179.04324341 C217.74293827 188.39177476 216.69490753 197.74306573 215.671875 207.09765625 C215.44395012 209.1752139 215.21600421 211.25276925 214.98803711 213.33032227 C214.54254129 217.39162645 214.10137343 221.45337218 213.66235352 225.51538086 C213.45865673 227.37485484 213.25480686 229.23431207 213.05078125 231.09375 C212.95927795 231.95142471 212.86777466 232.80909943 212.77349854 233.69276428 C212.41462131 236.93762975 212.03567146 239.89298561 211 243 C210.410979 242.98428955 209.82195801 242.9685791 209.21508789 242.95239258 C206.49765973 242.889308 203.78038639 242.85078009 201.0625 242.8125 C200.13630859 242.78736328 199.21011719 242.76222656 198.25585938 242.73632812 C185.75325042 242.60472171 176.80746956 247.33827874 167.75 255.75 C157.36074143 266.59456473 157 278.34122203 157 293 C146.11 293 135.22 293 124 293 C123.484375 288.483125 122.96875 283.96625 122.4375 279.3125 C120.76120616 266.198757 118.06417467 254.23426621 113 242 C112.60393555 241.03368652 112.20787109 240.06737305 111.79980469 239.07177734 C105.9344575 225.00975331 99.01065738 212.27856361 90 200 C89.56300781 199.39623535 89.12601562 198.7924707 88.67578125 198.17041016 C83.43461906 190.96784381 77.70744528 184.29253858 71.6171875 177.8046875 C68.55014456 174.51791611 65.59593862 171.1427595 62.65625 167.7421875 C60.91930987 165.7867097 60.91930987 165.7867097 58 164 C58 163.34 58 162.68 58 162 C57.44828125 161.75507813 56.8965625 161.51015625 56.328125 161.2578125 C53.52360509 159.74261886 51.21896877 157.88915874 48.75 155.875 C47.85796875 155.15054688 46.9659375 154.42609375 46.046875 153.6796875 C45.03367187 152.84824219 45.03367187 152.84824219 44 152 C47.02643803 148.91343406 50.18328009 146.11831667 53.51171875 143.3671875 C55.12382018 142.04914224 55.12382018 142.04914224 56 140 C56.66 140 57.32 140 58 140 C58.66 136.7 59.32 133.4 60 130 C52.25643749 131.57739236 45.57691962 134.61538692 39 139 C39.02320313 138.07960938 39.04640625 137.15921875 39.0703125 136.2109375 C39.23730276 124.49776383 38.89176599 112.84695936 34 102 C32.95773957 100.75881263 32.95773957 100.75881263 30.6875 100.66015625 C27.87392583 100.75487291 27.87392583 100.75487291 25.9375 102.87109375 C19.66702997 111.17693812 14.91606179 118.97159238 12 129 C11.67 129 11.34 129 11 129 C10.9359346 128.25103455 10.8718692 127.50206909 10.80586243 126.73040771 C9.97885653 117.06991573 9.14685087 107.4098601 8.3125 97.75 C8.24551659 96.97380436 8.17853317 96.19760872 8.10951996 95.397892 C6.04497811 71.48208375 3.87218888 47.58135049 1.47387695 23.69628906 C1.32350227 22.17806297 1.32350227 22.17806297 1.17008972 20.62916565 C0.98648618 18.77656134 0.79979005 16.92425921 0.60908508 15.07237244 C0.52813095 14.25209061 0.44717682 13.43180878 0.36376953 12.58666992 C0.25767868 11.53983284 0.25767868 11.53983284 0.14944458 10.47184753 C-0.06174031 6.97880112 -0.00849981 3.49947548 0 0 Z " fill="#F9BE66" transform="translate(153,156)"/>
<path d="M0 0 C11.85893156 9.6117419 22.53727853 19.62290472 31.89453125 31.6875 C32.67957031 32.67878906 33.46460938 33.67007813 34.2734375 34.69140625 C43.92859569 46.94844767 52.36598096 59.53087325 58.96533203 73.69775391 C59.8698952 75.63474545 60.80132435 77.55707923 61.734375 79.48046875 C72.48963152 102.2410509 78.85083912 131.05172676 72.26953125 155.875 C68.60427935 166.06337504 63.05664614 173.18193873 53.27734375 177.96850586 C46.08382756 181.07850756 39.26869562 182.9104033 31.51953125 184 C29.82787842 184.24363281 29.82787842 184.24363281 28.10205078 184.4921875 C2.10097565 187.97215707 -25.05681267 186.7864499 -47.20703125 171.5546875 C-63.52490751 159.01284872 -75.52494543 139.16733245 -78.59765625 118.75390625 C-80.64564349 101.38943492 -80.54985214 83.38112304 -75.10546875 66.6875 C-74.66348852 65.20237996 -74.22345888 63.71667832 -73.78515625 62.23046875 C-70.61088249 51.81035362 -66.3184228 42.23592879 -61.10546875 32.6875 C-60.23921875 31.08261719 -60.23921875 31.08261719 -59.35546875 29.4453125 C-55.2035945 22.04498109 -50.37674422 15.32681974 -45.10546875 8.6875 C-44.61175781 7.93726563 -44.11804688 7.18703125 -43.609375 6.4140625 C-41.51524038 3.63323333 -39.77916383 1.98493776 -36.25634766 1.35888672 C-32.40948761 0.98609822 -28.57314566 0.92062039 -24.7109375 0.8671875 C-19.52242069 0.76189145 -14.78543471 -0.36971231 -9.8046875 -1.7890625 C-5.90234638 -2.54581172 -3.37287338 -2.10257042 0 0 Z " fill="#90CCB9" transform="translate(200.10546875,312.3125)"/>
<path d="M0 0 C4.60129048 3.55045522 8.76544451 7.14816676 12 12 C15.08365871 12.2502157 15.08365871 12.2502157 18 12 C17.69385143 15.12565662 17.37900284 18.25037623 17.0625 21.375 C16.97548828 22.26445312 16.88847656 23.15390625 16.79882812 24.0703125 C16.71181641 24.92109375 16.62480469 25.771875 16.53515625 26.6484375 C16.456604 27.43395996 16.37805176 28.21948242 16.29711914 29.02880859 C16 31 16 31 15 33 C18.3 32.34 21.6 31.68 25 31 C35.91082105 43.96426209 37.99487064 55.44931686 37 72 C35.63675809 81.88037718 29.53245716 89.63850874 21.87109375 95.78125 C15.34593085 100.03146049 8.59479475 100.42809908 1 100 C1 101.65 1 103.3 1 105 C-1.31 105 -3.62 105 -6 105 C-6.81567174 103.56429734 -7.62742093 102.12636566 -8.4375 100.6875 C-9.11619141 99.48673828 -9.11619141 99.48673828 -9.80859375 98.26171875 C-11 96 -11 96 -12 93 C-12.66 93 -13.32 93 -14 93 C-14 92.01 -14 91.02 -14 90 C-14.99 90 -15.98 90 -17 90 C-16.98839844 90.69867188 -16.97679687 91.39734375 -16.96484375 92.1171875 C-16.95582031 93.02726562 -16.94679688 93.93734375 -16.9375 94.875 C-16.92589844 95.77992188 -16.91429687 96.68484375 -16.90234375 97.6171875 C-17 100 -17 100 -18 102 C-22.66941958 103.55647319 -27.35860536 103.26704094 -32.25 103.3125 C-33.78720703 103.35600586 -33.78720703 103.35600586 -35.35546875 103.40039062 C-43.24678124 103.46640547 -47.48801148 102.15178457 -53.4375 96.8125 C-54.283125 95.884375 -55.12875 94.95625 -56 94 C-56.63035156 93.3503125 -57.26070312 92.700625 -57.91015625 92.03125 C-67.6909129 81.64719434 -71.3727865 71.03336932 -71.203125 56.82421875 C-70.93443424 51.76559856 -70.14752711 46.92821909 -69 42 C-69.99 41.34 -70.98 40.68 -72 40 C-71.67 38.68 -71.34 37.36 -71 36 C-65.06 35.67 -59.12 35.34 -53 35 C-53 34.01 -53 33.02 -53 32 C-54.65 31.67 -56.3 31.34 -58 31 C-59.0257259 26.58937864 -59.03684712 24.07369424 -57 20 C-56.34 20 -55.68 20 -55 20 C-54.9071875 19.01 -54.9071875 19.01 -54.8125 18 C-52.71458981 10.25387006 -47.4625498 4.5468654 -41 0 C-28.19858753 -6.94813506 -12.64341135 -7.76819765 0 0 Z " fill="#F6BE67" transform="translate(292,214)"/>
<path d="M0 0 C0.33 0 0.66 0 1 0 C1.20625 1.27875 1.4125 2.5575 1.625 3.875 C3.81759631 13.37625068 8.72685611 19.72052505 16.7578125 25.12890625 C24.13375234 29.38562334 32.03010983 32.49301418 39.97265625 35.5234375 C55.52494505 41.47612898 66.3697258 48.32028531 73.6484375 63.63671875 C77.69305261 73.70149797 80.12976533 84.39588167 80.1875 95.25 C80.20167969 96.47203125 80.21585937 97.6940625 80.23046875 98.953125 C80 102 80 102 78 104 C77.28714844 103.07058594 76.57429688 102.14117187 75.83984375 101.18359375 C68.18719752 91.27347048 60.41973661 83.12259408 50.60693359 75.28613281 C48.9054038 73.92428855 47.21215188 72.55258573 45.51953125 71.1796875 C34.28160869 62.09230556 22.78406142 53.36729103 11 45 C22.64651721 56.9353809 22.64651721 56.9353809 35.28125 67.7890625 C39.13541429 70.92333978 42.74019352 74.30366407 46.36694336 77.69580078 C49.27288964 80.41231403 52.20750769 83.06035439 55.25 85.625 C65.24472342 94.31239673 72.30146469 104.42081142 78.25 116.125 C78.59168213 116.79418457 78.93336426 117.46336914 79.28540039 118.15283203 C84.39014767 128.46404012 84.39014767 128.46404012 83.625 133.4375 C83.41875 133.953125 83.2125 134.46875 83 135 C82.54173828 134.14728516 82.54173828 134.14728516 82.07421875 133.27734375 C75.175073 121.63624994 63.60039277 117.2842921 51 114 C48.41016419 113.40732407 45.81467849 112.8451547 43.21801758 112.28320312 C24.15919877 108.10611538 8.89725307 99.65702499 -2 83.0625 C-12.57829512 65.95007513 -13.87268015 45.96483756 -9.47021484 26.67919922 C-8.19761127 21.71338294 -6.66060232 16.84825319 -5 12 C-4.61070313 10.8553125 -4.22140625 9.710625 -3.8203125 8.53125 C-1.24900398 1.24900398 -1.24900398 1.24900398 0 0 Z " fill="#036638" transform="translate(86,21)"/>
<path d="M0 0 C78.87 0 157.74 0 239 0 C240.125 7.875 240.125 7.875 240.09765625 11.18359375 C240.09443359 11.88291016 240.09121094 12.58222656 240.08789062 13.30273438 C240.07951172 14.00720703 240.07113281 14.71167969 240.0625 15.4375 C240.05798828 16.16904297 240.05347656 16.90058594 240.04882812 17.65429688 C240.03718148 19.43623419 240.01925191 21.21812863 240 23 C219.03592395 23.02374519 198.07185023 23.04117726 177.10776329 23.05181217 C167.36578282 23.05688938 157.62381094 23.06378742 147.88183594 23.07543945 C101.57695632 23.12974977 55.29578675 22.98807509 9 22 C8.72847107 21.31401733 8.45694214 20.62803467 8.17718506 19.92126465 C7.81932922 19.02105591 7.46147339 18.12084717 7.09277344 17.19335938 C6.56173004 15.85501038 6.56173004 15.85501038 6.0199585 14.48962402 C4.89662617 11.74767406 3.62913875 9.12206627 2.25 6.5 C0 2.21686747 0 2.21686747 0 0 Z " fill="#F8BE66" transform="translate(161,131)"/>
<path d="M0 0 C12.4737215 2.52128413 25.32777322 6.94909748 32.9375 17.75 C34 20 34 20 34 22 C28.72 22 23.44 22 18 22 C18.12004395 23.13348877 18.24008789 24.26697754 18.36376953 25.43481445 C21.14324473 51.77854108 23.71746684 78.13894845 26.10951996 104.52041245 C26.3114689 106.7386741 26.51566696 108.95671794 26.72052002 111.17471313 C27.04722999 114.71559627 27.36775027 118.25698992 27.68374062 121.79884529 C27.85644894 123.72084121 28.03458124 125.64234738 28.2129364 127.56382751 C28.90210647 135.39717738 29.13402173 143.13759629 29 151 C29.99 150.67 30.98 150.34 32 150 C33.00132291 147.77655191 33.00132291 147.77655191 33.75 145.0625 C36.50144362 136.92457637 41.54402708 130.5471675 47 124 C48.859375 124.18359375 48.859375 124.18359375 51 125 C57.14001159 135.1765007 56.98681533 153.03248215 54.48510742 164.32397461 C54.32502197 164.87706299 54.16493652 165.43015137 54 166 C55.03447266 165.20335937 55.03447266 165.20335937 56.08984375 164.390625 C69.91240876 154 69.91240876 154 76 154 C75.21461579 159.86488212 72.15270523 162.99107479 68 167 C66.89976209 167.7660193 65.77679596 168.50144236 64.625 169.1875 C61.76113782 170.74005656 61.76113782 170.74005656 61.3359375 173.61328125 C61.22507812 174.40089844 61.11421875 175.18851563 61 176 C53.25374558 178.26899823 45.95446761 180.15494648 37.84179688 180.22851562 C29.6095598 180.1168357 29.6095598 180.1168357 22.625 183.9375 C20.81341668 186.18610364 20.81341668 186.18610364 19 189 C18.05078901 190.33686849 17.100136 191.67271369 16.1484375 193.0078125 C-5.95155328 224.61384568 -18.1396848 261.98340047 -12 300.75 C-8.9066615 314.09637599 -2.73201012 326.47907908 6 337 C6.56332031 337.72445313 7.12664062 338.44890625 7.70703125 339.1953125 C12.08593406 344.58946444 17.09632518 348.38082626 23 352 C23.96035156 352.61101562 24.92070312 353.22203125 25.91015625 353.8515625 C49.90586454 367.55506541 83.0611408 364.96213295 109 359 C118.86931729 356.1922627 127.3088473 351.73083504 132.75 342.875 C138.60727471 331.21825264 138.63428158 318.7623119 139 306 C139.33 306 139.66 306 140 306 C140 309.3 140 312.6 140 316 C151.88 316.33 163.76 316.66 176 317 C176 317.33 176 317.66 176 318 C164.78 318 153.56 318 142 318 C141.67 321.63 141.34 325.26 141 329 C138.84665136 339.56993176 134.68461131 349.00072149 125.6875 355.375 C101.96761195 369.57493298 66.20853328 369.57474251 39.91015625 363.2578125 C19.22518484 357.11483807 4.49550038 344.33832754 -5.97265625 325.515625 C-13.72898561 310.69461348 -17.40220195 295.55696347 -17.3125 278.875 C-17.30758545 277.781875 -17.3026709 276.68875 -17.29760742 275.5625 C-17.1666577 266.4295964 -16.19594216 257.85573101 -14 249 C-13.83902832 248.32630371 -13.67805664 247.65260742 -13.51220703 246.95849609 C-7.44369181 222.22390427 5.59143727 196.83028327 24 179 C23.39414063 178.85304688 22.78828125 178.70609375 22.1640625 178.5546875 C12.41240939 175.94424498 3.6793435 171.63110756 -2 163 C-3.29038465 160.65643376 -4.14628173 158.56115481 -5 156 C-4 154 -4 154 -1.125 152.8125 C8.59153703 150.35862914 17.28675035 153.8790739 26 158 C26.15220469 150.48455425 25.68473251 143.11777506 24.99023438 135.63720703 C24.8829451 134.44248276 24.77565582 133.24775848 24.66511536 132.01683044 C24.37283222 128.77109192 24.07664905 125.52573821 23.77877998 122.28050852 C23.46705063 118.87277045 23.16071959 115.46454734 22.85388184 112.05636597 C22.27293917 105.61190353 21.68777132 99.16783294 21.10079145 92.72391784 C20.04843761 81.16998543 19.00251034 69.61547106 17.95936251 58.06070411 C17.6533264 54.67246579 17.34630259 51.28432208 17.03715515 47.89636612 C16.69322947 44.12651722 16.35133277 40.35648899 16.00976562 36.58642578 C15.9069075 35.4663765 15.80404938 34.34632721 15.69807434 33.19233704 C15.60551865 32.16634903 15.51296295 31.14036102 15.41760254 30.08328247 C15.33648476 29.19291353 15.25536697 28.30254459 15.17179108 27.38519478 C15.01883623 25.26152741 15 23.12916845 15 21 C10.05 21 5.1 21 0 21 C-0.93825328 16.30873358 -0.92759102 12.38332585 -0.5625 7.6875 C-0.51029297 6.94693359 -0.45808594 6.20636719 -0.40429688 5.44335938 C-0.27549848 3.62847291 -0.13856738 1.81416675 0 0 Z " fill="#5A834E" transform="translate(135,134)"/>
<path d="M0 0 C24.07431033 -0.02360508 48.14861887 -0.04111216 72.22293854 -0.05181217 C83.40693046 -0.05691757 94.5909151 -0.063847 105.77490234 -0.07543945 C115.54942089 -0.08556593 125.32393416 -0.09189496 135.09845781 -0.09408849 C140.24982389 -0.09536594 145.40117489 -0.09825427 150.55253601 -0.10573006 C180.04737015 -0.14688906 209.51407772 0.27469522 239 1 C238.68849701 4.00010649 238.3758246 7.00008366 238.0625 10 C237.93198242 11.25876953 237.93198242 11.25876953 237.79882812 12.54296875 C237.25871362 17.70406292 236.66124678 22.85299802 236 28 C231.11561701 29.40948272 226.64687934 28.72737901 221.6875 28.14453125 C220.77418411 28.04298233 219.86086823 27.94143341 218.9198761 27.83680725 C215.94560681 27.50344779 212.9728348 27.15840065 210 26.8125 C207.94428384 26.57868123 205.88853821 26.3451214 203.83276367 26.11181641 C191.63689333 24.71552348 179.4593323 23.22393431 167.31445312 21.43286133 C160.18617229 20.39052927 153.04836045 19.53102189 145.890625 18.71875 C134.06267436 17.37468706 122.24739518 15.93905883 110.43359375 14.4765625 C109.51060297 14.36233822 108.58761219 14.24811394 107.63665199 14.13042831 C101.87346361 13.416908 96.11046768 12.70184278 90.34753418 11.98626709 C82.6982956 11.03665001 75.0488474 10.08872221 67.3993721 9.1410141 C65.51227915 8.90721713 63.6251916 8.6733765 61.73810959 8.43949127 C41.49555615 5.93107425 21.2484313 3.46046655 1 1 C1 3.31 1 5.62 1 8 C0.67 8 0.34 8 0 8 C0 5.36 0 2.72 0 0 Z " fill="#F0A03E" transform="translate(153,156)"/>
<path d="M0 0 C4.41175386 3.14337462 7.09456995 6.59100255 10 11.0625 C10.43570313 11.72644775 10.87140625 12.39039551 11.3203125 13.07446289 C20.48515328 27.31392266 24.45159438 41.89232775 21.3125 58.67578125 C19.34483381 65.65279762 16.43019478 71.29074636 12 77 C11.2575 78.03125 10.515 79.0625 9.75 80.125 C4.46672548 85.64842336 -2.09287044 89.44502173 -8.5625 93.4375 C-18.10224312 99.49104804 -24.37518742 105.12556226 -28 116 C-27.34 116.33 -26.68 116.66 -26 117 C-27.32 116.67 -28.64 116.34 -30 116 C-31.59663061 92.58275108 -19.66334038 72.06206809 -7.37915039 53.01489258 C-4.43874417 48.44778283 -1.96125716 44.0705673 0 39 C-10.94885072 53.79259619 -21.84898096 68.9621554 -29 86 C-29.60413604 87.39584659 -30.20829817 88.79168189 -30.8125 90.1875 C-31.204375 91.115625 -31.59625 92.04375 -32 93 C-38.25216794 85.97725674 -38.5458572 73.00376373 -38.28125 63.99609375 C-37.11323978 51.55354045 -30.94891216 43.26557075 -21.72265625 35.25 C-19.87642701 33.72427828 -18.00820027 32.22486208 -16.12109375 30.75 C-8.14898504 24.50246991 -1.87636458 18.3200052 0 8 C0.13317512 5.30796003 0.09469453 2.69879422 0 0 Z M2 34 C3 36 3 36 3 36 Z " fill="#87BB43" transform="translate(204,12)"/>
<path d="M0 0 C5.19482993 2.38266806 8.59070477 9.66005716 10.859375 14.72265625 C14.40692158 24.77403823 14.7796675 38.67745698 11.08984375 48.7421875 C6.96415622 56.83320014 0.29344686 64.51229241 -8.328125 67.78515625 C-13.21297665 69.22534527 -17.96529631 69.19483031 -23.015625 68.91015625 C-23.015625 70.56015625 -23.015625 72.21015625 -23.015625 73.91015625 C-26.5629582 73.35482599 -27.87337938 72.30895102 -29.99609375 69.453125 C-30.52009766 68.75251953 -31.04410156 68.05191406 -31.58398438 67.33007812 C-32.11830078 66.59337891 -32.65261719 65.85667969 -33.203125 65.09765625 C-33.74904297 64.37255859 -34.29496094 63.64746094 -34.85742188 62.90039062 C-39.64004784 56.42280675 -39.64004784 56.42280675 -40.015625 52.91015625 C-39.25878906 50.95898438 -39.25878906 50.95898438 -38.03125 48.94140625 C-37.59039062 48.20535156 -37.14953125 47.46929687 -36.6953125 46.7109375 C-36.22351563 45.95167969 -35.75171875 45.19242187 -35.265625 44.41015625 C-34.80929687 43.65089844 -34.35296875 42.89164062 -33.8828125 42.109375 C-31.74613745 38.58324363 -29.59123559 35.13825486 -27.015625 31.91015625 C-26.025625 32.24015625 -25.035625 32.57015625 -24.015625 32.91015625 C-24.015625 35.55015625 -24.015625 38.19015625 -24.015625 40.91015625 C-19.395625 40.58015625 -14.775625 40.25015625 -10.015625 39.91015625 C-11.91970898 31.15136994 -15.66137873 25.25338996 -22.015625 18.91015625 C-24.16012553 17.607734 -24.16012553 17.607734 -26.015625 16.91015625 C-26.015625 15.59015625 -26.015625 14.27015625 -26.015625 12.91015625 C-25.03722656 12.39066406 -24.05882812 11.87117188 -23.05078125 11.3359375 C-22.41954346 11.00005615 -21.78830566 10.6641748 -21.13793945 10.31811523 C-19.76090671 9.58577603 -18.38313434 8.85482592 -17.00463867 8.12524414 C-12.53771399 5.75276743 -8.15282007 3.28282303 -3.84765625 0.625 C-2.015625 -0.08984375 -2.015625 -0.08984375 0 0 Z " fill="#58823B" transform="translate(316.015625,245.08984375)"/>
<path d="M0 0 C4.27070558 -0.08692074 8.54118458 -0.14036515 12.8125 -0.1875 C14.63491211 -0.22520508 14.63491211 -0.22520508 16.49414062 -0.26367188 C18.23920898 -0.27817383 18.23920898 -0.27817383 20.01953125 -0.29296875 C21.09307861 -0.3086792 22.16662598 -0.32438965 23.27270508 -0.34057617 C26 0 26 0 27.75756836 1.26269531 C30.08926776 4.52313409 31.32055488 8.21682495 32.75 11.9375 C33.24306641 13.15469727 33.24306641 13.15469727 33.74609375 14.39648438 C34.05160156 15.18216797 34.35710937 15.96785156 34.671875 16.77734375 C34.9512793 17.49140381 35.23068359 18.20546387 35.51855469 18.94116211 C36.07326644 21.31331433 35.76745067 22.71468104 35 25 C33.02 24.67 31.04 24.34 29 24 C26.32917961 27.52174919 26.32917961 27.52174919 26 35 C35.24 35 44.48 35 54 35 C54.04125 39.228125 54.0825 43.45625 54.125 47.8125 C54.14320801 49.1425708 54.16141602 50.4726416 54.18017578 51.84301758 C54.1851709 52.89126709 54.19016602 53.9395166 54.1953125 55.01953125 C54.21102295 56.62985229 54.21102295 56.62985229 54.22705078 58.27270508 C54 61 54 61 52 64 C43.56414333 67.22876815 33.2020793 65.08507255 25.125 61.84765625 C14.03302462 56.84240236 7.44796708 49.27507934 3 38 C-0.58922424 27.23232727 0.45761477 15.91863656 3 5 C2.01 4.34 1.02 3.68 0 3 C0 2.01 0 1.02 0 0 Z " fill="#58823C" transform="translate(220,251)"/>
<path d="M0 0 C5.93777683 5.22201765 10.41625788 10.95195732 11.34375 18.97265625 C11.75883702 27.84514122 10.0708615 34.31850927 4.203125 41.06640625 C-1.84102743 46.85670428 -8.16257787 49.04546202 -16.4375 49.5 C-23.90949087 49.25930562 -30.19617655 46.26149557 -35.375 40.875 C-40.39626115 34.32738958 -43.03764487 26.17145335 -42 18 C-39.3798155 9.01851196 -35.32702774 2.66313554 -27 -2 C-17.86936066 -5.51178436 -8.41441012 -5.13375104 0 0 Z " fill="#8BC243" transform="translate(368,419)"/>
<path d="M0 0 C4.60129048 3.55045522 8.76544451 7.14816676 12 12 C15.08365871 12.2502157 15.08365871 12.2502157 18 12 C16.33333333 31.66666667 16.33333333 31.66666667 13 35 C10.14408442 35.40713885 7.30448614 35.75605255 4.4375 36.0625 C3.65052734 36.15337891 2.86355469 36.24425781 2.05273438 36.33789062 C-2.99681968 36.89155154 -7.92077579 37.08727189 -13 37 C-12.56720308 34.40321849 -12.17333302 32.30814759 -10.875 30 C-9.65347073 27.20793309 -10.04075168 25.87774496 -11 23 C-13.26075359 19.02419196 -14.84068321 16.8398655 -19 15 C-25.67313509 23.69238346 -29.61096155 32.63352944 -33 43 C-41.8719808 39.7389476 -49.60427019 33.78519839 -57 28 C-56.63419398 18.48904346 -52.63965486 10.02601577 -45.6875 3.5 C-32.84536798 -6.93423226 -14.22312795 -8.73878624 0 0 Z " fill="#57823C" transform="translate(292,214)"/>
<path d="M0 0 C30.93974072 -0.02278986 61.87947923 -0.04049791 92.81922635 -0.05106533 C96.46810729 -0.05231611 100.11698822 -0.05361042 103.76586914 -0.05493164 C104.49232622 -0.05519395 105.2187833 -0.05545626 105.96725423 -0.05572652 C117.74535918 -0.06008332 129.52345928 -0.06797093 141.30156135 -0.0771528 C153.3780084 -0.08648905 165.45445289 -0.09205555 177.5309034 -0.09408849 C184.98870014 -0.09546378 192.44648315 -0.09981467 199.90427566 -0.10791647 C205.61329978 -0.11380429 211.32231501 -0.11445903 217.03134155 -0.11310768 C219.38041837 -0.1133842 221.72949568 -0.11539183 224.07856941 -0.11920547 C227.27057449 -0.12413609 230.46251946 -0.12300064 233.65452576 -0.12025452 C234.59711335 -0.12316736 235.53970095 -0.1260802 236.5108518 -0.12908131 C242.88587879 -0.11412121 242.88587879 -0.11412121 244 1 C245.05560761 7.47699976 245.10080075 14.07726922 245.125 20.625 C245.12959229 21.33599854 245.13418457 22.04699707 245.13891602 22.77954102 C245.12343483 27.87656517 245.12343483 27.87656517 244 29 C241.34536879 29.45459858 238.67810862 29.70243238 236 30 C233.65171742 50.32774742 231.30646744 70.65584378 228.96311808 90.98416042 C228.68868379 93.36473128 228.41420699 95.74529723 228.13972092 98.12586212 C224.22973661 132.03796857 220.32328017 165.95034285 216.5234375 199.875 C216.39335863 201.03613941 216.26327976 202.19727882 216.12925911 203.39360428 C214.92179117 214.17701912 213.71865233 224.96090756 212.52266312 235.74560165 C212.0956904 239.59320695 211.66720829 243.44064331 211.23849869 247.28805542 C210.95124327 249.87243577 210.66644759 252.4570788 210.38180542 255.04174805 C210.21112451 256.57520934 210.04032546 258.10865749 209.86938477 259.64208984 C209.72445084 260.95269379 209.57951691 262.26329773 209.43019104 263.61361694 C209.06975492 266.45090236 208.61000097 269.20757525 208 272 C207.01 271.67 206.02 271.34 205 271 C206.99977566 250.50573679 209.01216891 230.0226158 211.55517578 209.58740234 C212.51175923 201.87278258 213.44761425 194.15568027 214.375 186.4375 C214.48191162 185.54830872 214.58882324 184.65911743 214.69897461 183.74298096 C216.42398313 169.34264334 217.96724413 154.92834839 219.4375 140.5 C221.67750974 118.52851745 224.26376232 96.60701452 226.94589233 74.68559265 C227.73039657 68.26027004 228.49222445 61.83269097 229.234375 55.40234375 C229.3280687 54.59277222 229.42176239 53.78320068 229.51829529 52.94909668 C229.86733077 49.93044922 230.21617618 46.91179779 230.55862427 43.89239502 C230.7824938 41.91884259 231.01027049 39.94573451 231.23828125 37.97265625 C231.36243408 36.88218994 231.48658691 35.79172363 231.61450195 34.66821289 C232 32 232 32 233 29 C232.01725098 29.00261841 231.03450195 29.00523682 230.02197266 29.00793457 C188.02922289 29.10702584 146.03795746 28.80916355 104.04623413 28.55461788 C93.87370974 28.49301223 83.70117568 28.43307718 73.52864075 28.37324238 C52.68574972 28.25060919 31.84287091 28.1260037 11 28 C11 27.01 11 26.02 11 25 C58.24673118 24.90963162 105.48957435 25.14509097 152.73522782 25.44538212 C162.50417629 25.50739374 172.27313833 25.56713503 182.04210162 25.62675762 C202.02808292 25.74878461 222.01404646 25.87351499 242 26 C241.67 18.41 241.34 10.82 241 3 C161.8 3.33 82.6 3.66 1 4 C0.67 2.68 0.34 1.36 0 0 Z " fill="#5F7C43" transform="translate(159,128)"/>
<path d="M0 0 C1.859375 0.18359375 1.859375 0.18359375 4 1 C10.14001159 11.1765007 9.98681533 29.03248215 7.48510742 40.32397461 C7.32502197 40.87706299 7.16493652 41.43015137 7 42 C7.68964844 41.46890625 8.37929687 40.9378125 9.08984375 40.390625 C22.91240876 30 22.91240876 30 29 30 C28.05326729 36.74400955 24.00740488 40.68740935 18.734375 44.7421875 C7.8193335 51.81935957 -3.2832868 52.51462737 -16 52 C-17.58361328 51.98839844 -17.58361328 51.98839844 -19.19921875 51.9765625 C-28.02283891 51.67667476 -35.59048882 48.8791576 -42.2734375 43 C-45.55631859 39.46252813 -47.44631883 36.90049158 -48 32 C-46.37863118 30.37863118 -44.68616263 30.67308997 -42.4375 30.5625 C-37.04331161 30.59784855 -32.61645128 31.87784739 -27.625 33.75 C-26.60877563 34.12813843 -26.60877563 34.12813843 -25.57202148 34.51391602 C-21.48288305 36.13872917 -18.28584387 38.08206915 -15 41 C-15.33 40.01 -15.66 39.02 -16 38 C-17.09616531 24.18831709 -10.64320315 12.72147797 -2.0625 2.3125 C-1.381875 1.549375 -0.70125 0.78625 0 0 Z " fill="#90CCB7" transform="translate(182,258)"/>
<path d="M0 0 C2.97 0.495 2.97 0.495 6 1 C5.71468734 4.46624531 5.24222529 5.76274344 2.71484375 8.23828125 C1.34005859 9.26501953 1.34005859 9.26501953 -0.0625 10.3125 C-0.98160156 11.00988281 -1.90070313 11.70726562 -2.84765625 12.42578125 C-3.55792969 12.94527344 -4.26820313 13.46476562 -5 14 C-2.53035973 15.98012228 -0.0579396 17.95478111 2.4375 19.90234375 C18.59645625 32.73590504 30.29656587 47.31109993 40.80419922 65 C42.19886967 67.33261337 43.61773702 69.64989229 45.03515625 71.96875 C58.88830319 94.79474823 74.84365822 122.51915835 74.125 150.1875 C74.10695313 151.10917969 74.08890625 152.03085937 74.0703125 152.98046875 C74.04710937 153.64691406 74.02390625 154.31335938 74 155 C71.36 155 68.72 155 66 155 C65.91548584 154.20118408 65.83097168 153.40236816 65.74389648 152.5793457 C63.8947224 135.69700394 61.54220521 119.80496039 55 104 C54.60393555 103.03368652 54.20787109 102.06737305 53.79980469 101.07177734 C47.9344575 87.00975331 41.01065738 74.27856361 32 62 C31.56300781 61.39623535 31.12601563 60.7924707 30.67578125 60.17041016 C25.43461906 52.96784381 19.70744528 46.29253858 13.6171875 39.8046875 C10.55014456 36.51791611 7.59593862 33.1427595 4.65625 29.7421875 C2.91930987 27.7867097 2.91930987 27.7867097 0 26 C0 25.34 0 24.68 0 24 C-0.82757813 23.63261719 -0.82757813 23.63261719 -1.671875 23.2578125 C-4.47639491 21.74261886 -6.78103123 19.88915874 -9.25 17.875 C-10.14203125 17.15054687 -11.0340625 16.42609375 -11.953125 15.6796875 C-12.62859375 15.12539063 -13.3040625 14.57109375 -14 14 C-10.97356197 10.91343406 -7.81671991 8.11831667 -4.48828125 5.3671875 C-2.87617982 4.04914224 -2.87617982 4.04914224 -2 2 C-1.34 2 -0.68 2 0 2 C0 1.34 0 0.68 0 0 Z " fill="#ECA241" transform="translate(211,294)"/>
<path d="M0 0 C12.4737215 2.52128413 25.32777322 6.94909748 32.9375 17.75 C34 20 34 20 34 22 C28.72 22 23.44 22 18 22 C18.18006592 23.70023315 18.18006592 23.70023315 18.36376953 25.43481445 C21.14942114 51.83656094 23.72284549 78.25478224 26.10951996 104.69527817 C26.31187993 106.93065043 26.51596667 109.16585896 26.72052002 111.40103149 C27.04603712 114.9614564 27.3667231 118.52228554 27.68374062 122.08347702 C27.85737189 124.02380665 28.03508243 125.96376991 28.2129364 127.90371704 C29.86634062 146.70048907 29.86634062 146.70048907 27 151 C26.06026188 148.18078564 25.72454536 145.93841167 25.46214294 142.99659729 C25.36821259 141.96331299 25.27428223 140.93002869 25.17750549 139.86543274 C25.07824265 138.73236191 24.9789798 137.59929108 24.87670898 136.43188477 C24.76927368 135.23818268 24.66183838 134.04448059 24.55114746 132.81460571 C24.25721192 129.54005748 23.96652749 126.26524053 23.67738605 122.99026608 C23.37415089 119.56327918 23.06708323 116.13663557 22.76051331 112.70994568 C22.24615424 106.95422804 21.73460216 101.19826636 21.22485352 95.44213867 C20.63559788 88.78844515 20.04258588 82.13509508 19.44740242 75.48192936 C18.81379896 68.39889321 18.18290052 61.31561802 17.55281568 54.2322681 C17.37110981 52.19158658 17.18890409 50.1509502 17.00658989 48.11032295 C16.66723483 44.30620822 16.33021934 40.50189362 15.99389648 36.69750977 C15.84196587 35.00093987 15.84196587 35.00093987 15.68696594 33.27009583 C15.59585541 32.2339917 15.50474487 31.19788757 15.41087341 30.13038635 C15.33105445 29.23092568 15.25123549 28.33146502 15.16899776 27.40474796 C15.01927994 25.27434326 15 23.13565906 15 21 C10.05 21 5.1 21 0 21 C-0.93825328 16.30873358 -0.92759102 12.38332585 -0.5625 7.6875 C-0.51029297 6.94693359 -0.45808594 6.20636719 -0.40429688 5.44335938 C-0.27549848 3.62847291 -0.13856738 1.81416675 0 0 Z " fill="#6C813F" transform="translate(135,134)"/>
<path d="M0 0 C2.47265625 0.3984375 2.47265625 0.3984375 4.18359375 1.58203125 C11.08406999 11.30542958 9.61800684 27.19029208 9.47265625 38.3984375 C10.06433594 37.98851562 10.65601563 37.57859375 11.265625 37.15625 C12.05582031 36.61742187 12.84601563 36.07859375 13.66015625 35.5234375 C14.43746094 34.98976563 15.21476562 34.45609375 16.015625 33.90625 C20.61740886 31.08226181 24.06795357 30.14705598 29.47265625 30.3984375 C29.65207788 34.34571338 29.56616314 36.9964888 27.47265625 40.3984375 C26.81265625 40.3984375 26.15265625 40.3984375 25.47265625 40.3984375 C25.21484375 40.99398437 24.95703125 41.58953125 24.69140625 42.203125 C23.37332572 44.57735979 22.07198819 45.82440191 19.97265625 47.5234375 C18.04308685 49.10143281 16.23807331 50.63302044 14.47265625 52.3984375 C14.983125 52.77613281 15.49359375 53.15382813 16.01953125 53.54296875 C24.95624914 60.30888815 33.52273528 67.72461384 40.72265625 76.34375 C41.99230883 77.83445817 43.31213588 79.28288925 44.66015625 80.703125 C52.49353334 88.96332071 59.06913114 98.00366808 65.47265625 107.3984375 C65.89434082 108.0167041 66.31602539 108.6349707 66.75048828 109.27197266 C83.28544585 133.99461378 93.47265625 163.66259756 93.47265625 193.3984375 C104.36265625 193.3984375 115.25265625 193.3984375 126.47265625 193.3984375 C126.47265625 194.0584375 126.47265625 194.7184375 126.47265625 195.3984375 C121.80957426 195.42312396 117.14653017 195.44129099 112.48339844 195.45336914 C110.89647764 195.45840338 109.30956148 195.46523119 107.72265625 195.47387695 C105.44399876 195.48598232 103.16540249 195.49167483 100.88671875 195.49609375 C99.81945053 195.50383568 99.81945053 195.50383568 98.73062134 195.51173401 C93.70039966 195.51230921 93.70039966 195.51230921 91.47265625 194.3984375 C91.06542969 192.4309082 91.06542969 192.4309082 90.83203125 189.82421875 C90.73446533 188.85758301 90.63689941 187.89094727 90.53637695 186.89501953 C90.38108521 185.31889893 90.38108521 185.31889893 90.22265625 183.7109375 C88.16744121 165.5648925 83.48955732 148.92198434 75.49609375 132.50683594 C74.48395702 130.42171838 73.50755218 128.32264322 72.53515625 126.21875 C68.41942983 117.47504384 63.53534416 109.71387643 57.69873047 102.02148438 C56.53325098 100.47865131 55.39472342 98.91556694 54.2578125 97.3515625 C45.19046116 84.95568978 35.11934132 71.89708213 22.8046875 62.58203125 C22.16257324 62.09500732 21.52045898 61.6079834 20.85888672 61.10620117 C19.58223408 60.15119079 18.29370728 59.21180576 16.99267578 58.2902832 C12.64462954 55.0702396 12.64462954 55.0702396 11.8046875 51.7890625 C12.69765866 48.59316572 14.0061146 47.75620147 16.72265625 45.8984375 C22.08740305 42.00752224 25.09110609 38.60490155 27.47265625 32.3984375 C25.25893485 33.45071329 23.05219445 34.51471823 20.84765625 35.5859375 C20.23019531 35.87791016 19.61273438 36.16988281 18.9765625 36.47070312 C15.69881206 38.07507571 12.90829832 39.74844274 10.13671875 42.13671875 C7.47265625 44.3984375 7.47265625 44.3984375 5.47265625 44.3984375 C5.50407715 43.22825073 5.50407715 43.22825073 5.53613281 42.03442383 C5.62037362 38.42673145 5.67165541 34.81924703 5.72265625 31.2109375 C5.75617188 29.98439453 5.7896875 28.75785156 5.82421875 27.49414062 C5.91614609 18.78402483 4.51459187 11.55627781 1.47265625 3.3984375 C0.48265625 3.3984375 -0.50734375 3.3984375 -1.52734375 3.3984375 C-7.20218289 9.57491988 -11.622236 16.53378117 -14.52734375 24.3984375 C-14.93984375 25.4090625 -15.35234375 26.4196875 -15.77734375 27.4609375 C-16.02484375 28.1003125 -16.27234375 28.7396875 -16.52734375 29.3984375 C-17.18734375 29.3984375 -17.84734375 29.3984375 -18.52734375 29.3984375 C-16.59614919 20.48783804 -10.66262099 1.68096961 0 0 Z " fill="#6D833E" transform="translate(183.52734375,255.6015625)"/>
<path d="M0 0 C0.33 0 0.66 0 1 0 C1.08636719 1.16015625 1.17273438 2.3203125 1.26171875 3.515625 C2.63239949 19.53094736 6.87043226 31.90621558 19 43 C20.36125 44.0209375 20.36125 44.0209375 21.75 45.0625 C24 47 24 47 25.5 50.0625 C27.284155 53.5564702 28.52635246 54.2802278 32 56 C35.04875217 56.64099914 38.06864369 57.00074375 41.16015625 57.375 C44.22291532 58.04905977 45.58740514 59.07393674 48 61 C55.46888435 63.5432209 64.34561557 61.80120659 72 61 C72 61.99 72 62.98 72 64 C66.76633266 64.8544763 61.61627267 65.14620797 56.3125 65.25 C55.05050781 65.27578125 53.78851563 65.3015625 52.48828125 65.328125 C48.63930668 64.9660714 47.24774879 63.98239212 44 62 C40.50228235 60.91425864 36.94628027 60.11774099 33.375 59.3125 C32.42109375 59.08755859 31.4671875 58.86261719 30.484375 58.63085938 C25.29488176 57.4012324 25.29488176 57.4012324 20 57 C20 56.34 20 55.68 20 55 C19.34 55 18.68 55 18 55 C18 54.01 18 53.02 18 52 C17.54625 52.495 17.0925 52.99 16.625 53.5 C15 55 15 55 13 55 C12.67 55.99 12.34 56.98 12 58 C2.83944998 48.63296217 -5.01366564 38.70644076 -9 26 C-8.01 26 -7.02 26 -6 26 C-6 26.66 -6 27.32 -6 28 C-3.95914242 27.34524737 -3.95914242 27.34524737 -2 26 C-1.28776584 23.83263245 -1.28776584 23.83263245 -1.25 21.25 C-1.19328125 20.27804687 -1.1365625 19.30609375 -1.078125 18.3046875 C-0.96357214 13.45910144 -0.97840399 8.61947023 -1.0625 3.7734375 C-1 1 -1 1 0 0 Z " fill="#90CBB3" transform="translate(136,422)"/>
<path d="M0 0 C78.87 0 157.74 0 239 0 C240.125 7.875 240.125 7.875 240.09765625 11.18359375 C240.09443359 11.88291016 240.09121094 12.58222656 240.08789062 13.30273438 C240.07951172 14.00720703 240.07113281 14.71167969 240.0625 15.4375 C240.05798828 16.16904297 240.05347656 16.90058594 240.04882812 17.65429688 C240.03718148 19.43623419 240.01925191 21.21812863 240 23 C219.03592395 23.02374519 198.07185023 23.04117726 177.10776329 23.05181217 C167.36578282 23.05688938 157.62381094 23.06378742 147.88183594 23.07543945 C101.57695632 23.12974977 55.29578675 22.98807509 9 22 C8.72847107 21.31401733 8.45694214 20.62803467 8.17718506 19.92126465 C7.81932922 19.02105591 7.46147339 18.12084717 7.09277344 17.19335938 C6.56173004 15.85501038 6.56173004 15.85501038 6.0199585 14.48962402 C4.89662617 11.74767406 3.62913875 9.12206627 2.25 6.5 C0 2.21686747 0 2.21686747 0 0 Z M3 1 C3.33 2.98 3.66 4.96 4 7 C4.66 7 5.32 7 6 7 C6.0825 7.845625 6.165 8.69125 6.25 9.5625 C7.39277872 15.475175 7.39277872 15.475175 11 20 C16.07984971 21.10353441 21.16953622 20.94973345 26.33984375 20.90234375 C27.91652556 20.91343436 29.49318681 20.92790198 31.06980896 20.94554138 C34.38386031 20.97782831 37.6972083 20.99116718 41.01141357 20.9899292 C45.7512903 20.99204037 50.48811989 21.05880367 55.22705078 21.14892578 C64.13001436 21.31440036 73.03303497 21.43094312 81.93694305 21.53242874 C84.60805777 21.56302179 87.27915667 21.59480218 89.95025635 21.62667847 C139.29827346 22.20682734 188.64952372 22.09361411 238 22 C238 15.07 238 8.14 238 1 C160.45 1 82.9 1 3 1 Z " fill="#DEC775" transform="translate(161,131)"/>
<path d="M0 0 C0.33 0 0.66 0 1 0 C1 6.93 1 13.86 1 21 C-2.69418201 22.231394 -5.2056261 21.64432764 -9 21 C-9 21.66 -9 22.32 -9 23 C-51.9855296 23.11452941 -94.96927815 22.8151815 -137.95376587 22.55461788 C-148.12629026 22.49301223 -158.29882432 22.43307718 -168.47135925 22.37324238 C-189.31425028 22.25060919 -210.15712909 22.1260037 -231 22 C-231 21.01 -231 20.02 -231 19 C-183.75326882 18.90963162 -136.51042565 19.14509097 -89.26477218 19.44538212 C-79.49582371 19.50739374 -69.72686167 19.56713503 -59.95789838 19.62675762 C-39.97191708 19.74878461 -19.98595354 19.87351499 0 20 C0 13.4 0 6.8 0 0 Z " fill="#677B31" transform="translate(401,134)"/>
<path d="M0 0 C13.14582115 -0.03268095 26.29164336 -0.0516357 39.4375 -0.0625 C40.97945604 -0.06378403 40.97945604 -0.06378403 42.55256271 -0.06509399 C86.89076811 -0.09745052 131.22572053 0.17852802 175.5625 0.5 C176.38753824 0.50597372 177.21257648 0.51194743 178.06261587 0.51810217 C199.37512508 0.67253961 220.68758515 0.83304107 242 1 C242 1.66 242 2.32 242 3 C162.47 3.33 82.94 3.66 1 4 C0.67 2.68 0.34 1.36 0 0 Z " fill="#687934" transform="translate(159,128)"/>
<path d="M0 0 C12.13772923 2.25968363 22.63545903 6.77147088 30 17 C30 17.33 30 17.66 30 18 C19.77 18 9.54 18 -1 18 C-1 11.61666704 -0.91622754 6.18453592 0 0 Z " fill="#F5BF68" transform="translate(138,135)"/>
<path d="M0 0 C0.66 0 1.32 0 2 0 C2.64690922 1.6037331 3.29248764 3.20800306 3.9375 4.8125 C4.29714844 5.70582031 4.65679687 6.59914062 5.02734375 7.51953125 C5.73613486 9.3270909 6.3860247 11.15807409 7 13 C8.3006274 12.99656334 8.3006274 12.99656334 9.6275301 12.99305725 C31.90342284 12.94269005 54.17031319 13.09435255 76.44393897 13.40385818 C80.63845058 13.46162474 84.83299828 13.51665374 89.02754211 13.57202148 C96.90645493 13.6764141 104.78533435 13.78312982 112.66420346 13.89076519 C121.66119148 14.01355597 130.65821523 14.13362751 139.65524232 14.25351524 C158.10353503 14.49940218 176.5517822 14.74855898 195 15 C195 15.33 195 15.66 195 16 C179.38166017 16.02389418 163.76332566 16.04124479 148.14497185 16.05181217 C140.88489018 16.05686011 133.62482027 16.06369554 126.36474609 16.07543945 C85.8987128 16.1395986 45.45862244 15.8007031 5 15 C4.34865075 13.43979133 3.70417036 11.87671421 3.0625 10.3125 C2.70285156 9.44238281 2.34320313 8.57226562 1.97265625 7.67578125 C1.0429688 5.11820735 0.45837375 2.6778677 0 0 Z " fill="#CFB865" transform="translate(165,138)"/>
<path d="M0 0 C0.33 0 0.66 0 1 0 C1.08636719 1.16015625 1.17273438 2.3203125 1.26171875 3.515625 C2.63239949 19.53094736 6.87043226 31.90621558 19 43 C20.36125 44.0209375 20.36125 44.0209375 21.75 45.0625 C24 47 24 47 25.5 50.0625 C27.284155 53.5564702 28.52635246 54.2802278 32 56 C35.04875217 56.64099914 38.06864369 57.00074375 41.16015625 57.375 C44.22291532 58.04905977 45.58740514 59.07393674 48 61 C55.46888435 63.5432209 64.34561557 61.80120659 72 61 C72 61.99 72 62.98 72 64 C66.76633266 64.8544763 61.61627267 65.14620797 56.3125 65.25 C55.05050781 65.27578125 53.78851563 65.3015625 52.48828125 65.328125 C48.69139699 64.97097127 47.1585474 64.01714086 44 62 C41.53719988 61.31333564 39.05548327 60.69238592 36.5625 60.125 C30.88699193 58.71774752 26.87070187 57.51581884 23 53 C22.5875 52.071875 22.175 51.14375 21.75 50.1875 C19.87227541 46.76735879 18.33298153 45.5575931 15.25 43.25 C5.82356285 36.03911961 0.59173136 26.72480686 -1 15 C-1.08954721 12.56378908 -1.13014858 10.12535066 -1.125 7.6875 C-1.12757813 6.45386719 -1.13015625 5.22023438 -1.1328125 3.94921875 C-1 1 -1 1 0 0 Z " fill="#548B55" transform="translate(136,422)"/>
<path d="M0 0 C2.5625 1.0625 2.5625 1.0625 3.51953125 2.703125 C6.28591626 9.84394147 6.76507404 16.91777515 6.8125 24.5 C6.833125 25.32048828 6.85375 26.14097656 6.875 26.98632812 C6.90985653 32.44573291 6.2167917 36.25624751 3.5625 41.0625 C2.5725 41.7225 1.5825 42.3825 0.5625 43.0625 C0.58570313 42.14210938 0.60890625 41.22171875 0.6328125 40.2734375 C0.79552579 28.86026248 0.93508353 16.4096979 -4.4375 6.0625 C-6.96794606 4.47872598 -6.96794606 4.47872598 -9.4375 4.0625 C-9.4375 3.7325 -9.4375 3.4025 -9.4375 3.0625 C-7.7875 3.0625 -6.1375 3.0625 -4.4375 3.0625 C-4.4375 2.4025 -4.4375 1.7425 -4.4375 1.0625 C-2.4375 0.0625 -2.4375 0.0625 0 0 Z " fill="#ECA241" transform="translate(191.4375,251.9375)"/>
<path d="M0 0 C1.98104874 5.94314621 -0.81993964 11.65240238 -2.8125 17.3125 C-3.63120714 19.76318644 -4.43707061 22.21769827 -5.23779297 24.67431641 C-5.90452168 26.70867186 -6.59304034 28.73585971 -7.28515625 30.76171875 C-11.72397169 45.987333 -10.34954222 62.29883228 -10 78 C-11.485 78.495 -11.485 78.495 -13 79 C-16.2799376 63.6848075 -14.79800033 46.11486594 -11 31 C-10.82307617 30.29439941 -10.64615234 29.58879883 -10.46386719 28.86181641 C-7.86813411 18.82632678 -4.33947709 9.40965652 0 0 Z " fill="#658C5A" transform="translate(132,352)"/>
<path d="M0 0 C4.00443029 0.52380637 6.0189575 1.4994311 8.92578125 4.28125 C9.63653809 4.95438232 10.34729492 5.62751465 11.07958984 6.32104492 C11.8164502 7.0401001 12.55331055 7.75915527 13.3125 8.5 C14.06998535 9.22743408 14.8274707 9.95486816 15.60791016 10.7043457 C29.38132068 24.03350059 29.38132068 24.03350059 33 31 C33 32.32 33 33.64 33 35 C31.68 34.67 30.36 34.34 29 34 C29 33.34 29 32.68 29 32 C28.38125 31.87625 27.7625 31.7525 27.125 31.625 C25 31 25 31 23 29 C21.68118625 26.05206338 20.70018878 23.15084949 20 20 C19.01 20 18.02 20 17 20 C16.9175 19.38125 16.835 18.7625 16.75 18.125 C15.75211777 15.29766701 14.64498821 15.29455409 12 14 C10.54851225 12.87695108 9.1317824 11.70778017 7.75 10.5 C7.04359375 9.8915625 6.3371875 9.283125 5.609375 8.65625 C4 7 4 7 4 5 C2.68 4.34 1.36 3.68 0 3 C0 2.01 0 1.02 0 0 Z " fill="#F0A140" transform="translate(208,312)"/>
<path d="M0 0 C19.01876264 -0.02332777 38.03752239 -0.04097858 57.05629635 -0.05181217 C65.88641271 -0.05697539 74.71652019 -0.06401857 83.54663086 -0.07543945 C91.24012065 -0.08538551 98.93360401 -0.09185324 106.62710005 -0.09408849 C110.70329652 -0.09539574 114.77947461 -0.09848243 118.85566521 -0.10573006 C122.68787755 -0.11248904 126.52006384 -0.11461721 130.35228157 -0.11310768 C131.76285061 -0.11338406 133.17342047 -0.11538991 134.58398438 -0.11920547 C136.50165689 -0.12414075 138.41934321 -0.12239802 140.33702087 -0.12025452 C141.41275329 -0.12117631 142.4884857 -0.1220981 143.59681606 -0.12304783 C146 0 146 0 147 1 C147.14115161 3.67058851 147.04247107 6.32432238 147 9 C146.01 9.33 145.02 9.66 144 10 C143.875 3.25 143.875 3.25 145 1 C97.15 1 49.3 1 0 1 C0 0.67 0 0.34 0 0 Z " fill="#69885D" transform="translate(256,128)"/>
<path d="M0 0 C0.66 0.33 1.32 0.66 2 1 C1.48308594 1.81984375 0.96617187 2.6396875 0.43359375 3.484375 C-0.22511719 4.56203125 -0.88382812 5.6396875 -1.5625 6.75 C-2.22378906 7.81734375 -2.88507813 8.8846875 -3.56640625 9.984375 C-5.21856012 12.75124057 -5.21856012 12.75124057 -4.73022461 14.99291992 C-3.52541672 18.30442966 -1.19430049 20.85314842 1 23.5625 C5.87351779 29.62055336 5.87351779 29.62055336 7 33 C6.01 33.33 5.02 33.66 4 34 C3.18432826 32.56429734 2.37257907 31.12636566 1.5625 29.6875 C1.11003906 28.88699219 0.65757812 28.08648437 0.19140625 27.26171875 C-1 25 -1 25 -2 22 C-2.66 22 -3.32 22 -4 22 C-4 21.01 -4 20.02 -4 19 C-4.99 19 -5.98 19 -7 19 C-6.98839844 19.69867188 -6.97679687 20.39734375 -6.96484375 21.1171875 C-6.95582031 22.02726562 -6.94679688 22.93734375 -6.9375 23.875 C-6.92589844 24.77992188 -6.91429687 25.68484375 -6.90234375 26.6171875 C-7 29 -7 29 -8 31 C-12.66941958 32.55647319 -17.35860536 32.26704094 -22.25 32.3125 C-23.27480469 32.34150391 -24.29960937 32.37050781 -25.35546875 32.40039062 C-33.9003645 32.47187302 -38.33822564 30.32941949 -45 25 C-44.67 24.34 -44.34 23.68 -44 23 C-43.20335937 23.42152344 -42.40671875 23.84304688 -41.5859375 24.27734375 C-39.99652344 25.09912109 -39.99652344 25.09912109 -38.375 25.9375 C-36.80878906 26.75541016 -36.80878906 26.75541016 -35.2109375 27.58984375 C-30.11885331 29.82614836 -25.38628109 30.13909535 -19.875 30.125 C-18.86179687 30.12757813 -17.84859375 30.13015625 -16.8046875 30.1328125 C-14.34038419 30.01611847 -12.31342238 29.84221368 -10 29 C-8.76939579 26.53879159 -8.7942277 24.74223134 -8.68359375 21.9921875 C-8.62075195 20.51298828 -8.62075195 20.51298828 -8.55664062 19.00390625 C-8.51732422 17.97136719 -8.47800781 16.93882812 -8.4375 15.875 C-8.37272461 14.31458984 -8.37272461 14.31458984 -8.30664062 12.72265625 C-8.2003712 10.14857472 -8.09833417 7.57439492 -8 5 C-7.67 5 -7.34 5 -7 5 C-7 6.98 -7 8.96 -7 11 C-6.34 11 -5.68 11 -5 11 C-4.67 9.35 -4.34 7.7 -4 6 C-3.34 6 -2.68 6 -2 6 C-1.34 4.02 -0.68 2.04 0 0 Z " fill="#E3BF6F" transform="translate(282,285)"/>
<path d="M0 0 C0.33 0 0.66 0 1 0 C1.54964744 14.92504202 0.77077999 29.43669742 -0.9375 44.25 C-1.02890259 45.04539185 -1.12030518 45.84078369 -1.21447754 46.66027832 C-1.48015121 48.94606329 -1.75155718 51.23103932 -2.02734375 53.515625 C-2.10969772 54.19802246 -2.1920517 54.88041992 -2.27690125 55.58349609 C-2.71493534 59.09107792 -3.25321632 62.5446207 -4 66 C-4.99 65.67 -5.98 65.34 -7 65 C-4.88316966 43.30612753 -2.76018238 21.62354861 0 0 Z " fill="#5F7C42" transform="translate(371,334)"/>
<path d="M0 0 C0.88365234 0.00451172 1.76730469 0.00902344 2.67773438 0.01367188 C4.84768559 0.02540134 7.01760172 0.04333505 9.1875 0.0625 C9.1875 0.3925 9.1875 0.7225 9.1875 1.0625 C7.36025391 1.11857422 7.36025391 1.11857422 5.49609375 1.17578125 C3.8723671 1.24148117 2.24867051 1.30792709 0.625 1.375 C-0.17486328 1.39755859 -0.97472656 1.42011719 -1.79882812 1.44335938 C-7.1693198 1.68448349 -10.98744673 2.69316438 -15.8125 5.0625 C-17.98107015 5.70721004 -19.56208871 6.0625 -21.8125 6.0625 C-21.8125 6.7225 -21.8125 7.3825 -21.8125 8.0625 C-22.51375 8.43375 -23.215 8.805 -23.9375 9.1875 C-28.4145244 12.10729852 -31.57412456 16.44196771 -33.85546875 21.26953125 C-34.8125 23.0625 -34.8125 23.0625 -36.9375 23.8125 C-37.865625 23.93625 -37.865625 23.93625 -38.8125 24.0625 C-38.956875 25.01125 -39.10125 25.96 -39.25 26.9375 C-39.8125 30.0625 -39.8125 30.0625 -40.8125 32.0625 C-40.96317214 33.5090242 -41.06111036 34.9612934 -41.12890625 36.4140625 C-41.19174805 37.69023437 -41.19174805 37.69023437 -41.25585938 38.9921875 C-41.29517578 39.88164062 -41.33449219 40.77109375 -41.375 41.6875 C-41.41818359 42.5846875 -41.46136719 43.481875 -41.50585938 44.40625 C-41.61206861 46.62484283 -41.71411194 48.8435488 -41.8125 51.0625 C-45.508225 44.06458482 -44.25911781 36.79829714 -42.1875 29.375 C-40.26061183 23.67518394 -37.86645151 19.47387647 -33.8125 15.0625 C-33.22597656 14.38574219 -32.63945312 13.70898438 -32.03515625 13.01171875 C-22.8123348 2.99675313 -13.18498549 -0.12781865 0 0 Z " fill="#6C8036" transform="translate(352.8125,397.9375)"/>
<path d="M0 0 C0.66 0 1.32 0 2 0 C1.97679687 0.73605469 1.95359375 1.47210938 1.9296875 2.23046875 C1.91164062 3.20628906 1.89359375 4.18210937 1.875 5.1875 C1.85179687 6.15042969 1.82859375 7.11335938 1.8046875 8.10546875 C2.0086456 11.12812778 2.73125368 13.26769985 4 16 C4.99 16 5.98 16 7 16 C7 16.99 7 17.98 7 19 C7.33 18.67 7.66 18.34 8 18 C8.99 17.67 9.98 17.34 11 17 C11.33 14.69 11.66 12.38 12 10 C12.99 9.67 13.98 9.34 15 9 C15 8.34 15 7.68 15 7 C15.66 7 16.32 7 17 7 C15.49837398 10.86542966 13.81621305 14.61768096 12.0625 18.375 C9.96692288 22.88894485 7.9215769 27.40956629 6 32 C-0.99928804 24.13805461 -0.44954181 9.87327018 0 0 Z " fill="#85B14E" transform="translate(166,73)"/>
<path d="M0 0 C0.33 0 0.66 0 1 0 C1 6.93 1 13.86 1 21 C-2.69418201 22.231394 -5.2056261 21.64432764 -9 21 C-9 21.66 -9 22.32 -9 23 C-24.84 23 -40.68 23 -57 23 C-57 22.67 -57 22.34 -57 22 C-49.41 21.67 -41.82 21.34 -34 21 C-34 20.67 -34 20.34 -34 20 C-22.78 20 -11.56 20 0 20 C0 13.4 0 6.8 0 0 Z " fill="#777E30" transform="translate(401,134)"/>
<path d="M0 0 C1.91706433 2.8755965 2.35475963 4.04549783 2.8515625 7.31640625 C2.98046875 8.16396484 3.109375 9.01152344 3.2421875 9.88476562 C3.36851562 10.76841797 3.49484375 11.65207031 3.625 12.5625 C3.7590625 13.41908203 3.893125 14.27566406 4.03125 15.15820312 C4.93578135 21.29147949 5 26.6137338 5 33 C15.89 33 26.78 33 38 33 C38 33.66 38 34.32 38 35 C33.33691801 35.02468646 28.67387392 35.04285349 24.01074219 35.05493164 C22.42382139 35.05996588 20.83690523 35.06679369 19.25 35.07543945 C16.97134251 35.08754482 14.69274624 35.09323733 12.4140625 35.09765625 C11.34679428 35.10539818 11.34679428 35.10539818 10.25796509 35.11329651 C5.22774341 35.11387171 5.22774341 35.11387171 3 34 C2.60522461 31.734375 2.60522461 31.734375 2.40234375 28.75 C2.32306641 27.66589844 2.24378906 26.58179688 2.16210938 25.46484375 C2.08798828 24.32144531 2.01386719 23.17804688 1.9375 22 C1.78121958 19.77074382 1.62368831 17.54157494 1.46484375 15.3125 C1.38991699 14.24257813 1.31499023 13.17265625 1.23779297 12.0703125 C0.92504636 8.03222078 0.48135284 4.02121308 0 0 Z " fill="#677A36" transform="translate(272,416)"/>
<path d="M0 0 C32.01 0 64.02 0 97 0 C97 0.33 97 0.66 97 1 C95.72024796 1.0154612 95.72024796 1.0154612 94.41464233 1.03123474 C86.26870116 1.13030325 78.12281386 1.23294513 69.97696495 1.33933926 C65.79179301 1.39388338 61.60661389 1.44717212 57.42138672 1.49731445 C34.59944566 1.74695183 34.59944566 1.74695183 11.7890625 2.47265625 C10.45553238 2.52829994 10.45553238 2.52829994 9.09506226 2.58506775 C4.91234448 2.70065238 4.91234448 2.70065238 1 4 C0.67 2.68 0.34 1.36 0 0 Z " fill="#648353" transform="translate(159,128)"/>
<path d="M0 0 C0.33 0 0.66 0 1 0 C1.79645684 8.68991301 2.12852505 17.27457699 2 26 C2.66 26 3.32 26 4 26 C7.33470226 49.99794661 7.33470226 49.99794661 4 55 C3.12075638 52.36226913 2.76239149 50.35949048 2.51928711 47.6237793 C2.43927963 46.7424382 2.35927216 45.86109711 2.27684021 44.95304871 C2.19450638 44.00303482 2.11217255 43.05302094 2.02734375 42.07421875 C1.93997452 41.09387161 1.85260529 40.11352448 1.7625885 39.10346985 C1.5784976 37.02820045 1.39620741 34.95277065 1.21557617 32.87719727 C0.93946255 29.7100116 0.65670028 26.54347144 0.37304688 23.37695312 C0.19491377 21.35941016 0.01716682 19.34183307 -0.16015625 17.32421875 C-0.24451431 16.38027756 -0.32887238 15.43633636 -0.41578674 14.46379089 C-1.20521465 5.31386471 -1.20521465 5.31386471 -1 1 C-0.67 0.67 -0.34 0.34 0 0 Z " fill="#5F7B41" transform="translate(158,230)"/>
<path d="M0 0 C3.50434665 1.44807713 3.93319183 1.86638367 5.75 5.5 C9.55970171 18.66463591 7.10772019 31.63202039 2 44 C1.01 44 0.02 44 -1 44 C-0.80664062 43.443125 -0.61328125 42.88625 -0.4140625 42.3125 C0.41508261 39.88253017 1.20894902 37.44261108 2 35 C2.391875 33.824375 2.78375 32.64875 3.1875 31.4375 C5.30510887 22.4240879 5.42583082 11.78673738 0.875 3.6015625 C0 2 0 2 0 0 Z " fill="#548952" transform="translate(249,407)"/>
<path d="M0 0 C1 3 1 3 0.81640625 5.50390625 C0.72744126 8.09191451 0.72744126 8.09191451 2.65234375 9.58984375 C3.40644531 10.03457031 4.16054687 10.47929687 4.9375 10.9375 C5.74960938 11.43378906 6.56171875 11.93007812 7.3984375 12.44140625 C8.25695312 12.95574219 9.11546875 13.47007812 10 14 C11.69334449 15.11618353 13.38118395 16.24077886 15.0625 17.375 C15.81660156 17.87773437 16.57070312 18.38046875 17.34765625 18.8984375 C17.89292969 19.26195312 18.43820313 19.62546875 19 20 C18.01 20.33 17.02 20.66 16 21 C16.350625 21.7425 16.70125 22.485 17.0625 23.25 C18.0720098 26.21122875 17.87980884 27.12062561 17 30 C16.3291288 28.3767313 15.66342971 26.75132422 15 25.125 C14.62875 24.22007812 14.2575 23.31515625 13.875 22.3828125 C13 20 13 20 13 18 C4.09 17.67 -4.82 17.34 -14 17 C-14 16.67 -14 16.34 -14 16 C-8.06 15.67 -2.12 15.34 4 15 C4 14.01 4 13.02 4 12 C1.525 11.505 1.525 11.505 -1 11 C-2.0257259 6.58937864 -2.03684712 4.07369424 0 0 Z " fill="#DEC06F" transform="translate(235,234)"/>
<path d="M0 0 C18.15 0 36.3 0 55 0 C55 0.33 55 0.66 55 1 C54.12674072 1.02505615 53.25348145 1.0501123 52.35375977 1.07592773 C49.12397448 1.17087709 45.89435846 1.27012029 42.66479492 1.37231445 C41.26510801 1.41571434 39.86536641 1.45738564 38.46557617 1.49731445 C36.45738505 1.55489445 34.44938851 1.61914 32.44140625 1.68359375 C31.23170166 1.72025146 30.02199707 1.75690918 28.77563477 1.79467773 C26.09294544 1.68938266 26.09294544 1.68938266 25 3 C22.27746705 2.93446857 19.59022466 2.80662038 16.875 2.625 C15.75351563 2.55925781 15.75351563 2.55925781 14.609375 2.4921875 C10.0274213 2.20481758 5.53564557 1.70982252 1 1 C1 3.31 1 5.62 1 8 C0.67 8 0.34 8 0 8 C0 5.36 0 2.72 0 0 Z " fill="#D8A74B" transform="translate(153,156)"/>
<path d="M0 0 C10.17878872 2.58157685 17.16074858 7.24112287 23 16 C12.77 16 2.54 16 -8 16 C-8 12.7 -8 9.4 -8 6 C-7.67 6 -7.34 6 -7 6 C-7 8.97 -7 11.94 -7 15 C1.58 15 10.16 15 19 15 C18.67 14.01 18.34 13.02 18 12 C17.34 11.835 16.68 11.67 16 11.5 C15.34 11.335 14.68 11.17 14 11 C13.67 10.01 13.34 9.02 13 8 C10.90861544 6.76049958 10.90861544 6.76049958 8.4375 5.8125 C7.61121094 5.46832031 6.78492188 5.12414062 5.93359375 4.76953125 C5.29550781 4.51558594 4.65742188 4.26164063 4 4 C4 3.34 4 2.68 4 2 C2.68 2 1.36 2 0 2 C0 1.34 0 0.68 0 0 Z " fill="#C8BB6D" transform="translate(145,137)"/>
<path d="M0 0 C0.66 0 1.32 0 2 0 C1.46096613 2.87484729 0.81779613 5.57876524 -0.0625 8.375 C-1.71930075 14.73220584 -1.11612799 21.49683254 -1 28 C-8.92 28 -16.84 28 -25 28 C-24.67 27.34 -24.34 26.68 -24 26 C-17.07 26 -10.14 26 -3 26 C-3.061875 23.751875 -3.12375 21.50375 -3.1875 19.1875 C-3.27899426 12.39312113 -2.25220089 6.44826565 0 0 Z " fill="#DBBF6D" transform="translate(311,421)"/>
<path d="M0 0 C4.27070558 -0.08692074 8.54118458 -0.14036515 12.8125 -0.1875 C14.63491211 -0.22520508 14.63491211 -0.22520508 16.49414062 -0.26367188 C18.23920898 -0.27817383 18.23920898 -0.27817383 20.01953125 -0.29296875 C21.09307861 -0.3086792 22.16662598 -0.32438965 23.27270508 -0.34057617 C26 0 26 0 27.81445312 1.37695312 C29.28976673 3.39669877 29.96034843 5.29828769 30.6875 7.6875 C30.93886719 8.49574219 31.19023437 9.30398438 31.44921875 10.13671875 C31.63097656 10.75160156 31.81273437 11.36648438 32 12 C30.68 11.67 29.36 11.34 28 11 C27.67 8.03 27.34 5.06 27 2 C19.41 2.33 11.82 2.66 4 3 C3.67 3.66 3.34 4.32 3 5 C2.01 4.34 1.02 3.68 0 3 C0 2.01 0 1.02 0 0 Z " fill="#6F7F34" transform="translate(220,251)"/>
<path d="M0 0 C4.05945076 3.74539583 6.78815487 8.45785844 7.25 14 C7.1675 14.66 7.085 15.32 7 16 C7.66 16 8.32 16 9 16 C9.45205756 27.18842453 9.17497101 36.45074289 5 47 C4.01 47 3.02 47 2 47 C2.74869792 45.30729167 3.49739583 43.61458333 4.24609375 41.921875 C7.91152054 32.57788546 7.2413232 19.2652386 3.8671875 9.9140625 C2.7666327 7.48491001 1.43048005 5.24789722 0 3 C0 2.01 0 1.02 0 0 Z " fill="#DBBE6C" transform="translate(322,250)"/>
<path d="M0 0 C0.33 0 0.66 0 1 0 C1 3.3 1 6.6 1 10 C12.88 10.33 24.76 10.66 37 11 C37 11.33 37 11.66 37 12 C25.78 12 14.56 12 3 12 C2.67 15.63 2.34 19.26 2 23 C1.34 23.99 0.68 24.98 0 26 C-1.2428547 20.45778869 -0.91100229 15.24109437 -0.5625 9.625 C-0.48418945 8.23474609 -0.48418945 8.23474609 -0.40429688 6.81640625 C-0.27544122 4.54386099 -0.14051689 2.27184901 0 0 Z " fill="#6F9463" transform="translate(274,440)"/>
<path d="M0 0 C2.11607434 3.17411152 2.32426299 4.38945445 2.59765625 8.078125 C2.71657227 9.57279297 2.71657227 9.57279297 2.83789062 11.09765625 C2.91201172 12.13792969 2.98613281 13.17820313 3.0625 14.25 C3.2182788 16.29701072 3.37579017 18.34389044 3.53515625 20.390625 C3.61008301 21.35548828 3.68500977 22.32035156 3.76220703 23.31445312 C4.05049621 26.5702857 4.48495639 29.77300111 5 33 C5.33 32.34 5.66 31.68 6 31 C6.99 31.33 7.98 31.66 9 32 C7.35 36.29 5.7 40.58 4 45 C3.67 45 3.34 45 3 45 C2.56853155 39.87745971 2.14143933 34.75457953 1.71826172 29.63134766 C1.57393379 27.89134053 1.42844536 26.15142924 1.28173828 24.41162109 C1.07012913 21.89966209 0.86280341 19.38737918 0.65625 16.875 C0.59062866 16.10696045 0.52500732 15.3389209 0.45739746 14.54760742 C0.06248781 9.68102795 -0.05812828 4.88277544 0 0 Z " fill="#E5C271" transform="translate(161,240)"/>
<path d="M0 0 C1.00800623 3.2204631 0.97559297 5.70745274 0.56274414 9.04394531 C0.4425441 10.04468079 0.32234406 11.04541626 0.19850159 12.07647705 C0.06209763 13.14952087 -0.07430634 14.2225647 -0.21484375 15.328125 C-0.34943497 16.43226746 -0.48402618 17.53640991 -0.62269592 18.67401123 C-1.05412511 22.20022099 -1.49568482 25.72507799 -1.9375 29.25 C-2.23178786 31.64054285 -2.52541578 34.03116705 -2.81835938 36.421875 C-3.53791786 42.28221538 -4.26579768 48.14147724 -5 54 C-5.33 54 -5.66 54 -6 54 C-6.05510734 51.87530607 -6.09328102 49.75017176 -6.125 47.625 C-6.14820313 46.44164062 -6.17140625 45.25828125 -6.1953125 44.0390625 C-6.14319752 41.0536185 -5.70109647 38.34272532 -5.0546875 35.4296875 C-3.37073499 27.6065423 -3.22465627 19.61037772 -2.7890625 11.640625 C-2.71429688 10.42890625 -2.63953125 9.2171875 -2.5625 7.96875 C-2.50191406 6.86982422 -2.44132812 5.77089844 -2.37890625 4.63867188 C-2 2 -2 2 0 0 Z " fill="#DABC6A" transform="translate(387,190)"/>
<path d="M0 0 C0.33 0 0.66 0 1 0 C1.05819473 4.06243957 1.09366215 8.12477146 1.125 12.1875 C1.14175781 13.33798828 1.15851563 14.48847656 1.17578125 15.67382812 C1.18222656 16.78564453 1.18867188 17.89746094 1.1953125 19.04296875 C1.20578613 20.06414795 1.21625977 21.08532715 1.22705078 22.13745117 C0.98859582 25.14377857 0.19520159 27.25253975 -1 30 C-1.35220048 33.15379524 -1.5016661 36.28415509 -1.65625 39.453125 C-1.7696875 40.29359375 -1.883125 41.1340625 -2 42 C-2.99 42.495 -2.99 42.495 -4 43 C-3.41757646 28.57999656 -1.75539558 14.31894178 0 0 Z " fill="#72823E" transform="translate(378,272)"/>
<path d="M0 0 C4.48464089 2.04529647 6.63169011 4.91495635 9.3125 9 C10.27805675 11.80889236 10.02105266 13.20912272 9 16 C6.4375 18.8125 6.4375 18.8125 4 21 C4.50603992 18.83125748 4.99983813 17.00032373 6 15 C6.66 15 7.32 15 8 15 C7.67 12.69 7.34 10.38 7 8 C6.34 8 5.68 8 5 8 C4.34 6.68 3.68 5.36 3 4 C0.55721737 4.57442644 0.55721737 4.57442644 -2 6 C-3.04808041 7.97522846 -4.0520411 9.97481509 -5 12 C-5.99 12.33 -6.98 12.66 -8 13 C-6.40956621 7.91061189 -3.2553049 4.12543357 0 0 Z " fill="#E1C06D" transform="translate(273,228)"/>
<path d="M0 0 C0.99 0.33 1.98 0.66 3 1 C2.67 7.27 2.34 13.54 2 20 C6.62 20 11.24 20 16 20 C15.67 21.32 15.34 22.64 15 24 C15 23.01 15 22.02 15 21 C10.05 21 5.1 21 0 21 C-0.93825328 16.30873358 -0.92759102 12.38332585 -0.5625 7.6875 C-0.51029297 6.94693359 -0.45808594 6.20636719 -0.40429688 5.44335938 C-0.27549848 3.62847291 -0.13856738 1.81416675 0 0 Z " fill="#627945" transform="translate(135,134)"/>
<path d="M0 0 C0.33 0 0.66 0 1 0 C0.85950482 1.47968324 0.71245174 2.95874516 0.5625 4.4375 C0.48128906 5.26121094 0.40007812 6.08492187 0.31640625 6.93359375 C0 9 0 9 -1 10 C-3.85591558 10.40713885 -6.69551386 10.75605255 -9.5625 11.0625 C-10.34947266 11.15337891 -11.13644531 11.24425781 -11.94726562 11.33789062 C-16.99681968 11.89155154 -21.92077579 12.08727189 -27 12 C-26.46930939 8.17902761 -25.50298434 5.93828597 -23 3 C-23.33 5.31 -23.66 7.62 -24 10 C-21.08293797 9.69088746 -18.1663891 9.37784575 -15.25 9.0625 C-14.425 8.97548828 -13.6 8.88847656 -12.75 8.79882812 C-11.95078125 8.71181641 -11.1515625 8.62480469 -10.328125 8.53515625 C-9.5949707 8.456604 -8.86181641 8.37805176 -8.10644531 8.29711914 C-6.01852006 8.0026123 -4.03447232 7.54882504 -2 7 C-1.34 4.69 -0.68 2.38 0 0 Z " fill="#6A8132" transform="translate(306,239)"/>
<path d="M0 0 C-2 3 -2 3 -4.87109375 3.73046875 C-12.29630985 4.68200247 -19.51308618 5.27502949 -27 5 C-27 4.67 -27 4.34 -27 4 C-25.35 3.67 -23.7 3.34 -22 3 C-22 2.67 -22 2.34 -22 2 C-18.7099087 1.46886618 -15.4177531 0.95185229 -12.125 0.4375 C-10.71927734 0.21030273 -10.71927734 0.21030273 -9.28515625 -0.02148438 C-8.38925781 -0.16005859 -7.49335938 -0.29863281 -6.5703125 -0.44140625 C-5.74289551 -0.57232666 -4.91547852 -0.70324707 -4.06298828 -0.83813477 C-2 -1 -2 -1 0 0 Z " fill="#5D8756" transform="translate(240,495)"/>
<path d="M0 0 C3.98544997 1.63432121 6.84491594 4.40523933 9.9375 7.3125 C10.44990234 7.78623047 10.96230469 8.25996094 11.49023438 8.74804688 C13.00430158 10.15437868 14.50403627 11.57444623 16 13 C17.42505859 14.35158203 17.42505859 14.35158203 18.87890625 15.73046875 C21 18 21 18 21 20 C21.99 20 22.98 20 24 20 C25.75 22.375 25.75 22.375 27 25 C26.67 25.66 26.34 26.32 26 27 C15.04440009 16.2170803 15.04440009 16.2170803 12 12.4375 C10.05606552 9.82693563 10.05606552 9.82693563 7 8 C7 7.34 7 6.68 7 6 C6.401875 5.7525 5.80375 5.505 5.1875 5.25 C2.71352479 3.83629988 1.56629745 2.34944617 0 0 Z " fill="#D0A44A" transform="translate(204,312)"/>
<path d="M0 0 C0.33 0 0.66 0 1 0 C1 2.97 1 5.94 1 9 C1.66 8.67 2.32 8.34 3 8 C3.1546875 7.071875 3.1546875 7.071875 3.3125 6.125 C4 4 4 4 6.4375 2.1875 C7.283125 1.795625 8.12875 1.40375 9 1 C9.66 1.33 10.32 1.66 11 2 C10.52949219 2.4846875 10.05898437 2.969375 9.57421875 3.46875 C5.26234932 8.11092827 2.8410467 11.93537559 1 18 C1.66 18.33 2.32 18.66 3 19 C1.68 18.67 0.36 18.34 -1 18 C-1.18451025 5.33029613 -1.18451025 5.33029613 0 0 Z " fill="#8AAF59" transform="translate(175,110)"/>
<path d="M0 0 C0.33 0 0.66 0 1 0 C0.51409524 7.95349363 -0.12658989 15.88589331 -0.9375 23.8125 C-1.01210449 24.6070459 -1.08670898 25.4015918 -1.16357422 26.22021484 C-1.37019756 28.15588256 -1.6761958 30.08045485 -2 32 C-2.99 32.495 -2.99 32.495 -4 33 C-3.42528455 10.40510967 -3.42528455 10.40510967 0 0 Z " fill="#5B7841" transform="translate(382,256)"/>
<path d="M0 0 C0.66 0 1.32 0 2 0 C1.16759378 7.67822983 -0.47109038 14.30226871 -6 20 C-6.99 20 -7.98 20 -9 20 C-9 19.34 -9 18.68 -9 18 C-8.34 18 -7.68 18 -7 18 C-5.41906815 14.07722051 -3.89057144 10.13596242 -2.375 6.1875 C-1.92898438 5.02605469 -1.48296875 3.86460937 -1.0234375 2.66796875 C-0.68570312 1.78753906 -0.34796875 0.90710938 0 0 Z " fill="#568D59" transform="translate(261,440)"/>
<path d="M0 0 C0.33 0 0.66 0 1 0 C1.08783475 3.9998593 1.14067102 7.99946704 1.1875 12 C1.22520508 13.68802734 1.22520508 13.68802734 1.26367188 15.41015625 C1.32174801 22.03083534 0.8105193 26.98062008 -2 33 C-2.33 33 -2.66 33 -3 33 C-2.4340092 21.93339044 -1.40116964 10.99169971 0 0 Z " fill="#6C7E38" transform="translate(371,334)"/>
<path d="M0 0 C0.33 0 0.66 0 1 0 C2.60881575 7.42640842 3.26442904 14.40501039 3 22 C0.36 22 -2.28 22 -5 22 C-5 19.03 -5 16.06 -5 13 C-4.67 13 -4.34 13 -4 13 C-3.67 15.31 -3.34 17.62 -3 20 C-1.35 20 0.3 20 2 20 C1.81535634 15.65815798 1.81535634 15.65815798 0 12 C-0.07244053 9.98035801 -0.08377188 7.95832876 -0.0625 5.9375 C-0.05347656 4.83277344 -0.04445313 3.72804688 -0.03515625 2.58984375 C-0.02355469 1.73519531 -0.01195312 0.88054687 0 0 Z " fill="#E4A849" transform="translate(282,427)"/>
<path d="M0 0 C0.33 0 0.66 0 1 0 C1.125 7.75 1.125 7.75 0 10 C0.99 10.33 1.98 10.66 3 11 C-0.63 12.98 -4.26 14.96 -8 17 C-8 15.68 -8 14.36 -8 13 C-8.99 13.495 -8.99 13.495 -10 14 C-11.70702735 14.06996014 -13.41668003 14.08440154 -15.125 14.0625 C-16.03507812 14.05347656 -16.94515625 14.04445312 -17.8828125 14.03515625 C-18.58148438 14.02355469 -19.28015625 14.01195312 -20 14 C-20 13.67 -20 13.34 -20 13 C-11.09 12.01 -11.09 12.01 -2 11 C-1.34 7.37 -0.68 3.74 0 0 Z " fill="#D2BC6B" transform="translate(307,237)"/>
<path d="M0 0 C6.75873071 6.05259467 9.48833949 15.13121784 10 24 C7.0843836 20.45960866 4.49872182 16.8373228 2 13 C2.99 13.33 3.98 13.66 5 14 C4.34 11.03 3.68 8.06 3 5 C2.34 5 1.68 5 1 5 C0.67 3.35 0.34 1.7 0 0 Z " fill="#2E682A" transform="translate(160,132)"/>
<path d="M0 0 C0.33 0 0.66 0 1 0 C1.57446809 21.53191489 1.57446809 21.53191489 -2 32 C-2.33 32 -2.66 32 -3 32 C-2.27018606 21.30246413 -1.15921571 10.65803178 0 0 Z " fill="#77863D" transform="translate(382,236)"/>
<path d="M0 0 C0 1.32 0 2.64 0 4 C0.66 4 1.32 4 2 4 C2 4.99 2 5.98 2 7 C-1.96 7 -5.92 7 -10 7 C-9.67 5.35 -9.34 3.7 -9 2 C-2.25 0 -2.25 0 0 0 Z " fill="#FABD66" transform="translate(303,276)"/>
<path d="M0 0 C0.33 0 0.66 0 1 0 C0.67 5.61 0.34 11.22 0 17 C2.64 17.33 5.28 17.66 8 18 C7.67 18.66 7.34 19.32 7 20 C4.71484375 20.4140625 4.71484375 20.4140625 1.9375 20.625 C1.01839844 20.69976562 0.09929687 20.77453125 -0.84765625 20.8515625 C-1.91306641 20.92503906 -1.91306641 20.92503906 -3 21 C-2.69073032 18.24960167 -2.3777116 15.49971822 -2.0625 12.75 C-1.97548828 11.97269531 -1.88847656 11.19539062 -1.79882812 10.39453125 C-1.71181641 9.64042969 -1.62480469 8.88632813 -1.53515625 8.109375 C-1.456604 7.41811523 -1.37805176 6.72685547 -1.29711914 6.01464844 C-0.99455017 3.96304687 -0.53587616 2.00217465 0 0 Z " fill="#EAC06C" transform="translate(310,226)"/>
<path d="M0 0 C0.33 0 0.66 0 1 0 C1.33 2.97 1.66 5.94 2 9 C0.68 9.33 -0.64 9.66 -2 10 C-2.13535156 10.57621094 -2.27070312 11.15242188 -2.41015625 11.74609375 C-2.97675599 13.91118016 -3.65776705 15.96570519 -4.4375 18.0625 C-4.68371094 18.73410156 -4.92992188 19.40570313 -5.18359375 20.09765625 C-6 22 -6 22 -8 25 C-7.40221436 19.36587037 -5.94103952 14.43539114 -4 9.125 C-3.72671875 8.35414062 -3.4534375 7.58328125 -3.171875 6.7890625 C-1.14466003 1.14466003 -1.14466003 1.14466003 0 0 Z " fill="#1D6846" transform="translate(86,21)"/>
<path d="M0 0 C0.33 0 0.66 0 1 0 C1.43496578 11.06746256 0.22636903 21.17295538 -2 32 C-2.33 32 -2.66 32 -3 32 C-2.53521257 21.21203917 -1.76619057 10.66573332 0 0 Z " fill="#727E34" transform="translate(390,170)"/>
<path d="M0 0 C1.31264453 2.1707133 2.06604593 3.43898601 1.7644043 6.0012207 C1.55726807 6.69820068 1.35013184 7.39518066 1.13671875 8.11328125 C-0.1593332 13.19859351 -0.26266158 17.96179243 -0.1875 23.1875 C-0.18685547 24.05052734 -0.18621094 24.91355469 -0.18554688 25.80273438 C-0.15452041 30.30846614 0.09311517 34.56714695 1 39 C0.34 39 -0.32 39 -1 39 C-3.34833324 25.90352616 -3.42012535 12.95781247 0 0 Z " fill="#1E6344" transform="translate(77,46)"/>
<path d="M0 0 C3 1 3 1 4.09765625 2.99609375 C4.41605469 3.80175781 4.73445313 4.60742188 5.0625 5.4375 C6.18632955 8.24933055 6.8372207 9.8372207 9 12 C9.33 12.66 9.66 13.32 10 14 C10.66 14.33 11.32 14.66 12 15 C11.67 15.99 11.34 16.98 11 18 C5.35677518 14.51447879 2.62412084 8.90652629 0 3 C0 2.01 0 1.02 0 0 Z " fill="#5B7D47" transform="translate(311,453)"/>
<path d="M0 0 C0 0.66 0 1.32 0 2 C-7.82386023 5.24545313 -15.63824676 6.7742725 -23.6875 3.5 C-24.450625 3.005 -25.21375 2.51 -26 2 C-22.68082571 0.89360857 -22.20525763 1.1704703 -19 2 C-16.83561973 2.11751055 -14.66753229 2.17507149 -12.5 2.1875 C-11.3759375 2.20167969 -10.251875 2.21585937 -9.09375 2.23046875 C-5.6843593 1.97648636 -3.24628583 0 0 0 Z " fill="#85B94D" transform="translate(366,463)"/>
<path d="M0 0 C1.91706433 2.8755965 2.35475963 4.04549783 2.8515625 7.31640625 C2.98046875 8.16396484 3.109375 9.01152344 3.2421875 9.88476562 C3.36851562 10.76841797 3.49484375 11.65207031 3.625 12.5625 C3.7590625 13.41908203 3.893125 14.27566406 4.03125 15.15820312 C4.91368784 21.14167194 5.16047175 26.95637472 5 33 C4.67 33 4.34 33 4 33 C2.20993033 26.19773526 1.61447463 19.63813949 1.21875 12.62109375 C0.96296579 8.3869515 0.51690796 4.20910771 0 0 Z " fill="#7C8336" transform="translate(272,416)"/>
<path d="M0 0 C0.33 0 0.66 0 1 0 C2.4551617 9.28157192 1.39569705 17.80685498 0 27 C-0.33 27 -0.66 27 -1 27 C-1.02905924 23.2500163 -1.04681874 19.50006163 -1.0625 15.75 C-1.07087891 14.68652344 -1.07925781 13.62304688 -1.08789062 12.52734375 C-1.09111328 11.50253906 -1.09433594 10.47773438 -1.09765625 9.421875 C-1.10289307 8.47924805 -1.10812988 7.53662109 -1.11352539 6.56542969 C-1.00968082 4.21876563 -0.66706529 2.24355522 0 0 Z " fill="#5F7636" transform="translate(392,156)"/>
<path d="M0 0 C0.33 0.66 0.66 1.32 1 2 C-1.77842806 6.70195518 -4.20449637 9.16184479 -9 12 C-10.36125 12.8971875 -10.36125 12.8971875 -11.75 13.8125 C-12.4925 14.204375 -13.235 14.59625 -14 15 C-14.66 14.67 -15.32 14.34 -16 14 C-15.55084229 13.61142822 -15.10168457 13.22285645 -14.63891602 12.82250977 C-12.61310199 11.06956798 -10.58779476 9.3160417 -8.5625 7.5625 C-7.85544922 6.95083984 -7.14839844 6.33917969 -6.41992188 5.70898438 C-5.74638672 5.12568359 -5.07285156 4.54238281 -4.37890625 3.94140625 C-3.44413452 3.13231812 -3.44413452 3.13231812 -2.49047852 2.30688477 C-1.63964878 1.5608583 -0.80014584 0.80014584 0 0 Z " fill="#8DB652" transform="translate(198,34)"/>
<path d="M0 0 C0.66 0 1.32 0 2 0 C0.44853369 4.00795464 -1.29230863 7.91825697 -3.046875 11.83984375 C-4.09025538 14.20455421 -5.06696399 16.58965699 -6 19 C-6.66 19 -7.32 19 -8 19 C-6.44037469 12.10214496 -4.73870961 5.45811767 0 0 Z " fill="#65843E" transform="translate(173,266)"/>
<path d="M0 0 C3.74078343 3.97265017 4.91354307 7.6102417 5.75 12.875 C5.87503906 13.55691406 6.00007813 14.23882812 6.12890625 14.94140625 C6.89297031 19.34946812 7.11673315 23.52912043 7 28 C6.67 28 6.34 28 6 28 C5.73445313 26.77023437 5.46890625 25.54046875 5.1953125 24.2734375 C4.83871309 22.64058755 4.48193267 21.00777713 4.125 19.375 C3.95097656 18.56675781 3.77695312 17.75851562 3.59765625 16.92578125 C2.82895345 13.42391295 2.02162429 10.0636798 0.8671875 6.6640625 C0 4 0 4 0 0 Z " fill="#618545" transform="translate(267,404)"/>
<path d="M0 0 C3.55114333 3.20001904 5.86821633 6.80804372 8.1875 10.9375 C8.54263672 11.54529297 8.89777344 12.15308594 9.26367188 12.77929688 C11.18515622 16.15921336 12.50816655 19.13139955 13 23 C10.46166551 21.73083275 10.10599099 20.58375191 8.875 18.0625 C8.52179688 17.35222656 8.16859375 16.64195313 7.8046875 15.91015625 C7 14 7 14 7 12 C6.34 12 5.68 12 5 12 C4 10 3 8 2 6 C1.608125 5.2575 1.21625 4.515 0.8125 3.75 C0 2 0 2 0 0 Z " fill="#93B858" transform="translate(210,19)"/>
<path d="M0 0 C0.33 0 0.66 0 1 0 C1.66 5.61 2.32 11.22 3 17 C3.66 17 4.32 17 5 17 C5.33 20.63 5.66 24.26 6 28 C-0.32398796 19.56801605 -0.43926471 10.23324093 0 0 Z " fill="#8DC4A4" transform="translate(137,422)"/>
<path d="M0 0 C0.33 0 0.66 0 1 0 C1.17707265 10.03411669 0.62277469 19.99112106 0 30 C-0.33 30 -0.66 30 -1 30 C-1.22704595 26.12586026 -1.42830478 22.25078985 -1.625 18.375 C-1.68945312 17.28058594 -1.75390625 16.18617188 -1.8203125 15.05859375 C-2.30707097 5.01920021 -2.30707097 5.01920021 0 0 Z " fill="#578449" transform="translate(120,394)"/>
<path d="M0 0 C-1.45015106 3.74622356 -1.45015106 3.74622356 -3.625 4.75 C-7.09737727 5.1155134 -10.50864298 5.05818928 -14 5 C-14.33 6.32 -14.66 7.64 -15 9 C-15.66 9 -16.32 9 -17 9 C-17 7.35 -17 5.7 -17 4 C-16.08476562 3.79503906 -15.16953125 3.59007812 -14.2265625 3.37890625 C-13.03804688 3.10949219 -11.84953125 2.84007812 -10.625 2.5625 C-8.84996094 2.16224609 -8.84996094 2.16224609 -7.0390625 1.75390625 C-4.51248653 1.12713355 -2.55757024 0 0 0 Z " fill="#DFBE66" transform="translate(314,310)"/>
<path d="M0 0 C1.32 0.99 2.64 1.98 4 3 C3.67 3.99 3.34 4.98 3 6 C3 9.20395416 3.74335022 11.09399739 5 14 C1.0747975 10.29909479 -1.94580156 6.45040344 -5 2 C-4.34 1.67 -3.68 1.34 -3 1 C-2.67 1.66 -2.34 2.32 -2 3 C-1.01 3.33 -0.02 3.66 1 4 C0.67 2.68 0.34 1.36 0 0 Z " fill="#DEA347" transform="translate(240,343)"/>
<path d="M0 0 C0 1.32 0 2.64 0 4 C-4.07142857 7 -4.07142857 7 -7 7 C-6.67 5.68 -6.34 4.36 -6 3 C-9.3 2.67 -12.6 2.34 -16 2 C-16 1.67 -16 1.34 -16 1 C-13.70839646 0.83246763 -11.41671509 0.66599948 -9.125 0.5 C-7.84882813 0.4071875 -6.57265625 0.314375 -5.2578125 0.21875 C-3.50763316 0.10123196 -1.75412035 0 0 0 Z " fill="#EFC06E" transform="translate(299,250)"/>
<path d="M0 0 C0.66 0 1.32 0 2 0 C0.41078475 5.36095277 -1.18972938 10.70843973 -3 16 C-5.91517292 14.92598892 -7.77810176 14.22189824 -10 12 C-5.25 12.875 -5.25 12.875 -3 14 C-3.03480469 13.32453125 -3.06960938 12.6490625 -3.10546875 11.953125 C-3.13253906 11.06109375 -3.15960938 10.1690625 -3.1875 9.25 C-3.22230469 8.36828125 -3.25710938 7.4865625 -3.29296875 6.578125 C-2.94589665 3.52389051 -2.11745198 2.19435701 0 0 Z " fill="#6D8134" transform="translate(262,241)"/>
<path d="M0 0 C0.33 0.66 0.66 1.32 1 2 C0.2578125 3.98828125 0.2578125 3.98828125 -0.875 6.3125 C-2.45310982 9.56252337 -3.39182773 12.43863086 -4 16 C-4.66666667 19.33333333 -5.33333333 22.66666667 -6 26 C-6.33 26 -6.66 26 -7 26 C-7.63769888 16.43451685 -5.15260188 8.09061842 0 0 Z " fill="#8AC39F" transform="translate(173,270)"/>
<path d="M0 0 C-2.28819146 1.50554634 -4.58021169 3.00457043 -6.875 4.5 C-7.85146484 5.14388672 -7.85146484 5.14388672 -8.84765625 5.80078125 C-13.7734375 9 -13.7734375 9 -16 9 C-16 8.34 -16 7.68 -16 7 C-15.34 7 -14.68 7 -14 7 C-14 6.34 -14 5.68 -14 5 C-11.8125 3.5625 -11.8125 3.5625 -9 2 C-8.154375 1.4225 -7.30875 0.845 -6.4375 0.25 C-3.59733769 -1.20649349 -2.92046113 -0.91380179 0 0 Z " fill="#8AB353" transform="translate(207,98)"/>
<path d="M0 0 C3.43321063 3.0435743 5.0903689 5.88991022 6.8125 10.125 C7.25207031 11.17945312 7.69164062 12.23390625 8.14453125 13.3203125 C9 16 9 16 8 18 C7.5978125 16.5459375 7.5978125 16.5459375 7.1875 15.0625 C6.795625 14.051875 6.40375 13.04125 6 12 C5.01 11.67 4.02 11.34 3 11 C2.26919734 9.02253397 1.60578253 7.01927511 1 5 C0.34 4.01 -0.32 3.02 -1 2 C-0.67 1.34 -0.34 0.68 0 0 Z " fill="#135F3D" transform="translate(153,75)"/>
<path d="M0 0 C1.828125 0.83984375 1.828125 0.83984375 3.828125 3.83984375 C2.920625 3.59234375 2.013125 3.34484375 1.078125 3.08984375 C0.005625 3.00734375 -1.066875 2.92484375 -2.171875 2.83984375 C-4.33854167 4.67317708 -4.33854167 4.67317708 -6.171875 6.83984375 C-8.421875 7.58984375 -8.421875 7.58984375 -10.171875 7.83984375 C-10.501875 6.84984375 -10.831875 5.85984375 -11.171875 4.83984375 C-9.76436279 3.97067488 -8.3454229 3.11999226 -6.921875 2.27734375 C-6.13296875 1.80167969 -5.3440625 1.32601562 -4.53125 0.8359375 C-2.171875 -0.16015625 -2.171875 -0.16015625 0 0 Z " fill="#6A8239" transform="translate(316.171875,245.16015625)"/>
<path d="M0 0 C4.875 3.625 4.875 3.625 6 7 C5.34 7 4.68 7 4 7 C3.67 6.34 3.34 5.68 3 5 C2.87753906 5.71542969 2.75507813 6.43085938 2.62890625 7.16796875 C1.98864625 10.05112713 1.06448444 12.58592473 -0.0625 15.3125 C-0.42472656 16.19550781 -0.78695312 17.07851563 -1.16015625 17.98828125 C-1.57587891 18.98408203 -1.57587891 18.98408203 -2 20 C-2.66 19.67 -3.32 19.34 -4 19 C-3.525625 18.21625 -3.05125 17.4325 -2.5625 16.625 C-0.23707782 11.23002054 0 5.8297958 0 0 Z " fill="#90B35D" transform="translate(204,12)"/>
<path d="M0 0 C7.12600133 -0.35368021 12.47059106 0.04328652 19 3 C16 4 16 4 13 3 C11.54232084 2.95632422 10.08279005 2.96019686 8.625 3 C5.27033353 3.04378031 2.26946503 2.84373291 -1 2 C-0.67 1.34 -0.34 0.68 0 0 Z " fill="#8EC5A2" transform="translate(135,289)"/>
<path d="M0 0 C1.17498936 3.52496808 0.72437963 4.50350021 -0.4375 7.9375 C-1.57360799 11.31525604 -2 13.34724574 -2 17 C-1.34 17.33 -0.68 17.66 0 18 C-0.33 18.66 -0.66 19.32 -1 20 C-2.32 19.01 -3.64 18.02 -5 17 C-4.53444296 10.59859065 -2.85288164 5.73230171 0 0 Z " fill="#6E8032" transform="translate(240,225)"/>
<path d="M0 0 C0.33 0 0.66 0 1 0 C1.41628689 6.79935253 -0.24826375 11.37239562 -4 17 C-4.66 17 -5.32 17 -6 17 C-6 17.66 -6 18.32 -6 19 C-6.66 18.67 -7.32 18.34 -8 18 C-7.67386719 17.53851563 -7.34773437 17.07703125 -7.01171875 16.6015625 C-3.46569466 11.30867699 -1.55260717 6.1599374 0 0 Z " fill="#91C8A7" transform="translate(263,441)"/>
<path d="M0 0 C2.31243792 -0.02685412 4.6249627 -0.04632841 6.9375 -0.0625 C8.22527344 -0.07410156 9.51304687 -0.08570312 10.83984375 -0.09765625 C14 0 14 0 15 1 C15.14115161 3.67058851 15.04247107 6.32432238 15 9 C14.01 9.33 13.02 9.66 12 10 C11.875 3.25 11.875 3.25 13 1 C8.71 1 4.42 1 0 1 C0 0.67 0 0.34 0 0 Z " fill="#748D59" transform="translate(388,128)"/>
<path d="M0 0 C1.98 0.495 1.98 0.495 4 1 C4.0825 1.61875 4.165 2.2375 4.25 2.875 C4.79923543 5.15042479 4.79923543 5.15042479 6.875 6.125 C7.57625 6.41375 8.2775 6.7025 9 7 C9.99 7.66 10.98 8.32 12 9 C12 9.66 12 10.32 12 11 C8.7173068 9.50923566 6.06922559 7.61379679 3.25 5.375 C2.45078125 4.74335937 1.6515625 4.11171875 0.828125 3.4609375 C0.22484375 2.97882813 -0.3784375 2.49671875 -1 2 C-0.67 1.34 -0.34 0.68 0 0 Z " fill="#15643D" transform="translate(104,68)"/>
<path d="M0 0 C1.65 0 3.3 0 5 0 C1.72805658 4.10398401 -1.15189388 7.71061656 -6 10 C-6.66 10 -7.32 10 -8 10 C-8 9.34 -8 8.68 -8 8 C-7.01 8 -6.02 8 -5 8 C-4.67 7.01 -4.34 6.02 -4 5 C-3.0206121 3.97980427 -2.02104551 2.97850195 -1 2 C-0.67 1.34 -0.34 0.68 0 0 Z " fill="#5E7E49" transform="translate(379,469)"/>
<path d="M0 0 C0.33 0.99 0.66 1.98 1 3 C-0.52967159 6.05934318 -2.19460147 8.98011306 -5 11 C-7.09765625 10.5703125 -7.09765625 10.5703125 -9 10 C-8.27683594 9.29423828 -8.27683594 9.29423828 -7.5390625 8.57421875 C-6.90742188 7.95160156 -6.27578125 7.32898438 -5.625 6.6875 C-4.68527344 5.76517578 -4.68527344 5.76517578 -3.7265625 4.82421875 C-1.81913393 2.91187472 -1.81913393 2.91187472 0 0 Z " fill="#E4BE6C" transform="translate(323,299)"/>
<path d="M0 0 C2.97 0.495 2.97 0.495 6 1 C5.625 3.4375 5.625 3.4375 5 6 C4.01 6.495 4.01 6.495 3 7 C2.67 5.68 2.34 4.36 2 3 C1.01 3 0.02 3 -1 3 C-1.66 4.32 -2.32 5.64 -3 7 C-3.99 7 -4.98 7 -6 7 C-4.71937515 5.2925002 -3.38232443 3.62626404 -2 2 C-1.34 2 -0.68 2 0 2 C0 1.34 0 0.68 0 0 Z " fill="#DDA348" transform="translate(211,294)"/>
<path d="M0 0 C-0.11409593 1.45922693 -0.24165544 2.91740598 -0.375 4.375 C-0.44460938 5.18710938 -0.51421875 5.99921875 -0.5859375 6.8359375 C-1 9 -1 9 -3 11 C-3 8.69 -3 6.38 -3 4 C-3.99 3.67 -4.98 3.34 -6 3 C-6 2.34 -6 1.68 -6 1 C-4 0 -4 0 0 0 Z " fill="#6D8434" transform="translate(310,226)"/>
<path d="M0 0 C0.33 0 0.66 0 1 0 C1 5.61 1 11.22 1 17 C1.99 17.33 2.98 17.66 4 18 C2.625 19.5 2.625 19.5 1 21 C0.34 21 -0.32 21 -1 21 C-0.67 14.07 -0.34 7.14 0 0 Z " fill="#5C905A" transform="translate(190,279)"/>
<path d="M0 0 C0.66 0.99 1.32 1.98 2 3 C2.8353125 3.9590625 2.8353125 3.9590625 3.6875 4.9375 C5 7 5 7 4.6875 9.25 C4.460625 9.8275 4.23375 10.405 4 11 C0.51668565 7.98112756 -0.79157144 5.43090471 -2 1 C-1.34 0.67 -0.68 0.34 0 0 Z " fill="#5E8758" transform="translate(133,290)"/>
<path d="M0 0 C0.33 0 0.66 0 1 0 C0.88602456 2.43847451 0.75929026 4.87513174 0.625 7.3125 C0.5940625 8.00279297 0.563125 8.69308594 0.53125 9.40429688 C0.31875081 13.06990789 0.08066139 14.87900792 -2 18 C-2.054348 15.9377952 -2.09294961 13.87517184 -2.125 11.8125 C-2.14820313 10.66394531 -2.17140625 9.51539063 -2.1953125 8.33203125 C-2.00484152 5.08259628 -1.39360127 2.91339479 0 0 Z " fill="#628048" transform="translate(370,362)"/>
<path d="M0 0 C4.43458973 1.3937282 6.87378374 3.60582235 10 7 C8.35 7.33 6.7 7.66 5 8 C4.54625 7.195625 4.0925 6.39125 3.625 5.5625 C2.25274335 2.91143428 2.25274335 2.91143428 0 2 C0 1.34 0 0.68 0 0 Z " fill="#628134" transform="translate(288,213)"/>
<path d="M0 0 C0.99 0.33 1.98 0.66 3 1 C3 3.64 3 6.28 3 9 C2.34 9 1.68 9 1 9 C0.67 9.99 0.34 10.98 0 12 C0 8.04 0 4.08 0 0 Z " fill="#6A884C" transform="translate(135,134)"/>
<path d="M0 0 C0.66 0 1.32 0 2 0 C2.33 0.66 2.66 1.32 3 2 C3.845625 2.495 4.69125 2.99 5.5625 3.5 C6.366875 3.995 7.17125 4.49 8 5 C8 5.66 8 6.32 8 7 C8.61875 7.268125 9.2375 7.53625 9.875 7.8125 C12 9 12 9 14 12 C10.5222507 10.43988817 7.72775973 8.36827674 4.75 6 C3.85796875 5.29875 2.9659375 4.5975 2.046875 3.875 C1.37140625 3.25625 0.6959375 2.6375 0 2 C0 1.34 0 0.68 0 0 Z " fill="#176041" transform="translate(125,85)"/>
<path d="M0 0 C0.66 0.33 1.32 0.66 2 1 C0.35 3.64 -1.3 6.28 -3 9 C-5 6 -5 6 -5 3 C-5.66 2.67 -6.32 2.34 -7 2 C-4 1 -4 1 -1 1 C-0.67 0.67 -0.34 0.34 0 0 Z " fill="#88B14D" transform="translate(192,64)"/>
<path d="M0 0 C0.66 0.33 1.32 0.66 2 1 C2 3.64 2 6.28 2 9 C-3.875 4.375 -3.875 4.375 -5 1 C-4.34 1 -3.68 1 -3 1 C-3 1.66 -3 2.32 -3 3 C-2.01 3 -1.02 3 0 3 C0 2.01 0 1.02 0 0 Z " fill="#8DC7AB" transform="translate(149,452)"/>
<path d="M0 0 C0.99 0.33 1.98 0.66 3 1 C1.35 5.29 -0.3 9.58 -2 14 C-2.33 14 -2.66 14 -3 14 C-2.88570603 12.22844346 -2.75816963 10.45773771 -2.625 8.6875 C-2.55539063 7.70136719 -2.48578125 6.71523438 -2.4140625 5.69921875 C-2 3 -2 3 0 0 Z " fill="#D0B15E" transform="translate(167,271)"/>
<path d="M0 0 C1.98 0 3.96 0 6 0 C6.66 2.31 7.32 4.62 8 7 C7.236875 6.319375 6.47375 5.63875 5.6875 4.9375 C4.800625 4.298125 3.91375 3.65875 3 3 C-0.0745356 3.7763932 -0.0745356 3.7763932 -2 6 C-2 4.68 -2 3.36 -2 2 C-1.34 2 -0.68 2 0 2 C0 1.34 0 0.68 0 0 Z " fill="#6E8438" transform="translate(272,226)"/>
<path d="M0 0 C1.70754834 2.97465763 2.27317355 5.13860832 2.25 8.5625 C2.25515625 9.32691406 2.2603125 10.09132812 2.265625 10.87890625 C2 13 2 13 0 16 C-0.19441368 13.7089095 -0.38033135 11.41709663 -0.5625 9.125 C-0.71912109 7.21074219 -0.71912109 7.21074219 -0.87890625 5.2578125 C-1 2 -1 2 0 0 Z " fill="#607A42" transform="translate(155,198)"/>
<path d="M0 0 C3.37462715 0.54723683 5.08235 1.0549 8 3 C7.34 4.65 6.68 6.3 6 8 C5.34 8 4.68 8 4 8 C4 7.34 4 6.68 4 6 C3.34 5.67 2.68 5.34 2 5 C2.33 4.01 2.66 3.02 3 2 C2.01 1.67 1.02 1.34 0 1 C0 0.67 0 0.34 0 0 Z " fill="#0D6C41" transform="translate(90,60)"/>
<path d="M0 0 C0.99 0.33 1.98 0.66 3 1 C2.67 1.99 2.34 2.98 2 4 C1.21625 4.309375 0.4325 4.61875 -0.375 4.9375 C-3.35103635 6.14208614 -4.31000453 7.33158609 -6 10 C-6.66 9.67 -7.32 9.34 -8 9 C-6.85459775 7.68712379 -5.70866567 6.37470979 -4.5625 5.0625 C-3.92441406 4.33160156 -3.28632813 3.60070313 -2.62890625 2.84765625 C-1.77458541 1.87860647 -0.91348825 0.91348825 0 0 Z " fill="#8DB35B" transform="translate(180,49)"/>
<path d="M0 0 C0.66 0.99 1.32 1.98 2 3 C-1.92857754 4.85131483 -4.98775112 5.22004943 -9.3125 5.125 C-10.38113281 5.10695313 -11.44976562 5.08890625 -12.55078125 5.0703125 C-13.35902344 5.04710937 -14.16726563 5.02390625 -15 5 C-15 4.67 -15 4.34 -15 4 C-10.05 3.34 -5.1 2.68 0 2 C0 1.34 0 0.68 0 0 Z " fill="#7E8940" transform="translate(271,311)"/>
<path d="M0 0 C4.26086957 6.39130435 4.26086957 6.39130435 3.625 10.3125 C3.41875 10.869375 3.2125 11.42625 3 12 C1.35 11.67 -0.3 11.34 -2 11 C-1.01 10.67 -0.02 10.34 1 10 C0.67 6.7 0.34 3.4 0 0 Z " fill="#738336" transform="translate(252,264)"/>
<path d="M0 0 C1.99785435 4.1205746 2.17835515 7.45194365 2 12 C1.731875 11.443125 1.46375 10.88625 1.1875 10.3125 C-1.65704175 4.40772619 -1.65704175 4.40772619 -7 1 C-2.25 0 -2.25 0 0 0 Z " fill="#D8A54B" transform="translate(189,254)"/>
<path d="M0 0 C0.33 0 0.66 0 1 0 C0.85950482 1.47968324 0.71245174 2.95874516 0.5625 4.4375 C0.48128906 5.26121094 0.40007812 6.08492187 0.31640625 6.93359375 C0 9 0 9 -1 10 C-3.33297433 10.04092937 -5.66705225 10.04241723 -8 10 C-5.8614515 7.8614515 -4.86724686 7.57344937 -2 7 C-1.34 4.69 -0.68 2.38 0 0 Z " fill="#768436" transform="translate(306,239)"/>
<path d="M0 0 C4.61513112 1.31860889 8.09897612 3.21355437 12 6 C10.1875 6.625 10.1875 6.625 8 7 C7.01 6.34 6.02 5.68 5 5 C5 4.34 5 3.68 5 3 C3.35 2.67 1.7 2.34 0 2 C0 1.34 0 0.68 0 0 Z " fill="#186643" transform="translate(133,60)"/>
<path d="M0 0 C0.33 0.66 0.66 1.32 1 2 C0.39351421 3.68949614 -0.27840576 5.35636866 -1 7 C-1.33 7.99 -1.66 8.98 -2 10 C-3.65 10.66 -5.3 11.32 -7 12 C-4.69 8.04 -2.38 4.08 0 0 Z " fill="#88AE55" transform="translate(200,60)"/>
<path d="M0 0 C2.82249951 1.03491649 3.83374226 1.69915265 5.3125 4.375 C6.02770914 7.10579853 5.9659657 8.39189261 5 11 C0 3.5 0 3.5 0 0 Z " fill="#528A58" transform="translate(249,407)"/>
<path d="M0 0 C0.33 0 0.66 0 1 0 C1.33 5.28 1.66 10.56 2 16 C1.34 16 0.68 16 0 16 C-1.30267176 10.49983036 -0.71033431 5.52967941 0 0 Z " fill="#7B8944" transform="translate(367,368)"/>
<path d="M0 0 C0.33 0 0.66 0 1 0 C1.22384382 1.72722728 1.42839969 3.45696007 1.625 5.1875 C1.74101562 6.15042969 1.85703125 7.11335938 1.9765625 8.10546875 C2.00194942 11.24075323 1.34359283 13.19486535 0 16 C-0.33 16 -0.66 16 -1 16 C-0.67 10.72 -0.34 5.44 0 0 Z " fill="#7D883F" transform="translate(369,351)"/>
<path d="M0 0 C0.66 0 1.32 0 2 0 C2.67119549 1.4562545 3.33681807 2.91507867 4 4.375 C4.556875 5.59316406 4.556875 5.59316406 5.125 6.8359375 C6 9 6 9 6 11 C4.68 10.67 3.36 10.34 2 10 C1.34 6.7 0.68 3.4 0 0 Z " fill="#718536" transform="translate(246,252)"/>
<path d="M0 0 C1.29608947 0.93137592 2.58671632 1.8703566 3.875 2.8125 C4.59429687 3.33457031 5.31359375 3.85664062 6.0546875 4.39453125 C8 6 8 6 10 9 C5.61633881 7.80445604 2.84621677 6.6125059 0 3 C0 2.01 0 1.02 0 0 Z " fill="#12623F" transform="translate(107,77)"/>
<path d="M0 0 C0.66 0 1.32 0 2 0 C7 5.47619048 7 5.47619048 7 8 C5.68 7.67 4.36 7.34 3 7 C3 6.34 3 5.68 3 5 C2.34 5 1.68 5 1 5 C0.67 3.35 0.34 1.7 0 0 Z " fill="#F3A03A" transform="translate(234,339)"/>
<path d="M0 0 C0.66 0 1.32 0 2 0 C1.67 1.65 1.34 3.3 1 5 C0.34 5 -0.32 5 -1 5 C-1 5.66 -1 6.32 -1 7 C-2.32 6.67 -3.64 6.34 -5 6 C-5 5.34 -5 4.68 -5 4 C-4.360625 3.71125 -3.72125 3.4225 -3.0625 3.125 C-0.84793921 2.17176549 -0.84793921 2.17176549 0 0 Z " fill="#F59F3E" transform="translate(205,303)"/>
<path d="M0 0 C2.67901932 2.31881505 3.66204403 4.31814468 4.6875 7.6875 C4.93886719 8.49574219 5.19023437 9.30398438 5.44921875 10.13671875 C5.63097656 10.75160156 5.81273437 11.36648438 6 12 C1.6409923 8.51279384 1.05447817 5.27239085 0 0 Z " fill="#738437" transform="translate(322,253)"/>
<path d="M0 0 C0.33 1.32 0.66 2.64 1 4 C-0.32 4 -1.64 4 -3 4 C-4.33333333 2.66666667 -5.66666667 1.33333333 -7 0 C-4.3333581 -1.33332095 -2.83319697 -0.67102033 0 0 Z " fill="#F0A748" transform="translate(194,253)"/>
<path d="M0 0 C4.51617599 -0.07654536 8.59085217 -0.10228696 13 1 C13 1.33 13 1.66 13 2 C11.95199219 2.09087891 11.95199219 2.09087891 10.8828125 2.18359375 C9.97273437 2.26738281 9.06265625 2.35117188 8.125 2.4375 C7.22007812 2.51871094 6.31515625 2.59992188 5.3828125 2.68359375 C2.98889139 2.86989285 2.98889139 2.86989285 1 4 C0.67 2.68 0.34 1.36 0 0 Z " fill="#577B40" transform="translate(159,128)"/>
<path d="M0 0 C0.99 0 1.98 0 3 0 C1.6062718 4.43458973 -0.60582235 6.87378374 -4 10 C-3.67 8.35 -3.34 6.7 -3 5 C-2.01 4.67 -1.02 4.34 0 4 C0 2.68 0 1.36 0 0 Z " fill="#86AF4E" transform="translate(203,46)"/>
<path d="M0 0 C0 0.33 0 0.66 0 1 C-6.66071488 3.13645572 -12.10163546 2.93838047 -19 2 C-19 1.67 -19 1.34 -19 1 C-12.63849395 0.34513908 -6.39628979 -0.12068471 0 0 Z " fill="#8AC09C" transform="translate(208,486)"/>
<path d="M0 0 C2.42130331 2.42130331 2.52840504 3.80111377 3.125 7.125 C3.29257812 8.03507812 3.46015625 8.94515625 3.6328125 9.8828125 C3.81457031 10.93082031 3.81457031 10.93082031 4 12 C3.34 11.67 2.68 11.34 2 11 C2 10.01 2 9.02 2 8 C1.01 7.67 0.02 7.34 -1 7 C-0.67 4.69 -0.34 2.38 0 0 Z " fill="#90C7A8" transform="translate(267,408)"/>
<path d="M0 0 C4.43458973 1.3937282 6.87378374 3.60582235 10 7 C3.25 5.25 3.25 5.25 1 3 C0.67 2.01 0.34 1.02 0 0 Z " fill="#5C7B47" transform="translate(371,402)"/>
<path d="M0 0 C-1.28813342 0.83878455 -2.58063256 1.67086783 -3.875 2.5 C-4.59429687 2.9640625 -5.31359375 3.428125 -6.0546875 3.90625 C-8 5 -8 5 -10 5 C-9.875 3.125 -9.875 3.125 -9 1 C-5.3931275 -0.64661571 -3.8148779 -1.27162597 0 0 Z " fill="#65884C" transform="translate(204,291)"/>
<path d="M0 0 C0.33 0 0.66 0 1 0 C1 2.97 1 5.94 1 9 C-0.32 8.67 -1.64 8.34 -3 8 C-2.67 6.35 -2.34 4.7 -2 3 C-1.34 3 -0.68 3 0 3 C0 2.01 0 1.02 0 0 Z " fill="#527F3B" transform="translate(164,287)"/>
<path d="M0 0 C0.33 0.66 0.66 1.32 1 2 C-1.85276137 4.93200474 -4.65079784 7.64315404 -8 10 C-8.66 9.67 -9.32 9.34 -10 9 C-6.7 6.03 -3.4 3.06 0 0 Z " fill="#94B661" transform="translate(198,34)"/>
<path d="M0 0 C0.33 0.99 0.66 1.98 1 3 C-0.75 6.1875 -0.75 6.1875 -3 9 C-3.99 9 -4.98 9 -6 9 C-5.67 8.34 -5.34 7.68 -5 7 C-4.34 7 -3.68 7 -3 7 C-2.87625 6.401875 -2.7525 5.80375 -2.625 5.1875 C-2 3 -2 3 0 0 Z " fill="#86BA4D" transform="translate(376,450)"/>
<path d="M0 0 C0.33 0 0.66 0 1 0 C1.33 4.62 1.66 9.24 2 14 C1.01 13.67 0.02 13.34 -1 13 C-0.67 8.71 -0.34 4.42 0 0 Z " fill="#7D8843" transform="translate(365,386)"/>
<path d="M0 0 C0.33 0.99 0.66 1.98 1 3 C0.34 3.66 -0.32 4.32 -1 5 C-1.99 5 -2.98 5 -4 5 C-4 5.66 -4 6.32 -4 7 C-4.99 6.67 -5.98 6.34 -7 6 C-4.74259377 3.66475218 -2.7194239 1.81294927 0 0 Z " fill="#D9A34C" transform="translate(204,302)"/>
<path d="M0 0 C0.66 0.33 1.32 0.66 2 1 C0.02 4.63 -1.96 8.26 -4 12 C-4.33 12 -4.66 12 -5 12 C-5 10.35 -5 8.7 -5 7 C-4.01 6.67 -3.02 6.34 -2 6 C-0.77479736 2.99152582 -0.77479736 2.99152582 0 0 Z " fill="#DEBE6D" transform="translate(282,285)"/>
<path d="M0 0 C0.66 0.33 1.32 0.66 2 1 C0.35 4.63 -1.3 8.26 -3 12 C-4.22400998 7.10396009 -3.17036065 5.42419671 -1 1 C-0.67 0.67 -0.34 0.34 0 0 Z " fill="#DBBE6F" transform="translate(240,222)"/>
<path d="M0 0 C0.99 0.33 1.98 0.66 3 1 C2.34 1 1.68 1 1 1 C0.34 3.97 -0.32 6.94 -1 10 C-1.66 10 -2.32 10 -3 10 C-2.25 2.25 -2.25 2.25 0 0 Z " fill="#8EC7A6" transform="translate(260,439)"/>
<path d="M0 0 C0.66 0 1.32 0 2 0 C0.44499019 3.81684226 -2.03595495 6.19195732 -5 9 C-4.34 6.69 -3.68 4.38 -3 2 C-2.01 2 -1.02 2 0 2 C0 1.34 0 0.68 0 0 Z " fill="#DDBF70" transform="translate(319,410)"/>
<path d="M0 0 C0.66 0 1.32 0 2 0 C2.33 0.66 2.66 1.32 3 2 C3.99 2 4.98 2 6 2 C6 4.31 6 6.62 6 9 C2.91910327 6.22719294 1.31224548 3.93673644 0 0 Z " fill="#DBA649" transform="translate(248,362)"/>
<path d="M0 0 C4.43090471 1.20842856 6.98112756 2.51668565 10 6 C9.01 6.33 8.02 6.66 7 7 C5.17578125 5.8203125 5.17578125 5.8203125 3.3125 4.125 C2.68988281 3.57070313 2.06726563 3.01640625 1.42578125 2.4453125 C0 1 0 1 0 0 Z " fill="#6A8748" transform="translate(201,313)"/>
<path d="M0 0 C-0.33 1.65 -0.66 3.3 -1 5 C-3.97 4.505 -3.97 4.505 -7 4 C-7 3.34 -7 2.68 -7 2 C-2.25 0 -2.25 0 0 0 Z " fill="#8FC9A8" transform="translate(211,288)"/>
<path d="M0 0 C2.475 0.495 2.475 0.495 5 1 C4.01 1.33 3.02 1.66 2 2 C2.350625 2.7425 2.70125 3.485 3.0625 4.25 C4.0720098 7.21122875 3.87980884 8.12062561 3 11 C2.49384702 9.73160474 1.99530901 8.46016898 1.5 7.1875 C1.2215625 6.47980469 0.943125 5.77210938 0.65625 5.04296875 C0 3 0 3 0 0 Z " fill="#E5C270" transform="translate(249,253)"/>
<path d="M0 0 C2.97 0.495 2.97 0.495 6 1 C6 1.66 6 2.32 6 3 C2.37 3 -1.26 3 -5 3 C-5 2.67 -5 2.34 -5 2 C-3.35 1.67 -1.7 1.34 0 1 C0 0.67 0 0.34 0 0 Z " fill="#6C9B5A" transform="translate(218,497)"/>
<path d="M0 0 C0.66 0 1.32 0 2 0 C2.0825 0.61875 2.165 1.2375 2.25 1.875 C2.79394438 4.17972859 2.79394438 4.17972859 5 5.0625 C5.66 5.371875 6.32 5.68125 7 6 C7.33 6.99 7.66 7.98 8 9 C3.7938588 7.49780671 2.22833454 4.74041869 0 1 C0 0.67 0 0.34 0 0 Z " fill="#85B84F" transform="translate(329,453)"/>
<path d="M0 0 C1 3 1 3 0.00390625 5.04296875 C-0.47175781 5.75066406 -0.94742188 6.45835937 -1.4375 7.1875 C-1.91058594 7.90292969 -2.38367188 8.61835938 -2.87109375 9.35546875 C-3.24363281 9.89816406 -3.61617187 10.44085938 -4 11 C-4.66 10.67 -5.32 10.34 -6 10 C-4.02 6.7 -2.04 3.4 0 0 Z " fill="#8EC6A4" transform="translate(146,333)"/>
<path d="M0 0 C1.65 0 3.3 0 5 0 C5 1.65 5 3.3 5 5 C3.68 4.67 2.36 4.34 1 4 C0.67 2.68 0.34 1.36 0 0 Z " fill="#657E2E" transform="translate(288,314)"/>
<path d="M0 0 C0.33 0 0.66 0 1 0 C1 2.31 1 4.62 1 7 C-0.65 7.33 -2.3 7.66 -4 8 C-4 7.34 -4 6.68 -4 6 C-3 5 -2 4 -1 3 C-0.67 2.01 -0.34 1.02 0 0 Z " fill="#DFA64B" transform="translate(388,177)"/>
<path d="M0 0 C1.32 0.33 2.64 0.66 4 1 C4.33 2.65 4.66 4.3 5 6 C3.0625 5.25 3.0625 5.25 1 4 C0.25 1.875 0.25 1.875 0 0 Z " fill="#92C8AE" transform="translate(152,460)"/>
<path d="M0 0 C0.33 0.99 0.66 1.98 1 3 C1.66 3 2.32 3 3 3 C3 3.99 3 4.98 3 6 C3.66 6.33 4.32 6.66 5 7 C4.01 7 3.02 7 2 7 C-0.1875 4 -0.1875 4 -2 1 C-1.34 0.67 -0.68 0.34 0 0 Z " fill="#678435" transform="translate(230,297)"/>
<path d="M0 0 C0.99 0.66 1.98 1.32 3 2 C-1.95 3.485 -1.95 3.485 -7 5 C-7 4.34 -7 3.68 -7 3 C-3.6875 1.375 -3.6875 1.375 0 0 Z " fill="#E5C26C" transform="translate(207,284)"/>
<path d="M0 0 C4.875 3.625 4.875 3.625 6 7 C5.34 7 4.68 7 4 7 C3.67 6.34 3.34 5.68 3 5 C2.34 5.99 1.68 6.98 1 8 C0.67 5.36 0.34 2.72 0 0 Z " fill="#95B36A" transform="translate(204,12)"/>
<path d="M0 0 C0 0.66 0 1.32 0 2 C-3.3 2.66 -6.6 3.32 -10 4 C-10 3.34 -10 2.68 -10 2 C-6.38026598 0.68373308 -3.90432869 0 0 0 Z " fill="#8CC2A0" transform="translate(247,491)"/>
<path d="M0 0 C0.33 0 0.66 0 1 0 C1.125 7.625 1.125 7.625 0 11 C-0.66 11 -1.32 11 -2 11 C-1.855625 10.29875 -1.71125 9.5975 -1.5625 8.875 C-0.98521625 5.92443859 -0.48304859 2.96729849 0 0 Z " fill="#768645" transform="translate(162,260)"/>
<path d="M0 0 C0.625 1.875 0.625 1.875 1 4 C0.34 4.66 -0.32 5.32 -1 6 C-1.99 6 -2.98 6 -4 6 C-2.84826645 3.53199953 -1.95216435 1.95216435 0 0 Z " fill="#648033" transform="translate(245,219)"/>
<path d="M0 0 C0.99 0.33 1.98 0.66 3 1 C0.03 3.475 0.03 3.475 -3 6 C-2.625 3.5625 -2.625 3.5625 -2 1 C-1.34 0.67 -0.68 0.34 0 0 Z " fill="#E9BB70" transform="translate(246,215)"/>
<path d="M0 0 C5.75 1.75 5.75 1.75 8 4 C5.69 4 3.38 4 1 4 C0.67 2.68 0.34 1.36 0 0 Z " fill="#1B6646" transform="translate(104,48)"/>
</svg>
