<?xml version="1.0" encoding="UTF-8"?>
<svg version="1.1" xmlns="http://www.w3.org/2000/svg" width="500" height="500">
<path d="M0 0 C1.23427734 -0.02755371 2.46855469 -0.05510742 3.74023438 -0.08349609 C4.79436523 -0.11548096 5.84849609 -0.14746582 6.93457031 -0.18041992 C10.25508435 0.17731978 12.07678193 1.16537202 14.75585938 3.12353516 C16.11914063 5.16650391 16.11914063 5.16650391 17.06835938 7.31103516 C17.55755859 8.38417969 17.55755859 8.38417969 18.05664062 9.47900391 C18.40275391 10.29304688 18.40275391 10.29304688 18.75585938 11.12353516 C26.78145134 11.34782266 34.57667962 10.28920684 42.52734375 9.27783203 C62.00349923 6.95519569 81.67190894 6.96226671 101.25976562 6.95556641 C103.52506022 6.95234008 105.79035461 6.94897507 108.0556488 6.94548035 C112.75560998 6.93955738 117.45555294 6.93763374 122.15551758 6.93823242 C128.14304375 6.93833467 134.13045303 6.92458703 140.11795139 6.90746021 C144.77738473 6.89629554 149.43678994 6.89431444 154.09623528 6.89484215 C156.30358222 6.89367245 158.51093015 6.88930842 160.71826363 6.88150978 C185.24964398 6.80281044 212.579654 8.66819245 231.25585938 26.74853516 C242.61558571 38.41099063 244.94780064 52.55081038 245.38085938 68.18603516 C245.41953125 69.3378125 245.45820313 70.48958984 245.49804688 71.67626953 C245.59151089 74.49187311 245.67727189 77.30748376 245.75585938 80.12353516 C251.62998807 78.87691451 256.32807755 77.07364453 261.50585938 74.06103516 C262.19832764 73.66327881 262.8907959 73.26552246 263.60424805 72.85571289 C275.68361372 65.77864538 287.13409548 56.90835232 296.19335938 46.18603516 C306.26061259 34.40114632 318.07895918 24.4204544 334.00195312 22.33447266 C354.36483892 20.77476226 375.76087338 24.61564398 391.75585938 38.12353516 C399.11136629 46.3560898 402.36614811 53.62855212 402.11523438 64.69384766 C400.86844823 76.59252414 393.59907547 84.75465671 385.75585938 93.12353516 C384.98757813 93.94982422 384.21929687 94.77611328 383.42773438 95.62744141 C378.81976232 100.39288014 373.86978987 104.61067399 368.69335938 108.74462891 C366.65473489 110.39558943 364.6645673 112.0570178 362.69335938 113.78369141 C354.82643145 120.66025755 346.60468902 126.57253322 337.75585938 132.12353516 C337.14484375 132.50751465 336.53382813 132.89149414 335.90429688 133.28710938 C331.57215703 135.98893595 327.18458142 138.58353281 322.75585938 141.12353516 C322.12550781 141.48801758 321.49515625 141.8525 320.84570312 142.22802734 C249.62250194 182.9835258 124.87586282 194.73314655 45.37304688 173.76806641 C37.23758076 171.47492829 29.34545805 168.85823274 21.75195312 165.10400391 C19.63442897 164.00838105 19.63442897 164.00838105 16.75585938 163.12353516 C16.79710937 164.29916016 16.83835938 165.47478516 16.88085938 166.68603516 C16.86625063 170.7983981 16.29746625 174.26951796 14.75585938 178.12353516 C11.63973083 180.23988001 8.99130188 180.37619428 5.28466797 180.38232422 C4.19028412 180.38862854 3.09590027 180.39493286 1.96835327 180.40142822 C0.79221466 180.39737976 -0.38392395 180.3933313 -1.59570312 180.38916016 C-2.80608246 180.39107361 -4.01646179 180.39298706 -5.26351929 180.3949585 C-7.82053841 180.39631908 -10.37756447 180.39263147 -12.93457031 180.38427734 C-16.86083366 180.37355784 -20.78664136 180.38418677 -24.71289062 180.39697266 C-27.19466247 180.3956514 -29.67643404 180.39308972 -32.15820312 180.38916016 C-33.3383902 180.39320862 -34.51857727 180.39725708 -35.73452759 180.40142822 C-37.36664688 180.39197174 -37.36664688 180.39197174 -39.03173828 180.38232422 C-39.99230133 180.38073303 -40.95286438 180.37914185 -41.9425354 180.37750244 C-44.24414062 180.12353516 -44.24414062 180.12353516 -46.24414062 178.12353516 C-46.49582291 175.16839695 -46.49582291 175.16839695 -46.49810791 171.29750061 C-46.50278788 170.23230522 -46.50278788 170.23230522 -46.5075624 169.14559072 C-46.51557161 166.75412247 -46.50920748 164.36290591 -46.50292969 161.97143555 C-46.50563828 160.26174266 -46.50919847 158.55205094 -46.5135498 156.84236145 C-46.52269245 152.18950534 -46.51912167 147.53673761 -46.51279163 142.8838799 C-46.5077405 138.02190357 -46.51242069 133.15993499 -46.51556396 128.29795837 C-46.51920655 120.13083533 -46.51439722 111.96374842 -46.50488281 103.79663086 C-46.49400134 94.34675196 -46.49752043 84.89695938 -46.50853562 75.44708258 C-46.51760452 67.34344558 -46.51889561 59.2398346 -46.51365829 51.13619417 C-46.51053593 46.29201018 -46.51013645 41.44786678 -46.51673126 36.60368538 C-46.52249819 32.04912326 -46.51851982 27.49467265 -46.50694275 22.9401226 C-46.50429251 21.26593588 -46.50506744 19.5917398 -46.50946808 17.91755676 C-46.51491076 15.63709451 -46.50810513 13.35699248 -46.49810791 11.07655334 C-46.49735386 9.79878053 -46.49659981 8.52100771 -46.49582291 7.2045145 C-46.24414062 4.12353516 -46.24414062 4.12353516 -44.24414062 1.12353516 C-41.36015215 0.78438884 -38.68168617 0.63432273 -35.79101562 0.61181641 C-34.93920715 0.5938652 -34.08739868 0.575914 -33.20977783 0.55741882 C-30.47128446 0.50316789 -27.73295903 0.46948821 -24.99414062 0.43603516 C-23.19463665 0.40284891 -21.39515623 0.36835804 -19.59570312 0.33251953 C-15.26774898 0.25000632 -10.94008013 0.19871196 -6.61157227 0.15631104 C-4.40650032 0.12578294 -2.20418293 0.06810236 0 0 Z " fill="#5371FB" transform="translate(71.244140625,295.87646484375)"/>
<path d="M0 0 C1.44923999 -0.00680099 2.89847131 -0.01571783 4.34768677 -0.02655029 C8.22994172 -0.04905037 12.11152116 -0.04063274 15.99378562 -0.02465487 C20.08627151 -0.01184884 24.17870589 -0.02377555 28.27119446 -0.03158569 C35.1358156 -0.04063695 42.00016619 -0.02881101 48.86474609 -0.00488281 C56.76871134 0.02235253 64.67203198 0.01347883 72.5759818 -0.01401484 C79.4019844 -0.03679591 86.22779443 -0.03986328 93.05382282 -0.02682149 C97.11349559 -0.01908029 101.17286652 -0.01783715 105.23251915 -0.03450394 C109.04886169 -0.04908292 112.86438244 -0.03868654 116.68063736 -0.01003265 C118.07003867 -0.00349406 119.45951074 -0.00519353 120.84888268 -0.01634598 C132.40771415 -0.1004855 142.82418844 1.77802944 151.6496582 9.70947266 C159.83449936 18.72182533 164.22777916 30.00457877 163.9621582 42.12353516 C163.63956227 45.37973782 162.91488782 47.21637446 160.7121582 49.64697266 C156.40761067 52.73741704 152.65941806 53.7693297 147.42370605 53.77827454 C146.57415848 53.78228271 145.7246109 53.78629089 144.84931946 53.79042053 C143.92556015 53.78989182 143.00180084 53.7893631 142.05004883 53.78881836 C141.07077927 53.79229279 140.0915097 53.79576721 139.08256531 53.79934692 C136.95728624 53.80669536 134.83199955 53.81204561 132.70671082 53.81563759 C129.34473438 53.82280437 125.98290376 53.83847114 122.62097168 53.85697937 C113.06268263 53.90945007 103.50447503 53.95746048 93.94604492 53.97290039 C88.09929029 53.98296427 82.25290478 54.01224421 76.40629578 54.0542202 C74.17676074 54.06655356 71.94717363 54.07164722 69.71760559 54.06942177 C66.60275642 54.06707694 63.48897303 54.08917196 60.37426758 54.11694336 C59.45050827 54.11034195 58.52674896 54.10374054 57.57499695 54.09693909 C52.52065435 54.14977782 52.52065435 54.14977782 48.13171387 56.46916199 C46.05399312 59.65669632 46.32561013 61.91034128 46.7121582 65.64697266 C47.47770735 68.94861312 47.47770735 68.94861312 48.7121582 71.64697266 C51.73395305 73.15787008 54.8565325 72.7855436 58.1706543 72.77636719 C58.94217331 72.77811951 59.71369232 72.77987183 60.5085907 72.78167725 C63.08428143 72.78610724 65.65990414 72.78314411 68.2355957 72.77978516 C70.05221571 72.78046018 71.86883562 72.78143185 73.68545532 72.78268433 C77.52411749 72.78416467 81.36275653 72.78200445 85.20141602 72.77734375 C90.00598021 72.77178165 94.81048737 72.77493215 99.61504936 72.78078461 C118.37195218 72.80014728 137.11799442 72.71202668 155.8684082 72.18603516 C156.61079113 72.16555241 157.35317406 72.14506966 158.11805344 72.12396622 C199.34582628 70.95454764 224.32557066 58.92856203 252.83081055 29.41870117 C262.99469991 18.95969182 262.99469991 18.95969182 269.7121582 15.64697266 C270.54618164 15.22673828 271.38020508 14.80650391 272.23950195 14.37353516 C282.56417062 11.33974626 292.72772393 13.42853202 302.4621582 17.33447266 C303.30721924 17.67333496 304.15228027 18.01219727 305.02294922 18.36132812 C311.10536419 20.98987252 314.98961162 24.06315278 318.7121582 29.64697266 C318.86318576 38.40657111 314.12798927 42.97016978 308.41137695 49.12353516 C302.5668793 55.1451388 296.26470121 60.42152696 289.7121582 65.64697266 C287.92028256 67.14672301 286.12861652 68.64672382 284.3371582 70.14697266 C273.82630883 78.72239651 262.46277884 85.9184519 250.7121582 92.64697266 C250.11177734 92.99115234 249.51139648 93.33533203 248.89282227 93.68994141 C233.03188781 102.6844094 216.14446897 109.37559347 198.7121582 114.64697266 C197.98125977 114.86981934 197.25036133 115.09266602 196.49731445 115.32226562 C175.38793703 121.63374688 153.53123685 124.02195378 131.61181641 125.44189453 C129.73085236 125.57492558 127.85132824 125.73111335 125.97460938 125.91455078 C114.22674952 127.02004723 102.43776491 126.80056673 90.6496582 126.77197266 C89.44727509 126.76975708 88.24489197 126.7675415 87.006073 126.76525879 C79.25724755 126.74872199 71.5085967 126.71466245 63.7598877 126.6697998 C61.04578218 126.65410279 58.33167712 126.6402649 55.61755371 126.62805176 C47.47480174 126.59071824 39.33278759 126.52939896 31.19046021 126.43743896 C28.60805978 126.41075217 26.02558626 126.39030712 23.44308472 126.37652588 C-1.74316281 126.22818173 -25.45475384 123.48006061 -44.2878418 104.64697266 C-46.2836224 93.06835278 -45.44033838 80.66007055 -45.41821289 68.95483398 C-45.41289178 65.61583838 -45.41816448 62.2769796 -45.42456055 58.93798828 C-45.42872388 52.5067755 -45.37010556 46.0775943 -45.2878418 39.64697266 C-45.27990601 38.64031555 -45.27197021 37.63365845 -45.26379395 36.59649658 C-45.23335377 33.73835218 -45.16858482 30.88313142 -45.0925293 28.02587891 C-45.08730255 27.19128647 -45.08207581 26.35669403 -45.07669067 25.49681091 C-44.83821062 18.89471222 -42.65152766 13.7769732 -37.7585144 9.22389221 C-26.94969061 1.55952583 -12.80901616 -0.09856371 0 0 Z " fill="#FDFEFE" transform="translate(132.287841796875,325.35302734375)"/>
<path d="M0 0 C4.87575592 2.47840534 9.28864006 5.31184543 13.70605469 8.52905273 C15.20410499 9.60287344 16.70284033 10.67573893 18.20214844 11.74780273 C18.99862793 12.31885742 19.79510742 12.88991211 20.61572266 13.47827148 C25.13943623 16.7008822 29.70560116 19.8623707 34.26855469 23.02905273 C36.23601306 24.39622519 38.20346086 25.76341285 40.17089844 27.13061523 C41.15687012 27.81542969 42.1428418 28.50024414 43.15869141 29.20581055 C48.05057869 32.60364359 52.94108339 36.00346303 57.83105469 39.40405273 C59.25744263 40.39586548 59.25744263 40.39586548 60.71264648 41.40771484 C67.01117544 45.78946426 73.29868309 50.18667847 79.58105469 54.59155273 C85.41608813 58.68240927 91.26502873 62.75094073 97.14355469 66.77905273 C103.92966749 71.42944766 110.68082449 76.12841658 117.40966797 80.86132812 C121.80332177 83.95057634 126.21130204 87.01460965 130.65136719 90.03686523 C131.55016602 90.65327881 132.44896484 91.26969238 133.375 91.90478516 C135.08515286 93.07684319 136.80035063 94.24158834 138.52148438 95.39746094 C150.06987858 103.34801279 150.06987858 103.34801279 151.87011719 109.93920898 C151.63557197 115.48710556 151.01553034 118.99950069 147.14355469 123.27905273 C142.63446576 127.05410393 137.96616945 128.82177932 132.14355469 129.27905273 C128.39355469 128.46655273 128.39355469 128.46655273 125.14355469 127.27905273 C123.48097991 126.92587572 121.81475616 126.58885029 120.14355469 126.27905273 C120.14300992 127.01197226 120.14246515 127.74489178 120.14190388 128.50002098 C120.12691378 146.36239222 120.08437704 164.2245054 120.01146412 182.08673668 C119.97686243 190.72492653 119.95146494 199.36295761 119.94799805 208.0012207 C119.94495142 215.53341869 119.92436748 223.06533354 119.88303012 230.59742224 C119.86176142 234.5829095 119.84906768 238.56799486 119.85740089 242.55353928 C119.8649803 246.31140226 119.84896273 250.06845356 119.81549454 253.82616806 C119.8034287 255.84955561 119.81579959 257.87304364 119.82911682 259.89642334 C119.7101952 269.42871977 117.70750646 276.58756256 111.20605469 283.71655273 C107.61726167 287.02014365 103.81208319 290.08938599 100.01855469 293.15405273 C99.42051025 293.64317139 98.82246582 294.13229004 98.20629883 294.63623047 C94.98729438 297.17218551 92.40821639 299.17281561 88.14355469 299.27905273 C85.31213044 296.44762849 85.68719912 293.57945035 85.52841187 289.77275085 C85.4908331 289.01359711 85.45325434 288.25444337 85.41453683 287.47228497 C85.03296284 279.10989746 84.99107341 270.74938245 84.98583984 262.37988281 C84.98115551 260.6629931 84.97600938 258.94610461 84.97044373 257.22921753 C84.95928625 253.57139519 84.95079449 249.91358041 84.94432449 246.25574684 C84.93352956 240.468457 84.9132628 234.68122319 84.89120483 228.89396667 C84.82963995 212.45130948 84.77514168 196.00865949 84.7421875 179.56591797 C84.72384895 170.45487376 84.69494183 161.34392742 84.65418279 152.23295516 C84.63313769 147.42298196 84.61765865 142.61313179 84.61537552 137.80311012 C84.61323018 133.29094915 84.59737277 128.77904631 84.57098579 124.26696396 C84.56379297 122.61338791 84.56169176 120.9597806 84.56508827 119.3061924 C84.56898746 117.04711022 84.55451614 114.7888509 84.53555298 112.52986145 C84.53058776 110.63551219 84.53058776 110.63551219 84.52552223 108.70289326 C83.76412285 101.87794153 80.46611728 98.22720669 75.4140625 94.02905273 C71.57937578 91.07345764 67.57853154 88.41293625 63.51855469 85.77905273 C61.64936422 84.54964896 59.7808975 83.31914421 57.91308594 82.08764648 C56.95869629 81.45971191 56.00430664 80.83177734 55.02099609 80.18481445 C50.38567363 77.11478839 45.79497966 73.9803478 41.20605469 70.84155273 C40.3045166 70.22538086 39.40297852 69.60920898 38.47412109 68.97436523 C36.63669253 67.71829398 34.79945395 66.46194477 32.96240234 65.20532227 C30.04972568 63.21493435 27.13418095 61.22881329 24.21777344 59.24389648 C23.24251709 58.57994873 22.26726074 57.91600098 21.26245117 57.23193359 C19.41717941 55.9758423 17.57165929 54.72011573 15.72583008 53.46484375 C14.87883545 52.88790771 14.03184082 52.31097168 13.15917969 51.71655273 C12.32966797 51.15709961 11.50015625 50.59764648 10.64550781 50.02124023 C8.92036319 48.81996857 7.22737404 47.57163089 5.56347656 46.28686523 C0.287471 42.15841894 0.287471 42.15841894 -6.05957031 40.58374023 C-10.33924239 41.36746619 -13.17799008 42.86547726 -16.60644531 45.40405273 C-17.23494385 45.84563721 -17.86344238 46.28722168 -18.51098633 46.7421875 C-19.89161607 47.71458176 -21.26647854 48.69520312 -22.63623047 49.68286133 C-24.98022404 51.36804166 -27.34309764 53.02349703 -29.71191406 54.67358398 C-33.13261053 57.05671224 -36.54777493 59.44738089 -39.95800781 61.84545898 C-44.17703546 64.8082593 -48.41571264 67.74063798 -52.66894531 70.65405273 C-59.35126471 75.23572062 -66.01420215 79.84492146 -72.66894531 84.46655273 C-73.61165283 85.11994629 -74.55436035 85.77333984 -75.52563477 86.4465332 C-77.37491291 87.73207221 -79.22042686 89.02304414 -81.06201172 90.31958008 C-82.995334 91.67523661 -84.94127179 93.01301354 -86.89697266 94.33618164 C-87.87746582 95.01471191 -88.85795898 95.69324219 -89.86816406 96.39233398 C-90.75334717 96.994729 -91.63853027 97.59712402 -92.55053711 98.21777344 C-96.52176027 101.76769797 -97.95866903 105.34424798 -98.27294922 110.57739258 C-98.3080538 112.29801684 -98.32680959 114.01901907 -98.33300781 115.73999023 C-98.34813416 116.71430496 -98.3632605 117.68861969 -98.37884521 118.69245911 C-98.41001909 120.85725463 -98.43415621 123.0221596 -98.45233154 125.18710327 C-98.48205169 128.72626198 -98.53010875 132.2648051 -98.58154297 135.80371094 C-98.77063777 149.67502368 -98.86895519 163.54705715 -98.96162605 177.41930008 C-99.02005825 186.14266961 -99.08721387 194.86595298 -99.15812492 203.58922958 C-99.21030563 210.16638943 -99.24734565 216.74342856 -99.27354431 223.3207407 C-99.29298475 227.4800067 -99.32458835 231.63911982 -99.35919952 235.79828453 C-99.37288654 237.75786098 -99.38138333 239.7174812 -99.38445282 241.67710304 C-99.38935896 244.3808948 -99.41248312 247.08395441 -99.43994141 249.78759766 C-99.43543693 250.97534066 -99.43543693 250.97534066 -99.43084145 252.18707848 C-99.49925431 256.71257449 -99.98333558 259.71960031 -102.85644531 263.27905273 C-109.6851108 267.01549234 -117.20361927 267.21165519 -124.85644531 266.27905273 C-129.48731174 264.01731988 -129.48731174 264.01731988 -130.85644531 261.27905273 C-130.97878081 258.83734523 -131.04211521 256.42230459 -131.06176758 253.97924805 C-131.07166434 253.22299039 -131.08156111 252.46673273 -131.09175777 251.68755817 C-131.12354673 249.16079702 -131.14825985 246.63401844 -131.17285156 244.10717773 C-131.19352403 242.3274646 -131.21456763 240.54775575 -131.23596191 238.76805115 C-131.29178719 234.00455981 -131.34111741 229.24102197 -131.38887405 224.4774437 C-131.41881614 221.54171743 -131.45063136 218.60601768 -131.48312378 215.6703186 C-131.79779593 187.20621392 -132.01363582 158.74504407 -131.85644531 130.27905273 C-133.18796631 130.09076904 -133.18796631 130.09076904 -134.54638672 129.89868164 C-135.71347168 129.72771973 -136.88055664 129.55675781 -138.08300781 129.38061523 C-139.81671631 129.13045654 -139.81671631 129.13045654 -141.58544922 128.87524414 C-150.05059238 127.33233627 -154.78388162 123.07187716 -159.85644531 116.27905273 C-161.43969288 113.1125576 -161.50018767 109.70447079 -160.85644531 106.27905273 C-157.9828406 100.75793911 -154.38052015 98.34059807 -149.16894531 95.34155273 C-147.72805198 94.47522983 -146.28923339 93.60544653 -144.85253906 92.73217773 C-144.16272949 92.31387695 -143.47291992 91.89557617 -142.76220703 91.46459961 C-134.65216977 86.41946242 -126.34430026 80.00670135 -123.31738281 70.58764648 C-121.94292064 63.70368765 -122.7873261 56.49873212 -123.16113281 49.53686523 C-123.21301758 48.51794189 -123.26490234 47.49901855 -123.31835938 46.44921875 C-123.42551241 44.40737598 -123.54430105 42.3661043 -123.67578125 40.32568359 C-123.72766602 39.37314697 -123.77955078 38.42061035 -123.83300781 37.43920898 C-123.88537598 36.58979736 -123.93774414 35.74038574 -123.99169922 34.86523438 C-123.82856266 31.7459103 -122.94621125 29.19262245 -121.85644531 26.27905273 C-116.80279239 26.18008092 -111.74970507 26.10753671 -106.6953125 26.05932617 C-104.97646252 26.03922646 -103.25768079 26.01194185 -101.5390625 25.97729492 C-99.06656042 25.9287024 -96.59496321 25.90606839 -94.12207031 25.88842773 C-92.97185394 25.85746002 -92.97185394 25.85746002 -91.79840088 25.8258667 C-88.26726857 25.82438589 -86.25383142 25.9866056 -83.37133789 28.10791016 C-81.30743966 31.06588711 -81.35498986 33.26434206 -81.29394531 36.84155273 C-81.37167927 41.37461543 -81.37167927 41.37461543 -79.32910156 45.18139648 C-78.843125 45.54362305 -78.35714844 45.90584961 -77.85644531 46.27905273 C-66.78608924 38.71008788 -55.7977911 31.03311527 -44.85644531 23.27905273 C-36.25483055 17.18314277 -27.64491702 11.09937249 -18.98144531 5.09155273 C-18.30911865 4.62160889 -17.63679199 4.15166504 -16.9440918 3.66748047 C-11.59719603 -0.02381604 -6.53554111 -2.53806587 0 0 Z " fill="#FEFEFE" transform="translate(265.8564453125,23.720947265625)"/>
<path d="M0 0 C5.62932974 3.53906781 9.47835806 8.76013927 13.4296875 13.99609375 C16.71676799 18.19080094 20.38844759 20.2097438 25.125 22.4375 C28.09048253 23.89376374 29.87223425 24.8609608 32.125 27.3125 C33.67961334 32.08738383 33.77618202 36.16167416 31.8125 40.8125 C29.59438127 43.48953985 28.2379555 44.6473293 25 46 C21.68027601 45.78699617 18.53400683 44.98988274 15.3125 44.1875 C3.4291532 41.06517271 3.4291532 41.06517271 -8.0625 43.6875 C-10.24615372 46.29379637 -11.08528044 47.5887826 -11 51 C-8.29875305 54.1780532 -5.4676861 56.02471302 -1.78125 57.91796875 C-0.77175293 58.44559814 0.23774414 58.97322754 1.27783203 59.5168457 C2.87280518 60.34381958 2.87280518 60.34381958 4.5 61.1875 C32.76694626 76.20444667 32.76694626 76.20444667 37.52734375 90.7421875 C39.33651836 99.38436041 38.35153013 107.32950622 34 115 C28.5501407 123.23757534 21.54265576 129.28559338 13.3828125 134.75390625 C9.86539442 138.06950526 8.83848329 142.11733211 7.41601562 146.59960938 C6.16674117 150.14332592 5.25998332 151.82256227 2.12109375 153.96484375 C-0.94526197 154.98184533 -2.82808469 155.56958611 -6 155 C-11.0109712 151.08970456 -14.28481338 145.7233731 -17.125 140.125 C-18.82820049 136.86393879 -19.70639849 135.21849415 -22.6875 133 C-24.67490321 132.40002922 -26.67184637 131.82886009 -28.68359375 131.31640625 C-29.65425781 131.06761719 -30.62492188 130.81882812 -31.625 130.5625 C-33.00558594 130.25505859 -33.00558594 130.25505859 -34.4140625 129.94140625 C-38.09064584 128.60295219 -40.25631397 126.48737206 -42 123 C-41.95713886 117.04230145 -41.44753304 110.44753304 -37 106 C-31.552283 105.63681887 -27.09714915 106.12870793 -21.8125 107.5 C-12.62625509 109.76421529 -3.41321402 110.92895367 5 106 C7.84076177 103.34862234 7.98901468 102.21970648 8.1875 98.25 C8.0946875 96.64125 8.0946875 96.64125 8 95 C7.13737549 94.72760498 6.27475098 94.45520996 5.38598633 94.17456055 C0.24577088 92.39147766 -4.59050632 90.02621238 -9.49389648 87.67944336 C-11.29242011 86.82207225 -13.09834017 85.98027323 -14.90429688 85.13867188 C-25.70327849 79.98175387 -37.3002937 73.43659166 -41.9375 61.75 C-44.26009352 53.55833784 -42.70669195 45.82350552 -38.63671875 38.4765625 C-33.68784743 30.98829421 -27.78265658 25.37214827 -20.1640625 20.66796875 C-15.11304243 16.774854 -13.49678267 10.40349599 -11.28125 4.64453125 C-8.78235602 -0.51324686 -5.27789596 -0.77870596 0 0 Z " fill="#FEFEFE" transform="translate(259,133)"/>
<path d="M0 0 C1.85625 -0.01160156 1.85625 -0.01160156 3.75 -0.0234375 C7 0.375 7 0.375 8.91015625 1.3984375 C10.66186791 4.57537692 10.47206747 7.84283264 10.4375 11.375 C10.4674707 12.46167969 10.4674707 12.46167969 10.49804688 13.5703125 C10.49508058 16.78577361 10.45268791 18.83455699 8.34765625 21.34765625 C5.42858051 22.62505545 3.18458517 22.80851927 0 22.8125 C-1.03125 22.83183594 -2.0625 22.85117187 -3.125 22.87109375 C-6 22.375 -6 22.375 -8.34765625 20.8203125 C-10.65402796 17.40710047 -10.49740213 14.89782557 -10.4375 10.8125 C-10.44458984 10.14025391 -10.45167969 9.46800781 -10.45898438 8.77539062 C-10.42347161 6.02451714 -10.2699467 3.8558728 -8.91015625 1.43359375 C-5.95368695 -0.20485856 -3.34872484 -0.02092953 0 0 Z " fill="#F9FCFE" transform="translate(56,314.625)"/>
<path d="M0 0 C0 0.66 0 1.32 0 2 C-5.71636404 3.95508532 -10.72933516 4.26019616 -16.74316406 4.17944336 C-18.1712439 4.17265312 -18.1712439 4.17265312 -19.62817383 4.16572571 C-21.68468233 4.15480865 -23.74117068 4.13933339 -25.79761505 4.11976433 C-29.05030061 4.08952134 -32.30280585 4.07277167 -35.55560303 4.05970764 C-44.79990182 4.02000676 -54.04398135 3.95465095 -63.28808594 3.88354492 C-68.95007374 3.84091884 -74.61198921 3.81277222 -80.27410126 3.79324532 C-82.43195954 3.78265976 -84.58979722 3.76624175 -86.74756622 3.74394035 C-89.75661358 3.71287051 -92.76523139 3.69999661 -95.77441406 3.69116211 C-96.6690033 3.67723419 -97.56359253 3.66330627 -98.48529053 3.6489563 C-99.3038855 3.65018997 -100.12248047 3.65142365 -100.96588135 3.6526947 C-101.67670994 3.64733169 -102.38753853 3.64196867 -103.11990738 3.63644314 C-105.54173599 4.10475645 -106.31355384 5.2631193 -108 7 C-108.99 7 -109.98 7 -111 7 C-109.25 3.125 -109.25 3.125 -107 2 C-105.65352002 1.89905032 -104.30228287 1.85794282 -102.95205688 1.84851074 C-101.68185951 1.83599525 -101.68185951 1.83599525 -100.38600159 1.82322693 C-99.45505173 1.81904251 -98.52410187 1.81485809 -97.56494141 1.81054688 C-96.09647514 1.79810692 -96.09647514 1.79810692 -94.5983429 1.78541565 C-92.4675828 1.76798942 -90.33680326 1.75282969 -88.20601273 1.73963928 C-84.83580719 1.71865189 -81.46569897 1.69162484 -78.09555054 1.66296387 C-70.93873758 1.60319431 -63.7818795 1.55108724 -56.625 1.5 C-48.34062671 1.44080115 -40.05630115 1.37849484 -31.77201462 1.30812073 C-28.44833651 1.28152426 -25.1246537 1.26072081 -21.80093384 1.2401123 C-19.76523612 1.22350866 -17.72954056 1.20663677 -15.69384766 1.18945312 C-14.76694626 1.18526871 -13.84004486 1.18108429 -12.88505554 1.17677307 C-11.6063987 1.16425758 -11.6063987 1.16425758 -10.3019104 1.15148926 C-9.19412452 1.14375866 -9.19412452 1.14375866 -8.06395912 1.13587189 C-5.28956387 0.95323149 -2.77507281 0 0 0 Z " fill="#6079E2" transform="translate(290,377)"/>
<path d="M0 0 C2.22019958 0.31021118 2.22019958 0.31021118 5 1 C17.13071691 3.09238477 29.08741934 3.34114557 41.37109375 3.4140625 C43.38990533 3.43281602 45.40870943 3.45239239 47.42750549 3.4727478 C52.68966207 3.52363361 57.95184394 3.56348971 63.21411133 3.60089111 C68.60439078 3.64120696 73.994569 3.6921721 79.38476562 3.7421875 C89.92310552 3.83842968 100.46150317 3.92299652 111 4 C111 4.33 111 4.66 111 5 C29.78412822 7.07397228 29.78412822 7.07397228 -2 2 C-1.34 1.34 -0.68 0.68 0 0 Z " fill="#5A70D9" transform="translate(124,469)"/>
<path d="M0 0 C7.46875573 6.1883976 10.55840197 15.64311418 12 25 C12.35471082 29.35153548 12.50413856 33.69889833 12.625 38.0625 C12.66367187 39.21427734 12.70234375 40.36605469 12.7421875 41.55273438 C12.83565152 44.36833796 12.92141252 47.1839486 13 50 C15.64 49.67 18.28 49.34 21 49 C21 49.66 21 50.32 21 51 C19.52093108 51.02689216 18.04172517 51.04634621 16.5625 51.0625 C15.32693359 51.07990234 15.32693359 51.07990234 14.06640625 51.09765625 C12 51 12 51 11 50 C10.85469013 48.30571693 10.77283477 46.60589258 10.71875 44.90625 C10.68136719 43.87628906 10.64398438 42.84632813 10.60546875 41.78515625 C10.53515625 39.59505208 10.46484375 37.40494792 10.39453125 35.21484375 C10.35714844 34.18488281 10.31976563 33.15492188 10.28125 32.09375 C10.25095703 31.14177734 10.22066406 30.18980469 10.18945312 29.20898438 C10.24114598 27.02644685 10.24114598 27.02644685 9 26 C8.81547667 24.60875265 8.67730342 23.21122736 8.5625 21.8125 C8.18215548 17.97224731 7.3924327 14.62032502 6 11 C5.34 11 4.68 11 4 11 C3.34 11.66 2.68 12.32 2 13 C1.93941406 12.31292969 1.87882812 11.62585938 1.81640625 10.91796875 C1.73261719 10.01691406 1.64882813 9.11585938 1.5625 8.1875 C1.48128906 7.29417969 1.40007812 6.40085937 1.31640625 5.48046875 C1.06510233 2.87256441 1.06510233 2.87256441 0 0 Z " fill="#5B70DD" transform="translate(304,326)"/>
<path d="M0 0 C2.22855574 -0.0814222 4.45797655 -0.13938079 6.6875 -0.1875 C8.54955078 -0.23970703 8.54955078 -0.23970703 10.44921875 -0.29296875 C14.27074938 0.02233906 16.02877223 0.62301778 19 3 C20.36328125 5.04296875 20.36328125 5.04296875 21.3125 7.1875 C21.80169922 8.26064453 21.80169922 8.26064453 22.30078125 9.35546875 C22.53152344 9.89816406 22.76226562 10.44085938 23 11 C28.39812523 11.09607342 33.45263087 10.76951262 38.8125 10 C45.24253794 9.12084613 51.50173122 8.75218467 58 9 C58 9.66 58 10.32 58 11 C57.16021606 11.03758423 57.16021606 11.03758423 56.3034668 11.07592773 C53.76458695 11.19203745 51.22606447 11.3146958 48.6875 11.4375 C47.36588867 11.49647461 47.36588867 11.49647461 46.01757812 11.55664062 C44.74624023 11.61948242 44.74624023 11.61948242 43.44921875 11.68359375 C42.66893311 11.72025146 41.88864746 11.75690918 41.0847168 11.79467773 C38.80670899 11.94125263 38.80670899 11.94125263 36 13 C33.42734182 13.07029121 30.88358569 13.09370832 28.3125 13.0625 C27.61060547 13.05798828 26.90871094 13.05347656 26.18554688 13.04882812 C24.45699462 13.03706927 22.72848635 13.01913454 21 13 C20.75765625 12.36191406 20.5153125 11.72382813 20.265625 11.06640625 C19.76289062 9.82697266 19.76289062 9.82697266 19.25 8.5625 C18.76273438 7.32693359 18.76273438 7.32693359 18.265625 6.06640625 C17.18068448 3.8150121 17.18068448 3.8150121 14.859375 3.21484375 C13.93898438 3.10849609 13.93898438 3.10849609 13 3 C13 2.34 13 1.68 13 1 C8.71 1 4.42 1 0 1 C0 0.67 0 0.34 0 0 Z " fill="#5C70D5" transform="translate(67,296)"/>
<path d="M0 0 C0 3.68553144 -0.8522582 5.03759752 -3 8 C-5.5 9.625 -5.5 9.625 -8 11 C-8.515625 11.53625 -9.03125 12.0725 -9.5625 12.625 C-11 14 -11 14 -12.9375 14.375 C-15.28446734 14.86897096 -15.28446734 14.86897096 -16.9375 17.5 C-19 20 -19 20 -21.75 20.8125 C-22.4925 20.874375 -23.235 20.93625 -24 21 C-24.33 21.99 -24.66 22.98 -25 24 C-27.06640625 24.94921875 -27.06640625 24.94921875 -29.5625 25.6875 C-30.38878906 25.93886719 -31.21507812 26.19023437 -32.06640625 26.44921875 C-32.70449219 26.63097656 -33.34257812 26.81273437 -34 27 C-31.21179669 23.91198988 -27.82912619 21.67653909 -24.4375 19.3125 C-15.92274516 13.3036385 -7.86360874 6.83792064 0 0 Z " fill="#6278E9" transform="translate(429,384)"/>
<path d="M0 0 C0.66 0 1.32 0 2 0 C1.75 3.375 1.75 3.375 1 7 C-2.07360584 9.18818571 -4.80715001 9.2440039 -8.50292969 9.22705078 C-9.60376892 9.22689972 -10.70460815 9.22674866 -11.83880615 9.22659302 C-13.02121887 9.21627045 -14.20363159 9.20594788 -15.421875 9.1953125 C-17.24455902 9.19106766 -17.24455902 9.19106766 -19.10406494 9.18673706 C-22.98614335 9.17553954 -26.86799129 9.15043534 -30.75 9.125 C-33.38150709 9.11496966 -36.01301779 9.10584391 -38.64453125 9.09765625 C-45.09643284 9.07560157 -51.54819995 9.04212804 -58 9 C-58.33 8.34 -58.66 7.68 -59 7 C-40.85 7.33 -22.7 7.66 -4 8 C-4 7.34 -4 6.68 -4 6 C-3 5 -2 4 -1 3 C-0.67 2.01 -0.34 1.02 0 0 Z " fill="#576DD5" transform="translate(85,467)"/>
<path d="M0 0 C5.75 1.875 5.75 1.875 8 3 C8 2.34 8 1.68 8 1 C8.99 1 9.98 1 11 1 C11 1.66 11 2.32 11 3 C28.16 3 45.32 3 63 3 C63 3.33 63 3.66 63 4 C55.2288073 4.04632557 47.45764691 4.08187029 39.68635082 4.10362434 C36.07787895 4.11406482 32.46950151 4.12822873 28.86108398 4.15087891 C25.37923058 4.17259804 21.89746805 4.18456664 18.41555214 4.18975449 C16.43961717 4.19525227 14.46371878 4.21086668 12.48783875 4.22659302 C11.28682022 4.22674408 10.0858017 4.22689514 8.84838867 4.22705078 C7.78915695 4.231492 6.72992523 4.23593323 5.63859558 4.24050903 C3 4 3 4 0 2 C0 1.34 0 0.68 0 0 Z " fill="#5F75DF" transform="translate(180,395)"/>
<path d="M0 0 C0 0.33 0 0.66 0 1 C-2.12493141 1.02693575 -4.24995912 1.04636628 -6.375 1.0625 C-7.55835938 1.07410156 -8.74171875 1.08570313 -9.9609375 1.09765625 C-13 1 -13 1 -15 0 C-16.51845202 -0.09472912 -18.04110384 -0.1298841 -19.5625 -0.125 C-20.36816406 -0.12757813 -21.17382812 -0.13015625 -22.00390625 -0.1328125 C-23.99942021 -0.22011391 -23.99942021 -0.22011391 -25 1 C-26.68608966 1.07205511 -28.37500659 1.08386068 -30.0625 1.0625 C-30.98160156 1.05347656 -31.90070313 1.04445313 -32.84765625 1.03515625 C-33.55792969 1.02355469 -34.26820313 1.01195312 -35 1 C-35 1.66 -35 2.32 -35 3 C-39.455 3.495 -39.455 3.495 -44 4 C-32.9013831 -5.6875458 -13.21523975 -2.42243347 0 0 Z " fill="#5970D9" transform="translate(434,320)"/>
<path d="M0 0 C0.90720795 0.00141495 1.81441589 0.0028299 2.74911499 0.00428772 C5.65308905 0.00989529 8.55698665 0.02244907 11.4609375 0.03515625 C13.42708222 0.04017027 15.39322815 0.04473335 17.359375 0.04882812 C22.1849254 0.05986719 27.01041847 0.0771369 31.8359375 0.09765625 C31.8359375 0.42765625 31.8359375 0.75765625 31.8359375 1.09765625 C30.67022217 1.11223877 29.50450684 1.12682129 28.3034668 1.1418457 C23.98137628 1.19978742 19.65980903 1.27702019 15.33813477 1.36010742 C13.46712736 1.39337627 11.59601912 1.4214021 9.72485352 1.4440918 C7.03618367 1.47760213 4.34843952 1.5299149 1.66015625 1.5859375 C0.40376595 1.59552238 0.40376595 1.59552238 -0.87800598 1.6053009 C-5.32415227 1.71804709 -7.12287699 1.9921295 -10.1640625 5.09765625 C-11.1540625 5.09765625 -12.1440625 5.09765625 -13.1640625 5.09765625 C-10.34199408 -1.15120955 -6.26625726 -0.03648263 0 0 Z " fill="#5D72DF" transform="translate(192.1640625,378.90234375)"/>
<path d="M0 0 C12.22627737 -0.18248175 12.22627737 -0.18248175 17 3 C17.6875 5.125 17.6875 5.125 18 7 C13.94180817 6.34496718 10.46028718 5.05440879 6.6875 3.4375 C5.61886719 2.98246094 4.55023438 2.52742188 3.44921875 2.05859375 C2.64097656 1.70925781 1.83273438 1.35992187 1 1 C1 3.64 1 6.28 1 9 C0.67 9 0.34 9 0 9 C0 6.03 0 3.06 0 0 Z " fill="#5A6EE3" transform="translate(87,458)"/>
<path d="M0 0 C5.01656959 1.4333056 7.01452882 3.90563952 10 8 C10 8.66 10 9.32 10 10 C10.66 10 11.32 10 12 10 C12.70133599 11.57725347 13.385583 13.16211333 14.0625 14.75 C14.44535156 15.63171875 14.82820313 16.5134375 15.22265625 17.421875 C16.04600008 20.15256309 15.9773992 21.36901347 15 24 C14.68546875 23.27554687 14.3709375 22.55109375 14.046875 21.8046875 C10.35945094 13.47466326 6.03046966 6.79432915 0 0 Z M15 9 C15 9.99 15 10.98 15 12 C14.34 11.67 13.68 11.34 13 11 C13.66 10.34 14.32 9.68 15 9 Z " fill="#647AE8" transform="translate(279,331)"/>
<path d="M0 0 C1.90845703 0.04060547 1.90845703 0.04060547 3.85546875 0.08203125 C5.31919922 0.13423828 5.31919922 0.13423828 6.8125 0.1875 C6.8125 0.5175 6.8125 0.8475 6.8125 1.1875 C6.12542969 1.28546875 5.43835937 1.3834375 4.73046875 1.484375 C3.82941406 1.63390625 2.92835937 1.7834375 2 1.9375 C1.10667969 2.07671875 0.21335937 2.2159375 -0.70703125 2.359375 C-3.81068131 3.39555423 -4.65429346 4.31765185 -6.1875 7.1875 C-6.75979868 9.99633637 -6.75979868 9.99633637 -6.875 12.9375 C-6.94074219 13.92234375 -7.00648437 14.9071875 -7.07421875 15.921875 C-7.11160156 16.66953125 -7.14898437 17.4171875 -7.1875 18.1875 C-7.5175 18.1875 -7.8475 18.1875 -8.1875 18.1875 C-8.1875 13.5675 -8.1875 8.9475 -8.1875 4.1875 C-8.8475 3.8575 -9.5075 3.5275 -10.1875 3.1875 C-7.45798749 -0.67846382 -4.44588996 -0.12236394 0 0 Z " fill="#5872EE" transform="translate(52.1875,312.8125)"/>
<path d="M0 0 C3.13267652 2.56309897 3.93385221 5.15002186 5 9 C5.265625 12.32421875 5.265625 12.32421875 5.25 15.6875 C5.25515625 16.80511719 5.2603125 17.92273438 5.265625 19.07421875 C5 22 5 22 3 25 C3 19.06 3 13.12 3 7 C2.01 7 1.02 7 0 7 C0 4.69 0 2.38 0 0 Z " fill="#5C6FDD" transform="translate(468,342)"/>
<path d="M0 0 C0.66 0.33 1.32 0.66 2 1 C0.16559499 6.50321502 -5.20388304 9.17152077 -10 12 C-11.68477344 13.31037934 -13.35648543 14.63823078 -15 16 C-15.66 15.67 -16.32 15.34 -17 15 C-11.39476999 9.92484204 -5.76774721 4.89004655 0 0 Z " fill="#5B70DA" transform="translate(364,346)"/>
<path d="M0 0 C7.49440349 0.4996269 13.95650263 2.43764478 21 5 C17.2578125 6.0703125 17.2578125 6.0703125 14.9375 5.4375 C14.298125 5.293125 13.65875 5.14875 13 5 C12.01 5.66 11.02 6.32 10 7 C9.46375 6.38125 8.9275 5.7625 8.375 5.125 C5.68896977 2.7217098 3.44585438 1.93977847 0 1 C0 0.67 0 0.34 0 0 Z " fill="#586EDE" transform="translate(261,305)"/>
<path d="M0 0 C6.93 0.495 6.93 0.495 14 1 C14 1.33 14 1.66 14 2 C12.76636719 2.02126953 12.76636719 2.02126953 11.5078125 2.04296875 C4.33955661 2.34923372 -0.80045505 3.32519058 -6.9765625 7.0390625 C-9 8 -9 8 -12 7 C-11.01 6.67 -10.02 6.34 -9 6 C-9 5.34 -9 4.68 -9 4 C-6.03 3.34 -3.06 2.68 0 2 C0 1.34 0 0.68 0 0 Z " fill="#6F83EA" transform="translate(406,337)"/>
<path d="M0 0 C2.31 0 4.62 0 7 0 C3.69504523 2.20330318 0.87667528 3.04438371 -2.9375 4.125 C-4.16339844 4.47820312 -5.38929688 4.83140625 -6.65234375 5.1953125 C-10 6 -10 6 -14 6 C-14 5.34 -14 4.68 -14 4 C-12.02 4 -10.04 4 -8 4 C-8 3.34 -8 2.68 -8 2 C-5.36 2 -2.72 2 0 2 C0 1.34 0 0.68 0 0 Z " fill="#5C74E1" transform="translate(345,455)"/>
<path d="M0 0 C0.99 0.33 1.98 0.66 3 1 C-0.63 4.3 -4.26 7.6 -8 11 C-8.33 10.01 -8.66 9.02 -9 8 C-7.6875 5.8125 -7.6875 5.8125 -6 4 C-5.34 4 -4.68 4 -4 4 C-3.67 3.01 -3.34 2.02 -3 1 C-2.01 1.33 -1.02 1.66 0 2 C0 1.34 0 0.68 0 0 Z " fill="#5D71E7" transform="translate(449,393)"/>
<path d="M0 0 C0.33 0.66 0.66 1.32 1 2 C0.34 2 -0.32 2 -1 2 C-1.33 2.99 -1.66 3.98 -2 5 C-3.79935728 6.62531648 -5.66272568 8.18078244 -7.5625 9.6875 C-9.08037109 10.89986328 -9.08037109 10.89986328 -10.62890625 12.13671875 C-11.41136719 12.75160156 -12.19382812 13.36648438 -13 14 C-13.66 13.67 -14.32 13.34 -15 13 C-13.44395612 11.38957012 -11.87987244 9.78690632 -10.3125 8.1875 C-9.44238281 7.29417969 -8.57226562 6.40085937 -7.67578125 5.48046875 C-5.22637818 3.20985423 -2.92414297 1.58588655 0 0 Z " fill="#E1EBFE" transform="translate(399,343)"/>
<path d="M0 0 C0.66 0.33 1.32 0.66 2 1 C-4.07792208 7.24675325 -4.07792208 7.24675325 -7 9 C-7.99 8.67 -8.98 8.34 -10 8 C-8.71064081 6.85157077 -7.41843421 5.70633773 -6.125 4.5625 C-5.04605469 3.60537109 -5.04605469 3.60537109 -3.9453125 2.62890625 C-2 1 -2 1 0 0 Z " fill="#5B6FE1" transform="translate(388,324)"/>
<path d="M0 0 C1.32 0.99 2.64 1.98 4 3 C1.36 4.98 -1.28 6.96 -4 9 C-4.33 7.68 -4.66 6.36 -5 5 C-3.68 4.67 -2.36 4.34 -1 4 C-0.67 2.68 -0.34 1.36 0 0 Z " fill="#5E77EF" transform="translate(366,368)"/>
<path d="M0 0 C1.05767578 0.42925781 1.05767578 0.42925781 2.13671875 0.8671875 C5.01205232 2.00476831 7.90452186 3.07392356 10.8125 4.125 C11.78832031 4.47820312 12.76414062 4.83140625 13.76953125 5.1953125 C14.87361328 5.59363281 14.87361328 5.59363281 16 6 C16 6.33 16 6.66 16 7 C15.01 6.855625 14.02 6.71125 13 6.5625 C9.00590535 5.99074821 5.00467063 5.49180166 1 5 C1.33 4.34 1.66 3.68 2 3 C1.34 2.67 0.68 2.34 0 2 C0 1.34 0 0.68 0 0 Z " fill="#6278E6" transform="translate(103,441)"/>
<path d="M0 0 C-5.76240474 3.84160316 -11.29157865 4.23538321 -18 4 C-14.89576443 2.31945639 -11.83501066 1.26010501 -8.4375 0.3125 C-7.48746094 0.04050781 -6.53742188 -0.23148437 -5.55859375 -0.51171875 C-3 -1 -3 -1 0 0 Z " fill="#687FE8" transform="translate(330,441)"/>
<path d="M0 0 C3.45925163 1.2491742 6.14693203 2.67527795 9 5 C8.67 5.66 8.34 6.32 8 7 C7.4225 6.525625 6.845 6.05125 6.25 5.5625 C4.07417916 4.0515133 2.57397552 3.45963849 0 3 C0 3.66 0 4.32 0 5 C-1.32 4.67 -2.64 4.34 -4 4 C-2.68 2.68 -1.36 1.36 0 0 Z " fill="#5A71E0" transform="translate(454,329)"/>
<path d="M0 0 C-0.33 0.99 -0.66 1.98 -1 3 C-3.328125 3.94921875 -3.328125 3.94921875 -6.25 4.6875 C-7.68085938 5.06455078 -7.68085938 5.06455078 -9.140625 5.44921875 C-11.84604951 5.9703456 -14.25434317 6.10521678 -17 6 C-13.9666221 3.97774806 -11.38655511 3.00652476 -7.9375 1.875 C-6.87402344 1.52179688 -5.81054688 1.16859375 -4.71484375 0.8046875 C-2 0 -2 0 0 0 Z " fill="#6C80E8" transform="translate(348,434)"/>
<path d="M0 0 C1.32 0 2.64 0 4 0 C4.33 0.66 4.66 1.32 5 2 C5.99 2.66 6.98 3.32 8 4 C6.68 5.32 5.36 6.64 4 8 C4 7.34 4 6.68 4 6 C3.34 5.67 2.68 5.34 2 5 C2.33 4.34 2.66 3.68 3 3 C2.01 2.67 1.02 2.34 0 2 C0 1.34 0 0.68 0 0 Z " fill="#5571EC" transform="translate(456,377)"/>
<path d="M0 0 C2.31 1.98 4.62 3.96 7 6 C5.68 6.99 4.36 7.98 3 9 C1.35173889 6.03312999 0.55728913 3.34373475 0 0 Z " fill="#5771F0" transform="translate(297,319)"/>
<path d="M0 0 C0.66 0 1.32 0 2 0 C1.67 2.31 1.34 4.62 1 7 C-0.65 7.33 -2.3 7.66 -4 8 C-4 7.34 -4 6.68 -4 6 C-3 5 -2 4 -1 3 C-0.67 2.01 -0.34 1.02 0 0 Z " fill="#5C6FE4" transform="translate(85,467)"/>
<path d="M0 0 C0.99 0.66 1.98 1.32 3 2 C0.69 3.65 -1.62 5.3 -4 7 C-4.66 6.67 -5.32 6.34 -6 6 C-5.34 4.68 -4.68 3.36 -4 2 C-2.68 2.33 -1.36 2.66 0 3 C0 2.01 0 1.02 0 0 Z " fill="#5B75E2" transform="translate(416,419)"/>
<path d="M0 0 C3.63 0 7.26 0 11 0 C7.55549263 2.29633824 5.06187717 2.54016485 1 3 C0.67 2.01 0.34 1.02 0 0 Z " fill="#E6F1FC" transform="translate(308,442)"/>
<path d="M0 0 C0 0.99 0 1.98 0 3 C-1 4 -2 5 -3 6 C-3 6.99 -3 7.98 -3 9 C-3.99 9 -4.98 9 -6 9 C-4.83857315 4.64464931 -3.92300495 2.35380297 0 0 Z " fill="#E6F1FE" transform="translate(95,335)"/>
<path d="M0 0 C0 3 0 3 -2.375 5.6875 C-5 8 -5 8 -7 8 C-5.50902342 4.2047869 -3.24299151 2.38957269 0 0 Z " fill="#E6F1FE" transform="translate(365,374)"/>
<path d="M0 0 C6.75 0.875 6.75 0.875 9 2 C9 2.66 9 3.32 9 4 C7.68 4 6.36 4 5 4 C5 3.34 5 2.68 5 2 C3.35 2 1.7 2 0 2 C0 1.34 0 0.68 0 0 Z " fill="#5B72DC" transform="translate(434,321)"/>
<path d="M0 0 C-2.70188004 1.80125336 -4.93057703 3.00243753 -8 4 C-8.99 3.67 -9.98 3.34 -11 3 C-7.48550811 -0.37391222 -4.73940561 -0.27342725 0 0 Z " fill="#5368E4" transform="translate(363,451)"/>
<path d="M0 0 C0.99 0.66 1.98 1.32 3 2 C0.69 3.65 -1.62 5.3 -4 7 C-3.04065919 3.16263678 -2.76390737 2.40339772 0 0 Z " fill="#E7F1FE" transform="translate(431,379)"/>
<path d="M0 0 C0.66 0.33 1.32 0.66 2 1 C0.875 3 0.875 3 -1 5 C-4.1875 5.25 -4.1875 5.25 -7 5 C-4.702779 3.25728062 -2.40133271 1.60088848 0 0 Z " fill="#5B6EDC" transform="translate(334,369)"/>
<path d="M0 0 C-5.17578125 3.22265625 -5.17578125 3.22265625 -7 4 C-7.99 3.67 -8.98 3.34 -10 3 C-9.01 2.67 -8.02 2.34 -7 2 C-7 1.34 -7 0.68 -7 0 C-3.98968256 -0.93423645 -3.13349732 -1.04449911 0 0 Z " fill="#5E75E6" transform="translate(404,341)"/>
<path d="M0 0 C-2.6855594 2.6855594 -5.37621328 3.06049974 -9 4 C-8.67 3.01 -8.34 2.02 -8 1 C-5.29120665 -0.35439668 -2.99066732 -0.06501451 0 0 Z " fill="#5E72E2" transform="translate(379,444)"/>
<path d="M0 0 C2.97 1.65 5.94 3.3 9 5 C6 6 6 6 3.375 5.3125 C2.199375 4.6628125 2.199375 4.6628125 1 4 C0.67 2.68 0.34 1.36 0 0 Z " fill="#6479E4" transform="translate(91,433)"/>
<path d="M0 0 C0.99 0 1.98 0 3 0 C2.25 4.75 2.25 4.75 0 7 C-0.38133299 5.0085944 -0.71325582 3.00720923 -1 1 C-0.67 0.67 -0.34 0.34 0 0 Z " fill="#5870E6" transform="translate(468,367)"/>
</svg>
