<?xml version="1.0" encoding="UTF-8"?>
<svg version="1.1" xmlns="http://www.w3.org/2000/svg" width="500" height="500">
<path d="M0 0 C5.80036497 -0.18130706 11.59849635 -0.27487684 17.40142822 -0.32086182 C19.46800235 -0.34264281 21.53447957 -0.3769756 23.60064697 -0.42340088 C26.61236808 -0.49016961 29.62222773 -0.51779426 32.63458252 -0.53692627 C33.55545151 -0.56475693 34.4763205 -0.59258759 35.4250946 -0.6212616 C41.64973292 -0.60122236 41.64973292 -0.60122236 44.23788452 1.38076782 C46.10098039 3.55104258 47.40839565 5.72383209 48.41973877 8.39666748 C49.50914551 10.42288129 49.50914551 10.42288129 52.54473877 10.95916748 C56.58608103 11.33883429 60.2624526 10.45183832 64.18927002 9.56072998 C67.01294887 8.98943841 69.67124482 9.0188608 72.54473877 9.08416748 C73.44192627 8.93076904 74.33911377 8.77737061 75.26348877 8.61932373 C79.43272839 7.9393406 83.58032093 7.70855833 87.79484653 7.47181511 C91.37204003 7.27030339 94.94737347 7.05755551 98.52250671 6.82125854 C110.92006995 6.01995725 123.28494521 5.93757194 135.70489502 5.95135498 C137.87395743 5.95067969 140.04301976 5.94970779 142.21208191 5.94845581 C146.7140069 5.94699478 151.21591184 5.94908509 155.71783447 5.95379639 C161.49936763 5.95955151 167.28085495 5.95616858 173.06238651 5.95022392 C177.52056734 5.94662463 181.97873712 5.94775295 186.43691826 5.95035172 C188.57127322 5.95101974 190.70562918 5.9501969 192.83998299 5.94787216 C195.80027092 5.9453498 198.760482 5.94917759 201.72076416 5.95477295 C203.0475116 5.9517366 203.0475116 5.9517366 204.40106201 5.94863892 C210.43046388 5.96989259 210.43046388 5.96989259 211.54473877 7.08416748 C212.45223877 7.04291748 213.35973877 7.00166748 214.29473877 6.95916748 C230.73135398 6.82580752 250.43730376 15.35777115 262.35723877 26.39666748 C273.40369943 38.26236326 276.80395176 52.72493873 276.54473877 68.45916748 C276.18903616 73.93363447 276.18903616 73.93363447 277.54473877 79.08416748 C282.47987061 78.54085021 286.36238835 76.94184554 290.66973877 74.58416748 C291.32353516 74.22959473 291.97733154 73.87502197 292.65093994 73.50970459 C304.86235705 66.71403092 315.25178521 57.52301777 324.97052002 47.57244873 C341.39378976 30.77771593 353.4959424 21.45113792 377.54473877 21.08416748 C380.93508952 21.19702869 384.20072923 21.5238837 387.54473877 22.08416748 C388.26532471 22.19631592 388.98591064 22.30846436 389.72833252 22.42401123 C404.30743201 25.15271969 419.09019971 32.70346949 427.95880127 44.68963623 C432.72440561 51.88499451 434.18586766 57.32182614 433.22442627 65.96307373 C430.75843418 77.28679604 423.99179693 85.69685568 415.98419189 93.65057373 C414.56225061 95.06672693 413.17038622 96.51287295 411.77911377 97.95916748 C405.73089848 104.18018892 399.37658857 109.74571199 392.54473877 115.08416748 C391.29990855 116.0815152 390.05511946 117.07891425 388.81036377 118.07635498 C335.48019017 160.33327562 270.32766412 175.69377759 203.37677002 177.87322998 C200.04123924 177.98820164 196.75771903 178.25497337 193.43927002 178.60760498 C186.10904795 179.3114813 178.77382658 179.1553853 171.41973877 179.08416748 C161.2432069 178.84340431 161.2432069 178.84340431 151.11505127 179.58416748 C138.59080146 181.23298933 125.55372709 180.01705663 113.01568604 179.02215576 C110.61278018 178.83460001 108.20899303 178.66799678 105.80450439 178.50213623 C91.71830496 177.45444461 77.74113293 175.11511557 64.48223877 170.08416748 C63.78815918 169.83070557 63.09407959 169.57724365 62.37896729 169.31610107 C57.33410289 167.449909 52.40888104 165.38358019 47.54473877 163.08416748 C47.75098877 163.90916748 47.95723877 164.73416748 48.16973877 165.58416748 C48.60669188 169.66239648 48.47906951 173.39635806 46.54473877 177.08416748 C42.9236873 179.68901352 40.40922924 180.45939802 35.97589111 180.45648193 C34.88481049 180.46271072 33.79372986 180.46893951 32.66958618 180.47535706 C30.91782578 180.46154243 30.91782578 180.46154243 29.13067627 180.44744873 C27.92408356 180.44794724 26.71749084 180.44844574 25.47433472 180.44895935 C22.92747345 180.44662146 20.38060976 180.43690981 17.83380127 180.42034912 C13.92734225 180.39671348 10.02156383 180.39979607 6.11505127 180.40643311 C3.64108885 180.40085774 1.16712932 180.39374875 -1.30682373 180.38494873 C-2.47871246 180.38586014 -3.6506012 180.38677155 -4.85800171 180.38771057 C-5.94277802 180.37817856 -7.02755432 180.36864655 -8.14520264 180.35882568 C-9.10052887 180.35421829 -10.0558551 180.3496109 -11.04013062 180.34486389 C-13.45526123 180.08416748 -13.45526123 180.08416748 -16.45526123 178.08416748 C-16.82999134 175.12902927 -16.82999134 175.12902927 -16.82948303 171.25813293 C-16.83345744 170.54800267 -16.83743184 169.83787241 -16.84152669 169.10622305 C-16.85119005 166.71463741 -16.83930766 164.32363739 -16.82757568 161.93206787 C-16.83000235 160.22237425 -16.83372045 158.51268204 -16.83863831 156.80299377 C-16.84806886 152.1500913 -16.8386034 147.49739838 -16.82530618 142.84451222 C-16.81401595 137.98253793 -16.81809735 133.12057433 -16.8200531 128.2585907 C-16.82093693 120.09144657 -16.8098378 111.9243853 -16.79144287 103.75726318 C-16.77028096 94.30737955 -16.76676334 84.85761743 -16.77300483 75.4077149 C-16.77869501 66.32865736 -16.77305645 57.24964272 -16.76183128 48.17059135 C-16.75717998 44.30182542 -16.75631375 40.43308568 -16.75841713 36.5643177 C-16.76029756 32.009746 -16.75221502 27.45529835 -16.73635674 22.90075493 C-16.73210552 21.22657154 -16.73126893 19.55237557 -16.73404694 17.87818909 C-16.73725748 15.59771738 -16.72821565 13.31761898 -16.71595764 11.03718567 C-16.71390477 9.75941285 -16.7118519 8.48164003 -16.70973682 7.16514683 C-16.45526123 4.08416748 -16.45526123 4.08416748 -14.45526123 1.08416748 C-9.80782164 -0.06121313 -4.77633536 0.16373497 0 0 Z " fill="#0E6DFA" transform="translate(40.45526123046875,295.91583251953125)"/>
<path d="M0 0 C1.14371567 -0.00426498 2.28743134 -0.00852997 3.46580505 -0.01292419 C4.71159836 -0.01247101 5.95739166 -0.01201782 7.24093628 -0.0115509 C8.56023636 -0.01490952 9.87953644 -0.01826813 11.23881531 -0.02172852 C14.85278357 -0.03055046 18.46672813 -0.03290596 22.08070612 -0.0335443 C24.34270504 -0.0342562 26.60469798 -0.03639324 28.8666954 -0.03904152 C36.77025483 -0.04829125 44.6737974 -0.05237716 52.57736206 -0.05158997 C59.92370381 -0.05099032 67.26997186 -0.06152091 74.61629498 -0.07733363 C80.93838726 -0.09045263 87.2604556 -0.09577199 93.58256137 -0.09513456 C97.35161803 -0.09488071 101.12060925 -0.09766853 104.88965225 -0.10831261 C108.44046979 -0.11806642 111.99116037 -0.11802344 115.54198265 -0.11079597 C117.44946795 -0.10926851 119.35695343 -0.11754708 121.26441956 -0.12623596 C133.74235983 -0.08114117 145.41214096 1.16888056 155.146698 9.63371277 C155.847948 10.45871277 156.549198 11.28371277 157.271698 12.13371277 C157.931698 12.85558777 158.591698 13.57746277 159.271698 14.32121277 C165.8497901 23.57165478 169.61599346 33.70720135 168.271698 45.13371277 C166.38945698 49.52560848 165.08033787 50.75894809 160.74771118 52.76690674 C155.87346429 54.48684259 151.28117681 54.54611874 146.15548706 54.50260925 C145.17563339 54.50637573 144.19577972 54.51014221 143.18623352 54.51402283 C141.07194218 54.52042886 138.95762201 54.52015025 136.84333038 54.51383781 C133.49770418 54.50469829 130.15263479 54.51498248 126.80703735 54.53045654 C117.29998581 54.57049063 107.79298 54.57175167 98.28585815 54.56950378 C92.46047049 54.56945277 86.63538609 54.58856954 80.81008148 54.61883736 C77.51276764 54.62968172 74.21602725 54.61752445 70.91873169 54.60501099 C68.90259223 54.61391154 66.88645748 54.62398457 64.87033081 54.63542175 C63.95285568 54.62567825 63.03538055 54.61593475 62.09010315 54.605896 C57.06114535 54.64267844 57.06114535 54.64267844 52.69522095 56.95391846 C50.61299058 60.14236997 50.88482363 62.39392722 51.271698 66.13371277 C52.03724714 69.43535323 52.03724714 69.43535323 53.271698 72.13371277 C56.17469715 73.58521234 58.70129398 73.26103542 61.9447937 73.2631073 C62.63442514 73.2648313 63.32405659 73.26655529 64.03458595 73.26833153 C66.33890738 73.27269214 68.64315678 73.26971858 70.94747925 73.26652527 C72.57195562 73.26762434 74.19643179 73.26905472 75.82090759 73.27079773 C80.17516224 73.27370968 84.52937934 73.26939441 88.88362885 73.26268768 C91.57631936 73.25872436 94.26900795 73.25620639 96.96170044 73.25401306 C117.85821556 73.23438862 138.7538633 73.18445337 159.646698 72.75871277 C160.95158676 72.73578156 160.95158676 72.73578156 162.28283691 72.71238708 C204.21638805 71.9365778 229.91505257 58.29809609 258.94747925 28.24308777 C267.99128696 19.04504457 275.89617241 13.63944614 289.04025269 13.48234558 C300.07975782 13.79456459 313.09011325 18.62066218 321.271698 26.13371277 C323.34645853 28.77431709 323.27882494 30.34039418 323.396698 33.75871277 C321.46937377 45.83810529 306.03311697 56.72797257 297.07247925 63.89152527 C295.25974871 65.34272098 293.464025 66.81553052 291.68966675 68.31340027 C265.92726555 90.02025105 235.43556195 105.47181542 203.271698 115.13371277 C202.53016479 115.36397156 201.78863159 115.59423035 201.02462769 115.83146667 C190.11902608 119.18079858 179.02469122 121.12928712 167.771698 122.88371277 C167.08506073 122.99080566 166.39842346 123.09789856 165.690979 123.20823669 C153.66846068 125.06283629 141.72814148 126.22137674 129.57247925 126.68840027 C128.48880569 126.73044586 127.40513214 126.77249146 126.28862 126.81581116 C115.01116487 127.22325694 103.74286365 127.28998166 92.459198 127.25871277 C90.8431366 127.2553894 90.8431366 127.2553894 89.19442749 127.2519989 C82.14949475 127.23536841 75.1047778 127.20065971 68.05996704 127.15653992 C64.81114103 127.13696332 61.56231657 127.12060424 58.31346798 127.10536385 C51.53476917 127.0727797 44.75650762 127.0225623 37.97814846 126.94659615 C34.70286891 126.90991191 31.42785278 126.88057467 28.15240479 126.86326599 C14.33273592 126.78267702 1.46267683 126.57938482 -11.728302 122.13371277 C-13.17547607 121.65200623 -13.17547607 121.65200623 -14.65188599 121.16056824 C-23.11812764 118.18591941 -34.23327526 112.44313513 -39.728302 105.13371277 C-40.5500015 101.17629829 -40.85439196 97.40486352 -40.85769653 93.36979675 C-40.86084869 92.2568071 -40.86400085 91.14381744 -40.86724854 89.99710083 C-40.8652243 88.80339371 -40.86320007 87.60968658 -40.8611145 86.37980652 C-40.86207123 85.1285347 -40.86302795 83.87726288 -40.86401367 82.58807373 C-40.86469387 79.9343877 -40.86335714 77.28079381 -40.8586731 74.62712097 C-40.85196104 70.63776036 -40.85858829 66.64846491 -40.86502075 62.65910339 C-40.86912495 55.14988475 -40.813743 47.64239952 -40.728302 40.13371277 C-40.72036621 39.06179688 -40.71243042 37.98988098 -40.70425415 36.88548279 C-40.67439572 33.9994179 -40.61056687 31.11649508 -40.5329895 28.23136902 C-40.52776276 27.41389694 -40.52253601 26.59642487 -40.51715088 25.75418091 C-40.29720526 19.84675313 -38.48399771 15.71051564 -34.728302 11.13371277 C-26.20669848 3.60847261 -11.08254666 0.01873394 0 0 Z " fill="#FCFEFE" transform="translate(127.72830200195313,324.8662872314453)"/>
<path d="M0 0 C8.09960509 4.50848184 15.47958055 10.03125212 22.9453125 15.5 C27.04358465 18.49674328 31.19652529 21.40111679 35.390625 24.26171875 C41.31408417 28.30637799 47.20600763 32.39283305 53.078125 36.51171875 C66.9761735 46.255738 80.8883859 55.9803199 94.890625 65.57421875 C100.84582252 69.65554028 106.7534116 73.80032344 112.64306641 77.97558594 C116.92282049 81.00565573 121.21829874 84.01169866 125.52734375 87 C126.56044678 87.71647705 127.5935498 88.4329541 128.65795898 89.17114258 C130.69155816 90.58007581 132.72618647 91.98752507 134.76196289 93.39331055 C135.69645264 94.04082275 136.63094238 94.68833496 137.59375 95.35546875 C138.42293945 95.92845703 139.25212891 96.50144531 140.10644531 97.09179688 C146.99758711 102.04716191 146.99758711 102.04716191 149.515625 105.82421875 C150.1927461 111.28055506 150.19249818 116.24484799 148.015625 121.32421875 C143.48459978 125.85524397 138.18179381 128.34529182 131.73120117 128.94506836 C128.92325221 128.79190751 126.45469073 128.10351801 123.75390625 127.328125 C122.77075439 127.04912354 121.78760254 126.77012207 120.7746582 126.48266602 C119.65643677 126.15673462 119.65643677 126.15673462 118.515625 125.82421875 C118.51931217 126.5477526 118.52299934 127.27128645 118.52679825 128.01674557 C118.61524453 145.64492887 118.68138086 163.2730556 118.72287369 180.90141201 C118.74347412 189.426462 118.77154635 197.95136362 118.81738281 206.47631836 C118.85732795 213.9091275 118.88307612 221.34182916 118.89197898 228.77474266 C118.89718079 232.70823959 118.90935385 236.64142908 118.93854523 240.57482719 C118.96583602 244.28241339 118.97404272 247.98956754 118.96805573 251.69724464 C118.96966888 253.6958634 118.99111983 255.69443586 119.01330566 257.69293213 C118.979967 265.01214233 118.16679467 270.44481201 114.515625 276.82421875 C114 277.81421875 113.484375 278.80421875 112.953125 279.82421875 C109.86176747 283.62896648 106.31669481 286.4702642 102.47265625 289.49609375 C100.5229553 291.03112911 98.60225287 292.60383345 96.71484375 294.21484375 C95.84472656 294.9521875 94.97460938 295.68953125 94.078125 296.44921875 C93.29566406 297.12210937 92.51320313 297.795 91.70703125 298.48828125 C89.515625 299.82421875 89.515625 299.82421875 87.35546875 299.91015625 C84.46367364 298.20332177 84.35394267 296.00866349 83.515625 292.82421875 C83.33658474 290.18500404 83.25091221 287.65529309 83.27079773 285.01931763 C83.26853316 284.25212776 83.26626858 283.48493789 83.26393539 282.69449985 C83.25865463 280.1336503 83.26745821 277.57304443 83.27612305 275.01220703 C83.27500974 273.17210818 83.27295126 271.33200969 83.27001953 269.49191284 C83.26530164 265.5337641 83.26641295 261.5756747 83.27179527 257.61752701 C83.27940925 251.35588561 83.2687448 245.09435838 83.2545929 238.83273315 C83.21686508 221.02862096 83.19866518 203.22456054 83.21020508 185.42041016 C83.21642357 175.58389696 83.20483095 165.74756813 83.17375976 155.91110027 C83.15511514 149.689482 83.15841477 143.46838637 83.17792737 137.24677682 C83.18481719 133.37200304 83.17083609 129.49751165 83.15097809 125.62279129 C83.14593803 123.82976093 83.14939706 122.03668285 83.16211128 120.24369049 C83.43963111 107.62215293 83.43963111 107.62215293 77.515625 96.82421875 C75.25567037 94.6263872 75.25567037 94.6263872 72.703125 92.9921875 C71.74019531 92.33138184 70.77726563 91.67057617 69.78515625 90.98974609 C68.70621094 90.27512207 67.62726563 89.56049805 66.515625 88.82421875 C65.28976476 87.99779659 64.0645314 87.170444 62.83984375 86.34228516 C59.45982194 84.0651894 56.06590452 81.80972253 52.66717529 79.56066895 C49.00110305 77.13436997 45.34033662 74.70009553 41.6796875 72.265625 C40.96487213 71.79039398 40.25005676 71.31516296 39.51358032 70.82553101 C33.94293556 67.11804791 28.40368917 63.36687327 22.890625 59.57421875 C17.3293137 55.74889689 11.75441188 51.9472511 6.140625 48.19921875 C5.53911621 47.79670898 4.93760742 47.39419922 4.31787109 46.97949219 C2.72335341 45.9183116 1.11978719 44.87076285 -0.484375 43.82421875 C-1.32226562 43.23898438 -2.16015625 42.65375 -3.0234375 42.05078125 C-6.31547425 40.40998833 -7.82440901 40.17346107 -11.484375 40.82421875 C-14.81586556 42.650087 -17.81313241 44.87426205 -20.859375 47.13671875 C-22.66229458 48.43814559 -24.46568509 49.73892026 -26.26953125 51.0390625 C-27.15785645 51.68601074 -28.04618164 52.33295898 -28.96142578 52.99951172 C-32.36530846 55.46134829 -35.82401043 57.83623405 -39.296875 60.19921875 C-46.88153768 65.39206597 -54.42385333 70.64526578 -61.96459961 75.90161133 C-67.0724303 79.45970825 -72.19140421 82.99948788 -77.33520508 86.50537109 C-89.64334891 94.01108846 -89.64334891 94.01108846 -98.484375 104.82421875 C-98.99155239 107.91961939 -99.06328167 111.00058193 -99.13671875 114.1328125 C-99.18517189 115.51913124 -99.18517189 115.51913124 -99.23460388 116.93345642 C-99.33319431 119.89680253 -99.410354 122.86016558 -99.484375 125.82421875 C-99.53900976 127.7058982 -99.59385799 129.58757146 -99.64892578 131.46923828 C-99.8175241 137.60778723 -99.93432997 143.74692575 -100.046875 149.88671875 C-100.08063736 151.58065262 -100.08063736 151.58065262 -100.11508179 153.30880737 C-100.40980867 168.37027353 -100.50846279 183.4197821 -100.42112923 198.48347664 C-100.40629895 201.09684326 -100.39379349 203.71021144 -100.38194275 206.32359314 C-100.34549518 214.07030352 -100.30131009 221.81635481 -100.2102108 229.56263924 C-100.17610392 232.7933853 -100.15829275 236.02408453 -100.14437103 239.25497437 C-100.13417172 240.76652606 -100.11682931 242.27804876 -100.09186554 243.78942871 C-100.05813987 245.87305922 -100.04931407 247.95543729 -100.04614258 250.03930664 C-100.03424393 251.21022354 -100.02234528 252.38114044 -100.01008606 253.58753967 C-100.59346944 257.56870945 -101.98807585 259.70291465 -104.484375 262.82421875 C-110.38330779 266.75684061 -118.4866611 267.88966015 -125.484375 266.82421875 C-128.82325321 265.18513309 -130.8163449 264.02528327 -132.63452148 260.75634766 C-133.82155694 256.66088779 -133.71007817 252.8392582 -133.64453125 248.59765625 C-133.63896713 247.65324677 -133.63340302 246.70883728 -133.62767029 245.73580933 C-133.61515995 243.6573817 -133.59844899 241.57897625 -133.578125 239.50061035 C-133.52356061 233.73618043 -133.50502065 227.97167847 -133.48828125 222.20703125 C-133.48237473 220.31579529 -133.48237473 220.31579529 -133.47634888 218.38635254 C-133.44617842 201.4696595 -133.70435201 184.55551253 -133.94749069 167.64093781 C-133.98449268 165.06602983 -134.0210052 162.4911153 -134.05740356 159.91619873 C-134.19481617 150.21879679 -134.33696212 140.52147388 -134.484375 130.82421875 C-135.10134247 130.68940598 -135.71830994 130.5545932 -136.35397339 130.41569519 C-137.16383698 130.23750748 -137.97370056 130.05931976 -138.80810547 129.87573242 C-139.61069794 129.69966965 -140.41329041 129.52360687 -141.24020386 129.34220886 C-150.77947989 127.14039343 -156.57888195 122.98954827 -162.421875 115.26171875 C-163.78598911 112.13228049 -163.96831576 110.2118041 -163.484375 106.82421875 C-159.65897445 98.44476993 -150.25177545 93.89629792 -142.734375 89.19921875 C-133.65857461 83.47667414 -128.04785615 78.20746555 -124.484375 67.82421875 C-124.0204837 62.26538568 -124.33059134 56.67019206 -124.984375 51.13671875 C-125.50896159 46.40772493 -125.66613925 41.70314326 -125.734375 36.94921875 C-125.7662793 35.84187378 -125.7662793 35.84187378 -125.79882812 34.7121582 C-125.81789099 31.74209522 -125.72385965 29.32716997 -124.43603516 26.62255859 C-121.55296894 23.96598294 -118.65563047 24.25062909 -114.9296875 24.29296875 C-113.82184402 24.28722839 -113.82184402 24.28722839 -112.69161987 24.28137207 C-111.1298486 24.27865175 -109.56803187 24.28602156 -108.00634766 24.30273438 C-105.62428144 24.32408514 -103.24525175 24.30297223 -100.86328125 24.27734375 C-99.34374338 24.2799882 -97.82420738 24.28511561 -96.3046875 24.29296875 C-95.59619659 24.28487183 -94.88770569 24.2767749 -94.15774536 24.26843262 C-89.34984455 24.35882488 -86.82625823 25.3639755 -83.484375 28.82421875 C-82.796875 31.38671875 -82.796875 31.38671875 -82.484375 34.82421875 C-82.14361696 36.7849297 -81.78847626 38.74317504 -81.421875 40.69921875 C-81.15697266 42.14941406 -81.15697266 42.14941406 -80.88671875 43.62890625 C-80.75394531 44.35335937 -80.62117188 45.0778125 -80.484375 45.82421875 C-74.00789363 41.8155649 -67.73964593 37.62870825 -61.609375 33.109375 C-57.8886252 30.38857671 -54.12793555 27.72820672 -50.359375 25.07421875 C-49.64048096 24.56777832 -48.92158691 24.06133789 -48.1809082 23.53955078 C-46.69968145 22.49638722 -45.21831582 21.45342082 -43.73681641 20.41064453 C-40.73502932 18.29644418 -37.73628772 16.1779482 -34.73779297 14.05908203 C-32.59848118 12.54816626 -30.45750796 11.03962774 -28.31640625 9.53125 C-25.9931221 7.89346892 -23.67915 6.24530542 -21.37109375 4.5859375 C-20.50097656 3.96332031 -19.63085938 3.34070313 -18.734375 2.69921875 C-18.01765625 2.18101563 -17.3009375 1.6628125 -16.5625 1.12890625 C-10.68473891 -2.56126706 -6.21966379 -2.94358302 0 0 Z " fill="#0D6DFB" transform="translate(267.484375,24.17578125)"/>
<path d="M0 0 C5.5077023 2.09668213 8.53624577 6.58217609 11.8125 11.22265625 C15.91135583 16.79805627 19.69031389 19.94630469 26.0625 22.78515625 C29.45504638 24.7683793 31.83826106 26.44879784 34.0625 29.78515625 C35.31069632 34.69472844 35.56702957 37.67620112 33.1875 42.22265625 C31.10353652 45.11515201 29.59617648 46.37284401 26.0625 46.97265625 C20.94557662 47.11763575 16.15088609 45.81514826 11.22265625 44.55859375 C5.87912865 43.25078353 0.41395563 42.01928357 -4.9375 43.78515625 C-8.26651247 46.00449789 -8.68773244 47.13198954 -9.9375 50.78515625 C-6.02794735 55.15465627 -2.03357933 57.56815982 3.1875 60.16015625 C4.71513747 60.94743199 6.24118271 61.73780495 7.765625 62.53125 C8.50361328 62.91522949 9.24160156 63.29920898 10.00195312 63.69482422 C20.7839935 69.40010767 33.18991331 77.13331852 38.0625 88.78515625 C40.87039036 97.96416624 40.64504032 104.80211058 36.17260742 113.4362793 C31.63439362 121.82073724 25.78693139 127.70456332 17.875 132.97265625 C12.09708374 137.05679249 10.01571491 141.0615784 8.0246582 147.64526367 C7.04044032 150.82120995 6.3433205 152.55993915 3.71484375 154.66796875 C1.04765489 155.79140913 -1.04348819 156.61328075 -3.9375 156.78515625 C-10.58993899 153.46534566 -13.63476772 147.10487966 -16.41796875 140.5546875 C-18.71616484 136.36594449 -21.26198168 134.28803725 -25.83984375 132.9140625 C-27.34224609 132.63369141 -27.34224609 132.63369141 -28.875 132.34765625 C-34.27088051 131.11165406 -37.30607027 130.00546647 -40.9375 125.78515625 C-42.76049034 120.7719328 -41.75166751 115.69514194 -39.9375 110.78515625 C-37.75 107.72265625 -37.75 107.72265625 -34.9375 105.78515625 C-30.01667296 105.15886917 -26.54445754 106.19044018 -21.9375 107.78515625 C-12.66828082 109.95579618 -3.45939072 111.89829068 5.0625 106.78515625 C5.7225 106.78515625 6.3825 106.78515625 7.0625 106.78515625 C8.69200412 102.66346936 9.32514601 100.07815268 8.0625 95.78515625 C7.30453125 95.56214844 6.5465625 95.33914062 5.765625 95.109375 C0.61853416 93.26880138 -4.25407269 90.94373269 -9.1875 88.59765625 C-10.66669922 87.91219727 -10.66669922 87.91219727 -12.17578125 87.21289062 C-18.94039902 83.99992 -24.9144764 80.21991677 -30.9375 75.78515625 C-31.9275 75.12515625 -32.9175 74.46515625 -33.9375 73.78515625 C-33.9375 73.12515625 -33.9375 72.46515625 -33.9375 71.78515625 C-34.5975 71.78515625 -35.2575 71.78515625 -35.9375 71.78515625 C-41.45632649 65.58005082 -42.85072522 59.31928887 -42.4453125 51.17578125 C-40.69983736 39.521378 -31.99579309 30.70952453 -22.9375 23.78515625 C-22.3290625 23.37394531 -21.720625 22.96273437 -21.09375 22.5390625 C-15.68846076 18.65082377 -14.27310327 13.94281114 -12.10546875 7.8046875 C-9.6684646 1.50433897 -6.86562911 -0.98278159 0 0 Z " fill="#0E6DF9" transform="translate(257.9375,132.21484375)"/>
<path d="M0 0 C1.85625 -0.01160156 1.85625 -0.01160156 3.75 -0.0234375 C7 0.375 7 0.375 8.91015625 1.3984375 C10.66186791 4.57537692 10.47206747 7.84283264 10.4375 11.375 C10.4674707 12.46167969 10.4674707 12.46167969 10.49804688 13.5703125 C10.49507947 16.78697913 10.45076714 18.83578446 8.34765625 21.3515625 C5.42120195 22.62732128 3.18966155 22.77392246 0 22.75 C-1.03125 22.75773437 -2.0625 22.76546875 -3.125 22.7734375 C-6.47670313 22.30893516 -7.81934141 21.98354195 -10 19.375 C-10.37980738 16.55186485 -10.51500992 14.18535976 -10.4375 11.375 C-10.44458984 10.65054687 -10.45167969 9.92609375 -10.45898438 9.1796875 C-10.42443214 6.29856275 -10.31746727 3.95076501 -8.91015625 1.3984375 C-5.94761005 -0.18885719 -3.33168811 -0.02082305 0 0 Z " fill="#F5FCFE" transform="translate(56,314.625)"/>
<path d="M0 0 C0.99 0 1.98 0 3 0 C4.04424053 4.27033384 4.13791046 8.40722325 4.12025452 12.77644348 C4.12110894 13.552507 4.12196337 14.32857052 4.12284368 15.12815112 C4.12448875 17.72453645 4.11899304 20.32085696 4.11352539 22.91723633 C4.11324328 24.78001911 4.11340171 26.642802 4.1139679 28.50558472 C4.11425495 33.56092227 4.10837302 38.61623612 4.10139394 43.67156816 C4.09514515 48.95533519 4.09455539 54.23910276 4.09336853 59.52287292 C4.09025972 69.52772242 4.08205239 79.53256099 4.07201904 89.53740567 C4.06084394 100.92787175 4.05534393 112.31833835 4.05032361 123.70880854 C4.03986941 147.13921175 4.02227867 170.56960526 4 194 C5.98 194 7.96 194 10 194 C9.34 194.99 8.68 195.98 8 197 C6.125 196.875 6.125 196.875 4 196 C1.99896561 191.4012933 1.71011705 187.09462929 1.72825623 182.15472412 C1.72316939 181.38330086 1.71808255 180.6118776 1.71284157 179.81707788 C1.69822364 177.24225849 1.69764817 174.66763134 1.69702148 172.09277344 C1.68935753 170.2429365 1.68081063 168.39310304 1.67144775 166.54327393 C1.65319066 162.56548431 1.64113848 158.5877415 1.63390923 154.60991669 C1.62241937 148.32471105 1.59696332 142.03960926 1.56959534 135.75445557 C1.52796993 125.8193345 1.49554083 115.88420845 1.46712118 105.9490416 C1.41610069 88.14010565 1.35408478 70.33121267 1.28178078 52.52235055 C1.2568184 46.26914042 1.23740548 40.01594414 1.22239864 33.76270247 C1.21222148 29.88176441 1.19807622 26.00084795 1.18292236 22.11992645 C1.17674795 20.31470242 1.17229929 18.50947157 1.16966438 16.70423889 C1.16587405 14.24856603 1.15607858 11.79298925 1.14476013 9.33734131 C1.14514626 8.61576143 1.1455324 7.89418155 1.14593023 7.15073562 C1.17267445 3.45120388 1.17267445 3.45120388 0 0 Z " fill="#266BD2" transform="translate(349,127)"/>
<path d="M0 0 C1.97982628 -0.00525696 1.97982628 -0.00525696 3.99964905 -0.01062012 C7.5968853 -0.01968376 11.19400593 -0.01622445 14.79124403 -0.00986195 C18.57239035 -0.00476846 22.35352733 -0.00950285 26.13467407 -0.01263428 C32.48449464 -0.0162651 38.83426856 -0.01149901 45.18408203 -0.00195312 C52.50097663 0.00892034 59.81775966 0.00541035 67.13465154 -0.00560594 C73.43984562 -0.01471529 79.74500633 -0.01594605 86.05020487 -0.0107286 C89.8057803 -0.00762767 93.56130349 -0.00714725 97.31687546 -0.01380157 C100.85134219 -0.01962742 104.38566677 -0.01548358 107.92011833 -0.00401306 C109.8180154 -0.00015552 111.71592465 -0.00600787 113.61381531 -0.01226807 C120.8127972 0.02288766 127.54587245 0.69430525 134.57666016 2.25878906 C134.57666016 2.58878906 134.57666016 2.91878906 134.57666016 3.25878906 C133.41072248 3.25740637 133.41072248 3.25740637 132.22123051 3.25599575 C113.33569175 3.2339419 94.45015554 3.21737819 75.56460667 3.20697689 C66.43181967 3.20181362 57.29904126 3.19477034 48.16625977 3.18334961 C40.20908142 3.17340371 32.25190927 3.16693586 24.29472488 3.16470057 C20.07880029 3.1633933 15.86289347 3.16030644 11.64697456 3.15305901 C7.68343832 3.14630027 3.71992726 3.1441718 -0.2436142 3.14568138 C-1.70255991 3.14540499 -3.16150641 3.14339899 -4.62044716 3.13958359 C-6.60380579 3.13464871 -8.58717777 3.13639095 -10.57054138 3.13853455 C-12.23944758 3.13715186 -12.23944758 3.13715186 -13.94206905 3.13574123 C-16.3659729 2.97768343 -16.3659729 2.97768343 -17.42333984 4.25878906 C-18.94262022 4.3305887 -20.46501466 4.34270914 -21.98583984 4.32128906 C-22.81212891 4.31226563 -23.63841797 4.30324219 -24.48974609 4.29394531 C-25.12783203 4.28234375 -25.76591797 4.27074219 -26.42333984 4.25878906 C-18.05558829 -0.17731867 -9.28089317 -0.0305124 0 0 Z " fill="#B5DAFE" transform="translate(135.42333984375,324.7412109375)"/>
<path d="M0 0 C0.66 0 1.32 0 2 0 C2.83910566 3.65149354 3.12743421 7.02523509 3.13371277 10.76867676 C3.13797775 11.92106339 3.14224274 13.07345001 3.14663696 14.26075745 C3.14618378 15.51597702 3.14573059 16.77119659 3.14526367 18.06445312 C3.14825756 19.40681552 3.15166062 20.74917706 3.15544128 22.09153748 C3.16426028 25.72989545 3.16661846 29.36822989 3.16725707 33.00659752 C3.16796855 35.28061034 3.17010468 37.5546172 3.17275429 39.82862854 C3.18199942 47.76417419 3.18609005 55.69970305 3.18530273 63.63525391 C3.18470155 71.02942983 3.19526344 78.42353289 3.2110464 85.81769037 C3.22412238 92.17026185 3.22948664 98.52280951 3.22884732 104.87539434 C3.22859244 108.66773384 3.23143889 112.46000852 3.24202538 116.25233459 C3.25170781 119.81790743 3.2517846 123.38335343 3.24450874 126.94893074 C3.24296511 128.87904092 3.25130788 130.8091511 3.25994873 132.73924255 C3.25575424 133.89162918 3.25155975 135.04401581 3.24723816 136.23132324 C3.24778293 137.23050529 3.24832769 138.22968735 3.24888897 139.25914764 C2.98416944 142.17433165 2.21834518 144.3524917 1 147 C0.67 147 0.34 147 0 147 C0 98.49 0 49.98 0 0 Z " fill="#2166D0" transform="translate(383,150)"/>
<path d="M0 0 C0.81621826 0.26478149 0.81621826 0.26478149 1.64892578 0.53491211 C4.13956164 1.34014533 6.63224042 2.13886662 9.125 2.9375 C10.40890625 3.35418945 10.40890625 3.35418945 11.71875 3.77929688 C12.55664062 4.04677734 13.39453125 4.31425781 14.2578125 4.58984375 C15.0223877 4.83597412 15.78696289 5.08210449 16.57470703 5.33569336 C23.31001296 7.18054613 29.94443149 7.21247746 36.8828125 7.31640625 C38.0654921 7.33727798 39.24817169 7.35814972 40.46669006 7.37965393 C44.35272584 7.44605774 48.2388243 7.50490242 52.125 7.5625 C53.46855856 7.58343953 54.81211528 7.60449722 56.15567017 7.62567139 C75.16578056 7.92282101 94.17487861 8.10342919 113.1875 8.125 C114.21868958 8.1275882 115.24987915 8.13017639 116.31231689 8.13284302 C137.90769186 8.1759601 159.44257619 7.20762684 181 6 C167.5273849 14.11021486 144.65274599 10.29562672 129.44042063 10.26865101 C125.63336319 10.26351977 121.82631449 10.26830059 118.01925659 10.27142334 C111.64677159 10.27503634 105.27433334 10.27032813 98.90185547 10.26074219 C91.5408954 10.24979706 84.18004563 10.2534375 76.8190881 10.264395 C70.46966105 10.27346634 64.12026719 10.27475587 57.77083576 10.26951766 C53.99046635 10.26640551 50.21014891 10.26596918 46.42978287 10.27259064 C42.23193018 10.27943414 38.03426916 10.26995422 33.83642578 10.25878906 C32.58868378 10.26283752 31.34094177 10.26688599 30.0553894 10.27105713 C28.91475037 10.26541748 27.77411133 10.25977783 26.59890747 10.25396729 C25.60831392 10.25321323 24.61772038 10.25245918 23.59710884 10.25168228 C20.90197723 9.99050075 19.31883656 9.34841255 17 8 C15.63883869 7.47447165 14.26844784 6.97233788 12.890625 6.4921875 C12.13652344 6.22792969 11.38242188 5.96367187 10.60546875 5.69140625 C9.82816406 5.42199219 9.05085938 5.15257812 8.25 4.875 C7.45722656 4.59785156 6.66445312 4.32070313 5.84765625 4.03515625 C3.89926649 3.35439356 1.94974342 2.67687599 0 2 C0 1.34 0 0.68 0 0 Z " fill="#276ED8" transform="translate(107,443)"/>
<path d="M0 0 C0.33 0 0.66 0 1 0 C1.05342953 10.07517585 1.0078048 20.14182377 0.78125 30.21484375 C0.75904892 31.21375137 0.73684784 32.212659 0.713974 33.24183655 C0.69097733 34.27569992 0.66798065 35.30956329 0.64428711 36.37475586 C0.05841361 62.73159373 -0.08878959 89.07510771 -0.0625 115.4375 C-0.06164398 116.30048077 -0.06078796 117.16346153 -0.05990601 118.05259323 C-0.04854519 128.70175038 -0.02849104 139.3508751 0 150 C-0.66 150.33 -1.32 150.66 -2 151 C-2.0234449 133.91801667 -2.04103579 116.83603841 -2.05181217 99.75404263 C-2.05695063 91.82113034 -2.06394621 83.8882281 -2.07543945 75.95532227 C-2.08546161 69.03445159 -2.09187121 62.11358819 -2.09408849 55.19271046 C-2.09538291 51.53413399 -2.09838721 47.87557833 -2.10573006 44.21700859 C-2.1138942 40.11528507 -2.11398634 36.01359687 -2.11352539 31.91186523 C-2.11712067 30.72214615 -2.12071594 29.53242706 -2.12442017 28.30665588 C-2.09786889 6.29360667 -2.09786889 6.29360667 0 0 Z " fill="#2365CC" transform="translate(167,131)"/>
<path d="M0 0 C1.59983332 -0.00067696 3.19966654 -0.0016502 4.79949951 -0.00289917 C8.11699423 -0.00435607 11.43446164 -0.00228623 14.75195312 0.00244141 C18.96280702 0.0081563 23.17359739 0.00483567 27.38444901 -0.00113106 C30.67564355 -0.00477553 33.96682346 -0.00358071 37.25801849 -0.00100327 C38.80945595 -0.00034568 40.36089483 -0.00112051 41.91233063 -0.00348282 C51.50944811 -0.01490487 60.97867393 0.30270378 70.546875 1.1328125 C70.546875 1.7928125 70.546875 2.4528125 70.546875 3.1328125 C32.596875 3.1328125 -5.353125 3.1328125 -44.453125 3.1328125 C-44.453125 3.7928125 -44.453125 4.4528125 -44.453125 5.1328125 C-43.793125 5.1328125 -43.133125 5.1328125 -42.453125 5.1328125 C-42.453125 5.7928125 -42.453125 6.4528125 -42.453125 7.1328125 C-43.443125 7.1328125 -44.433125 7.1328125 -45.453125 7.1328125 C-45.453125 6.4728125 -45.453125 5.8128125 -45.453125 5.1328125 C-47.0928125 5.3803125 -47.0928125 5.3803125 -48.765625 5.6328125 C-53.19894389 6.23394049 -57.20037428 6.01476955 -61.640625 5.6328125 C-62.72730469 5.54 -63.81398438 5.4471875 -64.93359375 5.3515625 C-66.18076172 5.24328125 -66.18076172 5.24328125 -67.453125 5.1328125 C-63.87396774 3.17426078 -61.5405737 3.05106353 -57.453125 3.1328125 C-56.54820313 2.97941406 -55.64328125 2.82601563 -54.7109375 2.66796875 C-50.5540349 1.98512024 -46.4182133 1.75802604 -42.2155571 1.52046013 C-38.5678853 1.31402214 -34.92091453 1.10103328 -31.27471924 0.86990356 C-20.83992747 0.22462693 -10.45297412 -0.01601382 0 0 Z " fill="#1E68D6" transform="translate(170.453125,301.8671875)"/>
<path d="M0 0 C0 0.66 0 1.32 0 2 C-5.44350813 5.39730841 -10.00320576 5.436165 -16.2121582 5.41650391 C-17.73262001 5.42938194 -17.73262001 5.42938194 -19.28379822 5.44252014 C-22.62286359 5.46754695 -25.96163073 5.47195527 -29.30078125 5.4765625 C-31.62152515 5.49087228 -33.94226054 5.50662925 -36.26298523 5.52377319 C-42.36335567 5.56560305 -48.46367332 5.5906193 -54.56414795 5.61126709 C-64.34679568 5.64710797 -74.12931352 5.70790326 -83.91182518 5.76975632 C-87.33593586 5.78890954 -90.76001168 5.80059259 -94.18415833 5.81118774 C-96.26771116 5.82139327 -98.35126326 5.83175062 -100.43481445 5.84228516 C-101.39426971 5.84332748 -102.35372498 5.84436981 -103.34225464 5.84544373 C-104.21003036 5.85089706 -105.07780609 5.8563504 -105.97187805 5.86196899 C-106.73009511 5.86452509 -107.48831217 5.86708118 -108.2695055 5.86971474 C-110.03051916 5.81317753 -110.03051916 5.81317753 -111 7 C-111.07258946 9.18639453 -111.08373783 11.37500389 -111.0625 13.5625 C-111.05347656 14.76003906 -111.04445312 15.95757812 -111.03515625 17.19140625 C-111.02355469 18.11824219 -111.01195312 19.04507812 -111 20 C-109.68 20.66 -108.36 21.32 -107 22 C-107.66 22.33 -108.32 22.66 -109 23 C-113.23149783 19.17800196 -113.77131817 17.09625009 -114.375 11.5625 C-114 8 -114 8 -112.08555603 5.3165741 C-107.78256931 2.08597725 -104.50442394 2.30496511 -99.25610352 2.37231445 C-98.27990051 2.36504333 -97.30369751 2.35777222 -96.2979126 2.35028076 C-93.07454119 2.33169537 -89.85227814 2.3477548 -86.62890625 2.36328125 C-84.38597115 2.35524142 -82.14304369 2.3447235 -79.90013123 2.33183289 C-73.99553667 2.30326534 -68.09129294 2.30271172 -62.18664551 2.30969238 C-52.73934613 2.31701118 -43.29216078 2.28566162 -33.84495354 2.24724388 C-30.54674596 2.23839617 -27.24878385 2.24369505 -23.95057678 2.25080872 C-21.92481418 2.24742359 -19.89905215 2.24367413 -17.87329102 2.23950195 C-16.50079445 2.24804451 -16.50079445 2.24804451 -15.10057068 2.25675964 C-9.82339363 2.23233723 -5.00007678 0 0 0 Z " fill="#246EDE" transform="translate(292,376)"/>
<path d="M0 0 C2.00720923 0.28674418 4.0085944 0.61866701 6 1 C2.50776304 4.08720947 -1.3640582 5.27035915 -5.75 6.5625 C-6.76707031 6.87477539 -6.76707031 6.87477539 -7.8046875 7.19335938 C-9.8639755 7.81780127 -11.92992008 8.41242489 -14 9 C-15.24265625 9.35964844 -16.4853125 9.71929687 -17.765625 10.08984375 C-29.10365626 12.81919218 -41.33319671 12.30994268 -52.9375 12.5625 C-53.86178802 12.58367889 -54.78607605 12.60485779 -55.7383728 12.62667847 C-86.48437779 13.31009552 -117.24849493 13.08932149 -148 13 C-148 12.67 -148 12.34 -148 12 C-142.60843127 10.88875746 -137.37398955 10.83497564 -131.89550781 10.81054688 C-130.3920858 10.79810692 -130.3920858 10.79810692 -128.85829163 10.78541565 C-126.6894002 10.76806319 -124.52049053 10.75288342 -122.35157013 10.73963928 C-118.92278724 10.71856352 -115.49409665 10.69154772 -112.06536865 10.66296387 C-103.55512094 10.59323285 -95.04480788 10.53363257 -86.53448486 10.47393799 C-79.33323902 10.42307051 -72.13204442 10.36828542 -64.93087006 10.30812073 C-61.54615282 10.28149019 -58.1614309 10.26071487 -54.77667236 10.2401123 C-52.71341724 10.22351675 -50.6501643 10.20664557 -48.58691406 10.18945312 C-47.64040482 10.18526871 -46.69389557 10.18108429 -45.71870422 10.17677307 C-44.85796799 10.16842941 -43.99723175 10.16008575 -43.1104126 10.15148926 C-42.36049168 10.14633553 -41.61057076 10.14118179 -40.83792496 10.13587189 C-38.90306556 10.10988876 -38.90306556 10.10988876 -37 9 C-33.34418829 8.73492604 -29.69453367 8.55514201 -26.03320312 8.39453125 C-22.20232099 8.56827928 -22.20232099 8.56827928 -19 7 C-17.23869087 6.6011581 -15.46520765 6.25536826 -13.6875 5.9375 C-12.72199219 5.76089844 -11.75648438 5.58429688 -10.76171875 5.40234375 C-8 5 -8 5 -4 5 C-4 4.34 -4 3.68 -4 3 C-3.01 2.34 -2.02 1.68 -1 1 C-0.67 0.67 -0.34 0.34 0 0 Z " fill="#2B74E0" transform="translate(340,386)"/>
<path d="M0 0 C0.33 0 0.66 0 1 0 C2.01389926 16.46157031 2.18788717 32.90447876 2.18530273 49.39086914 C2.18519914 53.02107441 2.19909991 56.65109261 2.21607494 60.28125286 C2.22714529 63.1010071 2.22922386 65.9207143 2.22869301 68.74048805 C2.23044022 70.7292437 2.24126631 72.71798469 2.25224304 74.70671082 C2.24916641 75.9000856 2.24608978 77.09346039 2.24291992 78.32299805 C2.24434494 79.37440475 2.24576996 80.42581146 2.24723816 81.50907898 C2 84 2 84 0 86 C-0.81487501 65.47858645 -1.10917621 44.97480462 -1.125 24.4375 C-1.12749756 23.28220795 -1.12999512 22.12691589 -1.13256836 20.93661499 C-1.13842086 17.64391016 -1.13698968 14.35129946 -1.1328125 11.05859375 C-1.13479645 10.05596497 -1.1367804 9.05333618 -1.13882446 8.02032471 C-1.13571259 7.10797058 -1.13260071 6.19561646 -1.12939453 5.25561523 C-1.12859894 4.45437729 -1.12780334 3.65313934 -1.12698364 2.82762146 C-1 1 -1 1 0 0 Z " fill="#176AE0" transform="translate(25,299)"/>
<path d="M0 0 C0.33 0 0.66 0 1 0 C2.10056597 4.42676028 2.1347519 8.74732838 2.11352539 13.27856445 C2.11367142 14.09859451 2.11381744 14.91862457 2.1139679 15.76350403 C2.1132734 18.46345704 2.1055027 21.16334035 2.09765625 23.86328125 C2.09579043 25.73943545 2.0943673 27.61559013 2.09336853 29.491745 C2.0895563 34.422021 2.07973707 39.3522674 2.06866455 44.28253174 C2.05842259 49.31660563 2.05386494 54.35068431 2.04882812 59.38476562 C2.03811364 69.2565234 2.02105276 79.12825924 2 89 C1.01 88.67 0.02 88.34 -1 88 C-0.67 58.96 -0.34 29.92 0 0 Z " fill="#2167CD" transform="translate(25,386)"/>
<path d="M0 0 C1.23751758 3.71255275 0.44783485 4.491485 -1 8 C-1.3606296 10.53118538 -1.3606296 10.53118538 -1.4140625 13.19921875 C-1.45289551 14.226521 -1.49172852 15.25382324 -1.53173828 16.31225586 C-1.56251465 17.42608643 -1.59329102 18.53991699 -1.625 19.6875 C-1.66222168 20.85998291 -1.69944336 22.03246582 -1.73779297 23.24047852 C-3.77149592 58.87885409 -3.77149592 58.87885409 0 94 C-3 92 -3 92 -3.67941284 89.23524475 C-3.97919786 86.20992736 -4.12690561 83.27519712 -4.12939453 80.23608398 C-4.13254669 79.12309433 -4.13569885 78.01010468 -4.13894653 76.86338806 C-4.1369223 75.66968094 -4.13489807 74.47597382 -4.1328125 73.24609375 C-4.13376923 71.99482193 -4.13472595 70.74355011 -4.13571167 69.45436096 C-4.13639187 66.80067494 -4.13505514 64.14708104 -4.13037109 61.4934082 C-4.12365903 57.50404759 -4.13028629 53.51475214 -4.13671875 49.52539062 C-4.14157506 38.00595577 -4.10138445 26.48547162 -3.6796875 14.97265625 C-3.65770294 14.13842636 -3.63571838 13.30419647 -3.61306763 12.44468689 C-3.39398119 7.60673346 -2.54121121 4.25280422 0 0 Z " fill="#E0F8FE" transform="translate(91,338)"/>
<path d="M0 0 C0.33 0 0.66 0 1 0 C1 23.1 1 46.2 1 70 C0.34 70 -0.32 70 -1 70 C-1.85639745 67.05026827 -2.10349604 64.49138648 -2.03759766 61.42529297 C-2.02072906 60.52269745 -2.00386047 59.62010193 -1.98648071 58.69015503 C-1.9625827 57.71732574 -1.93868469 56.74449646 -1.9140625 55.7421875 C-1.89282318 54.72512726 -1.87158386 53.70806702 -1.84970093 52.66018677 C-1.80342094 50.4998008 -1.75449123 48.33947023 -1.703125 46.17919922 C-1.62644174 42.93597659 -1.55857241 39.69266664 -1.4921875 36.44921875 C-1.22949001 24.2817716 -0.78026778 12.14545858 0 0 Z " fill="#3279DF" transform="translate(86,350)"/>
<path d="M0 0 C2.64745321 0.28056438 5.29237964 0.57385631 7.9375 0.875 C8.69224609 0.95363281 9.44699219 1.03226563 10.22460938 1.11328125 C12.15919299 1.33883808 14.08176019 1.66258974 16 2 C17.48203779 4.96407559 17.11920826 7.62079165 17.11352539 10.92822266 C17.11367142 11.64052536 17.11381744 12.35282806 17.1139679 13.0867157 C17.11327011 15.44586206 17.10548397 17.80492989 17.09765625 20.1640625 C17.0957916 21.79788164 17.09436792 23.43170134 17.09336853 25.06552124 C17.08954709 29.3694818 17.07971998 33.67340871 17.06866455 37.97735596 C17.05844242 42.36771184 17.05386919 46.75807315 17.04882812 51.1484375 C17.03809739 59.76564046 17.02102543 68.38281604 17 77 C16.67 77 16.34 77 16 77 C15.67 53.24 15.34 29.48 15 5 C10.545 4.01 10.545 4.01 6 3 C3.98967123 2.36515933 1.98421259 1.71228144 0 1 C0 0.67 0 0.34 0 0 Z " fill="#2167CE" transform="translate(118,150)"/>
<path d="M0 0 C0.66 0 1.32 0 2 0 C-0.55838243 11.08632386 -10.96897761 19.80186674 -20 26 C-20.66 26 -21.32 26 -22 26 C-21.67 24.02 -21.34 22.04 -21 20 C-17.535 19.505 -17.535 19.505 -14 19 C-14 18.34 -14 17.68 -14 17 C-13.34 16.67 -12.68 16.34 -12 16 C-11.67 15.01 -11.34 14.02 -11 13 C-10.34 13 -9.68 13 -9 13 C-9.33 11.68 -9.66 10.36 -10 9 C-9.401875 8.855625 -8.80375 8.71125 -8.1875 8.5625 C-6.43849596 8.1127561 -4.71322977 7.57107659 -3 7 C-2.87625 6.21625 -2.7525 5.4325 -2.625 4.625 C-2 2 -2 2 0 0 Z " fill="#196BE4" transform="translate(293,242)"/>
<path d="M0 0 C9.00559039 3.17844367 18.44628484 10.34945938 23.5 18.5 C26.52664932 25.56218174 28.55261098 33.43920525 26 40.9375 C25.67 41.618125 25.34 42.29875 25 43 C24.67 43 24.34 43 24 43 C24 36.73 24 30.46 24 24 C23.34 23.67 22.68 23.34 22 23 C22 21.68 22 20.36 22 19 C21.01 18.67 20.02 18.34 19 18 C18.525625 17.195625 18.05125 16.39125 17.5625 15.5625 C15.87131535 12.78895718 14.88765009 12.25131504 12 11 C11.67 10.34 11.34 9.68 11 9 C10.01 8.67 9.02 8.34 8 8 C8 7.01 8 6.02 8 5 C6.8553125 4.5978125 6.8553125 4.5978125 5.6875 4.1875 C3.12619116 3.05575888 1.80307062 2.08776599 0 0 Z " fill="#1F6ACF" transform="translate(271,199)"/>
<path d="M0 0 C0.81621826 0.26478149 0.81621826 0.26478149 1.64892578 0.53491211 C4.13956164 1.34014533 6.63224042 2.13886662 9.125 2.9375 C10.40890625 3.35418945 10.40890625 3.35418945 11.71875 3.77929688 C16.13284044 5.18841036 20.38666501 6.4025353 25 7 C25 7.66 25 8.32 25 9 C42.16 9 59.32 9 77 9 C77 9.33 77 9.66 77 10 C69.09800959 10.05066409 61.19606098 10.08571846 53.29394531 10.10986328 C50.60509625 10.11879903 47.9163413 10.13272238 45.22753906 10.15087891 C41.36520687 10.17510756 37.50301925 10.18647875 33.640625 10.1953125 C32.4363385 10.20563507 31.232052 10.21595764 29.99127197 10.22659302 C28.87041199 10.22674408 27.749552 10.22689514 26.59472656 10.22705078 C25.11579926 10.23371262 25.11579926 10.23371262 23.60699463 10.24050903 C20.89921479 9.99070203 19.32714892 9.35525118 17 8 C15.63883869 7.47447165 14.26844784 6.97233788 12.890625 6.4921875 C12.13652344 6.22792969 11.38242188 5.96367187 10.60546875 5.69140625 C9.82816406 5.42199219 9.05085938 5.15257812 8.25 4.875 C7.45722656 4.59785156 6.66445312 4.32070313 5.84765625 4.03515625 C3.89926649 3.35439356 1.94974342 2.67687599 0 2 C0 1.34 0 0.68 0 0 Z " fill="#1F6EE6" transform="translate(107,443)"/>
<path d="M0 0 C0 0.66 0 1.32 0 2 C-6.8165735 3.7879537 -12.96517526 4.23668569 -20 4 C-20 4.66 -20 5.32 -20 6 C-21.32 6 -22.64 6 -24 6 C-24 6.66 -24 7.32 -24 8 C-25.65 8 -27.3 8 -29 8 C-29.433125 8.928125 -29.433125 8.928125 -29.875 9.875 C-31 12 -31 12 -33 14 C-34.98821313 14.39764263 -36.98944339 14.73775349 -39 15 C-28.44707877 3.42582833 -15.34909146 -0.39356645 0 0 Z " fill="#276BD6" transform="translate(417,317)"/>
<path d="M0 0 C1.51400391 0.01740234 1.51400391 0.01740234 3.05859375 0.03515625 C4.07050781 0.04417969 5.08242188 0.05320312 6.125 0.0625 C6.90746094 0.07410156 7.68992187 0.08570313 8.49609375 0.09765625 C5.09767261 2.05928313 1.89660358 2.70213757 -1.95703125 3.3515625 C-3.21644531 3.56619141 -4.47585938 3.78082031 -5.7734375 4.00195312 C-6.42779785 4.11015381 -7.0821582 4.21835449 -7.75634766 4.32983398 C-9.73445213 4.65693926 -11.71099157 4.99346323 -13.6875 5.33007812 C-31.01746454 8.25373677 -31.01746454 8.25373677 -38.50390625 8.16015625 C-39.45265625 8.15113281 -40.40140625 8.14210938 -41.37890625 8.1328125 C-42.08015625 8.12121094 -42.78140625 8.10960937 -43.50390625 8.09765625 C-43.50390625 7.43765625 -43.50390625 6.77765625 -43.50390625 6.09765625 C-41.69792969 6.00677734 -41.69792969 6.00677734 -39.85546875 5.9140625 C-38.27993548 5.82965893 -36.70441529 5.74501084 -35.12890625 5.66015625 C-34.33484375 5.62083984 -33.54078125 5.58152344 -32.72265625 5.54101562 C-28.47789404 5.40872221 -28.47789404 5.40872221 -24.50390625 4.09765625 C-22.4633562 4.02700008 -20.42056368 4.01343649 -18.37890625 4.03515625 C-17.28320312 4.04417969 -16.1875 4.05320312 -15.05859375 4.0625 C-14.21554687 4.07410156 -13.3725 4.08570313 -12.50390625 4.09765625 C-12.50390625 3.43765625 -12.50390625 2.77765625 -12.50390625 2.09765625 C-11.54677734 2.00677734 -11.54677734 2.00677734 -10.5703125 1.9140625 C-9.74402344 1.83027344 -8.91773438 1.74648438 -8.06640625 1.66015625 C-7.24269531 1.57894531 -6.41898437 1.49773437 -5.5703125 1.4140625 C-2.92454739 1.00894535 -2.81847556 0.10992494 0 0 Z " fill="#256BD6" transform="translate(315.50390625,462.90234375)"/>
<path d="M0 0 C10.91427307 3.89103522 22.03777662 8.82929677 28.890625 18.50390625 C27.900625 18.83390625 26.910625 19.16390625 25.890625 19.50390625 C25.560625 18.51390625 25.230625 17.52390625 24.890625 16.50390625 C23.900625 16.17390625 22.910625 15.84390625 21.890625 15.50390625 C21.560625 14.84390625 21.230625 14.18390625 20.890625 13.50390625 C19.900625 13.50390625 18.910625 13.50390625 17.890625 13.50390625 C17.4575 12.84390625 17.024375 12.18390625 16.578125 11.50390625 C16.02125 10.84390625 15.464375 10.18390625 14.890625 9.50390625 C11.76475625 9.16992838 11.76475625 9.16992838 8.890625 9.50390625 C8.560625 8.84390625 8.230625 8.18390625 7.890625 7.50390625 C8.220625 6.84390625 8.550625 6.18390625 8.890625 5.50390625 C8.045 5.38015625 7.199375 5.25640625 6.328125 5.12890625 C2.73825702 4.47620298 -0.61762375 3.55143162 -4.109375 2.50390625 C-4.109375 1.84390625 -4.109375 1.18390625 -4.109375 0.50390625 C-2.109375 -0.49609375 -2.109375 -0.49609375 0 0 Z " fill="#1B63DB" transform="translate(438.109375,320.49609375)"/>
<path d="M0 0 C0.556875 0.38671875 1.11375 0.7734375 1.6875 1.171875 C5.48879657 3.76600306 9.19592989 6.18305292 13.375 8.125 C16.49925661 9.65296645 18.46296262 10.7450973 20 14 C21.32104781 19.85035459 21.27991956 22.75212871 18 28 C16.87241911 24.61725734 17.18249738 23.23221777 17.9375 19.8125 C18.13214844 18.91144531 18.32679688 18.01039063 18.52734375 17.08203125 C18.68332031 16.39496094 18.83929688 15.70789063 19 15 C18.34 15 17.68 15 17 15 C16.67 14.01 16.34 13.02 16 12 C15.01 11.67 14.02 11.34 13 11 C13 10.34 13 9.68 13 9 C12.34 9 11.68 9 11 9 C11 9.66 11 10.32 11 11 C9.68 11 8.36 11 7 11 C5 8 5 8 5 5 C3.68 5 2.36 5 1 5 C0.67 3.35 0.34 1.7 0 0 Z " fill="#1D6AD8" transform="translate(272,148)"/>
<path d="M0 0 C1.47906892 -0.02689216 2.95827483 -0.04634621 4.4375 -0.0625 C5.26121094 -0.07410156 6.08492187 -0.08570313 6.93359375 -0.09765625 C9 0 9 0 10 1 C10.9075 0.95875 11.815 0.9175 12.75 0.875 C20.62293445 0.74459943 28.63315887 3.45206998 36 6 C36 6.66 36 7.32 36 8 C29.96251023 7.19500136 23.98729887 6.11517502 18 5 C18 4.34 18 3.68 18 3 C17.28714844 3.01160156 16.57429688 3.02320313 15.83984375 3.03515625 C10.43674634 3.08606026 5.32171525 2.94608271 0 2 C0 1.34 0 0.68 0 0 Z " fill="#2068D8" transform="translate(242,302)"/>
<path d="M0 0 C2.11328019 0.00502467 4.22656154 0.00958587 6.33984375 0.01367188 C11.47659142 0.02460167 16.61328274 0.0418131 21.75 0.0625 C21.75 0.3925 21.75 0.7225 21.75 1.0625 C20.48293213 1.08755615 19.21586426 1.1126123 17.91040039 1.13842773 C13.22702221 1.23231996 8.5437987 1.33258435 3.8605957 1.43481445 C1.83035896 1.47823241 -0.19991592 1.51990226 -2.23022461 1.55981445 C-5.14188151 1.61735146 -8.05334514 1.68109278 -10.96484375 1.74609375 C-12.33514992 1.77116249 -12.33514992 1.77116249 -13.73313904 1.79673767 C-17.81789316 1.4855685 -17.81789316 1.4855685 -21.25 3.0625 C-23.60313555 3.13521741 -25.95833668 3.14620868 -28.3125 3.125 C-29.60285156 3.11597656 -30.89320312 3.10695313 -32.22265625 3.09765625 C-33.22167969 3.08605469 -34.22070312 3.07445312 -35.25 3.0625 C-35.25 2.4025 -35.25 1.7425 -35.25 1.0625 C-23.53699641 -0.3407191 -11.77462264 -0.04885353 0 0 Z " fill="#286AD0" transform="translate(61.25,295.9375)"/>
<path d="M0 0 C0.33 0 0.66 0 1 0 C1.33 17.49 1.66 34.98 2 53 C2.99 53.33 3.98 53.66 5 54 C5 55.32 5 56.64 5 58 C2.25746165 56.9944026 1.20217563 56.40529237 -0.12435913 53.74604797 C-1.03980377 50.87517362 -1.20972293 48.75183407 -1.13525391 45.75073242 C-1.11508209 44.73005173 -1.09491028 43.70937103 -1.0741272 42.65776062 C-1.04193085 41.5680043 -1.0097345 40.47824799 -0.9765625 39.35546875 C-0.95153656 38.2305452 -0.92651062 37.10562164 -0.90072632 35.9466095 C-0.81867186 32.35992655 -0.72202456 28.77380616 -0.625 25.1875 C-0.56674567 22.75327806 -0.50944271 20.31903314 -0.453125 17.88476562 C-0.31311458 11.92286675 -0.16112698 5.96136353 0 0 Z " fill="#2867C7" transform="translate(135,231)"/>
<path d="M0 0 C7.12659698 -0.48315912 7.12659698 -0.48315912 10.9375 1.625 C13.52098259 4.59991934 13.64392886 6.08321744 14 10 C14.34075804 11.96071095 14.69589874 13.91895629 15.0625 15.875 C15.23910156 16.84179688 15.41570312 17.80859375 15.59765625 18.8046875 C15.79681641 19.89136719 15.79681641 19.89136719 16 21 C17.65 20.34 19.3 19.68 21 19 C19.8125 21 19.8125 21 18 23 C15.38671875 23.125 15.38671875 23.125 13 23 C12.87882813 21.72382812 12.75765625 20.44765625 12.6328125 19.1328125 C12.46400509 17.46349474 12.2947089 15.79422635 12.125 14.125 C12.04636719 13.28324219 11.96773437 12.44148438 11.88671875 11.57421875 C11.80292969 10.76855469 11.71914062 9.96289062 11.6328125 9.1328125 C11.55949707 8.38918457 11.48618164 7.64555664 11.41064453 6.87939453 C11.12608718 4.76617496 11.12608718 4.76617496 9 3 C6.56747339 2.53837573 6.56747339 2.53837573 3.875 2.375 C2.96492187 2.30023438 2.05484375 2.22546875 1.1171875 2.1484375 C0.41851562 2.09945312 -0.28015625 2.05046875 -1 2 C-0.67 1.34 -0.34 0.68 0 0 Z " fill="#2468BE" transform="translate(171,49)"/>
<path d="M0 0 C0.33 0 0.66 0 1 0 C1.103125 1.093125 1.20625 2.18625 1.3125 3.3125 C1.75761409 6.80918684 1.75761409 6.80918684 3.0625 8.875 C6.20956809 10.70232986 9.39651117 10.70463206 13 11 C13 11.66 13 12.32 13 13 C14.258125 12.896875 15.51625 12.79375 16.8125 12.6875 C19.02734375 12.671875 19.02734375 12.671875 21 13 C22.875 15.4375 22.875 15.4375 24 18 C24.66 18.33 25.32 18.66 26 19 C26 20.65 26 22.3 26 24 C25.46375 23.2575 24.9275 22.515 24.375 21.75 C20.4270726 17.17871564 16.92284632 15.02296157 11 14.0625 C5.90298592 13.17840254 3.4483187 11.89041084 0 8 C-1.48148148 2.96296296 -1.48148148 2.96296296 0 0 Z " fill="#236ACE" transform="translate(217,250)"/>
<path d="M0 0 C-26.00409836 9 -26.00409836 9 -34 9 C-34 8.34 -34 7.68 -34 7 C-32.02 7 -30.04 7 -28 7 C-27.67 6.01 -27.34 5.02 -27 4 C-25.35 4 -23.7 4 -22 4 C-22 3.67 -22 3.34 -22 3 C-19.03 3 -16.06 3 -13 3 C-13 2.34 -13 1.68 -13 1 C-11.58622218 0.63447197 -10.16879424 0.28304505 -8.75 -0.0625 C-7.96109375 -0.25972656 -7.1721875 -0.45695312 -6.359375 -0.66015625 C-3.89605178 -1.01497267 -2.34395868 -0.76877544 0 0 Z " fill="#216AD5" transform="translate(358,454)"/>
<path d="M0 0 C3.16115776 1.36983503 3.9927092 1.9890638 6 5 C6.265625 7.84765625 6.265625 7.84765625 6.25 11.0625 C6.25515625 12.12597656 6.2603125 13.18945312 6.265625 14.28515625 C6 17 6 17 4 19 C4 15.7 4 12.4 4 9 C3.01 9 2.02 9 1 9 C0.01 6.69 -0.98 4.38 -2 2 C-1.34 1.34 -0.68 0.68 0 0 Z " fill="#1B67E2" transform="translate(411,125)"/>
<path d="M0 0 C0 3 0 3 -1.4609375 4.6484375 C-2.09257812 5.21820313 -2.72421875 5.78796875 -3.375 6.375 C-6.19986568 9.0629025 -7.95006315 11.15023156 -9 15 C-9.66 15 -10.32 15 -11 15 C-10.67 15.99 -10.34 16.98 -10 18 C-11.65 17.67 -13.3 17.34 -15 17 C-15 17.66 -15 18.32 -15 19 C-16.95927063 20.7143618 -18.95880212 22.38405168 -21 24 C-21.66 23.67 -22.32 23.34 -23 23 C-15.41 15.41 -7.82 7.82 0 0 Z " fill="#2069D6" transform="translate(377,332)"/>
<path d="M0 0 C8.88073992 3.20953057 15.17092318 9.78394027 21 17 C20.67 17.66 20.34 18.32 20 19 C18.5 17.625 18.5 17.625 17 16 C17 15.34 17 14.68 17 14 C15.5459375 14.0309375 15.5459375 14.0309375 14.0625 14.0625 C11 14 11 14 10 13 C9.95936168 11.33382885 9.957279 9.66611905 10 8 C9.34 8 8.68 8 8 8 C7.34 7.01 6.68 6.02 6 5 C3.94074861 4.27617533 3.94074861 4.27617533 2 4 C2 3.34 2 2.68 2 2 C1.34 2 0.68 2 0 2 C0 1.34 0 0.68 0 0 Z " fill="#2165D1" transform="translate(288,313)"/>
<path d="M0 0 C2.16367464 1.69331059 2.95343602 2.84478674 3.75 5.5 C4.55586636 16.78212906 1.38777021 24.36390968 -4 34 C-4.33 32.68 -4.66 31.36 -5 30 C-4.34 30 -3.68 30 -3 30 C-3 29.01 -3 28.02 -3 27 C-3.66 26.67 -4.32 26.34 -5 26 C-3.68 26 -2.36 26 -1 26 C-1 24.68 -1 23.36 -1 22 C-0.34 22 0.32 22 1 22 C1.09377123 14.58165418 1.17402193 7.33763707 0 0 Z " fill="#1F67D4" transform="translate(470,345)"/>
<path d="M0 0 C2.475 0.99 2.475 0.99 5 2 C2.17015973 4.9746228 -0.76065023 7.39997658 -4.125 9.75 C-5.42824219 10.67039062 -5.42824219 10.67039062 -6.7578125 11.609375 C-9 13 -9 13 -11 13 C-10.67 11.35 -10.34 9.7 -10 8 C-9.34 8 -8.68 8 -8 8 C-7.67 7.34 -7.34 6.68 -7 6 C-7 6.66 -7 7.32 -7 8 C-6.01 7.67 -5.02 7.34 -4 7 C-3.67 5.35 -3.34 3.7 -3 2 C-2.01 2 -1.02 2 0 2 C0 1.34 0 0.68 0 0 Z " fill="#206ADE" transform="translate(222,82)"/>
<path d="M0 0 C4.6105758 1.55727228 8.16894476 4.04257276 12.0625 6.875 C12.97999023 7.52662109 12.97999023 7.52662109 13.91601562 8.19140625 C17.22629099 10.57480451 20.20587051 13.0038013 23 16 C21.39566191 15.52140759 19.79153584 15.04210442 18.1875 14.5625 C16.84751953 14.16224609 16.84751953 14.16224609 15.48046875 13.75390625 C13.64526945 13.19612127 11.81966274 12.60655425 10 12 C10 11.34 10 10.68 10 10 C9.34 9.67 8.68 9.34 8 9 C7.67 8.01 7.34 7.02 7 6 C6.01 5.505 5.02 5.01 4 4.5 C1 3 1 3 0 0 Z " fill="#2066D4" transform="translate(312,56)"/>
<path d="M0 0 C2.00720923 0.28674418 4.0085944 0.61866701 6 1 C2.45796328 4.15462645 -1.53997147 5.31607858 -6 6.625 C-6.7115625 6.8415625 -7.423125 7.058125 -8.15625 7.28125 C-14.09452452 9.076027 -18.76709615 10.11986354 -25 10 C-25 9.67 -25 9.34 -25 9 C-18.2933277 6.46234021 -11.16884233 5 -4 5 C-4 4.34 -4 3.68 -4 3 C-3.01 2.34 -2.02 1.68 -1 1 C-0.67 0.67 -0.34 0.34 0 0 Z " fill="#246FE3" transform="translate(340,386)"/>
<path d="M0 0 C-3.21179983 7.21016288 -9.21975198 13.10135739 -16 17 C-16.66 16.67 -17.32 16.34 -18 16 C-15.38308836 13.32529045 -12.75518292 10.66165519 -10.125 8 C-9.00544922 6.8553125 -9.00544922 6.8553125 -7.86328125 5.6875 C-7.14785156 4.965625 -6.43242187 4.24375 -5.6953125 3.5 C-5.03547363 2.8296875 -4.37563477 2.159375 -3.69580078 1.46875 C-2 0 -2 0 0 0 Z " fill="#CDEAFF" transform="translate(396,346)"/>
<path d="M0 0 C0.99 0.33 1.98 0.66 3 1 C3.29130874 5.95224859 3.22986308 9.10188939 0 13 C-3.40014672 14.87902845 -6.14982923 15.22000976 -10 15 C-8 12 -8 12 -4.5 11.1875 C-0.77313062 10.37248216 -0.77313062 10.37248216 0.5 7.125 C0.96141897 4.24113146 1.03248021 2.68444856 0 0 Z " fill="#1C69DA" transform="translate(266,229)"/>
<path d="M0 0 C0.99 0.33 1.98 0.66 3 1 C-3.55076408 17.59168934 -3.55076408 17.59168934 -8.5 20.4375 C-11.12068176 21.0271534 -12.50666985 20.92345561 -15 20 C-15 19.67 -15 19.34 -15 19 C-11.535 18.505 -11.535 18.505 -8 18 C-8 17.34 -8 16.68 -8 16 C-7.01 16 -6.02 16 -5 16 C-5 14.68 -5 13.36 -5 12 C-4.34 12 -3.68 12 -3 12 C-3 9.69 -3 7.38 -3 5 C-2.34 5 -1.68 5 -1 5 C-0.67 3.35 -0.34 1.7 0 0 Z " fill="#2268CE" transform="translate(268,268)"/>
<path d="M0 0 C0.66 0.33 1.32 0.66 2 1 C-1.89593647 6.33729026 -4.44063276 8.36015819 -11 10 C-12.49743888 11.98567734 -12.49743888 11.98567734 -13 14 C-14.98 14 -16.96 14 -19 14 C-15.67520926 10.34021775 -11.97306854 7.89741822 -7.8125 5.3125 C-3.68948368 2.92910048 -3.68948368 2.92910048 0 0 Z " fill="#2265D6" transform="translate(131,109)"/>
<path d="M0 0 C0.33 0.99 0.66 1.98 1 3 C-4.994002 8.80064709 -12.1613843 9.20925139 -20.15234375 9.265625 C-22 9 -22 9 -24 7 C-22.98292969 6.92652344 -22.98292969 6.92652344 -21.9453125 6.8515625 C-17.10467282 6.46270225 -12.29172253 5.98612042 -7.5 5.1875 C-6.30890625 4.99220703 -6.30890625 4.99220703 -5.09375 4.79296875 C-2.4185983 3.77980495 -1.50551784 2.37891121 0 0 Z " fill="#2468CE" transform="translate(164,282)"/>
<path d="M0 0 C0.66 0.33 1.32 0.66 2 1 C2 1.99 2 2.98 2 4 C1.05125 4.12375 0.1025 4.2475 -0.875 4.375 C-4.08667191 4.71687177 -4.08667191 4.71687177 -6 7 C-6.99 7 -7.98 7 -9 7 C-9 7.66 -9 8.32 -9 9 C-9.66 9 -10.32 9 -11 9 C-11 9.99 -11 10.98 -11 12 C-11.99 12.33 -12.98 12.66 -14 13 C-14 12.34 -14 11.68 -14 11 C-14.99 11.66 -15.98 12.32 -17 13 C-17.99 12.67 -18.98 12.34 -20 12 C-16.71619398 9.96617319 -13.42178728 7.95020438 -10.125 5.9375 C-9.18785156 5.35677734 -8.25070312 4.77605469 -7.28515625 4.17773438 C-6.38925781 3.63310547 -5.49335938 3.08847656 -4.5703125 2.52734375 C-3.74289551 2.01937256 -2.91547852 1.51140137 -2.06298828 0.98803711 C-1.04180908 0.49895874 -1.04180908 0.49895874 0 0 Z " fill="#2371E5" transform="translate(398,408)"/>
<path d="M0 0 C0.66 0.33 1.32 0.66 2 1 C-2.01043999 5.47318306 -6.19401599 7.86442449 -12.125 8.8125 C-16 9 -16 9 -20 7 C-15.545 6.505 -15.545 6.505 -11 6 C-11 5.34 -11 4.68 -11 4 C-7.59437148 3.22157062 -4.49234244 2.90021879 -1 3 C-0.67 2.01 -0.34 1.02 0 0 Z " fill="#1E69D9" transform="translate(413,144)"/>
<path d="M0 0 C0.66 0.33 1.32 0.66 2 1 C1 4 1 4 -2 6 C-2.99 6 -3.98 6 -5 6 C-5.23460937 6.62390625 -5.46921875 7.2478125 -5.7109375 7.890625 C-7.36823075 10.60255941 -8.6141599 10.88975997 -11.625 11.75 C-12.85089844 12.11351562 -12.85089844 12.11351562 -14.1015625 12.484375 C-15.04128906 12.73960938 -15.04128906 12.73960938 -16 13 C-11.3126338 7.82773385 -5.68271819 4.01074507 0 0 Z " fill="#1C65DD" transform="translate(251,25)"/>
<path d="M0 0 C2.64 0.33 5.28 0.66 8 1 C5.16667533 4.04516202 2.34499689 6.16868601 -1.25 8.25 C-2.14203125 8.77078125 -3.0340625 9.2915625 -3.953125 9.828125 C-4.62859375 10.21484375 -5.3040625 10.6015625 -6 11 C-6 10.01 -6 9.02 -6 8 C-4.68 7.67 -3.36 7.34 -2 7 C-1.34 4.69 -0.68 2.38 0 0 Z " fill="#1970F0" transform="translate(354,376)"/>
<path d="M0 0 C3.45958631 1.81288366 6.73834871 3.85400408 10 6 C9.01 6.495 9.01 6.495 8 7 C7.12085938 6.55011719 6.24171875 6.10023437 5.3359375 5.63671875 C1.669786 3.83798634 -1.33591705 3.30785923 -5.375 2.8125 C-6.62023437 2.65394531 -7.86546875 2.49539062 -9.1484375 2.33203125 C-10.08945313 2.22246094 -11.03046875 2.11289062 -12 2 C-7.6057022 -0.92953187 -5.07924105 -1.54866152 0 0 Z " fill="#1B69DE" transform="translate(265,23)"/>
<path d="M0 0 C0.94875 0.350625 1.8975 0.70125 2.875 1.0625 C5.87060172 2.35026777 5.87060172 2.35026777 8 1 C10.33333333 1.66666667 12.66666667 2.33333333 15 3 C15.66 2.67 16.32 2.34 17 2 C17.33 2.99 17.66 3.98 18 5 C5.33029613 5.18451025 5.33029613 5.18451025 0 4 C0 2.68 0 1.36 0 0 Z " fill="#106CF9" transform="translate(385,146)"/>
<path d="M0 0 C2 2 2 2 2.125 5.5 C1.26046039 11.46422897 -2.96704559 15.76910918 -7 20 C-7.66 20.33 -8.32 20.66 -9 21 C-9 20.01 -9 19.02 -9 18 C-8.34 18 -7.68 18 -7 18 C-7 17.34 -7 16.68 -7 16 C-6.34 16 -5.68 16 -5 16 C-4.8453125 15.13375 -4.8453125 15.13375 -4.6875 14.25 C-4 12 -4 12 -2.5 10.25 C-0.29065625 6.93598437 -0.32885089 3.94621066 0 0 Z " fill="#D1EEFE" transform="translate(449,353)"/>
<path d="M0 0 C0.33 0 0.66 0 1 0 C1.03758423 0.86951294 1.03758423 0.86951294 1.07592773 1.7565918 C1.19246234 4.40042107 1.31492682 7.04394409 1.4375 9.6875 C1.47681641 10.59951172 1.51613281 11.51152344 1.55664062 12.45117188 C1.59853516 13.33740234 1.64042969 14.22363281 1.68359375 15.13671875 C1.72025146 15.94842529 1.75690918 16.76013184 1.79467773 17.59643555 C2.01037431 20.12144485 2.45899452 22.52600697 3 25 C0 23 0 23 -0.6875 20.5625 C-1.29205566 13.67056552 -1.46924567 6.79526121 0 0 Z " fill="#CFEAFE" transform="translate(88,407)"/>
<path d="M0 0 C0.66 0.33 1.32 0.66 2 1 C1.34 1.66 0.68 2.32 0 3 C-0.24360073 6.12814514 -0.24360073 6.12814514 -0.125 9.625 C-0.10695312 10.81351562 -0.08890625 12.00203125 -0.0703125 13.2265625 C-0.04710937 14.14179688 -0.02390625 15.05703125 0 16 C1.32 16.66 2.64 17.32 4 18 C3.34 18.33 2.68 18.66 2 19 C-2.25338718 15.15823093 -2.84952304 13.1066775 -3.25 7.5 C-2.98895202 3.84532826 -2.48615744 2.58974733 0 0 Z " fill="#2D74E1" transform="translate(181,380)"/>
<path d="M0 0 C0.66 0.33 1.32 0.66 2 1 C1.34 1.433125 0.68 1.86625 0 2.3125 C-3.12271938 6.50865417 -2.4543787 10.93479478 -2 16 C-1.70256801 17.34179846 -1.3829101 18.68004972 -1 20 C-3.74089824 17.63286061 -5.02493482 15.49398354 -6 12 C-5.88160941 6.43564208 -3.63362835 3.91313822 0 0 Z " fill="#2264CF" transform="translate(110,123)"/>
<path d="M0 0 C0.33 0 0.66 0 1 0 C1 1.65 1 3.3 1 5 C-0.98 5.99 -0.98 5.99 -3 7 C-2.95875 7.804375 -2.9175 8.60875 -2.875 9.4375 C-3.0279781 13.79737593 -3.94975235 17.78025497 -5 22 C-5.33 22 -5.66 22 -6 22 C-6.70939572 13.70795225 -5.43519002 8.06722081 -1 1 C-0.67 0.67 -0.34 0.34 0 0 Z " fill="#1D66D4" transform="translate(222,169)"/>
<path d="M0 0 C0.33 0 0.66 0 1 0 C1.08710289 3.10398978 1.14042309 6.20766548 1.1875 9.3125 C1.21263672 10.19357422 1.23777344 11.07464844 1.26367188 11.98242188 C1.27333984 12.82998047 1.28300781 13.67753906 1.29296875 14.55078125 C1.3086792 15.33106689 1.32438965 16.11135254 1.34057617 16.9152832 C0.91847304 19.49903853 -0.01489942 20.36292167 -2 22 C-1.86105852 18.89548451 -1.712657 15.79149165 -1.5625 12.6875 C-1.50352539 11.36588867 -1.50352539 11.36588867 -1.44335938 10.01757812 C-1.40146484 9.17001953 -1.35957031 8.32246094 -1.31640625 7.44921875 C-1.27974854 6.66893311 -1.24309082 5.88864746 -1.20532227 5.0847168 C-1 3 -1 3 0 0 Z " fill="#1E6ED5" transform="translate(167,131)"/>
<path d="M0 0 C-2.52235132 1.68156755 -5.03586642 3.16468006 -7.6875 4.625 C-8.49574219 5.07101562 -9.30398438 5.51703125 -10.13671875 5.9765625 C-10.75160156 6.31429688 -11.36648438 6.65203125 -12 7 C-11.1328125 2.234375 -11.1328125 2.234375 -9.9375 0.125 C-6.66992981 -1.77229882 -3.63093124 -0.65475809 0 0 Z " fill="#1C71EB" transform="translate(405,340)"/>
<path d="M0 0 C0.33 0.66 0.66 1.32 1 2 C1.99 2.33 2.98 2.66 4 3 C4 4.32 4 5.64 4 7 C2.68 7 1.36 7 0 7 C0 9.64 0 12.28 0 15 C-0.33 15 -0.66 15 -1 15 C-2.51708428 4.44191344 -2.51708428 4.44191344 0 0 Z " fill="#1668E9" transform="translate(219,242)"/>
<path d="M0 0 C1.32 0.66 2.64 1.32 4 2 C2.3970551 3.29318256 0.79259858 4.58449156 -0.8125 5.875 C-1.70582031 6.59429687 -2.59914062 7.31359375 -3.51953125 8.0546875 C-6 10 -6 10 -9 12 C-9 10.68 -9 9.36 -9 8 C-8.01 8 -7.02 8 -6 8 C-6 7.01 -6 6.02 -6 5 C-5.38125 4.9175 -4.7625 4.835 -4.125 4.75 C-1.81562433 4.18741541 -1.81562433 4.18741541 -0.75 1.9375 C-0.37875 0.9784375 -0.37875 0.9784375 0 0 Z " fill="#1C67DB" transform="translate(178,114)"/>
<path d="M0 0 C4.43458973 1.3937282 6.87378374 3.60582235 10 7 C7 7 4 7 1 7 C0.67 4.69 0.34 2.38 0 0 Z " fill="#176AE5" transform="translate(378,102)"/>
<path d="M0 0 C2 2 2 2 2.1953125 5.4765625 C2.18201493 6.85950968 2.15816232 8.24238654 2.125 9.625 C2.11597656 10.33140625 2.10695313 11.0378125 2.09765625 11.765625 C2.07407603 13.51056098 2.03820461 15.25532295 2 17 C1.34 17 0.68 17 0 17 C-1.23104155 13.31599416 -0.90767252 10.08525024 -0.5625 6.25 C-0.46066406 5.07953125 -0.35882813 3.9090625 -0.25390625 2.703125 C-0.17011719 1.81109375 -0.08632812 0.9190625 0 0 Z " fill="#1D6CDC" transform="translate(85,403)"/>
<path d="M0 0 C0.99 0.66 1.98 1.32 3 2 C0.69 4.31 -1.62 6.62 -4 9 C-4.66 7.68 -5.32 6.36 -6 5 C-5 2 -5 2 -2.625 0.6875 C-1.75875 0.460625 -0.8925 0.23375 0 0 Z " fill="#186BEC" transform="translate(377,359)"/>
<path d="M0 0 C0.66 0.33 1.32 0.66 2 1 C-0.85276137 3.93200474 -3.65079784 6.64315404 -7 9 C-7.66 8.67 -8.32 8.34 -9 8 C-9 8.66 -9 9.32 -9 10 C-10.65 10.33 -12.3 10.66 -14 11 C-11.14325205 7.98306057 -8.17651069 5.59445469 -4.75 3.25 C-3.85796875 2.63640625 -2.9659375 2.0228125 -2.046875 1.390625 C-1.03367188 0.70226563 -1.03367188 0.70226563 0 0 Z " fill="#1D66D5" transform="translate(206,57)"/>
<path d="M0 0 C5.08938811 1.59043379 8.87456643 4.7446951 13 8 C9.8035914 9.06546953 7.34252724 9.07427838 4 9 C4.33 8.01 4.66 7.02 5 6 C4.67 5.01 4.34 4.02 4 3 C1.98491642 2.26676204 1.98491642 2.26676204 0 2 C0 1.34 0 0.68 0 0 Z " fill="#1C69DB" transform="translate(394,113)"/>
<path d="M0 0 C-2.75927344 2.75927344 -5.21154052 2.51783243 -9 3 C-9.33 3.33 -9.66 3.66 -10 4 C-12.67058851 4.14115161 -15.32432238 4.04247107 -18 4 C-14.89724263 1.93149509 -12.5900783 1.21441918 -9 0.3125 C-7.948125 0.04050781 -6.89625 -0.23148437 -5.8125 -0.51171875 C-3 -1 -3 -1 0 0 Z " fill="#327CE4" transform="translate(330,441)"/>
<path d="M0 0 C0.33 0 0.66 0 1 0 C1.165 1.03125 1.33 2.0625 1.5 3.125 C2.71197273 7.51840114 5.45806415 9.27792907 9.125 11.73828125 C11 13 11 13 13 15 C11.35 15 9.7 15 8 15 C8 14.34 8 13.68 8 13 C7.4225 12.731875 6.845 12.46375 6.25 12.1875 C5.5075 11.795625 4.765 11.40375 4 11 C3.2575 10.62875 2.515 10.2575 1.75 9.875 C-0.36836666 7.60532144 -0.25 6.83217179 -0.25 3.8125 C-0.1675 2.554375 -0.085 1.29625 0 0 Z " fill="#2972E1" transform="translate(87,424)"/>
<path d="M0 0 C0.99 0.66 1.98 1.32 3 2 C1.37829621 3.00533667 -0.24747237 4.00411907 -1.875 5 C-3.23238281 5.8353125 -3.23238281 5.8353125 -4.6171875 6.6875 C-7 8 -7 8 -9 8 C-9.33 7.01 -9.66 6.02 -10 5 C-6.66666667 3.33333333 -3.33333333 1.66666667 0 0 Z " fill="#E0F2FE" transform="translate(394,408)"/>
<path d="M0 0 C1.3921875 0.3403125 1.3921875 0.3403125 2.8125 0.6875 C-0.38418988 3.3361859 -3.58236597 5.62742341 -7.1875 7.6875 C-6.83051497 5.04581079 -6.435192 3.07859264 -5 0.8125 C-3.1875 -0.3125 -3.1875 -0.3125 0 0 Z " fill="#1F6FE6" transform="translate(98.1875,330.3125)"/>
<path d="M0 0 C8.6309795 5.0022779 8.6309795 5.0022779 11 9 C10.67 9.66 10.34 10.32 10 11 C8.5 9.625 8.5 9.625 7 8 C7 7.34 7 6.68 7 6 C5.5459375 6.0309375 5.5459375 6.0309375 4.0625 6.0625 C1 6 1 6 0 5 C-0.04063832 3.33382885 -0.042721 1.66611905 0 0 Z " fill="#186BE3" transform="translate(298,321)"/>
<path d="M0 0 C-1 1 -1 1 -4.16015625 1.09765625 C-6.09181641 1.08025391 -6.09181641 1.08025391 -8.0625 1.0625 C-9.35285156 1.05347656 -10.64320312 1.04445313 -11.97265625 1.03515625 C-12.97167969 1.02355469 -13.97070312 1.01195312 -15 1 C-15 0.34 -15 -0.32 -15 -1 C-13.06403108 -1.22211116 -11.12610672 -1.42722992 -9.1875 -1.625 C-8.10855469 -1.74101562 -7.02960937 -1.85703125 -5.91796875 -1.9765625 C-3 -2 -3 -2 0 0 Z " fill="#1E6AD9" transform="translate(41,298)"/>
<path d="M0 0 C4.44606073 0.49400675 5.9455274 1.85568997 9 5 C11.28037349 6.45608264 13.61483694 7.71568143 16 9 C16 9.66 16 10.32 16 11 C11.87321179 9.55901911 8.69813572 7.52700506 5.1875 4.9375 C4.21167969 4.22464844 3.23585938 3.51179688 2.23046875 2.77734375 C1.49441406 2.19082031 0.75835937 1.60429688 0 1 C0 0.67 0 0.34 0 0 Z " fill="#1E63D3" transform="translate(278,74)"/>
<path d="M0 0 C0.66 0.33 1.32 0.66 2 1 C1.01 2.485 1.01 2.485 0 4 C0 4.66 0 5.32 0 6 C-5.445 7.485 -5.445 7.485 -11 9 C-7.40360547 5.40360547 -4.13521513 2.86284125 0 0 Z " fill="#1C69D6" transform="translate(230,40)"/>
<path d="M0 0 C3.47130826 3.47130826 3.65989067 4.23846942 4 9 C3.78196236 12.68128659 3.42364637 16.33708834 3 20 C2.67 20 2.34 20 2 20 C1.34 13.4 0.68 6.8 0 0 Z " fill="#2462CB" transform="translate(470,345)"/>
<path d="M0 0 C2.27057377 -0.05398987 4.54151288 -0.09278742 6.8125 -0.125 C8.07707031 -0.14820313 9.34164063 -0.17140625 10.64453125 -0.1953125 C14 0 14 0 17 2 C14.29966295 3.35016853 12.93418878 2.60017498 10 2 C6.01891594 1.75626016 3.42652019 1.89137219 0 4 C0 2.68 0 1.36 0 0 Z " fill="#266CCF" transform="translate(250,173)"/>
<path d="M0 0 C3.34708051 1.54841575 6.24667512 3.49105864 9.25 5.625 C10.14203125 6.25664063 11.0340625 6.88828125 11.953125 7.5390625 C12.96632813 8.26222656 12.96632813 8.26222656 14 9 C13.01 9.33 12.02 9.66 11 10 C10.566875 9.525625 10.13375 9.05125 9.6875 8.5625 C7.97690387 6.76313043 7.97690387 6.76313043 5 6 C5 5.34 5 4.68 5 4 C3.68 4 2.36 4 1 4 C0.67 2.68 0.34 1.36 0 0 Z " fill="#2067D4" transform="translate(288,39)"/>
<path d="M0 0 C2.31 0.33 4.62 0.66 7 1 C4.6875 3.5 4.6875 3.5 2 6 C1.01 6 0.02 6 -1 6 C-0.67 4.02 -0.34 2.04 0 0 Z " fill="#1D69E5" transform="translate(426,409)"/>
<path d="M0 0 C1.75570312 0.01353516 1.75570312 0.01353516 3.546875 0.02734375 C4.43890625 0.03894531 5.3309375 0.05054688 6.25 0.0625 C6.25 0.3925 6.25 0.7225 6.25 1.0625 C5.46753906 1.12308594 4.68507812 1.18367188 3.87890625 1.24609375 C2.36103516 1.37177734 2.36103516 1.37177734 0.8125 1.5 C-0.19683594 1.58121094 -1.20617187 1.66242188 -2.24609375 1.74609375 C-4.68640779 1.79461468 -4.68640779 1.79461468 -5.75 3.0625 C-7.26928038 3.13429964 -8.79167482 3.14642007 -10.3125 3.125 C-11.13878906 3.11597656 -11.96507813 3.10695313 -12.81640625 3.09765625 C-13.45449219 3.08605469 -14.09257813 3.07445312 -14.75 3.0625 C-9.68666637 0.34999984 -5.75002153 -0.05750022 0 0 Z " fill="#D3EEFD" transform="translate(123.75,325.9375)"/>
<path d="M0 0 C0.66 0.33 1.32 0.66 2 1 C2 4.96 2 8.92 2 13 C1.01 13.33 0.02 13.66 -1 14 C-0.67 9.38 -0.34 4.76 0 0 Z " fill="#176BEA" transform="translate(67,320)"/>
<path d="M0 0 C0.99 0.66 1.98 1.32 3 2 C0.36 4.64 -2.28 7.28 -5 10 C-5.33 8.68 -5.66 7.36 -6 6 C-5.34 6 -4.68 6 -4 6 C-3.67 5.01 -3.34 4.02 -3 3 C-2.01 3 -1.02 3 0 3 C0 2.01 0 1.02 0 0 Z " fill="#186CE6" transform="translate(390,346)"/>
<path d="M0 0 C4.29 0.33 8.58 0.66 13 1 C13 1.99 13 2.98 13 4 C13.66 4 14.32 4 15 4 C15 4.66 15 5.32 15 6 C10 4.33333333 5 2.66666667 0 1 C0 0.67 0 0.34 0 0 Z " fill="#2E78E4" transform="translate(424,339)"/>
<path d="M0 0 C-1 2 -1 2 -3 3.125 C-7.04017477 4.30338431 -10.82206849 4.16384045 -15 4 C-12.18438333 2.52790818 -9.38026161 1.34273182 -6.375 0.3125 C-5.59898437 0.04050781 -4.82296875 -0.23148437 -4.0234375 -0.51171875 C-2 -1 -2 -1 0 0 Z " fill="#CEE8FD" transform="translate(341,391)"/>
<path d="M0 0 C0.99 0.33 1.98 0.66 3 1 C2.01 2.485 2.01 2.485 1 4 C0.76816633 8.17300608 1.01580661 11.94020228 2 16 C1.34 16 0.68 16 0 16 C-1.43316898 13.13366205 -1.13200361 10.62764499 -1.125 7.4375 C-1.12757813 6.26058594 -1.13015625 5.08367187 -1.1328125 3.87109375 C-1 1 -1 1 0 0 Z " fill="#DAF3FE" transform="translate(178,380)"/>
<path d="M0 0 C3.57011026 3.732388 4.10913442 8.0949989 5 13 C4.34 13 3.68 13 3 13 C2.67 11.02 2.34 9.04 2 7 C1.01 6.67 0.02 6.34 -1 6 C-0.67 4.02 -0.34 2.04 0 0 Z " fill="#2065D7" transform="translate(311,336)"/>
<path d="M0 0 C4.30764815 1.56641751 8.06171464 3.68336156 12 6 C11.67 6.66 11.34 7.32 11 8 C8.525 7.01 8.525 7.01 6 6 C6 5.34 6 4.68 6 4 C4.35 4 2.7 4 1 4 C0.67 2.68 0.34 1.36 0 0 Z " fill="#2168D2" transform="translate(250,187)"/>
<path d="M0 0 C2.475 0.99 2.475 0.99 5 2 C3.1875 4 3.1875 4 1 6 C0.01 6 -0.98 6 -2 6 C-2.33 4.68 -2.66 3.36 -3 2 C-2.01 2 -1.02 2 0 2 C0 1.34 0 0.68 0 0 Z " fill="#1769E5" transform="translate(222,82)"/>
<path d="M0 0 C3.78496138 1.51398455 4.0072198 2.0144396 6 6 C3.03 5.01 0.06 4.02 -3 3 C-2.01 2.67 -1.02 2.34 0 2 C0 1.34 0 0.68 0 0 Z " fill="#1C6BDF" transform="translate(250,217)"/>
<path d="M0 0 C0.97079451 3.0202496 1.32756618 5.06038917 0 8 C-2.4375 9.8125 -2.4375 9.8125 -5 11 C-5.66 10.67 -6.32 10.34 -7 10 C-6.21625 9.278125 -5.4325 8.55625 -4.625 7.8125 C-2.15587562 5.16700959 -1.06739722 3.39626389 0 0 Z " fill="#2166D3" transform="translate(244,145)"/>
<path d="M0 0 C0.66 0 1.32 0 2 0 C2 2.64 2 5.28 2 8 C1.34 8 0.68 8 0 8 C-0.144375 8.78375 -0.28875 9.5675 -0.4375 10.375 C-1 13 -1 13 -2 15 C-2.66 14.67 -3.32 14.34 -4 14 C-3.566875 13.11248047 -3.566875 13.11248047 -3.125 12.20703125 C-0.28619606 6.3797754 -0.28619606 6.3797754 0 0 Z " fill="#2168CF" transform="translate(143,87)"/>
<path d="M0 0 C5.26159459 -0.64165788 7.68592849 0.79422999 11.6796875 3.90625 C12.11539062 4.2671875 12.55109375 4.628125 13 5 C8.42216649 5 4.31553836 3.43851279 0 2 C0 1.34 0 0.68 0 0 Z " fill="#196BDD" transform="translate(322,66)"/>
<path d="M0 0 C1.65 0 3.3 0 5 0 C4.25 2.4375 4.25 2.4375 3 5 C0.875 5.8125 0.875 5.8125 -1 6 C-0.67 4.02 -0.34 2.04 0 0 Z " fill="#1E68DB" transform="translate(83,469)"/>
<path d="M0 0 C2.97 0.33 5.94 0.66 9 1 C6.60236815 3.39763185 5.66726502 3.34280586 2.375 3.625 C1.55773437 3.69976562 0.74046875 3.77453125 -0.1015625 3.8515625 C-0.72804688 3.90054687 -1.35453125 3.94953125 -2 4 C-1.34 2.68 -0.68 1.36 0 0 Z " fill="#166BE5" transform="translate(354,450)"/>
<path d="M0 0 C0 0.99 0 1.98 0 3 C-1.75 4.60546875 -1.75 4.60546875 -4 6.1875 C-4.7425 6.71730469 -5.485 7.24710937 -6.25 7.79296875 C-6.8275 8.19128906 -7.405 8.58960938 -8 9 C-8.66 8.67 -9.32 8.34 -10 8 C-6.88983545 4.71211176 -3.98381075 2.16264012 0 0 Z " fill="#D9F0FE" transform="translate(388,354)"/>
<path d="M0 0 C0.33 0 0.66 0 1 0 C1 2.97 1 5.94 1 9 C2.98 9 4.96 9 7 9 C6.01 10.485 6.01 10.485 5 12 C1.125 11.125 1.125 11.125 0 10 C-0.07205511 8.31391034 -0.08386068 6.62499341 -0.0625 4.9375 C-0.05347656 4.01839844 -0.04445313 3.09929687 -0.03515625 2.15234375 C-0.02355469 1.44207031 -0.01195312 0.73179687 0 0 Z " fill="#2069D6" transform="translate(352,312)"/>
<path d="M0 0 C1.8253125 0.4640625 1.8253125 0.4640625 3.6875 0.9375 C6.7782972 1.71157177 9.86734334 2.41262688 13 3 C13 3.33 13 3.66 13 4 C11.39620659 4.05416188 9.79188594 4.09286638 8.1875 4.125 C7.29417969 4.14820313 6.40085938 4.17140625 5.48046875 4.1953125 C3 4 3 4 0 2 C0 1.34 0 0.68 0 0 Z " fill="#266CC9" transform="translate(232,239)"/>
<path d="M0 0 C2.31 0.33 4.62 0.66 7 1 C7.66 2.65 8.32 4.3 9 6 C5.06326356 4.68775452 2.77280706 3.08089673 0 0 Z " fill="#1D66DF" transform="translate(334,112)"/>
<path d="M0 0 C0 0.66 0 1.32 0 2 C-0.66 2 -1.32 2 -2 2 C-1.67 3.32 -1.34 4.64 -1 6 C-4.65316671 4.75023244 -5.78065836 4.32901247 -8 1 C-5.23735711 0.40267181 -2.83967231 0 0 0 Z " fill="#1B6DE1" transform="translate(308,88)"/>
<path d="M0 0 C0.99 0.66 1.98 1.32 3 2 C-0.465 4.97 -0.465 4.97 -4 8 C-4.33 6.68 -4.66 5.36 -5 4 C-4.01 4 -3.02 4 -2 4 C-1.34 2.68 -0.68 1.36 0 0 Z " fill="#2673E5" transform="translate(369,367)"/>
<path d="M0 0 C2.64 0 5.28 0 8 0 C8.33 0.99 8.66 1.98 9 3 C8.67 3.66 8.34 4.32 8 5 C4.62496331 3.8141763 2.35277269 2.72426311 0 0 Z " fill="#1D6BDF" transform="translate(231,210)"/>
<path d="M0 0 C1.81618856 1.11903546 3.62785526 2.24541284 5.4375 3.375 C6.44683594 4.00148438 7.45617187 4.62796875 8.49609375 5.2734375 C11 7 11 7 12 9 C7.97032739 7.78172689 4.39841445 6.52453645 1 4 C0.36328125 1.8984375 0.36328125 1.8984375 0 0 Z " fill="#2665CA" transform="translate(342,76)"/>
<path d="M0 0 C0.33 0.66 0.66 1.32 1 2 C0 5 0 5 -2 6 C-2.33 6.66 -2.66 7.32 -3 8 C-4.32 7.34 -5.64 6.68 -7 6 C-4.69 4.02 -2.38 2.04 0 0 Z " fill="#1E6BE0" transform="translate(352,356)"/>
<path d="M0 0 C2.73704754 2.73704754 3.16182449 5.26044774 4 9 C3.625 11.4375 3.625 11.4375 3 13 C0.89172945 9.83759418 0.66182535 8.49342531 0.375 4.8125 C0.30023438 3.91144531 0.22546875 3.01039063 0.1484375 2.08203125 C0.09945313 1.39496094 0.05046875 0.70789063 0 0 Z " fill="#CBEBFD" transform="translate(292,350)"/>
<path d="M0 0 C2.0245738 1.93254772 3.42105792 3.63158688 5 6 C6.32 5.34 7.64 4.68 9 4 C7.8125 6 7.8125 6 6 8 C3.3125 8.25 3.3125 8.25 1 8 C0.67 5.36 0.34 2.72 0 0 Z " fill="#1D68D1" transform="translate(183,64)"/>
<path d="M0 0 C0.33 1.32 0.66 2.64 1 4 C-3.455 5.485 -3.455 5.485 -8 7 C-5.42215154 4.35247996 -3.08351902 2.05567935 0 0 Z " fill="#2268D5" transform="translate(243,31)"/>
<path d="M0 0 C0.66 0.33 1.32 0.66 2 1 C1.360625 1.268125 0.72125 1.53625 0.0625 1.8125 C-2.33131686 2.88667752 -2.33131686 2.88667752 -3 6 C-4.65 5.67 -6.3 5.34 -8 5 C-5.45378681 2.99940392 -3.01962385 1.20784954 0 0 Z " fill="#226CDA" transform="translate(332,370)"/>
<path d="M0 0 C0.33 0.66 0.66 1.32 1 2 C-7.57142857 2.28571429 -7.57142857 2.28571429 -11 0 C-6.88825414 -1.37058195 -4.26339405 -0.75640862 0 0 Z " fill="#2767D4" transform="translate(433,319)"/>
<path d="M0 0 C3.3 0 6.6 0 10 0 C10.33 0.66 10.66 1.32 11 2 C7.95699684 3.52150158 5.345915 3.23899393 2 3 C1.34 2.01 0.68 1.02 0 0 Z " fill="#1669E2" transform="translate(249,284)"/>
<path d="M0 0 C0.66 0.66 1.32 1.32 2 2 C-2.62 2 -7.24 2 -12 2 C-7.336913 -1.10872467 -5.55448711 -1.09105997 0 0 Z " fill="#2267C6" transform="translate(265,23)"/>
<path d="M0 0 C3.3 0.33 6.6 0.66 10 1 C10.33 1.99 10.66 2.98 11 4 C7.0507432 3.44894091 3.65079826 2.61064629 0 1 C0 0.67 0 0.34 0 0 Z " fill="#216BD5" transform="translate(102,464)"/>
<path d="M0 0 C0.33 0.99 0.66 1.98 1 3 C-1.97 5.475 -1.97 5.475 -5 8 C-5.66 7.67 -6.32 7.34 -7 7 C-4.69 4.69 -2.38 2.38 0 0 Z " fill="#1F6CE3" transform="translate(444,370)"/>
<path d="M0 0 C0.66 0 1.32 0 2 0 C4.20052594 2.20052594 4.3929392 3.05141896 5 6 C5.185625 6.7425 5.37125 7.485 5.5625 8.25 C5.7790625 9.11625 5.7790625 9.11625 6 10 C2.79851787 7.86567858 2.47793261 7.31580104 1.3125 3.875 C1.06113281 3.15054687 0.80976563 2.42609375 0.55078125 1.6796875 C0.36902344 1.12539063 0.18726563 0.57109375 0 0 Z " fill="#1864D8" transform="translate(243,274)"/>
<path d="M0 0 C3.93673644 1.31224548 6.22719294 2.91910327 9 6 C6.03 5.505 6.03 5.505 3 5 C3 4.34 3 3.68 3 3 C2.01 2.67 1.02 2.34 0 2 C0 1.34 0 0.68 0 0 Z " fill="#2367D5" transform="translate(361,90)"/>
<path d="M0 0 C2.475 0.495 2.475 0.495 5 1 C5 1.66 5 2.32 5 3 C6.32 3 7.64 3 9 3 C9 3.99 9 4.98 9 6 C5.06326356 4.68775452 2.77280706 3.08089673 0 0 Z " fill="#226ED8" transform="translate(307,94)"/>
<path d="M0 0 C4.455 2.97 4.455 2.97 9 6 C8.01 6.495 8.01 6.495 7 7 C6.01 6.67 5.02 6.34 4 6 C4 5.34 4 4.68 4 4 C2.68 3.67 1.36 3.34 0 3 C0 2.01 0 1.02 0 0 Z " fill="#1E66D3" transform="translate(303,49)"/>
<path d="M0 0 C1.32 0.33 2.64 0.66 4 1 C1.36 2.65 -1.28 4.3 -4 6 C-4 5.01 -4 4.02 -4 3 C-2.68 2.67 -1.36 2.34 0 2 C0 1.34 0 0.68 0 0 Z " fill="#2A72E1" transform="translate(352,381)"/>
<path d="M0 0 C0.33 0.66 0.66 1.32 1 2 C-0.75 4.0625 -0.75 4.0625 -3 6 C-4.32 5.67 -5.64 5.34 -7 5 C-4.69 3.35 -2.38 1.7 0 0 Z " fill="#226CD7" transform="translate(343,363)"/>
<path d="M0 0 C0.99 0 1.98 0 3 0 C3.05395478 1.62463842 3.09277195 3.24978541 3.125 4.875 C3.14820313 5.77992188 3.17140625 6.68484375 3.1953125 7.6171875 C3 10 3 10 1 12 C1.020625 10.7625 1.04125 9.525 1.0625 8.25 C1.06766681 5.3359175 0.93015558 2.79046673 0 0 Z " fill="#216FE8" transform="translate(449,351)"/>
<path d="M0 0 C2.96404505 2.80804268 5.44499019 5.18315774 7 9 C3.46352496 7.32482761 2.2088437 6.50719183 0.6875 2.8125 C0.460625 1.884375 0.23375 0.95625 0 0 Z " fill="#2167CF" transform="translate(265,139)"/>
<path d="M0 0 C0 0.66 0 1.32 0 2 C-1.32 2 -2.64 2 -4 2 C-4 2.66 -4 3.32 -4 4 C-5.65 4 -7.3 4 -9 4 C-9 3.34 -9 2.68 -9 2 C-2.25 0 -2.25 0 0 0 Z " fill="#2D78E2" transform="translate(340,437)"/>
<path d="M0 0 C0.66 0.33 1.32 0.66 2 1 C-0.64 2.98 -3.28 4.96 -6 7 C-5.67 5.35 -5.34 3.7 -5 2 C-4.360625 1.855625 -3.72125 1.71125 -3.0625 1.5625 C-1.02454854 1.18992819 -1.02454854 1.18992819 0 0 Z " fill="#2269D0" transform="translate(366,314)"/>
<path d="M0 0 C-1.09068668 3.77545388 -1.9083091 6.47043472 -5 9 C-5.36666667 3.5 -5.36666667 3.5 -3.625 1.125 C-2 0 -2 0 0 0 Z " fill="#2369D5" transform="translate(295,242)"/>
<path d="M0 0 C6.875 2.75 6.875 2.75 8 5 C5.36 4.67 2.72 4.34 0 4 C0 2.68 0 1.36 0 0 Z " fill="#1A6CE2" transform="translate(385,146)"/>
<path d="M0 0 C-0.33 1.32 -0.66 2.64 -1 4 C-2.98 4 -4.96 4 -7 4 C-3.375 0 -3.375 0 0 0 Z " fill="#1862DF" transform="translate(119,119)"/>
<path d="M0 0 C0.625 1.8125 0.625 1.8125 1 4 C0.01 5.485 0.01 5.485 -1 7 C-2.32 6.67 -3.64 6.34 -5 6 C-3.35 4.02 -1.7 2.04 0 0 Z " fill="#1E69DA" transform="translate(138,102)"/>
<path d="M0 0 C1.65 0 3.3 0 5 0 C0.375 4.875 0.375 4.875 -3 6 C-3 5.34 -3 4.68 -3 4 C-2.34 3.67 -1.68 3.34 -1 3 C-0.67 2.01 -0.34 1.02 0 0 Z " fill="#2369D2" transform="translate(419,417)"/>
<path d="M0 0 C0 3.51716303 -0.82445585 4.37121748 -3 7 C-4.32 6.67 -5.64 6.34 -7 6 C-4.69 4.02 -2.38 2.04 0 0 Z " fill="#2B72E4" transform="translate(429,384)"/>
</svg>
