<?xml version="1.0" encoding="UTF-8"?>
<svg version="1.1" xmlns="http://www.w3.org/2000/svg" width="500" height="500">
<path d="M0 0 C-0.79494707 -3.40847167 -2.00208376 -6.32999121 -3.5 -9.5 C-6.42378028 -15.68753502 -7.32976554 -20.18484555 -7 -27 C-5 -29 -5 -29 -2.375 -29.5625 C3.89148313 -28.51808614 7.3801349 -24.22810238 11.0078125 -19.23828125 C16.53699434 -10.59757944 20.90885024 -1.3908777 25 8 C25.57814453 9.31677734 25.57814453 9.31677734 26.16796875 10.66015625 C28.49952983 16.69156542 28.25905669 22.60993501 28 29 C28 29.99 28 30.98 28 32 C28.99 31.67 29.98 31.34 31 31 C32.89086914 31.79760742 32.89086914 31.79760742 35.03515625 33.10546875 C36.23495117 33.82935791 36.23495117 33.82935791 37.45898438 34.56787109 C38.31814453 35.10234863 39.17730469 35.63682617 40.0625 36.1875 C40.95646484 36.73486816 41.85042969 37.28223633 42.77148438 37.84619141 C55.19045405 45.50601882 67.22210408 53.71748577 79.1875 62.0625 C79.94611328 62.59149902 80.70472656 63.12049805 81.48632812 63.66552734 C83.02296542 64.74449134 84.54795316 65.84024135 86.06069946 66.95245361 C88.25578673 68.48157354 90.40167958 69.83094221 92.70748901 71.1668396 C103.75616926 77.89465295 103.75616926 77.89465295 105.47572327 83.81144714 C106.28591147 88.22921599 106.31519444 92.65033175 106.33984375 97.12890625 C106.40181266 98.77099562 106.4701778 100.41285468 106.54457092 102.0544281 C106.72201385 106.34935442 106.81250914 110.64175813 106.88421631 114.9395752 C106.97268139 119.29432701 107.14564322 123.64564107 107.31054688 127.99804688 C107.59088846 135.75836223 107.81635567 143.51777272 107.9389801 151.28227234 C107.9766551 153.57767761 108.02727942 155.87296241 108.09898376 158.16755676 C108.11965408 159.05956284 108.1403244 159.95156891 108.16162109 160.87060547 C108.1844516 161.60979218 108.2072821 162.34897888 108.23080444 163.11056519 C107.7872927 166.74128611 105.39477848 168.36434123 102.6875 170.5625 C102.14279053 171.01882813 101.59808105 171.47515625 101.03686523 171.9453125 C99.37873887 173.32504274 97.69279391 174.66318625 96 176 C95.07960938 176.76183594 94.15921875 177.52367187 93.2109375 178.30859375 C91.4291742 179.78288462 89.63724999 181.24497207 87.8359375 182.6953125 C84.7441181 185.2079481 81.71575766 187.7866213 78.6875 190.375 C72.52153907 195.62449825 66.18568398 200.63446359 59.79248047 205.60302734 C57.33390608 207.51912141 54.88738072 209.4503157 52.44091797 211.38183594 C50.67693657 212.77158197 48.90740583 214.15396981 47.13671875 215.53515625 C45.24646683 217.02052233 43.36945951 218.52329895 41.51953125 220.05859375 C40.48892578 220.89583984 40.48892578 220.89583984 39.4375 221.75 C38.87933594 222.21921875 38.32117188 222.6884375 37.74609375 223.171875 C35.2201047 224.36988323 33.67570566 223.68072417 31 223 C29.47890734 222.37231114 27.98093337 221.68635832 26.5078125 220.953125 C25.6504248 220.52757324 24.79303711 220.10202148 23.90966797 219.66357422 C22.99072754 219.19709473 22.07178711 218.73061523 21.125 218.25 C20.15320801 217.75902832 19.18141602 217.26805664 18.18017578 216.76220703 C2.05603095 208.53306516 -13.5202292 199.37070753 -29 190 C-29.60104553 189.6367865 -30.20209106 189.273573 -30.8213501 188.89935303 C-32.54968798 187.85306473 -34.27489203 186.80160522 -36 185.75 C-36.99 185.14671875 -37.98 184.5434375 -39 183.921875 C-39.99 183.28765625 -40.98 182.6534375 -42 182 C-42.61740051 181.66364029 -43.23480103 181.32728058 -43.87091064 180.98072815 C-46.62535678 179.3352778 -48.5749199 178.07987401 -49.77575684 175.02926636 C-50.24373185 172.58414668 -50.48919521 170.19768389 -50.671875 167.71484375 C-50.76497452 166.79747437 -50.85807404 165.88010498 -50.95399475 164.93493652 C-51.25027964 161.93783382 -51.50061035 158.93883706 -51.75 155.9375 C-51.94488601 153.8676712 -52.14241794 151.79808991 -52.3425293 149.72875977 C-52.84033209 144.49301065 -53.29889547 139.25472206 -53.74285889 134.01416016 C-53.988146 131.13895034 -54.24221729 128.26469467 -54.50048828 125.390625 C-56.47518905 103.41200715 -56.47518905 103.41200715 -57 95 C-57.07951904 94.09588379 -57.15903809 93.19176758 -57.2409668 92.26025391 C-57 90 -57 90 -55.6015625 88.42944336 C-54.94929687 87.98737549 -54.29703125 87.54530762 -53.625 87.08984375 C-52.53034424 86.32679932 -52.53034424 86.32679932 -51.41357422 85.54833984 C-50.61709473 85.0167627 -49.82061523 84.48518555 -49 83.9375 C-47.33486117 82.78410441 -45.67081906 81.62912409 -44.0078125 80.47265625 C-43.16508789 79.89273926 -42.32236328 79.31282227 -41.45410156 78.71533203 C-37.85309946 76.19835623 -34.36654421 73.5405546 -30.875 70.875 C-19.55190029 62.31933361 -7.80837691 54.42175993 4.15405273 46.79077148 C8.53694013 43.98779312 12.78888727 41.05565787 17 38 C13.54032828 39.03725381 10.08244017 40.08033318 6.625 41.125 C5.58166504 41.43904785 4.53833008 41.7530957 3.46337891 42.07666016 C-2.20471227 43.79638793 -7.81686241 45.60738432 -13.39819336 47.58959961 C-21.03055453 50.28155289 -28.78707952 52.86764572 -37 52 C-40.47838454 50.3230106 -41.83129655 49.25305517 -44 46 C-44.46742122 42.41643732 -44.40014172 40.62466014 -42.43359375 37.5546875 C-39.53273792 34.50948732 -36.43133747 32.78575783 -32.6875 31 C-31.99197021 30.6589624 -31.29644043 30.3179248 -30.57983398 29.96655273 C-24.48718645 27.0606806 -18.26083886 24.89254167 -11.81640625 22.91015625 C-9.12453629 22.27633862 -9.12453629 22.27633862 -8 21 C-62.79420457 -10.85881074 -124.45973873 -19.14578676 -186.02020264 -3.53424072 C-195.84474598 -0.8831254 -205.45960725 2.61260387 -215.02514648 6.0637207 C-222.90959456 8.54520272 -222.90959456 8.54520272 -226 7 C-226.4493062 1.5474027 -226.4493062 1.5474027 -224.55078125 -0.765625 C-157.51054824 -45.22511635 -68.34731879 -35.43051613 0 0 Z " fill="#97845F" transform="translate(342,127)"/>
<path d="M0 0 C1.2572438 -0.0098568 1.2572438 -0.0098568 2.53988647 -0.01991272 C5.30719099 -0.03958138 8.07444127 -0.05129703 10.84179688 -0.0612793 C11.79185104 -0.06535482 12.74190521 -0.06943035 13.7207489 -0.07362938 C18.75426005 -0.09446767 23.78774416 -0.10877631 28.82128906 -0.11816406 C33.9912465 -0.12919411 39.16076948 -0.1635611 44.33057404 -0.20333576 C48.33032975 -0.22963059 52.3299842 -0.2378675 56.32981873 -0.24144554 C58.23378924 -0.24628217 60.13775614 -0.25781147 62.04164124 -0.27648354 C78.05436479 -0.42370377 91.70337945 0.95211994 103.93554688 12.3996582 C117.22293028 26.18968933 117.88245094 41.25684856 117.70581055 59.38623047 C117.56054688 61.17700195 117.56054688 61.17700195 116.56054688 62.17700195 C114.4745774 62.27604881 112.38519453 62.3033253 110.296875 62.3039856 C109.63519066 62.30554559 108.97350632 62.30710558 108.29177094 62.30871284 C106.05842408 62.31272466 103.82514433 62.30953251 101.59179688 62.30639648 C99.99723267 62.30775045 98.40266877 62.30953035 96.80810547 62.31170654 C92.46525309 62.3162815 88.12242435 62.31449106 83.77957153 62.31132746 C79.2449741 62.30880418 74.71037876 62.3111413 70.17578125 62.31271362 C62.55924108 62.31453541 54.94271058 62.31212876 47.32617188 62.30737305 C38.50738499 62.30193041 29.68862122 62.30369306 20.8698349 62.30919945 C13.3123225 62.31373032 5.75481709 62.31438126 -1.80269623 62.31176078 C-6.32265095 62.31019786 -10.84259479 62.31000465 -15.36254883 62.31329727 C-19.61091194 62.3161756 -23.85924512 62.314201 -28.10760498 62.30840302 C-29.67136587 62.30707521 -31.23512925 62.30746988 -32.79888916 62.30966568 C-34.92455445 62.3123764 -37.05012226 62.30899706 -39.17578125 62.3039856 C-40.36820435 62.30360857 -41.56062744 62.30323154 -42.78918457 62.30284309 C-45.43945312 62.17700195 -45.43945312 62.17700195 -46.43945312 61.17700195 C-47.7867864 44.99227711 -47.18111705 30.63878349 -37.43945312 17.17700195 C-36.84132813 16.31075195 -36.24320313 15.44450195 -35.62695312 14.55200195 C-26.17180428 4.28641178 -13.68511032 0.04690833 0 0 Z " fill="#727272" transform="translate(111.439453125,255.822998046875)"/>
<path d="M0 0 C6.90130587 5.56661935 11.39722722 11.93995063 15 20 C15.3403125 20.75539062 15.680625 21.51078125 16.03125 22.2890625 C19.85604042 32.59474779 19.72966061 46.43229468 15.3203125 56.484375 C7.94055194 70.54522056 -1.10852721 79.5309561 -16.34375 84.8125 C-28.06380209 87.86990489 -40.86002 86.34262604 -51.625 80.875 C-63.69248222 73.52957604 -72.58668433 62.81710182 -76 49 C-78.99162015 36.21762302 -76.22980577 23.72419271 -69.65234375 12.53125 C-62.59435693 1.71901487 -53.00884077 -4.89755826 -40.53125 -8.34375 C-25.79074716 -11.08313548 -12.49717147 -8.34971837 0 0 Z " fill="#727272" transform="translate(176,164)"/>
<path d="M0 0 C0.66 0 1.32 0 2 0 C2.33 1.32 2.66 2.64 3 4 C3.66 4 4.32 4 5 4 C5 4.66 5 5.32 5 6 C5.5775 6.0825 6.155 6.165 6.75 6.25 C9 7 9 7 10.625 8.75 C13.03747392 11.03550161 15.02067329 12.08460139 18 13.5 C21.73186933 15.28149091 24.16470697 16.96916952 27 20 C31.25936725 22.68182383 35.14340968 24.57855893 40 26 C40 26.66 40 27.32 40 28 C40.94875 28.0825 41.8975 28.165 42.875 28.25 C43.90625 28.4975 44.9375 28.745 46 29 C46.66666667 30.33333333 47.33333333 31.66666667 48 33 C49.75558771 34.2572994 49.75558771 34.2572994 51.8125 35.125 C52.52019531 35.45242187 53.22789062 35.77984375 53.95703125 36.1171875 C56.28841993 37.1246327 58.6217049 38.10813934 61 39 C61 39.66 61 40.32 61 41 C61.804375 41.226875 62.60875 41.45375 63.4375 41.6875 C67.19283647 43.07104501 70.41667562 44.84810471 73.8515625 46.87890625 C75.91951772 48.11531692 75.91951772 48.11531692 78.1484375 48.27734375 C78.75945312 48.51582031 79.37046875 48.75429688 80 49 C81.80327285 53.44331163 82.56458571 57.92661081 83.18359375 62.65234375 C83.28367737 63.3808403 83.38376099 64.10933685 83.48687744 64.85990906 C83.80940887 67.21837713 84.12364764 69.57786268 84.4375 71.9375 C84.65883882 73.57150908 84.88060255 75.20546065 85.1027832 76.83935547 C85.64547554 80.84203797 86.18109815 84.84562376 86.71362305 88.84967041 C87.11346701 91.85199408 87.51816342 94.85366304 87.921875 97.85546875 C89.19721006 107.42322519 90.39089296 116.99331987 91.35424805 126.59814453 C91.70776313 130.42257104 91.70776313 130.42257104 93 134 C89.51715668 133.41607775 86.66573575 132.52495429 83.5078125 130.953125 C82.6504248 130.52757324 81.79303711 130.10202148 80.90966797 129.66357422 C79.99072754 129.19709473 79.07178711 128.73061523 78.125 128.25 C77.15320801 127.75902832 76.18141602 127.26805664 75.18017578 126.76220703 C59.05603095 118.53306516 43.4797708 109.37070753 28 100 C27.39895447 99.6367865 26.79790894 99.273573 26.1786499 98.89935303 C24.45031202 97.85306473 22.72510797 96.80160522 21 95.75 C20.01 95.14671875 19.02 94.5434375 18 93.921875 C17.01 93.28765625 16.02 92.6534375 15 92 C14.07389923 91.49546043 14.07389923 91.49546043 13.12908936 90.98072815 C10.37464322 89.3352778 8.4250801 88.07987401 7.22424316 85.02926636 C6.75626815 82.58414668 6.51080479 80.19768389 6.328125 77.71484375 C6.23502548 76.79747437 6.14192596 75.88010498 6.04600525 74.93493652 C5.74972036 71.93783382 5.49938965 68.93883706 5.25 65.9375 C5.05511399 63.8676712 4.85758206 61.79808991 4.6574707 59.72875977 C4.15966791 54.49301065 3.70110453 49.25472206 3.25714111 44.01416016 C3.011854 41.13895034 2.75778271 38.26469467 2.49951172 35.390625 C-0.09423287 6.52198725 -0.09423287 6.52198725 0 0 Z " fill="#737272" transform="translate(285,217)"/>
<path d="M0 0 C-0.79494707 -3.40847167 -2.00208376 -6.32999121 -3.5 -9.5 C-6.42378028 -15.68753502 -7.32976554 -20.18484555 -7 -27 C-5 -29 -5 -29 -2.375 -29.5625 C3.89148313 -28.51808614 7.3801349 -24.22810238 11.0078125 -19.23828125 C16.53699434 -10.59757944 20.90885024 -1.3908777 25 8 C25.57814453 9.31677734 25.57814453 9.31677734 26.16796875 10.66015625 C28.82433725 17.53179495 29.2779304 25.18952871 26.9296875 32.19140625 C24.4215355 35.84193518 21.84049246 36.62096677 17.75 37.75 C16.136271 38.23679943 14.52302858 38.72521346 12.91015625 39.21484375 C11.99250488 39.4866748 11.07485352 39.75850586 10.12939453 40.03857422 C6.5198447 41.14751533 2.94601617 42.35186358 -0.62890625 43.56640625 C-2.6759956 44.25432245 -4.72367198 44.94045854 -6.77160645 45.62585449 C-8.11426873 46.07758458 -9.45554875 46.5334478 -10.79528809 46.99377441 C-32.1708166 54.30987123 -32.1708166 54.30987123 -39.74145508 50.6887207 C-42 49 -42 49 -44 46 C-44.46742122 42.41643732 -44.40014172 40.62466014 -42.43359375 37.5546875 C-39.53273792 34.50948732 -36.43133747 32.78575783 -32.6875 31 C-31.99197021 30.6589624 -31.29644043 30.3179248 -30.57983398 29.96655273 C-24.48718645 27.0606806 -18.26083886 24.89254167 -11.81640625 22.91015625 C-9.12453629 22.27633862 -9.12453629 22.27633862 -8 21 C-62.79420457 -10.85881074 -124.45973873 -19.14578676 -186.02020264 -3.53424072 C-195.84474598 -0.8831254 -205.45960725 2.61260387 -215.02514648 6.0637207 C-222.90959456 8.54520272 -222.90959456 8.54520272 -226 7 C-226.4493062 1.5474027 -226.4493062 1.5474027 -224.55078125 -0.765625 C-157.51054824 -45.22511635 -68.34731879 -35.43051613 0 0 Z " fill="#899CFA" transform="translate(342,127)"/>
<path d="M0 0 C1.1240625 -0.03738281 2.248125 -0.07476562 3.40625 -0.11328125 C6.5 0.3125 6.5 0.3125 8.875 2.0859375 C10.83397482 4.77010974 10.97900658 6.93003852 11.03125 10.21484375 C9.94766715 14.49340252 7.25475602 16.84026752 3.609375 19.12109375 C2.50078125 19.65863281 1.3921875 20.19617188 0.25 20.75 C-0.34901123 21.04148926 -0.94802246 21.33297852 -1.56518555 21.63330078 C-7.68749878 24.53984558 -14.01802651 26.8687339 -20.39453125 29.1484375 C-23.32985649 30.00438035 -23.32985649 30.00438035 -24.5 31.3125 C29.24156426 61.36278091 90.76526451 68.85384087 150.30834961 52.73999023 C162.33032653 49.33201004 174.2341282 45.40312398 185.56518555 40.11157227 C188.03299497 39.09237476 189.87423783 38.75552015 192.5 39.3125 C194.5 42.3125 194.5 42.3125 194.515625 44.73828125 C193.07429559 48.39149696 190.54062292 49.66910164 187.25 51.5 C186.58814697 51.87946777 185.92629395 52.25893555 185.24438477 52.64990234 C164.01097415 64.58381373 141.56442458 73.1935132 117.5 77.3125 C115.95445435 77.57740234 115.95445435 77.57740234 114.37768555 77.84765625 C103.3128442 79.53752089 92.36117326 79.71109351 81.1875 79.6875 C80.21745026 79.68695618 79.24740051 79.68641235 78.24795532 79.68585205 C62.6651957 79.6457618 47.74861829 78.77583425 32.5 75.3125 C31.5188623 75.09287598 30.53772461 74.87325195 29.52685547 74.64697266 C8.51394535 69.81362706 -15.37658855 63.3947743 -33.5 51.3125 C-32.65115234 53.10107422 -32.65115234 53.10107422 -31.78515625 54.92578125 C-31.04418164 56.49214531 -30.30330112 58.05855388 -29.5625 59.625 C-29.00272461 60.80352539 -29.00272461 60.80352539 -28.43164062 62.00585938 C-28.07392578 62.76318359 -27.71621094 63.52050781 -27.34765625 64.30078125 C-27.01773682 64.99727783 -26.68781738 65.69377441 -26.34790039 66.41137695 C-24.31446244 70.97065749 -24.26547584 74.38749266 -24.5 79.3125 C-26.5 81.3125 -26.5 81.3125 -29.34765625 81.64453125 C-34.89766907 81.05995741 -37.8726867 77.30254463 -41.5 73.3125 C-51.37987623 60.41029877 -60.74909075 42.51346935 -61.12890625 26.13671875 C-60.26870178 22.27381295 -58.43924564 19.85755805 -55.5 17.3125 C-52.22573424 15.58821669 -48.81336219 14.43202705 -45.30859375 13.26171875 C-44.32633316 12.91744339 -43.34407257 12.57316803 -42.33204651 12.21846008 C-39.20637348 11.12785487 -36.0723534 10.06389042 -32.9375 9 C-30.82558344 8.2666664 -28.71424779 7.53165755 -26.60351562 6.79492188 C-22.74093466 5.45308667 -18.87677381 4.1164663 -15.00561523 2.79956055 C-13.84243019 2.40367989 -13.84243019 2.40367989 -12.65574646 1.99980164 C-8.34976654 0.62695604 -4.54152823 0.09895532 0 0 Z " fill="#899CFA" transform="translate(169.5,323.6875)"/>
<path d="M0 0 C6.66755829 3.97506062 13.28566355 8.02183587 19.875 12.125 C27.87960927 17.0963214 35.92987714 21.984249 44.01855469 26.81738281 C49.76358576 30.25153773 55.47289889 33.73743821 61.16796875 37.25390625 C63.91870494 38.94987739 66.67372648 40.63785797 69.4375 42.3125 C70.54931641 42.98732422 70.54931641 42.98732422 71.68359375 43.67578125 C74.40332121 45.23056643 77.18803758 46.62031772 80 48 C80.30353638 51.06241163 80.56864125 54.12024908 80.8125 57.1875 C80.90208984 58.05181641 80.99167969 58.91613281 81.08398438 59.80664062 C81.42142502 64.44200953 81.541919 66.28610009 78.63671875 70.11328125 C76 72 76 72 74 72 C74 72.66 74 73.32 74 74 C72.26608049 75.60634015 70.461909 77.1375287 68.625 78.625 C67.62726563 79.44226563 66.62953125 80.25953125 65.6015625 81.1015625 C63 83 63 83 61 83 C60.505 74.09 60.505 74.09 60 65 C58.68 64.34 57.36 63.68 56 63 C49.18757314 58.98922055 42.55016118 54.73537256 36 50.3125 C29.01913884 45.60291057 21.87998073 41.17176241 14.70922852 36.75830078 C7.41040594 32.26415841 0.17789463 27.68507901 -7 23 C-7.57169922 22.6297168 -8.14339844 22.25943359 -8.73242188 21.87792969 C-10.42916041 20.77798157 -12.1209204 19.67036551 -13.8125 18.5625 C-14.78832031 17.92441406 -15.76414062 17.28632813 -16.76953125 16.62890625 C-19 15 -19 15 -20 13 C-17.60512849 11.39438174 -15.20914587 9.79046593 -12.8125 8.1875 C-12.13896484 7.73568359 -11.46542969 7.28386719 -10.77148438 6.81835938 C-10.11083984 6.37685547 -9.45019531 5.93535156 -8.76953125 5.48046875 C-8.16729736 5.07723389 -7.56506348 4.67399902 -6.94458008 4.25854492 C-4.66268152 2.78168528 -2.33680934 1.38797657 0 0 Z " fill="#555452" transform="translate(340,178)"/>
<path d="M0 0 C0 0.33 0 0.66 0 1 C-1.98 1 -3.96 1 -6 1 C-6.33 1.66 -6.66 2.32 -7 3 C-10.5408214 4.1802738 -13.62355373 4.0238386 -17.29296875 3.87890625 C-17.99899734 3.85529526 -18.70502594 3.83168427 -19.43244934 3.80735779 C-21.68434507 3.73087055 -23.93588387 3.64678253 -26.1875 3.5625 C-27.71547741 3.50926432 -29.24347216 3.45652401 -30.77148438 3.40429688 C-34.51454835 3.27527576 -38.25731019 3.13943788 -42 3 C-42.33 2.34 -42.66 1.68 -43 1 C-42.14921875 1.01160156 -41.2984375 1.02320313 -40.421875 1.03515625 C-31.94212021 1.09830336 -23.52206662 0.84301752 -15.05566406 0.35571289 C-10.02656281 0.0718773 -5.03737725 -0.04626753 0 0 Z " fill="#8B9CE8" transform="translate(285,384)"/>
<path d="M0 0 C0.66 0.33 1.32 0.66 2 1 C2.59950448 13.33767475 3.19272088 25.64445007 3 38 C1.68 37.34 0.36 36.68 -1 36 C-0.34 35.34 0.32 34.68 1 34 C1.10448236 31.41359007 1.08977014 28.94589256 0.9765625 26.3671875 C0.95153656 25.61535187 0.92651062 24.86351624 0.90072632 24.08889771 C0.81844911 21.68381161 0.72189139 19.27953743 0.625 16.875 C0.5667682 15.24612709 0.50946475 13.6172207 0.453125 11.98828125 C0.31285922 7.99171918 0.15978257 3.99582746 0 0 Z " fill="#8F8167" transform="translate(444,206)"/>
<path d="M0 0 C0.66 0.66 1.32 1.32 2 2 C1.21625 2.268125 0.4325 2.53625 -0.375 2.8125 C-3.28114923 3.84814432 -3.28114923 3.84814432 -5 7 C-6.32 7 -7.64 7 -9 7 C-9.33 7.99 -9.66 8.98 -10 10 C-11.98 10.33 -13.96 10.66 -16 11 C-16 11.66 -16 12.32 -16 13 C-17.65 13.33 -19.3 13.66 -21 14 C-17.38695109 9.84305126 -12.97183361 7.44371602 -8.25 4.75 C-7.45722656 4.29109375 -6.66445313 3.8321875 -5.84765625 3.359375 C-3.90159595 2.23394254 -1.95240104 1.11438416 0 0 Z " fill="#908470" transform="translate(372,158)"/>
<path d="M0 0 C0.66 0.33 1.32 0.66 2 1 C1.67 1.66 1.34 2.32 1 3 C0.34 3 -0.32 3 -1 3 C-1.25910156 3.59296875 -1.51820313 4.1859375 -1.78515625 4.796875 C-3.08744471 7.15858141 -4.39298478 8.50886446 -6.4375 10.25 C-7.03433594 10.77078125 -7.63117188 11.2915625 -8.24609375 11.828125 C-10 13 -10 13 -13 13 C-13.33 13.99 -13.66 14.98 -14 16 C-15.32 15.67 -16.64 15.34 -18 15 C-16.58680023 13.87064804 -15.16928595 12.74669374 -13.75 11.625 C-12.96109375 10.99851562 -12.1721875 10.37203125 -11.359375 9.7265625 C-9.28818811 8.21089263 -7.32930503 7.05780366 -5 6 C-5 5.34 -5 4.68 -5 4 C-3.37373596 2.61767557 -1.7074998 1.28062485 0 0 Z " fill="#8E8066" transform="translate(419,246)"/>
<path d="M0 0 C0.99 0 1.98 0 3 0 C3 0.66 3 1.32 3 2 C0.58570231 2.84080019 -1.83103993 3.67281402 -4.25 4.5 C-5.27287109 4.85771484 -5.27287109 4.85771484 -6.31640625 5.22265625 C-9.76413003 6.39421287 -12.31702904 7 -16 7 C-16 6.34 -16 5.68 -16 5 C-14.02 5 -12.04 5 -10 5 C-10 4.34 -10 3.68 -10 3 C-9.04287109 2.80083984 -9.04287109 2.80083984 -8.06640625 2.59765625 C-7.24011719 2.42105469 -6.41382813 2.24445313 -5.5625 2.0625 C-4.32693359 1.80146484 -4.32693359 1.80146484 -3.06640625 1.53515625 C-1.02338796 1.19247006 -1.02338796 1.19247006 0 0 Z " fill="#9AA3DF" transform="translate(364,160)"/>
<path d="M0 0 C0.33 0 0.66 0 1 0 C1 3.3 1 6.6 1 10 C4.02419525 9.41196203 7.01758453 8.77321882 10 8 C6.48487252 11.91685634 5.37985925 12.92402815 0 14 C0 9.38 0 4.76 0 0 Z " fill="#8F8369" transform="translate(376,336)"/>
<path d="M0 0 C0.94875 0.04125 1.8975 0.0825 2.875 0.125 C1.555 0.455 0.235 0.785 -1.125 1.125 C-1.125 2.115 -1.125 3.105 -1.125 4.125 C-1.785 4.125 -2.445 4.125 -3.125 4.125 C-3.125 7.425 -3.125 10.725 -3.125 14.125 C-5.50150833 9.37198333 -5.46046255 7.32466951 -5.125 2.125 C-3.125 0.125 -3.125 0.125 0 0 Z " fill="#929CE8" transform="translate(340.125,97.875)"/>
<path d="M0 0 C1.32 0.66 2.64 1.32 4 2 C3.979375 3.11375 3.95875 4.2275 3.9375 5.375 C3.73619282 8.83215921 3.73619282 8.83215921 5 11 C1.63408134 9.55746343 -0.51047079 7.66735273 -3 5 C-2.67 4.34 -2.34 3.68 -2 3 C0 4 0 4 1 5 C0.67 3.35 0.34 1.7 0 0 Z " fill="#8E9DF0" transform="translate(131,392)"/>
<path d="M0 0 C4.77923358 0.57930104 8.02129144 2.39853671 12 5 C12.33 5.99 12.66 6.98 13 8 C8.27626146 6.37621488 4.05818166 3.89006982 0 1 C0 0.67 0 0.34 0 0 Z " fill="#8E8068" transform="translate(368,195)"/>
<path d="M0 0 C4.77609498 1.64178265 8.79382904 4.26546702 13 7 C10 8 10 8 7.375 7.1875 C5 6 5 6 4 4 C1.97536745 3.34786708 1.97536745 3.34786708 0 3 C0 2.01 0 1.02 0 0 Z " fill="#5E574B" transform="translate(348,184)"/>
<path d="M0 0 C2.475 0.495 2.475 0.495 5 1 C5 1.66 5 2.32 5 3 C7.97 3.495 7.97 3.495 11 4 C11.33 4.99 11.66 5.98 12 7 C4.61538462 5.64615385 4.61538462 5.64615385 1.5 2.375 C1.005 1.59125 0.51 0.8075 0 0 Z " fill="#857A6A" transform="translate(320,242)"/>
<path d="M0 0 C3.16115776 1.36983503 3.9927092 1.9890638 6 5 C8.05003955 6.19232613 8.05003955 6.19232613 10 7 C9.67 7.66 9.34 8.32 9 9 C7.491987 8.07544441 5.99375083 7.1349253 4.5 6.1875 C3.6646875 5.66542969 2.829375 5.14335937 1.96875 4.60546875 C0.99421875 3.81076172 0.99421875 3.81076172 0 3 C0 2.01 0 1.02 0 0 Z " fill="#8F8065" transform="translate(395,209)"/>
<path d="M0 0 C0.33 0.66 0.66 1.32 1 2 C0.67 2.66 0.34 3.32 0 4 C-0.66 4 -1.32 4 -2 4 C-1.67 5.65 -1.34 7.3 -1 9 C-2.9375 8.1875 -2.9375 8.1875 -5 7 C-5.33 6.01 -5.66 5.02 -6 4 C-4.02 2.68 -2.04 1.36 0 0 Z " fill="#8C7E69" transform="translate(347,173)"/>
<path d="M0 0 C10.55808656 0.96355353 10.55808656 0.96355353 15 2 C15 2.33 15 2.66 15 3 C10.38 3 5.76 3 1 3 C0.67 2.01 0.34 1.02 0 0 Z " fill="#8E9AE9" transform="translate(260,100)"/>
<path d="M0 0 C4.12751449 0.60698743 7.3321148 2.03810791 11 4 C11 4.66 11 5.32 11 6 C6.14922412 4.88059018 3.222107 3.8665284 0 0 Z " fill="#8B8169" transform="translate(332,249)"/>
<path d="M0 0 C1.31571603 0.2547514 2.62760376 0.52934141 3.9375 0.8125 C4.66839844 0.96332031 5.39929688 1.11414063 6.15234375 1.26953125 C6.76207031 1.51058594 7.37179687 1.75164062 8 2 C8.33 2.99 8.66 3.98 9 5 C9.99 5.33 10.98 5.66 12 6 C11.67 6.66 11.34 7.32 11 8 C9.53686228 7.23832543 8.07963339 6.46529293 6.625 5.6875 C5.81289063 5.25824219 5.00078125 4.82898438 4.1640625 4.38671875 C2 3 2 3 0 0 Z " fill="#887E69" transform="translate(308,234)"/>
<path d="M0 0 C4.77609498 1.64178265 8.79382904 4.26546702 13 7 C10 8 10 8 7.51953125 6.85546875 C6.62621094 6.30503906 5.73289062 5.75460938 4.8125 5.1875 C3.91144531 4.64480469 3.01039063 4.10210937 2.08203125 3.54296875 C1.39496094 3.03378906 0.70789063 2.52460938 0 2 C0 1.34 0 0.68 0 0 Z " fill="#8D8165" transform="translate(388,168)"/>
<path d="M0 0 C5.94 1.485 5.94 1.485 12 3 C12 3.33 12 3.66 12 4 C9.03 4 6.06 4 3 4 C3 3.34 3 2.68 3 2 C2.01 1.67 1.02 1.34 0 1 C0 0.67 0 0.34 0 0 Z " fill="#8C9CEB" transform="translate(285,105)"/>
<path d="M0 0 C0.33 0.66 0.66 1.32 1 2 C4.3 1.67 7.6 1.34 11 1 C6.60171741 3.1991413 3.81449408 3.51855059 -1 4 C-1 1 -1 1 0 0 Z " fill="#919EEC" transform="translate(294,395)"/>
<path d="M0 0 C3.91211733 1.15585285 6.8745041 2.35534962 10 5 C9.67 5.66 9.34 6.32 9 7 C7.02 6.01 5.04 5.02 3 4 C3 3.34 3 2.68 3 2 C2.01 1.67 1.02 1.34 0 1 C0 0.67 0 0.34 0 0 Z " fill="#8B8069" transform="translate(294,224)"/>
<path d="M0 0 C2.91517292 1.07401108 4.77810176 1.77810176 7 4 C3.67465243 5.10844919 1.37817425 4.84454356 -2 4 C-1.34 2.68 -0.68 1.36 0 0 Z " fill="#8E8066" transform="translate(319,192)"/>
<path d="M0 0 C3.02990095 1.71967351 5.76327296 3.29238306 8 6 C8 6.66 8 7.32 8 8 C6.68 8 5.36 8 4 8 C3.71125 7.195625 3.4225 6.39125 3.125 5.5625 C2.26737432 2.8673532 2.26737432 2.8673532 0 2 C0 1.34 0 0.68 0 0 Z " fill="#8F9DE9" transform="translate(343,99)"/>
<path d="M0 0 C1.98 0 3.96 0 6 0 C3.6870518 2.3129482 2.52095125 2.49580975 -0.625 3.125 C-1.44226563 3.29257813 -2.25953125 3.46015625 -3.1015625 3.6328125 C-4.04128906 3.81457031 -4.04128906 3.81457031 -5 4 C-4.67 3.01 -4.34 2.02 -4 1 C-2.02 1.495 -2.02 1.495 0 2 C0 1.34 0 0.68 0 0 Z " fill="#919EE9" transform="translate(330,171)"/>
<path d="M0 0 C0 0.99 0 1.98 0 3 C-3 5.1875 -3 5.1875 -6 7 C-5.8125 4.625 -5.8125 4.625 -5 2 C-2.4375 0.6875 -2.4375 0.6875 0 0 Z " fill="#8C9DE7" transform="translate(178,336)"/>
<path d="M0 0 C6.875 3.75 6.875 3.75 8 6 C5.69 5.34 3.38 4.68 1 4 C0.67 2.68 0.34 1.36 0 0 Z " fill="#8F8166" transform="translate(384,233)"/>
<path d="M0 0 C0.33 0 0.66 0 1 0 C1.08096803 1.45742463 1.13917774 2.91612807 1.1875 4.375 C1.22230469 5.18710937 1.25710938 5.99921875 1.29296875 6.8359375 C1.19628906 7.55007813 1.09960938 8.26421875 1 9 C0.01 9.66 -0.98 10.32 -2 11 C-2.66 10.34 -3.32 9.68 -4 9 C-3.525625 8.62875 -3.05125 8.2575 -2.5625 7.875 C-0.47794198 5.37353038 -0.35378509 3.18406582 0 0 Z " fill="#8F8065" transform="translate(449,283)"/>
<path d="M0 0 C3.99500618 1.3697164 6.80009492 3.25722422 10 6 C5.96825194 5.72510809 4.43105369 5.46508424 1.625 2.4375 C0.820625 1.2309375 0.820625 1.2309375 0 0 Z " fill="#8B7E65" transform="translate(378,162)"/>
<path d="M0 0 C3.375 0.3125 3.375 0.3125 7 1 C7.66 1.99 8.32 2.98 9 4 C5.17902761 3.46930939 2.93828597 2.50298434 0 0 Z " fill="#8C8268" transform="translate(356,262)"/>
</svg>
